<svg xmlns="http://www.w3.org/2000/svg" width="50.746" height="41.382" viewBox="0 0 50.746 41.382"><defs><clipPath id="a"><path fill="#fff" d="M0 0h50.746v41.382H0z" data-name="Rectangle 242"/></clipPath></defs><g clip-path="url(#a)" data-name="Group 237"><path fill="#fff" d="M0 36.708A21.219 21.219 0 0 0 15.3 32.4a10.681 10.681 0 0 1-9.726-7.26 11.477 11.477 0 0 0 4.662-.22 10.5 10.5 0 0 1-5.989-3.7 10.259 10.259 0 0 1-2.295-6.65 10.807 10.807 0 0 0 4.668 1.265A10.476 10.476 0 0 1 2.3 9.49a10.347 10.347 0 0 1 1.133-7.544 29.854 29.854 0 0 0 21.483 10.893c-.067-.681-.148-1.3-.185-1.922A10.424 10.424 0 0 1 36.887.161a10.259 10.259 0 0 1 5.526 2.82.772.772 0 0 0 .829.214 21.285 21.285 0 0 0 5.594-2.127c.142-.079.29-.15.512-.264a8.236 8.236 0 0 1-1.688 3.185c-.774.889-1.669 1.672-2.552 2.541.934-.2 1.885-.358 2.809-.611s1.814-.6 2.828-.943a14.9 14.9 0 0 1-1.193 1.571 119.44 119.44 0 0 1-3.613 3.468.909.909 0 0 0-.34.756 30.238 30.238 0 0 1-9.517 22.843 27.175 27.175 0 0 1-14.482 7.26 30.271 30.271 0 0 1-15.987-1.342A29.124 29.124 0 0 1 .23 36.889c-.051-.032-.1-.074-.23-.181" data-name="Path 271"/></g></svg>
