<svg xmlns="http://www.w3.org/2000/svg" width="45.591" height="45.585" data-name="Group 238" viewBox="0 0 45.591 45.585"><defs><clipPath id="a"><path fill="none" d="M0 0h45.591v45.585H0z" data-name="Rectangle 207"/></clipPath></defs><g fill="#fff" clip-path="url(#a)" data-name="Group 108"><path d="M0 16.024c.115-.329.221-.661.347-.985a4.731 4.731 0 0 1 4.333-3.018c4.08-.015 8.159-.023 12.239 0a4.777 4.777 0 0 1 .31 9.533c-.782.058-1.571.042-2.357.043q-4.918.006-9.836 0a4.809 4.809 0 0 1-4.649-2.909A7.19 7.19 0 0 0 0 17.626Z" data-name="Path 144"/><path d="M15.939 45.585c-.1-.158-.28-.138-.428-.179a4.742 4.742 0 0 1-3.486-4.484q-.032-6.117 0-12.235a4.766 4.766 0 0 1 9.523-.158c.069 3.157.027 6.317.031 9.476 0 .949.021 1.9-.008 2.847a4.753 4.753 0 0 1-3.809 4.635c-.079.019-.185-.02-.221.1Z" data-name="Path 145"/><path d="M0 28.222c.164-.123.121-.321.159-.481a4.768 4.768 0 0 1 4.581-3.705c1.512-.018 3.024 0 4.536-.011.268 0 .353.06.35.342-.015 1.482 0 2.965-.01 4.447a4.791 4.791 0 0 1-9.475 1.007c-.035-.146.026-.335-.141-.442Z" data-name="Path 146"/><path d="M28.05 45.584a3.621 3.621 0 0 0-.906-.3 4.722 4.722 0 0 1-3.112-4.312c-.035-1.541-.01-3.082-.017-4.624 0-.216.01-.366.3-.36 1.629.031 3.263-.078 4.889.049a4.724 4.724 0 0 1 4.366 4.39 4.772 4.772 0 0 1-3.914 5.067c-.07.013-.151 0-.182.089Z" data-name="Path 147"/><path d="M24.022 10.759c0-1.989-.021-3.977.005-5.966a4.771 4.771 0 0 1 9.537-.245q.059 6.254 0 12.51a4.72 4.72 0 0 1-4.749 4.527 4.774 4.774 0 0 1-4.781-4.5c0-.1-.011-.208-.011-.311v-6.01" data-name="Path 148"/><path d="M34.811 33.601c-1.988 0-3.977.014-5.965 0a4.777 4.777 0 0 1-.24-9.55q6.187-.055 12.375 0a4.77 4.77 0 0 1 .15 9.526c-2.1.068-4.213.014-6.32.014Z" data-name="Path 149"/><path d="M38.907 21.596c-.949 0-1.765-.009-2.581.005-.26 0-.361-.051-.358-.339.016-1.543-.016-3.086.018-4.628a4.784 4.784 0 1 1 5.588 4.886 18.6 18.6 0 0 1-2.667.076" data-name="Path 150"/><path d="M21.579 6.796v2.449c0 .194 0 .349-.272.344-1.691-.034-3.386.089-5.072-.061A4.779 4.779 0 0 1 15.927.08a4.751 4.751 0 0 1 5.641 4.624c.023.7 0 1.395 0 2.092Z" data-name="Path 151"/></g></svg>
