<svg xmlns="http://www.w3.org/2000/svg" fill="none" viewBox="0 0 64 40"><path fill="#fff" fill-rule="evenodd" d="M41.201 39.618H3.998A3.018 3.018 0 0 1 .98 36.6v-1.2a3.018 3.018 0 0 1 3.018-3.018h37.203a3.018 3.018 0 0 1 3.018 3.018v1.2a3.018 3.018 0 0 1-3.018 3.018Zm0-16H3.998A3.018 3.018 0 0 1 .98 20.6v-1.2a3.018 3.018 0 0 1 3.018-3.018h37.203a3.018 3.018 0 0 1 3.018 3.018v1.2a3.018 3.018 0 0 1-3.018 3.018Zm0-16H3.998A3.018 3.018 0 0 1 .98 4.6V3.4A3.018 3.018 0 0 1 3.998.382h37.203A3.018 3.018 0 0 1 44.219 3.4v1.2a3.018 3.018 0 0 1-3.018 3.018Zm19.6 32h-6.003a3.018 3.018 0 0 1-3.017-3.018v-1.2a3.018 3.018 0 0 1 3.017-3.018h6.003a3.018 3.018 0 0 1 3.018 3.018v1.2a3.018 3.018 0 0 1-3.018 3.018Zm0-16h-6.003a3.018 3.018 0 0 1-3.017-3.018v-1.2a3.018 3.018 0 0 1 3.017-3.018h6.003a3.018 3.018 0 0 1 3.018 3.018v1.2a3.018 3.018 0 0 1-3.018 3.018Zm.001-16h-6.004A3.018 3.018 0 0 1 51.781 4.6V3.4A3.018 3.018 0 0 1 54.798.382h6.004A3.018 3.018 0 0 1 63.819 3.4v1.2a3.018 3.018 0 0 1-3.017 3.018Z" clip-rule="evenodd"/></svg>
