<svg width="1079" height="302" viewBox="0 0 1079 302" fill="none" xmlns="http://www.w3.org/2000/svg">
<path d="M236.938 180.626C230.742 199.215 220.208 215.326 206.885 227.719C190.775 237.014 172.185 241.971 152.047 241.971C132.528 241.971 113.939 237.014 97.8282 228.029C84.196 215.636 73.3522 199.215 67.1558 180.316C60.9594 161.727 60.3397 142.518 63.7478 124.548C71.4933 107.818 83.5764 92.3269 99.6871 80.8635C115.488 69.4001 133.458 62.584 151.737 60.4153C170.017 62.584 188.296 69.4001 204.407 80.8635C220.208 92.3269 232.291 107.508 240.036 123.929C243.754 142.518 243.135 161.727 236.938 180.626Z" fill="white"/>
<path d="M215.87 65.0625C198.83 65.3723 186.747 63.8232 152.047 63.2035C134.387 62.8937 117.037 71.8786 101.546 83.0321C85.7452 94.1857 74.2818 109.057 66.5363 125.478C63.7479 102.551 73.0425 81.483 88.2238 65.3723C101.546 51.1205 120.755 25.0955 152.047 25.0955C183.339 25.0955 202.858 50.8107 215.87 65.0625Z" fill="#FFC8DC"/>
<path d="M99.6872 226.17C77.38 219.664 59.7202 206.651 48.8764 187.442C39.2719 170.402 20.6826 145.926 30.2871 114.324C39.8916 82.7223 70.564 74.0473 87.914 65.6821C73.0425 81.7929 70.2541 106.269 66.5363 125.788C63.1282 143.138 64.0577 162.037 69.9443 180.006C75.8309 198.286 86.3648 213.777 99.6872 226.17Z" fill="#FFA6B2"/>
<path d="M205.336 225.55C195.112 244.14 174.044 257.772 152.667 261.799C133.458 265.517 103.095 273.882 77.3799 256.532C51.6647 239.182 51.3549 206.341 48.8763 187.132C59.7201 206.341 82.0273 216.256 99.6871 225.86C115.178 234.535 133.148 239.492 152.357 239.492C171.566 239.802 189.845 234.535 205.336 225.55Z" fill="#A3BEDC"/>
<path d="M255.837 186.512C253.669 206.031 251.19 237.633 227.953 256.222C204.717 274.812 171.876 265.517 152.977 261.799C174.664 257.462 191.085 239.182 205.646 225.55C218.659 213.467 228.883 197.976 234.769 179.696C240.656 161.417 241.586 142.518 237.868 124.858C250.57 138.18 258.316 164.825 255.837 186.512Z" fill="#98E1D0"/>
<path d="M255.837 186.513C258.316 164.515 246.233 143.138 237.868 124.858C230.432 108.748 218.659 94.1859 203.478 83.0323C187.677 71.5689 170.017 65.0627 152.357 63.2037C172.186 60.7252 196.352 55.768 216.18 65.0627C233.84 73.118 264.822 85.5109 274.117 113.085C283.412 140.659 265.132 169.473 255.837 186.513Z" fill="#EAD69F"/>
<path d="M77.38 256.842C50.4255 244.449 21.3022 227.409 12.3174 199.215C3.02273 171.331 16.0352 139.729 30.5969 113.704C29.9772 118.352 29.6674 123.309 29.6674 128.266C29.6674 149.953 39.5817 170.092 49.1862 187.132C51.6647 206.341 55.3826 227.719 67.7755 245.069C70.5639 249.406 73.9719 253.124 77.38 256.842Z" fill="#A398D6"/>
<path d="M227.954 256.532C207.815 278.53 182.41 300.837 152.977 300.837C123.544 300.837 97.8284 278.84 77.6899 256.842C82.0274 258.701 86.6748 260.56 91.3221 262.109C112.08 268.925 133.768 265.827 152.977 262.109C171.876 265.827 193.563 268.616 214.012 262.109C218.659 260.25 223.306 258.701 227.954 256.532Z" fill="#56B7B5"/>
<path d="M292.706 198.286C283.722 226.479 254.908 243.83 227.954 256.532C231.052 253.124 234.46 249.406 237.248 245.379C249.951 227.719 253.669 206.341 256.147 186.822C265.442 169.782 275.047 150.263 275.047 128.576C275.047 123.309 274.737 118.352 274.117 113.395C288.369 139.11 301.691 170.402 292.706 198.286Z" fill="#80C187"/>
<path d="M152.047 25.0955C147.4 26.0249 142.753 27.2642 138.105 28.8133C117.347 35.6294 101.546 51.1205 88.2239 65.3723C70.5641 73.7375 51.3551 83.6518 38.6524 101.002C35.5542 105.029 32.7658 109.367 30.2872 114.014C33.6953 84.2714 41.4408 51.7401 65.2971 34.3901C89.1534 17.0401 122.614 19.5187 152.047 25.0955Z" fill="#FF7A7F"/>
<path d="M273.807 113.085C271.329 109.057 268.85 104.72 266.062 101.002C253.359 83.342 233.84 73.1179 215.87 65.0625C202.548 50.8107 187.057 35.6295 166.609 28.8134C161.652 27.2643 156.694 26.025 151.737 25.0955C180.861 19.2089 214.631 16.4205 238.487 33.7705C262.344 51.1206 270.089 83.6518 273.807 113.085Z" fill="#FFB985"/>
<path d="M30.2871 114.014C16.0353 140.039 6.43085 170.402 12.0076 199.525C-1.3147 171.331 -4.10309 138.18 6.43085 106.269C16.655 74.667 38.3425 49.5714 65.297 34.3901C43.6095 54.2187 34.005 84.2714 30.2871 114.014Z" fill="#825282"/>
<path d="M152.667 300.837C121.685 304.555 89.4631 297.119 62.1988 277.6C35.2443 258.082 18.2041 229.888 12.0077 199.525C24.4006 226.17 50.1158 244.45 77.0703 257.152C97.8283 278.53 123.544 297.429 152.667 300.837Z" fill="#8075B3"/>
<path d="M292.706 198.286C286.819 228.958 269.779 257.462 242.515 277.29C215.56 296.809 183.649 304.245 152.667 300.837C181.79 297.119 207.505 278.22 227.643 256.532C254.908 243.83 280.313 225.24 292.706 198.286Z" fill="#2E9C86"/>
<path d="M292.706 198.286C298.283 169.473 288.679 139.11 274.117 113.085C270.399 83.6519 260.485 53.5992 238.797 33.7706C266.062 48.9519 287.749 74.0475 298.283 105.959C308.197 137.561 305.719 170.402 292.706 198.286Z" fill="#549458"/>
<path d="M238.487 33.7706C212.772 19.5188 180.86 19.2089 151.737 25.0956C122.614 19.5188 90.7023 19.8286 64.9871 34.3902C87.6041 13.0125 118.276 0 152.047 0C185.508 0 215.87 12.7027 238.487 33.7706Z" fill="#FF9852"/>
<path d="M364.275 205.039V96.0043H376.358V205.039H364.275Z" fill="white"/>
<path d="M413.227 205.039H401.454V126.189H413.227V131.733C421.902 127.113 429.957 124.649 437.703 124.649C448.237 124.649 455.363 127.421 459.08 133.273C462.798 138.817 464.657 148.981 464.657 163.458V205.039H452.884V163.766C452.884 152.986 451.645 145.285 449.786 141.281C447.617 137.277 442.97 135.121 435.844 135.121C432.436 135.121 429.028 135.737 425 136.661C421.282 137.585 418.494 138.509 416.325 139.433L413.227 140.973V205.039Z" fill="white"/>
<path d="M526.932 136.661H501.836V174.238C501.836 183.171 502.456 189.331 503.695 192.103C504.934 194.875 508.032 196.415 512.99 196.415L526.932 195.491L527.861 205.347C520.735 206.579 515.468 207.195 511.75 207.195C503.385 207.195 497.808 205.347 494.71 201.343C491.612 197.339 490.063 189.639 490.063 178.551V136.661H478.909V126.497H490.063V102.473H501.836V126.497H526.932V136.661Z" fill="white"/>
<path d="M595.402 195.183L600.049 194.567L600.359 203.807C588.276 205.347 578.052 206.271 569.377 206.271C557.914 206.271 549.858 202.883 545.211 196.415C540.563 189.947 538.085 179.782 538.085 165.922C538.085 138.201 549.239 124.649 571.236 124.649C581.77 124.649 589.825 127.729 595.092 133.581C600.359 139.433 603.148 148.981 603.148 161.61L602.528 170.542H550.168C550.168 179.166 551.717 185.634 554.815 189.947C557.914 194.259 563.49 196.107 571.236 196.107C579.291 196.107 587.347 195.799 595.402 195.183ZM591.064 160.994C591.064 151.446 589.515 144.669 586.417 140.665C583.319 136.661 578.362 134.813 571.236 134.813C564.11 134.813 558.843 136.969 555.435 140.973C552.027 145.285 550.168 151.754 549.858 160.994H591.064Z" fill="white"/>
<path d="M621.427 205.039V126.189H633.2V136.969C642.495 130.809 652.099 126.497 662.323 124.649V136.661C657.986 137.585 653.338 138.817 648.381 140.665C643.424 142.513 640.016 144.053 637.228 145.285L633.2 147.441V205.347H621.427V205.039Z" fill="white"/>
<path d="M677.195 205.039V92H688.968V205.039H677.195Z" fill="white"/>
<path d="M766.734 195.183L771.381 194.567L771.691 203.807C759.608 205.347 749.384 206.271 740.709 206.271C729.245 206.271 721.19 202.883 716.542 196.415C711.895 189.947 709.417 179.782 709.417 165.922C709.417 138.201 720.57 124.649 742.567 124.649C753.101 124.649 761.157 127.729 766.424 133.581C771.691 139.433 774.479 148.981 774.479 161.61L773.859 170.542H721.5C721.5 179.166 723.049 185.634 726.147 189.947C729.245 194.259 734.822 196.107 742.567 196.107C750.623 196.107 758.678 195.799 766.734 195.183ZM762.396 160.994C762.396 151.446 760.847 144.669 757.749 140.665C754.651 136.661 749.693 134.813 742.567 134.813C735.442 134.813 730.175 136.969 726.767 140.973C723.359 145.285 721.5 151.754 721.19 160.994H762.396Z" fill="white"/>
<path d="M853.484 92V205.039H841.71V199.803C833.655 204.423 825.6 206.579 817.544 206.579C813.207 206.579 809.489 205.963 806.391 205.039C803.293 204.115 800.194 201.959 797.406 199.495C791.829 193.951 788.731 183.478 788.731 168.078C788.731 152.678 791.21 141.897 796.477 135.121C801.743 128.345 810.109 124.957 821.882 124.957C828.078 124.957 834.585 125.573 841.401 127.113V92H853.484ZM812.587 194.875C814.446 195.491 816.925 196.107 820.023 196.107C823.121 196.107 826.529 195.491 830.247 194.567C833.965 193.643 837.063 192.719 838.922 191.795L842.02 190.255V136.969C835.204 135.737 829.008 135.121 823.121 135.121C815.066 135.121 809.489 137.585 806.391 142.821C803.293 148.057 801.744 155.758 801.744 166.538C801.744 178.858 803.602 186.867 807.32 191.179C808.869 193.027 810.419 194.259 812.587 194.875Z" fill="white"/>
<path d="M907.083 242C894.38 242 885.705 240.152 880.438 236.764C875.481 233.376 873.002 227.216 873.002 217.975C873.002 213.663 873.932 210.275 875.791 207.503C877.65 204.731 881.058 201.959 885.395 198.571C882.297 196.723 881.057 193.027 881.057 187.79C881.057 185.942 882.297 182.554 885.085 177.934L886.634 175.47C878.269 171.774 874.241 163.766 874.241 151.754C874.241 133.889 884.156 124.957 903.984 124.957C908.942 124.957 913.899 125.573 917.926 126.497L920.405 127.113L943.951 126.497V136.661L928.77 136.353C932.178 139.741 934.037 144.977 934.037 152.062C934.037 161.918 931.558 168.694 926.601 172.698C921.644 176.702 913.899 178.55 903.365 178.55C900.576 178.55 897.788 178.242 895.619 177.934C893.76 182.554 892.831 185.634 892.831 186.866C892.831 190.255 893.76 192.103 895.929 193.027C897.788 193.951 903.984 194.259 914.208 194.259C924.433 194.259 931.558 195.799 936.206 198.879C940.853 201.959 942.712 208.119 942.712 217.359C942.402 233.684 930.629 242 907.083 242ZM884.775 217.359C884.775 222.903 886.324 226.908 889.423 229.064C892.521 231.22 898.408 232.144 906.773 232.144C915.138 232.144 921.334 230.912 924.742 228.756C928.15 226.6 930.319 222.595 930.319 217.051C930.319 211.507 929.08 208.119 926.291 206.579C923.503 205.039 918.546 204.115 910.8 204.115L893.76 203.191C890.352 205.655 887.874 207.811 886.634 209.659C885.395 212.123 884.775 214.279 884.775 217.359ZM886.015 151.754C886.015 157.914 887.564 162.226 890.352 164.998C893.141 167.77 897.788 169.002 904.294 169.002C910.8 169.002 915.448 167.77 917.926 164.998C920.715 162.226 921.954 157.914 921.954 151.754C921.954 145.593 920.715 140.973 917.926 138.509C915.138 135.737 910.491 134.505 904.294 134.505C897.788 134.505 893.141 135.737 890.352 138.509C887.254 140.973 886.015 145.593 886.015 151.754Z" fill="white"/>
<path d="M1011.8 195.183L1016.45 194.567L1016.76 203.807C1004.68 205.347 994.452 206.271 985.777 206.271C974.314 206.271 966.259 202.883 961.611 196.415C956.964 189.947 954.485 179.782 954.485 165.922C954.485 138.201 965.639 124.649 987.636 124.649C998.17 124.649 1006.23 127.729 1011.49 133.581C1016.76 139.433 1019.55 148.981 1019.55 161.61L1018.93 170.542H966.568C966.568 179.166 968.117 185.634 971.216 189.947C974.314 194.259 979.891 196.107 987.636 196.107C995.692 196.107 1003.75 195.799 1011.8 195.183ZM1007.46 160.994C1007.46 151.446 1005.92 144.669 1002.82 140.665C999.719 136.661 994.762 134.813 987.636 134.813C980.51 134.813 975.243 136.969 971.835 140.973C968.427 145.285 966.568 151.754 966.259 160.994H1007.46Z" fill="white"/>
<path d="M1037.83 205.039V126.189H1049.6V136.969C1058.9 130.809 1068.5 126.497 1078.72 124.649V136.661C1074.39 137.585 1069.74 138.817 1064.78 140.665C1059.83 142.513 1056.42 144.053 1053.63 145.285L1049.6 147.441V205.347H1037.83V205.039Z" fill="white"/>
</svg>
