<svg xmlns="http://www.w3.org/2000/svg" width="592" height="271" fill="none" viewBox="0 0 592 271"><path fill="url(#a)" d="m571.39 215.83-557.85-.51c-7.49 0-13.55-6.08-13.54-13.57L.17 13.54C.17 6.05 6.25-.01 13.74 0l557.85.51c7.49 0 13.55 6.08 13.54 13.57l-.17 188.21c0 7.49-6.08 13.55-13.57 13.54Z"/><path fill="url(#b)" d="m497.871 10.185-14.92-.033a6.11 6.11 0 0 0-6.124 6.096l-.034 14.92a6.11 6.11 0 0 0 6.097 6.124l14.919.033a6.11 6.11 0 0 0 6.124-6.096l.034-14.92a6.11 6.11 0 0 0-6.096-6.124Z"/><path fill="url(#c)" d="M480.68 20.09c-.52 0-.94-.42-.94-.94v-5.17c.01-.52.44-.94.96-.94h4.94c.52.01.94.43.94.95s-.42.94-.94.94h-4v4.22c0 .52-.42.94-.94.94h-.02Z"/><path fill="url(#d)" d="M500.9 27.77c.52 0 .94.42.94.94v5.17c-.01.52-.44.94-.96.94h-4.94a.954.954 0 0 1-.94-.95c0-.52.42-.94.94-.94h4v-4.22c0-.52.42-.94.94-.94h.02Z"/><path fill="url(#e)" d="m34.875 9.145-14.92-.034a6.11 6.11 0 0 0-6.124 6.096l-.034 14.92a6.11 6.11 0 0 0 6.096 6.124l14.92.034a6.11 6.11 0 0 0 6.124-6.096l.034-14.92a6.11 6.11 0 0 0-6.096-6.124Z"/><path fill="url(#f)" d="M17.69 19.04c-.52 0-.94-.42-.94-.94v-5.17c.01-.52.44-.94.96-.94h4.94c.52.01.94.43.94.95s-.42.94-.94.94h-4v4.22c0 .52-.42.94-.94.94h-.02Z"/><path fill="url(#g)" d="M37.91 26.72c.52 0 .94.42.94.94v5.17c-.01.52-.44.94-.96.94h-4.94a.954.954 0 0 1-.94-.95c0-.52.42-.94.94-.94h4v-4.22c0-.52.42-.94.94-.94h.02Z"/><path fill="url(#h)" d="m226.413 9.57-14.92-.034a6.11 6.11 0 0 0-6.124 6.096l-.033 14.92a6.11 6.11 0 0 0 6.096 6.124l14.92.034a6.11 6.11 0 0 0 6.124-6.097l.033-14.92a6.11 6.11 0 0 0-6.096-6.123Z"/><path fill="url(#i)" d="M209.22 19.48c-.52 0-.94-.42-.94-.94v-5.17c.01-.52.44-.94.96-.94h4.94c.52.01.94.43.94.95s-.42.94-.94.94h-4v4.22c0 .52-.42.94-.94.94h-.02Z"/><path fill="url(#j)" d="M229.44 27.15c.52 0 .94.42.94.94v5.17c-.01.52-.44.94-.96.94h-4.94a.954.954 0 0 1-.94-.95c0-.52.42-.94.94-.94h4v-4.22c0-.52.42-.94.94-.94h.02Z"/><path fill="url(#k)" d="m257.593 9.64-14.92-.033a6.11 6.11 0 0 0-6.124 6.096l-.034 14.92a6.11 6.11 0 0 0 6.096 6.123l14.92.034a6.11 6.11 0 0 0 6.124-6.096l.034-14.92a6.11 6.11 0 0 0-6.096-6.124Z"/><path fill="url(#l)" d="M240.4 19.55c-.52 0-.94-.42-.94-.94v-5.17c.01-.52.44-.94.96-.94h4.94c.52.01.94.43.94.95s-.42.94-.94.94h-4v4.22c0 .52-.42.94-.94.94h-.02Z"/><path fill="url(#m)" d="M260.62 27.22c.52 0 .94.42.94.94v5.17c-.01.52-.44.94-.96.94h-4.94a.954.954 0 0 1-.94-.95c0-.52.42-.94.94-.94h4v-4.22c0-.52.42-.94.94-.94h.02Z"/><path fill="url(#n)" d="m288.563 9.71-14.92-.033a6.11 6.11 0 0 0-6.124 6.096l-.034 14.92a6.11 6.11 0 0 0 6.096 6.124l14.92.033a6.11 6.11 0 0 0 6.124-6.096l.034-14.92a6.11 6.11 0 0 0-6.096-6.123Z"/><path fill="url(#o)" d="M271.37 19.62c-.52 0-.94-.42-.94-.94v-5.17c.01-.52.44-.94.96-.94h4.94c.52.01.94.43.94.95s-.42.94-.94.94h-4v4.22c0 .52-.42.94-.94.94h-.02Z"/><path fill="url(#p)" d="M291.59 27.29c.52 0 .94.42.94.94v5.17c-.01.52-.44.94-.96.94h-4.94a.954.954 0 0 1-.94-.95c0-.52.42-.94.94-.94h4v-4.22c0-.52.42-.94.94-.94h.02Z"/><path fill="url(#q)" d="m319.232 9.79-14.919-.034a6.11 6.11 0 0 0-6.124 6.096l-.034 14.92a6.11 6.11 0 0 0 6.096 6.124l14.92.034a6.11 6.11 0 0 0 6.124-6.096l.034-14.92a6.11 6.11 0 0 0-6.097-6.124Z"/><path fill="url(#r)" d="M302.03 19.68c-.52 0-.94-.42-.94-.94v-5.17c.01-.52.44-.94.96-.94h4.94c.52.01.94.43.94.95s-.42.94-.94.94h-4v4.22c0 .52-.42.94-.94.94h-.02Z"/><path fill="url(#s)" d="M322.26 27.36c.52 0 .94.42.94.94v5.17c-.01.52-.44.94-.96.94h-4.94a.954.954 0 0 1-.94-.95c0-.52.42-.94.94-.94h4V28.3c0-.52.42-.94.94-.94h.02Z"/><path fill="url(#t)" d="m86.044 9.251-14.92-.034a6.11 6.11 0 0 0-6.123 6.096l-.034 14.92a6.11 6.11 0 0 0 6.096 6.124l14.92.034a6.11 6.11 0 0 0 6.124-6.096l.034-14.92a6.11 6.11 0 0 0-6.097-6.124Z"/><path fill="url(#u)" d="M68.86 19.16c-.52 0-.94-.42-.94-.94v-5.17c.01-.52.44-.94.96-.94h4.94c.52.01.94.43.94.95s-.42.94-.94.94h-4v4.22c0 .52-.42.94-.94.94h-.02Z"/><path fill="url(#v)" d="M89.08 26.84c.52 0 .94.42.94.94v5.17c-.01.52-.44.94-.96.94h-4.94a.954.954 0 0 1-.94-.95c0-.52.42-.94.94-.94h4v-4.22c0-.52.42-.94.94-.94h.02Z"/><path fill="url(#w)" d="m117.224 9.322-14.92-.034a6.11 6.11 0 0 0-6.124 6.096l-.034 14.92a6.11 6.11 0 0 0 6.097 6.124l14.919.034a6.11 6.11 0 0 0 6.124-6.096l.034-14.92a6.11 6.11 0 0 0-6.096-6.124Z"/><path fill="url(#x)" d="M100.04 19.23c-.52 0-.94-.42-.94-.94v-5.17c.01-.52.44-.94.96-.94H105c.52.01.94.43.94.95s-.42.94-.94.94h-4v4.22c0 .52-.42.94-.94.94h-.02Z"/><path fill="url(#y)" d="M120.26 26.91c.52 0 .94.42.94.94v5.17c-.01.52-.44.94-.96.94h-4.94a.954.954 0 0 1-.94-.95c0-.52.42-.94.94-.94h4v-4.22c0-.52.42-.94.94-.94h.02Z"/><path fill="#487174" d="m34.041 45.823-16.16-.037a6.11 6.11 0 0 0-6.123 6.096l-.037 16.16a6.11 6.11 0 0 0 6.096 6.124l16.16.037a6.11 6.11 0 0 0 6.124-6.096l.037-16.16a6.11 6.11 0 0 0-6.097-6.124Z"/><path fill="#3F8480" d="M15.79 56.18c-.54 0-.98-.44-.98-.99v-5.41c.01-.54.46-.98 1-.98h5.17c.54.01.98.45.98 1 0 .54-.44.98-.99.98h-4.19v4.41c0 .54-.44.98-.99.98v.01ZM36.93 64.21c.54 0 .98.44.98.99v5.41c-.01.54-.46.98-1 .98h-5.17a.999.999 0 0 1-.98-1c0-.55.44-.98.99-.98h4.19V65.2c0-.54.44-.98.99-.98v-.01Z"/><path fill="#487174" d="m66.651 45.897-16.16-.037a6.11 6.11 0 0 0-6.124 6.096l-.036 16.16a6.11 6.11 0 0 0 6.096 6.124l16.16.037a6.11 6.11 0 0 0 6.124-6.096l.036-16.16a6.11 6.11 0 0 0-6.096-6.124Z"/><path fill="#3F8480" d="M48.39 56.25c-.54 0-.98-.44-.98-.99v-5.41c.01-.54.46-.98 1-.98h5.17c.54.01.98.45.98 1 0 .54-.44.98-.99.98h-4.19v4.41c0 .54-.44.98-.99.98v.01ZM69.54 64.28c.54 0 .98.44.98.99v5.41c-.01.54-.46.98-1 .98h-5.17a.999.999 0 0 1-.98-1c0-.54.44-.98.99-.98h4.19v-4.41c0-.54.44-.98.99-.98v-.01Z"/><path fill="#487174" d="m99.65 45.972-16.159-.037a6.11 6.11 0 0 0-6.124 6.096l-.037 16.16a6.11 6.11 0 0 0 6.097 6.124l16.16.037a6.11 6.11 0 0 0 6.123-6.096l.037-16.16a6.11 6.11 0 0 0-6.096-6.124Z"/><path fill="#3F8480" d="M81.39 56.33c-.54 0-.98-.44-.98-.99v-5.41c.01-.54.46-.98 1-.98h5.17c.54.01.98.45.98 1 0 .54-.44.98-.99.98h-4.19v4.41c0 .54-.44.98-.99.98v.01ZM102.54 64.36c.54 0 .98.44.98.99v5.41c-.01.54-.46.98-1 .98h-5.17a.999.999 0 0 1-.98-1c0-.55.44-.98.99-.98h4.19v-4.41c0-.54.44-.98.99-.98v-.01Z"/><path fill="#487174" d="m132.251 46.046-16.16-.037a6.11 6.11 0 0 0-6.124 6.096l-.037 16.16a6.11 6.11 0 0 0 6.096 6.124l16.16.037a6.11 6.11 0 0 0 6.124-6.096l.037-16.16a6.11 6.11 0 0 0-6.096-6.124Z"/><path fill="#3F8480" d="M114 56.4c-.54 0-.98-.44-.98-.99V50c.01-.54.46-.98 1-.98h5.17c.54.01.98.45.98 1 0 .54-.44.98-.99.98h-4.19v4.41c0 .54-.44.98-.99.98v.01ZM135.15 64.43c.54 0 .98.44.98.99v5.41c-.01.54-.46.98-1 .98h-5.17a.999.999 0 0 1-.98-1c0-.55.44-.98.99-.98h4.19v-4.41c0-.54.44-.98.99-.98v-.01Z"/><path fill="#487174" d="m164.7 46.11-16.159-.037a6.11 6.11 0 0 0-6.124 6.096l-.037 16.16a6.11 6.11 0 0 0 6.096 6.124l16.16.037a6.11 6.11 0 0 0 6.124-6.097l.037-16.16a6.11 6.11 0 0 0-6.097-6.123Z"/><path fill="#3F8480" d="M146.45 56.47c-.54 0-.98-.44-.98-.99v-5.41c.01-.54.46-.98 1-.98h5.17c.54.01.98.45.98 1s-.44.98-.99.98h-4.19v4.41c0 .54-.44.98-.99.98v.01ZM167.59 64.51c.54 0 .98.44.98.99v5.41c-.01.54-.46.98-1 .98h-5.17a.999.999 0 0 1-.98-1c0-.54.44-.98.99-.98h4.19V65.5c0-.54.44-.98.99-.98v-.01Z"/><path fill="#487174" d="m197.31 46.194-16.16-.037a6.11 6.11 0 0 0-6.124 6.096l-.036 16.16a6.11 6.11 0 0 0 6.096 6.124l16.16.036a6.11 6.11 0 0 0 6.124-6.096l.036-16.16a6.11 6.11 0 0 0-6.096-6.123Z"/><path fill="#3F8480" d="M179.05 56.55c-.54 0-.98-.44-.98-.99v-5.41c.01-.54.46-.98 1-.98h5.17c.54.01.98.45.98 1s-.44.98-.99.98h-4.19v4.41c0 .54-.44.98-.99.98v.01ZM200.2 64.58c.54 0 .98.44.98.99v5.41c-.01.54-.46.98-1 .98h-5.17a.999.999 0 0 1-.98-1c0-.55.44-.98.99-.98h4.19v-4.41c0-.54.44-.98.99-.98v-.01Z"/><path fill="#487174" d="m230.31 46.268-16.16-.036a6.11 6.11 0 0 0-6.124 6.096l-.036 16.16a6.11 6.11 0 0 0 6.096 6.124l16.16.036a6.11 6.11 0 0 0 6.123-6.096l.037-16.16a6.11 6.11 0 0 0-6.096-6.124Z"/><path fill="#3F8480" d="M212.05 56.62c-.54 0-.98-.44-.98-.99v-5.41c.01-.54.46-.98 1-.98h5.17c.54.01.98.45.98 1 0 .54-.44.98-.99.98h-4.19v4.41c0 .54-.44.98-.99.98v.01ZM233.2 64.65c.54 0 .98.44.98.99v5.41c-.01.54-.46.98-1 .98h-5.17a.999.999 0 0 1-.98-1c0-.55.44-.98.99-.98h4.19v-4.41c0-.54.44-.98.99-.98v-.01Z"/><path fill="#487174" d="m262.91 46.332-16.16-.036a6.11 6.11 0 0 0-6.124 6.096l-.037 16.16a6.11 6.11 0 0 0 6.096 6.124l16.16.036a6.11 6.11 0 0 0 6.124-6.096l.037-16.16a6.11 6.11 0 0 0-6.096-6.124Z"/><path fill="#3F8480" d="M244.66 56.7c-.54 0-.98-.44-.98-.99V50.3c.01-.54.46-.98 1-.98h5.17c.54.01.98.45.98 1s-.44.98-.99.98h-4.19v4.41c0 .54-.44.98-.99.98v.01ZM265.81 64.73c.54 0 .98.44.98.99v5.41c-.01.54-.46.98-1 .98h-5.17a.999.999 0 0 1-.98-1c0-.54.44-.98.99-.98h4.19v-4.41c0-.54.44-.98.99-.98v-.01Z"/><path fill="#487174" d="m295.359 46.416-16.16-.037a6.11 6.11 0 0 0-6.123 6.096l-.037 16.16a6.11 6.11 0 0 0 6.096 6.124l16.16.037a6.11 6.11 0 0 0 6.124-6.096l.037-16.16a6.11 6.11 0 0 0-6.097-6.124Z"/><path fill="#3F8480" d="M277.11 56.77c-.54 0-.98-.44-.98-.99v-5.41c.01-.54.46-.98 1-.98h5.17c.54.01.98.45.98 1 0 .54-.44.98-.99.98h-4.19v4.41c0 .54-.44.98-.99.98v.01ZM298.25 64.8c.54 0 .98.44.98.99v5.41c-.01.54-.46.98-1 .98h-5.17a.999.999 0 0 1-.98-1c0-.55.44-.98.99-.98h4.19v-4.41c0-.54.44-.98.99-.98v-.01Z"/><path fill="#487174" d="m327.969 46.49-16.16-.037a6.11 6.11 0 0 0-6.124 6.096l-.036 16.16a6.11 6.11 0 0 0 6.096 6.124l16.16.037a6.11 6.11 0 0 0 6.124-6.096l.036-16.16a6.11 6.11 0 0 0-6.096-6.124Z"/><path fill="#3F8480" d="M309.71 56.84c-.54 0-.98-.44-.98-.99v-5.41c.01-.54.46-.98 1-.98h5.17c.54.01.98.45.98 1 0 .54-.44.98-.99.98h-4.19v4.41c0 .54-.44.98-.99.98v.01ZM330.86 64.87c.54 0 .98.44.98.99v5.41c-.01.54-.46.98-1 .98h-5.17a.999.999 0 0 1-.98-1c0-.55.44-.98.99-.98h4.19v-4.41c0-.54.44-.98.99-.98v-.01Z"/><path fill="#487174" d="m360.969 46.565-16.16-.037a6.11 6.11 0 0 0-6.124 6.096l-.037 16.16a6.11 6.11 0 0 0 6.097 6.124l16.16.037a6.11 6.11 0 0 0 6.123-6.096l.037-16.16a6.11 6.11 0 0 0-6.096-6.124Z"/><path fill="#3F8480" d="M342.71 56.92c-.54 0-.98-.44-.98-.99v-5.41c.01-.54.46-.98 1-.98h5.17c.54.01.98.45.98 1 0 .54-.44.98-.99.98h-4.19v4.41c0 .54-.44.98-.99.98v.01ZM363.86 64.95c.54 0 .98.44.98.99v5.41c-.01.54-.46.98-1 .98h-5.17a.999.999 0 0 1-.98-1c0-.54.44-.98.99-.98h4.19v-4.41c0-.54.44-.98.99-.98v-.01Z"/><path fill="#487174" d="m393.569 46.639-16.16-.037a6.11 6.11 0 0 0-6.124 6.096l-.037 16.16a6.11 6.11 0 0 0 6.096 6.124l16.16.037a6.11 6.11 0 0 0 6.124-6.096l.037-16.16a6.11 6.11 0 0 0-6.096-6.124Z"/><path fill="#3F8480" d="M375.32 56.99c-.54 0-.98-.44-.98-.99v-5.41c.01-.54.46-.98 1-.98h5.17c.54.01.98.45.98 1s-.44.98-.99.98h-4.19V56c0 .54-.44.98-.99.98v.01ZM396.47 65.02c.54 0 .98.44.98.99v5.41c-.01.54-.46.98-1 .98h-5.17a.999.999 0 0 1-.98-1c0-.54.44-.98.99-.98h4.19v-4.41c0-.54.44-.98.99-.98v-.01Z"/><path fill="#487174" d="m82.53 77.303-16.16-.037a6.11 6.11 0 0 0-6.124 6.096l-.037 16.16a6.11 6.11 0 0 0 6.097 6.124l16.16.037a6.11 6.11 0 0 0 6.123-6.096l.037-16.16a6.11 6.11 0 0 0-6.096-6.124Z"/><path fill="#3F8480" d="M64.27 87.66c-.54 0-.98-.44-.98-.99v-5.41c.01-.54.46-.98 1-.98h5.17c.54.01.98.45.98 1 0 .54-.44.98-.99.98h-4.19v4.41c0 .54-.44.98-.99.98v.01ZM85.42 95.69c.54 0 .98.44.98.99v5.41c-.01.54-.46.98-1 .98h-5.17a.999.999 0 0 1-.98-1c0-.55.44-.98.99-.98h4.19v-4.41c0-.54.44-.98.99-.98v-.01Z"/><path fill="#487174" d="m115.53 77.378-16.16-.037a6.11 6.11 0 0 0-6.124 6.096l-.037 16.16a6.11 6.11 0 0 0 6.096 6.124l16.16.037a6.11 6.11 0 0 0 6.124-6.096l.037-16.16a6.11 6.11 0 0 0-6.096-6.124Z"/><path fill="#3F8480" d="M97.27 87.73c-.54 0-.98-.44-.98-.99v-5.41c.01-.54.46-.98 1-.98h5.17c.54.01.98.45.98 1 0 .54-.44.98-.99.98h-4.19v4.41c0 .54-.44.98-.99.98v.01ZM118.42 95.76c.54 0 .98.44.98.99v5.41c-.01.54-.46.98-1 .98h-5.17a.999.999 0 0 1-.98-1c0-.55.44-.98.99-.98h4.19v-4.41c0-.54.44-.98.99-.98v-.01Z"/><path fill="#487174" d="m148.129 77.452-16.16-.037a6.11 6.11 0 0 0-6.123 6.096l-.037 16.16a6.11 6.11 0 0 0 6.096 6.124l16.16.037a6.111 6.111 0 0 0 6.124-6.096l.036-16.16a6.11 6.11 0 0 0-6.096-6.124Z"/><path fill="#3F8480" d="M129.88 87.81c-.54 0-.98-.44-.98-.99v-5.41c.01-.54.46-.98 1-.98h5.17c.54.01.98.45.98 1s-.44.98-.99.98h-4.19v4.41c0 .54-.44.98-.99.98v.01ZM151.03 95.84c.54 0 .98.44.98.99v5.41c-.01.54-.46.98-1 .98h-5.17a.999.999 0 0 1-.98-1c0-.54.44-.98.99-.98h4.19v-4.41c0-.54.44-.98.99-.98v-.01Z"/><path fill="#487174" d="m180.579 77.525-16.16-.036a6.11 6.11 0 0 0-6.124 6.096l-.036 16.16a6.11 6.11 0 0 0 6.096 6.124l16.16.036a6.11 6.11 0 0 0 6.124-6.096l.036-16.16a6.11 6.11 0 0 0-6.096-6.124Z"/><path fill="#3F8480" d="M162.33 87.88c-.54 0-.98-.44-.98-.99v-5.41c.01-.54.46-.98 1-.98h5.17c.54.01.98.45.98 1s-.44.98-.99.98h-4.19v4.41c0 .54-.44.98-.99.98v.01ZM183.47 95.91c.54 0 .98.44.98.99v5.41c-.01.54-.46.98-1 .98h-5.17a.999.999 0 0 1-.98-1c0-.55.44-.98.99-.98h4.19V96.9c0-.54.44-.98.99-.98v-.01Z"/><path fill="#487174" d="m213.189 77.6-16.16-.037a6.11 6.11 0 0 0-6.124 6.096l-.037 16.16a6.111 6.111 0 0 0 6.097 6.124l16.16.036a6.108 6.108 0 0 0 6.123-6.096l.037-16.16a6.11 6.11 0 0 0-6.096-6.123Z"/><path fill="#3F8480" d="M194.93 87.95c-.54 0-.98-.44-.98-.99v-5.41c.01-.54.46-.98 1-.98h5.17c.54.01.98.45.98 1 0 .54-.44.98-.99.98h-4.19v4.41c0 .54-.44.98-.99.98v.01ZM216.08 95.98c.54 0 .98.44.98.99v5.41c-.01.54-.46.98-1 .98h-5.17a.999.999 0 0 1-.98-1c0-.54.44-.98.99-.98h4.19v-4.41c0-.54.44-.98.99-.98v-.01Z"/><path fill="#487174" d="m246.189 77.674-16.16-.036a6.11 6.11 0 0 0-6.124 6.096l-.037 16.16a6.111 6.111 0 0 0 6.096 6.124l16.16.036a6.11 6.11 0 0 0 6.124-6.096l.037-16.16a6.11 6.11 0 0 0-6.096-6.124Z"/><path fill="#3F8480" d="M227.93 88.03c-.54 0-.98-.44-.98-.99v-5.41c.01-.54.46-.98 1-.98h5.17c.54.01.98.45.98 1s-.44.98-.99.98h-4.19v4.41c0 .54-.44.98-.99.98v.01ZM249.08 96.06c.54 0 .98.44.98.99v5.41c-.01.54-.46.98-1 .98h-5.17a.999.999 0 0 1-.98-1c0-.55.44-.98.99-.98h4.19v-4.41c0-.54.44-.98.99-.98v-.01Z"/><path fill="#487174" d="m278.788 77.748-16.16-.036a6.11 6.11 0 0 0-6.123 6.096l-.037 16.16a6.11 6.11 0 0 0 6.096 6.124l16.16.036a6.11 6.11 0 0 0 6.124-6.096l.037-16.16a6.11 6.11 0 0 0-6.097-6.124Z"/><path fill="#3F8480" d="M260.54 88.1c-.54 0-.98-.44-.98-.99V81.7c.01-.54.46-.98 1-.98h5.17c.54.01.98.45.98 1s-.44.98-.99.98h-4.19v4.41c0 .54-.44.98-.99.98v.01ZM281.69 96.13c.54 0 .98.44.98.99v5.41c-.01.54-.46.98-1 .98h-5.17a.999.999 0 0 1-.98-1c0-.54.44-.98.99-.98h4.19v-4.41c0-.54.44-.98.99-.98v-.01Z"/><path fill="#487174" d="m311.238 77.822-16.16-.037a6.11 6.11 0 0 0-6.124 6.096l-.036 16.16a6.109 6.109 0 0 0 6.096 6.124l16.16.037a6.11 6.11 0 0 0 6.124-6.096l.036-16.16a6.11 6.11 0 0 0-6.096-6.124Z"/><path fill="#3F8480" d="M292.99 88.17c-.54 0-.98-.44-.98-.99v-5.41c.01-.54.46-.98 1-.98h5.17c.54.01.98.45.98 1 0 .54-.44.98-.99.98h-4.19v4.41c0 .54-.44.98-.99.98v.01ZM314.13 96.2c.54 0 .98.44.98.99v5.41c-.01.54-.46.98-1 .98h-5.17a.999.999 0 0 1-.98-1c0-.55.44-.98.99-.98h4.19v-4.41c0-.54.44-.98.99-.98v-.01Z"/><path fill="#487174" d="m343.838 77.896-16.16-.037a6.11 6.11 0 0 0-6.124 6.096l-.037 16.16a6.11 6.11 0 0 0 6.096 6.124l16.16.037a6.11 6.11 0 0 0 6.124-6.096l.037-16.16a6.11 6.11 0 0 0-6.096-6.124Z"/><path fill="#3F8480" d="M325.59 88.25c-.54 0-.98-.44-.98-.99v-5.41c.01-.54.46-.98 1-.98h5.17c.54.01.98.45.98 1s-.44.98-.99.98h-4.19v4.41c0 .54-.44.98-.99.98v.01ZM346.74 96.28c.54 0 .98.44.98.99v5.41c-.01.54-.46.98-1 .98h-5.17a.999.999 0 0 1-.98-1c0-.55.44-.98.99-.98h4.19v-4.41c0-.54.44-.98.99-.98v-.01Z"/><path fill="#487174" d="m409.447 78.035-16.16-.037a6.11 6.11 0 0 0-6.123 6.096l-.037 16.16a6.11 6.11 0 0 0 6.096 6.124l16.16.037a6.11 6.11 0 0 0 6.124-6.096l.037-16.16a6.11 6.11 0 0 0-6.097-6.124Z"/><path fill="#3F8480" d="M391.2 88.39c-.54 0-.98-.44-.98-.99v-5.41c.01-.54.46-.98 1-.98h5.17c.54.01.98.45.98 1s-.44.98-.99.98h-4.19v4.41c0 .54-.44.98-.99.98v.01ZM412.35 96.42c.54 0 .98.44.98.99v5.41c-.01.54-.46.98-1 .98h-5.17a.999.999 0 0 1-.98-1c0-.54.44-.98.99-.98h4.19v-4.41c0-.54.44-.98.99-.98v-.01Z"/><path fill="#487174" d="m376.488 77.97-16.16-.037a6.11 6.11 0 0 0-6.124 6.096l-.037 16.16a6.11 6.11 0 0 0 6.096 6.124l16.16.037a6.11 6.11 0 0 0 6.124-6.096l.037-16.16a6.11 6.11 0 0 0-6.096-6.124Z"/><path fill="#3F8480" d="M358.24 88.32c-.54 0-.98-.44-.98-.99v-5.41c.01-.54.46-.98 1-.98h5.17c.54.01.98.45.98 1s-.44.98-.99.98h-4.19v4.41c0 .54-.44.98-.99.98v.01ZM379.38 96.35c.54 0 .98.44.98.99v5.41c-.01.54-.46.98-1 .98h-5.17a.999.999 0 0 1-.98-1c0-.55.44-.98.99-.98h4.19v-4.41c0-.54.44-.98.99-.98v-.01Z"/><path fill="url(#z)" d="m148.194 9.392-14.92-.034a6.11 6.11 0 0 0-6.124 6.096l-.034 14.92a6.11 6.11 0 0 0 6.096 6.124l14.92.034a6.11 6.11 0 0 0 6.124-6.096l.034-14.92a6.11 6.11 0 0 0-6.096-6.124Z"/><path fill="url(#A)" d="M131.01 19.3c-.52 0-.94-.42-.94-.94v-5.17c.01-.52.44-.94.96-.94h4.94c.52.01.94.43.94.95s-.42.94-.94.94h-4v4.22c0 .52-.42.94-.94.94h-.02Z"/><path fill="url(#B)" d="M151.23 26.98c.52 0 .94.42.94.94v5.17c-.01.52-.44.94-.96.94h-4.94a.954.954 0 0 1-.94-.95c0-.52.42-.94.94-.94h4v-4.22c0-.52.42-.94.94-.94h.02Z"/><path fill="#487174" d="m97.339 108.707-16.16-.037a6.11 6.11 0 0 0-6.124 6.096l-.037 16.16a6.11 6.11 0 0 0 6.096 6.124l16.16.036a6.11 6.11 0 0 0 6.124-6.096l.037-16.16a6.11 6.11 0 0 0-6.096-6.123Z"/><path fill="#3F8480" d="M79.09 119.06c-.54 0-.98-.44-.98-.99v-5.41c.01-.54.46-.98 1-.98h5.17c.54.01.98.45.98 1 0 .54-.44.98-.99.98h-4.19v4.41c0 .54-.44.98-.99.98v.01ZM100.24 127.09c.54 0 .98.44.98.99v5.41c-.01.54-.46.98-1 .98h-5.17a.999.999 0 0 1-.98-1c0-.54.44-.98.99-.98h4.19v-4.41c0-.54.44-.98.99-.98v-.01Z"/><path fill="#487174" d="m130.338 108.771-16.16-.036a6.11 6.11 0 0 0-6.124 6.096l-.036 16.16a6.11 6.11 0 0 0 6.096 6.124l16.16.036a6.11 6.11 0 0 0 6.124-6.096l.036-16.16a6.11 6.11 0 0 0-6.096-6.124Z"/><path fill="#3F8480" d="M112.09 119.14c-.54 0-.98-.44-.98-.99v-5.41c.01-.54.46-.98 1-.98h5.17c.54.01.98.45.98 1s-.44.98-.99.98h-4.19v4.41c0 .54-.44.98-.99.98v.01ZM133.24 127.17c.54 0 .98.44.98.99v5.41c-.01.54-.46.98-1 .98h-5.17a.999.999 0 0 1-.98-1c0-.55.44-.98.99-.98h4.19v-4.41c0-.54.44-.98.99-.98v-.01Z"/><path fill="#487174" d="m162.948 108.855-16.16-.036a6.11 6.11 0 0 0-6.124 6.096l-.036 16.16a6.11 6.11 0 0 0 6.096 6.124l16.16.036a6.11 6.11 0 0 0 6.124-6.096l.036-16.16a6.11 6.11 0 0 0-6.096-6.124Z"/><path fill="#3F8480" d="M144.7 119.21c-.54 0-.98-.44-.98-.99v-5.41c.01-.54.46-.98 1-.98h5.17c.54.01.98.45.98 1 0 .54-.44.98-.99.98h-4.19v4.41c0 .54-.44.98-.99.98v.01ZM165.84 127.24c.54 0 .98.44.98.99v5.41c-.01.54-.46.98-1 .98h-5.17a.999.999 0 0 1-.98-1c0-.55.44-.98.99-.98h4.19v-4.41c0-.54.44-.98.99-.98v-.01Z"/><path fill="#487174" d="m195.398 108.929-16.16-.037a6.11 6.11 0 0 0-6.124 6.096l-.037 16.16a6.11 6.11 0 0 0 6.097 6.124l16.16.037a6.11 6.11 0 0 0 6.123-6.096l.037-16.16a6.11 6.11 0 0 0-6.096-6.124Z"/><path fill="#3F8480" d="M177.14 119.28c-.54 0-.98-.44-.98-.99v-5.41c.01-.54.46-.98 1-.98h5.17c.54.01.98.45.98 1s-.44.98-.99.98h-4.19v4.41c0 .54-.44.98-.99.98v.01ZM198.29 127.31c.54 0 .98.44.98.99v5.41c-.01.54-.46.98-1 .98h-5.17a.999.999 0 0 1-.98-1c0-.54.44-.98.99-.98h4.19v-4.41c0-.54.44-.98.99-.98v-.01Z"/><path fill="#487174" d="m227.998 108.993-16.16-.037a6.11 6.11 0 0 0-6.124 6.096l-.037 16.16a6.11 6.11 0 0 0 6.096 6.124l16.16.037a6.11 6.11 0 0 0 6.124-6.096l.037-16.16a6.11 6.11 0 0 0-6.096-6.124Z"/><path fill="#3F8480" d="M209.75 119.35c-.54 0-.98-.44-.98-.99v-5.41c.01-.54.46-.98 1-.98h5.17c.54.01.98.45.98 1s-.44.98-.99.98h-4.19v4.41c0 .54-.44.98-.99.98v.01ZM230.89 127.38c.54 0 .98.44.98.99v5.41c-.01.54-.46.98-1 .98h-5.17a.999.999 0 0 1-.98-1c0-.55.44-.98.99-.98h4.19v-4.41c0-.54.44-.98.99-.98v-.01Z"/><path fill="#487174" d="m260.997 109.078-16.16-.037a6.11 6.11 0 0 0-6.123 6.096l-.037 16.16a6.11 6.11 0 0 0 6.096 6.124l16.16.037a6.111 6.111 0 0 0 6.124-6.096l.036-16.16a6.11 6.11 0 0 0-6.096-6.124Z"/><path fill="#3F8480" d="M242.75 119.43c-.54 0-.98-.44-.98-.99v-5.41c.01-.54.46-.98 1-.98h5.17c.54.01.98.45.98 1s-.44.98-.99.98h-4.19v4.41c0 .54-.44.98-.99.98v.01ZM263.9 127.46c.54 0 .98.44.98.99v5.41c-.01.54-.46.98-1 .98h-5.17a.999.999 0 0 1-.98-1c0-.54.44-.98.99-.98h4.19v-4.41c0-.54.44-.98.99-.98v-.01Z"/><path fill="#487174" d="m293.607 109.142-16.16-.037a6.111 6.111 0 0 0-6.124 6.096l-.036 16.16a6.11 6.11 0 0 0 6.096 6.124l16.16.037a6.111 6.111 0 0 0 6.124-6.096l.036-16.16a6.109 6.109 0 0 0-6.096-6.124Z"/><path fill="#3F8480" d="M275.36 119.5c-.54 0-.98-.44-.98-.99v-5.41c.01-.54.46-.98 1-.98h5.17c.54.01.98.45.98 1s-.44.98-.99.98h-4.19v4.41c0 .54-.44.98-.99.98v.01ZM296.5 127.53c.54 0 .98.44.98.99v5.41c-.01.54-.46.98-1 .98h-5.17a.999.999 0 0 1-.98-1c0-.54.44-.98.99-.98h4.19v-4.41c0-.54.44-.98.99-.98v-.01Z"/><path fill="#487174" d="m326.047 109.215-16.16-.036a6.11 6.11 0 0 0-6.124 6.096l-.037 16.16a6.111 6.111 0 0 0 6.097 6.124l16.16.036a6.108 6.108 0 0 0 6.123-6.096l.037-16.16a6.11 6.11 0 0 0-6.096-6.124Z"/><path fill="#3F8480" d="M307.8 119.58c-.54 0-.98-.44-.98-.99v-5.41c.01-.54.46-.98 1-.98h5.17c.54.01.98.45.98 1s-.44.98-.99.98h-4.19v4.41c0 .54-.44.98-.99.98v.01ZM328.95 127.61c.54 0 .98.44.98.99v5.41c-.01.54-.46.98-1 .98h-5.17a.999.999 0 0 1-.98-1c0-.55.44-.98.99-.98h4.19v-4.41c0-.54.44-.98.99-.98v-.01Z"/><path fill="#487174" d="m358.657 109.299-16.16-.036a6.11 6.11 0 0 0-6.124 6.096l-.037 16.16a6.111 6.111 0 0 0 6.096 6.124l16.16.036a6.11 6.11 0 0 0 6.124-6.096l.037-16.16a6.111 6.111 0 0 0-6.096-6.124Z"/><path fill="#3F8480" d="M340.41 119.65c-.54 0-.98-.44-.98-.99v-5.41c.01-.54.46-.98 1-.98h5.17c.54.01.98.45.98 1s-.44.98-.99.98h-4.19v4.41c0 .54-.44.98-.99.98v.01ZM361.55 127.68c.54 0 .98.44.98.99v5.41c-.01.54-.46.98-1 .98h-5.17a.999.999 0 0 1-.98-1c0-.55.44-.98.99-.98h4.19v-4.41c0-.54.44-.98.99-.98v-.01Z"/><path fill="#487174" d="m391.306 109.374-16.16-.037a6.11 6.11 0 0 0-6.123 6.096l-.037 16.16a6.11 6.11 0 0 0 6.096 6.124l16.16.036a6.11 6.11 0 0 0 6.124-6.096l.036-16.16a6.108 6.108 0 0 0-6.096-6.123Z"/><path fill="#3F8480" d="M373.05 119.72c-.54 0-.98-.44-.98-.99v-5.41c.01-.54.46-.98 1-.98h5.17c.54.01.98.45.98 1s-.44.98-.99.98h-4.19v4.41c0 .54-.44.98-.99.98v.01ZM394.2 127.75c.54 0 .98.44.98.99v5.41c-.01.54-.46.98-1 .98h-5.17a.999.999 0 0 1-.98-1c0-.55.44-.98.99-.98h4.19v-4.41c0-.54.44-.98.99-.98v-.01Z"/><path fill="#487174" d="m107.895 141.16-16.16-.036a6.11 6.11 0 0 0-6.124 6.096l-.037 16.16a6.11 6.11 0 0 0 6.097 6.124l16.16.036a6.108 6.108 0 0 0 6.123-6.096l.037-16.16a6.11 6.11 0 0 0-6.096-6.124Z"/><path fill="#3F8480" d="M89.65 151.52c-.54 0-.98-.44-.98-.99v-5.41c.01-.54.46-.98 1-.98h5.17c.54.01.98.45.98 1 0 .54-.44.98-.99.98h-4.19v4.41c0 .54-.44.98-.99.98v.01ZM110.8 159.55c.54 0 .98.44.98.99v5.41c-.01.54-.46.98-1 .98h-5.17a.999.999 0 0 1-.98-1c0-.55.44-.98.99-.98h4.19v-4.41c0-.54.44-.98.99-.98v-.01Z"/><path fill="#487174" d="m140.895 141.235-16.16-.036a6.11 6.11 0 0 0-6.124 6.096l-.037 16.16a6.111 6.111 0 0 0 6.096 6.124l16.16.036a6.109 6.109 0 0 0 6.124-6.096l.037-16.16a6.111 6.111 0 0 0-6.096-6.124Z"/><path fill="#3F8480" d="M122.65 151.59c-.54 0-.98-.44-.98-.99v-5.41c.01-.54.46-.98 1-.98h5.17c.54.01.98.45.98 1 0 .54-.44.98-.99.98h-4.19v4.41c0 .54-.44.98-.99.98v.01ZM143.8 159.62c.54 0 .98.44.98.99v5.41c-.01.54-.46.98-1 .98h-5.17a.999.999 0 0 1-.98-1c0-.55.44-.98.99-.98h4.19v-4.41c0-.54.44-.98.99-.98v-.01Z"/><path fill="#487174" d="m173.504 141.309-16.16-.036a6.108 6.108 0 0 0-6.123 6.096l-.037 16.16a6.11 6.11 0 0 0 6.096 6.124l16.16.036a6.11 6.11 0 0 0 6.124-6.096l.037-16.16a6.111 6.111 0 0 0-6.097-6.124Z"/><path fill="#3F8480" d="M155.26 151.66c-.54 0-.98-.44-.98-.99v-5.41c.01-.54.46-.98 1-.98h5.17c.54.01.98.45.98 1s-.44.98-.99.98h-4.19v4.41c0 .54-.44.98-.99.98v.01ZM176.4 159.69c.54 0 .98.44.98.99v5.41c-.01.54-.46.98-1 .98h-5.17a.999.999 0 0 1-.98-1c0-.54.44-.98.99-.98h4.19v-4.41c0-.54.44-.98.99-.98v-.01Z"/><path fill="#487174" d="m205.954 141.383-16.16-.037a6.111 6.111 0 0 0-6.124 6.096l-.036 16.16a6.11 6.11 0 0 0 6.096 6.124l16.16.037a6.111 6.111 0 0 0 6.124-6.096l.036-16.16a6.11 6.11 0 0 0-6.096-6.124Z"/><path fill="#3F8480" d="M187.7 151.74c-.54 0-.98-.44-.98-.99v-5.41c.01-.54.46-.98 1-.98h5.17c.54.01.98.45.98 1s-.44.98-.99.98h-4.19v4.41c0 .54-.44.98-.99.98v.01ZM208.85 159.77c.54 0 .98.44.98.99v5.41c-.01.54-.46.98-1 .98h-5.17a.999.999 0 0 1-.98-1c0-.54.44-.98.99-.98h4.19v-4.41c0-.54.44-.98.99-.98v-.01Z"/><path fill="#487174" d="m238.554 141.457-16.16-.037a6.11 6.11 0 0 0-6.124 6.096l-.037 16.16a6.11 6.11 0 0 0 6.097 6.124l16.16.037a6.11 6.11 0 0 0 6.123-6.096l.037-16.16a6.11 6.11 0 0 0-6.096-6.124Z"/><path fill="#3F8480" d="M220.31 151.81c-.54 0-.98-.44-.98-.99v-5.41c.01-.54.46-.98 1-.98h5.17c.54.01.98.45.98 1s-.44.98-.99.98h-4.19v4.41c0 .54-.44.98-.99.98v.01ZM241.46 159.84c.54 0 .98.44.98.99v5.41c-.01.54-.46.98-1 .98h-5.17a.999.999 0 0 1-.98-1c0-.55.44-.98.99-.98h4.19v-4.41c0-.54.44-.98.99-.98v-.01Z"/><path fill="#487174" d="m271.554 141.522-16.16-.037a6.11 6.11 0 0 0-6.124 6.096l-.037 16.16a6.11 6.11 0 0 0 6.096 6.124l16.16.037a6.11 6.11 0 0 0 6.124-6.096l.037-16.16a6.11 6.11 0 0 0-6.096-6.124Z"/><path fill="#3F8480" d="M253.31 151.88c-.54 0-.98-.44-.98-.99v-5.41c.01-.54.46-.98 1-.98h5.17c.54.01.98.45.98 1s-.44.98-.99.98h-4.19v4.41c0 .54-.44.98-.99.98v.01ZM274.46 159.92c.54 0 .98.44.98.99v5.41c-.01.54-.46.98-1 .98h-5.17a.999.999 0 0 1-.98-1c0-.55.44-.98.99-.98h4.19v-4.41c0-.54.44-.98.99-.98v-.01Z"/><path fill="#487174" d="m304.163 141.606-16.159-.037a6.11 6.11 0 0 0-6.124 6.096l-.037 16.16a6.11 6.11 0 0 0 6.096 6.124l16.16.037a6.11 6.11 0 0 0 6.124-6.096l.037-16.16a6.11 6.11 0 0 0-6.097-6.124Z"/><path fill="#3F8480" d="M285.92 151.96c-.54 0-.98-.44-.98-.99v-5.41c.01-.54.46-.98 1-.98h5.17c.54.01.98.45.98 1s-.44.98-.99.98h-4.19v4.41c0 .54-.44.98-.99.98v.01ZM307.06 159.99c.54 0 .98.44.98.99v5.41c-.01.54-.46.98-1 .98h-5.17a.999.999 0 0 1-.98-1c0-.55.44-.98.99-.98h4.19v-4.41c0-.54.44-.98.99-.98v-.01Z"/><path fill="#487174" d="m336.613 141.679-16.16-.036a6.11 6.11 0 0 0-6.124 6.096l-.036 16.16a6.11 6.11 0 0 0 6.096 6.124l16.16.036a6.11 6.11 0 0 0 6.124-6.096l.036-16.16a6.11 6.11 0 0 0-6.096-6.124Z"/><path fill="#3F8480" d="M318.36 152.03c-.54 0-.98-.44-.98-.99v-5.41c.01-.54.46-.98 1-.98h5.17c.54.01.98.45.98 1 0 .54-.44.98-.99.98h-4.19v4.41c0 .54-.44.98-.99.98v.01ZM339.51 160.06c.54 0 .98.44.98.99v5.41c-.01.54-.46.98-1 .98h-5.17a.999.999 0 0 1-.98-1c0-.54.44-.98.99-.98h4.19v-4.41c0-.54.44-.98.99-.98v-.01Z"/><path fill="#487174" d="m369.213 141.743-16.16-.036a6.11 6.11 0 0 0-6.124 6.096l-.036 16.16a6.11 6.11 0 0 0 6.096 6.124l16.16.036a6.11 6.11 0 0 0 6.124-6.096l.036-16.16a6.11 6.11 0 0 0-6.096-6.124Z"/><path fill="#3F8480" d="M350.97 152.1c-.54 0-.98-.44-.98-.99v-5.41c.01-.54.46-.98 1-.98h5.17c.54.01.98.45.98 1s-.44.98-.99.98h-4.19v4.41c0 .54-.44.98-.99.98v.01ZM372.11 160.13c.54 0 .98.44.98.99v5.41c-.01.54-.46.98-1 .98h-5.17a.999.999 0 0 1-.98-1c0-.55.44-.98.99-.98h4.19v-4.41c0-.54.44-.98.99-.98v-.01Z"/><path fill="url(#C)" d="m37.762 173.441-20.17-.046a6.11 6.11 0 0 0-6.124 6.097l-.046 20.169a6.11 6.11 0 0 0 6.096 6.124l20.17.046a6.11 6.11 0 0 0 6.124-6.096l.046-20.17a6.11 6.11 0 0 0-6.096-6.124Z"/><path fill="url(#D)" d="M16.07 185.25c-.62 0-1.12-.51-1.12-1.13v-6.17c.02-.62.52-1.12 1.14-1.12h5.9c.62.01 1.12.52 1.12 1.14 0 .62-.51 1.12-1.13 1.12H17.2l-.01 5.04c0 .62-.51 1.12-1.13 1.12h.01Z"/><path fill="url(#E)" d="M40.2 194.42c.62 0 1.12.51 1.12 1.13v6.17c-.02.62-.52 1.12-1.14 1.12h-5.9c-.62-.01-1.12-.52-1.12-1.14 0-.62.51-1.12 1.13-1.12h4.78l.01-5.04c0-.62.51-1.12 1.13-1.12h-.01Z"/><path fill="url(#F)" d="m76.032 173.518-20.17-.046a6.11 6.11 0 0 0-6.124 6.096l-.046 20.17a6.11 6.11 0 0 0 6.096 6.124l20.17.046a6.11 6.11 0 0 0 6.124-6.096l.046-20.17a6.11 6.11 0 0 0-6.096-6.124Z"/><path fill="url(#G)" d="M54.34 185.34c-.62 0-1.12-.51-1.12-1.13v-6.17c.02-.62.52-1.12 1.14-1.12h5.9c.62.01 1.12.52 1.12 1.14 0 .62-.51 1.12-1.13 1.12h-4.78l-.01 5.04c0 .62-.51 1.12-1.13 1.12h.01Z"/><path fill="url(#H)" d="M78.47 194.5c.62 0 1.12.51 1.12 1.13v6.17c-.02.62-.52 1.12-1.14 1.12h-5.9c-.62-.01-1.12-.52-1.12-1.14 0-.62.51-1.12 1.13-1.12h4.78l.01-5.04c0-.62.51-1.12 1.13-1.12h-.01Z"/><path fill="url(#I)" d="m114.051 173.604-20.17-.046a6.11 6.11 0 0 0-6.124 6.097l-.045 20.17a6.11 6.11 0 0 0 6.096 6.123l20.17.046a6.11 6.11 0 0 0 6.124-6.096l.045-20.17a6.11 6.11 0 0 0-6.096-6.124Z"/><path fill="url(#J)" d="M92.36 185.42c-.62 0-1.12-.51-1.12-1.13v-6.17c.02-.62.52-1.12 1.14-1.12h5.9c.62.01 1.12.52 1.12 1.14 0 .62-.51 1.12-1.13 1.12h-4.78l-.01 5.04c0 .62-.51 1.12-1.13 1.12h.01Z"/><path fill="url(#K)" d="M116.49 194.59c.62 0 1.12.51 1.12 1.13v6.17c-.02.62-.52 1.12-1.14 1.12h-5.9c-.62-.01-1.12-.52-1.12-1.14 0-.62.51-1.12 1.13-1.12h4.78l.01-5.04c0-.62.51-1.12 1.13-1.12h-.01Z"/><path fill="url(#L)" d="m310.77 174.051-179.669-.408a6.11 6.11 0 0 0-6.124 6.096l-.046 20.17a6.11 6.11 0 0 0 6.096 6.124l179.67.408a6.111 6.111 0 0 0 6.124-6.097l.045-20.17a6.108 6.108 0 0 0-6.096-6.123Z"/><path fill="url(#M)" d="M129.56 190.82c-.62 0-1.12-.51-1.12-1.13l.03-11.49c0-.62.51-1.12 1.13-1.12l11.22.03c.62 0 1.12.51 1.12 1.13 0 .62-.51 1.12-1.13 1.12l-10.09-.02-.02 10.36c0 .62-.51 1.12-1.13 1.12h-.01Z"/><path fill="url(#N)" d="M311.62 189.18c.62 0 1.12.51 1.12 1.13l-.03 11.49c0 .62-.51 1.12-1.13 1.12l-11.22-.03c-.62 0-1.12-.51-1.12-1.13 0-.62.51-1.12 1.13-1.12l10.09.02.02-10.36c0-.62.51-1.12 1.13-1.12h.01Z"/><path fill="url(#O)" d="m459.355 110.058-51.58-.117a6.11 6.11 0 0 0-6.124 6.096l-.035 15.39a6.11 6.11 0 0 0 6.096 6.124l51.58.117a6.11 6.11 0 0 0 6.124-6.096l.035-15.39a6.11 6.11 0 0 0-6.096-6.124Z"/><path fill="url(#P)" d="M406.21 123.09c-.61 0-1.11-.43-1.11-.96l.02-8.31c0-.53.5-.96 1.12-.96l9.39.02c.61 0 1.11.43 1.11.96s-.5.96-1.12.96l-8.28-.02-.02 7.35c0 .53-.5.96-1.12.96h.01Z"/><path fill="url(#Q)" d="M460.84 124.92c.61 0 1.11.43 1.11.96l-.02 8.31c0 .53-.5.96-1.12.96l-8.82-.02c-.61 0-1.11-.43-1.11-.96s.5-.96 1.12-.96l7.7.02.02-7.35c0-.53.5-.96 1.12-.96Z"/><path fill="#487174" d="m459.499 46.258-46.859-.106a6.11 6.11 0 0 0-6.124 6.096l-.04 17.5a6.11 6.11 0 0 0 6.096 6.124l46.86.106a6.11 6.11 0 0 0 6.124-6.096l.04-17.5a6.11 6.11 0 0 0-6.097-6.124Z"/><path fill="#3F8480" d="M410.73 60.31c-.57 0-1.03-.46-1.03-1.03l.02-8.94c0-.57.46-1.03 1.03-1.03l8.7.02c.57 0 1.03.46 1.03 1.03 0 .57-.46 1.03-1.03 1.03l-7.66-.02-.02 7.91c0 .57-.46 1.03-1.03 1.03h-.01ZM461.32 62.26c.57 0 1.03.46 1.03 1.03l-.02 8.94c0 .57-.46 1.03-1.03 1.03l-8.16-.02c-.57 0-1.03-.46-1.03-1.03 0-.57.46-1.03 1.03-1.03l7.13.02.02-7.91c0-.57.46-1.03 1.03-1.03Z"/><path fill="#487174" d="m459.292 141.958-73.449-.167a6.11 6.11 0 0 0-6.124 6.096l-.04 17.5a6.11 6.11 0 0 0 6.096 6.124l73.45.167a6.111 6.111 0 0 0 6.124-6.097l.04-17.499a6.11 6.11 0 0 0-6.097-6.124Z"/><path fill="#3F8480" d="M384.46 155.95c-.57 0-1.03-.46-1.03-1.03l.02-8.94c0-.57.46-1.03 1.03-1.03l8.7.02c.57 0 1.03.46 1.03 1.03 0 .57-.46 1.03-1.03 1.03l-7.66-.02-.02 7.91c0 .57-.46 1.03-1.03 1.03h-.01ZM461.1 157.96c.57 0 1.03.46 1.03 1.03l-.02 8.94c0 .57-.46 1.03-1.03 1.03l-8.16-.02c-.57 0-1.03-.46-1.03-1.03 0-.57.46-1.03 1.03-1.03l7.13.02.02-7.91c0-.57.46-1.03 1.03-1.03Z"/><path fill="#487174" d="m459.428 77.628-33.04-.075a6.11 6.11 0 0 0-6.124 6.096l-.039 17.5a6.11 6.11 0 0 0 6.096 6.124l33.04.075a6.11 6.11 0 0 0 6.124-6.096l.039-17.5a6.11 6.11 0 0 0-6.096-6.124Z"/><path fill="#3F8480" d="M424.54 89.58c-.58 0-1.04-.46-1.04-1.03l.02-6.82c0-.57.47-1.03 1.05-1.03h6.65c.58.02 1.04.48 1.04 1.05 0 .57-.47 1.03-1.05 1.03h-5.6l-.01 5.77c0 .57-.47 1.03-1.05 1.03h-.01ZM461.73 95.76c.58 0 1.04.46 1.04 1.03l-.02 6.82c0 .57-.47 1.03-1.05 1.03h-6.11a1.06 1.06 0 0 1-1.04-1.05c0-.57.47-1.03 1.05-1.03h5.07l.01-5.78c0-.57.47-1.03 1.05-1.03v.01Z"/><path fill="url(#R)" d="m64.329 108.632-46.86-.107a6.11 6.11 0 0 0-6.124 6.096l-.036 15.92a6.11 6.11 0 0 0 6.096 6.124l46.86.107a6.11 6.11 0 0 0 6.124-6.097l.036-15.92a6.11 6.11 0 0 0-6.096-6.123Z"/><path fill="url(#S)" d="M15.56 121.94c-.57 0-1.03-.44-1.03-.98l.02-8.47c0-.54.46-.98 1.03-.97l8.7.02c.57 0 1.03.44 1.03.98s-.46.98-1.03.97l-7.66-.02-.02 7.49c0 .54-.46.98-1.03.97l-.01.01Z"/><path fill="url(#T)" d="M66.15 123.79c.57 0 1.03.44 1.03.98l-.02 8.47c0 .54-.46.98-1.03.97l-8.16-.02c-.57 0-1.03-.44-1.03-.98s.46-.98 1.03-.97l7.13.02.02-7.49c0-.54.46-.98 1.03-.97v-.01Z"/><path fill="url(#U)" d="m49.52 77.238-31.98-.073a6.11 6.11 0 0 0-6.124 6.097l-.036 15.89a6.11 6.11 0 0 0 6.097 6.123l31.98.073a6.11 6.11 0 0 0 6.123-6.096l.036-15.89a6.11 6.11 0 0 0-6.096-6.124Z"/><path fill="url(#V)" d="M15.4 88.97c-.54 0-.97-.44-.97-.98l.02-6.87c0-.54.44-.97.98-.97l7.16.02c.54 0 .97.44.97.98s-.44.97-.98.97h-6.19L16.38 88c0 .54-.44.97-.98.97Z"/><path fill="url(#W)" d="M52.09 93.45c.54 0 .97.44.97.98l-.02 7.4c0 .54-.44.97-.98.97H45.4a.995.995 0 0 1-.97-.99c0-.54.44-.97.98-.97h5.68l.01-6.41c0-.54.44-.97.98-.97l.01-.01Z"/><path fill="url(#X)" d="m76.485 141.089-59.09-.134a6.11 6.11 0 0 0-6.123 6.096l-.037 15.92a6.11 6.11 0 0 0 6.097 6.124l59.09.134a6.11 6.11 0 0 0 6.123-6.096l.037-15.92a6.11 6.11 0 0 0-6.097-6.124Z"/><path fill="url(#Y)" d="M15.48 154.37c-.57 0-1.03-.44-1.03-.98l.02-8.47c0-.54.46-.98 1.03-.97l8.7.02c.57 0 1.03.44 1.03.98s-.46.98-1.03.97l-7.66-.02-.02 7.49c0 .54-.46.98-1.03.97l-.01.01Z"/><path fill="url(#Z)" d="M78.83 156.75c.57 0 1.03.44 1.03.98l-.02 8.47c0 .54-.46.98-1.03.97l-8.16-.02c-.57 0-1.03-.44-1.03-.98s.46-.98 1.03-.97l7.13.02.02-7.49c0-.54.46-.98 1.03-.97v-.01Z"/><path fill="url(#aa)" d="m348.25 174.136-20.17-.046a6.11 6.11 0 0 0-6.124 6.096l-.046 20.17a6.11 6.11 0 0 0 6.096 6.124l20.17.046a6.111 6.111 0 0 0 6.124-6.097l.046-20.17a6.11 6.11 0 0 0-6.096-6.123Z"/><path fill="url(#ab)" d="M326.56 185.95c-.62 0-1.12-.51-1.12-1.13v-6.17c.02-.62.52-1.12 1.14-1.12h5.9c.62.01 1.12.52 1.12 1.14 0 .62-.51 1.12-1.13 1.12h-4.78l-.01 5.04c0 .62-.51 1.12-1.13 1.12h.01Z"/><path fill="url(#ac)" d="M350.69 195.11c.62 0 1.12.51 1.12 1.13v6.17c-.02.62-.52 1.12-1.14 1.12h-5.9c-.62-.01-1.12-.52-1.12-1.14 0-.62.51-1.12 1.13-1.12h4.78l.01-5.04c0-.62.51-1.12 1.13-1.12h-.01Z"/><path fill="url(#ad)" d="m385.459 174.22-20.17-.046a6.111 6.111 0 0 0-6.124 6.096l-.045 20.17a6.109 6.109 0 0 0 6.096 6.124l20.17.046a6.11 6.11 0 0 0 6.124-6.096l.045-20.17a6.11 6.11 0 0 0-6.096-6.124Z"/><path fill="url(#ae)" d="M363.77 186.03c-.62 0-1.12-.51-1.12-1.13v-6.17c.02-.62.52-1.12 1.14-1.12h5.9c.62.01 1.12.52 1.12 1.14 0 .62-.51 1.12-1.13 1.12h-4.78l-.01 5.04c0 .62-.51 1.12-1.13 1.12h.01Z"/><path fill="url(#af)" d="M387.9 195.2c.62 0 1.12.51 1.12 1.13v6.17c-.02.62-.52 1.12-1.14 1.12h-5.9c-.62-.01-1.12-.52-1.12-1.14 0-.62.51-1.12 1.13-1.12h4.78l.01-5.04c0-.62.51-1.12 1.13-1.12h-.01Z"/><path fill="url(#ag)" d="m422.419 174.304-20.17-.046a6.111 6.111 0 0 0-6.124 6.096l-.046 20.17a6.11 6.11 0 0 0 6.097 6.124l20.169.046a6.11 6.11 0 0 0 6.124-6.096l.046-20.17a6.11 6.11 0 0 0-6.096-6.124Z"/><path fill="url(#ah)" d="M400.72 186.12c-.62 0-1.12-.51-1.12-1.13v-6.17c.02-.62.52-1.12 1.14-1.12h5.9c.62.01 1.12.52 1.12 1.14 0 .62-.51 1.12-1.13 1.12h-4.78l-.01 5.04c0 .62-.51 1.12-1.13 1.12h.01Z"/><path fill="url(#ai)" d="M424.86 195.28c.62 0 1.12.51 1.12 1.13v6.17c-.02.62-.52 1.12-1.14 1.12h-5.9c-.62-.01-1.12-.52-1.12-1.14 0-.62.51-1.12 1.13-1.12h4.78l.01-5.04c0-.62.51-1.12 1.13-1.12h-.01Z"/><path fill="url(#aj)" d="m459.629 174.388-20.17-.045a6.11 6.11 0 0 0-6.124 6.096l-.046 20.17a6.11 6.11 0 0 0 6.096 6.123l20.17.046a6.11 6.11 0 0 0 6.124-6.096l.046-20.17a6.111 6.111 0 0 0-6.096-6.124Z"/><path fill="url(#ak)" d="M437.94 186.2c-.62 0-1.12-.51-1.12-1.13v-6.17c.02-.62.52-1.12 1.14-1.12h5.9c.62.01 1.12.52 1.12 1.14 0 .62-.51 1.12-1.13 1.12h-4.78l-.01 5.04c0 .62-.51 1.12-1.13 1.12h.01Z"/><path fill="url(#al)" d="M462.07 195.36c.62 0 1.12.51 1.12 1.13v6.17c-.02.62-.52 1.12-1.14 1.12h-5.9c-.62-.01-1.12-.52-1.12-1.14 0-.62.51-1.12 1.13-1.12h4.78l.01-5.04c0-.62.51-1.12 1.13-1.12h-.01Z"/><path fill="url(#am)" d="m178.854 9.462-14.92-.034a6.11 6.11 0 0 0-6.124 6.096l-.034 14.92a6.11 6.11 0 0 0 6.096 6.124l14.92.034a6.11 6.11 0 0 0 6.124-6.096l.034-14.92a6.11 6.11 0 0 0-6.096-6.124Z"/><path fill="url(#an)" d="M161.67 19.37c-.52 0-.94-.42-.94-.94v-5.17c.01-.52.44-.94.96-.94h4.94c.52.01.94.43.94.95s-.42.94-.94.94h-4v4.22c0 .52-.42.94-.94.94h-.02Z"/><path fill="url(#ao)" d="M181.9 27.05c.52 0 .94.42.94.94v5.17c-.01.52-.44.94-.96.94h-4.94a.954.954 0 0 1-.94-.95c0-.52.42-.94.94-.94h4v-4.22c0-.52.42-.94.94-.94h.02Z"/><path fill="url(#ap)" d="m367.842 9.9-14.92-.033a6.11 6.11 0 0 0-6.124 6.096l-.033 14.92a6.11 6.11 0 0 0 6.096 6.124l14.92.034a6.11 6.11 0 0 0 6.123-6.097l.034-14.92a6.11 6.11 0 0 0-6.096-6.123Z"/><path fill="url(#aq)" d="M350.65 19.79c-.52 0-.94-.42-.94-.94v-5.17c.01-.52.44-.94.96-.94h4.94c.52.01.94.43.94.95s-.42.94-.94.94h-4v4.22c0 .52-.42.94-.94.94h-.02Z"/><path fill="url(#ar)" d="M370.87 27.47c.52 0 .94.42.94.94v5.17c-.01.52-.44.94-.96.94h-4.94a.954.954 0 0 1-.94-.95c0-.52.42-.94.94-.94h4v-4.22c0-.52.42-.94.94-.94h.02Z"/><path fill="url(#as)" d="m399.022 9.971-14.92-.034a6.11 6.11 0 0 0-6.124 6.097l-.034 14.92a6.11 6.11 0 0 0 6.096 6.123l14.92.034a6.11 6.11 0 0 0 6.124-6.096l.034-14.92a6.11 6.11 0 0 0-6.096-6.124Z"/><path fill="url(#at)" d="M381.83 19.86c-.52 0-.94-.42-.94-.94v-5.17c.01-.52.44-.94.96-.94h4.94c.52.01.94.43.94.95s-.42.94-.94.94h-4v4.22c0 .52-.42.94-.94.94h-.02Z"/><path fill="url(#au)" d="M402.05 27.54c.52 0 .94.42.94.94v5.17c-.01.52-.44.94-.96.94h-4.94a.954.954 0 0 1-.94-.95c0-.52.42-.94.94-.94h4v-4.22c0-.52.42-.94.94-.94h.02Z"/><path fill="url(#av)" d="m429.982 10.042-14.92-.034a6.11 6.11 0 0 0-6.124 6.096l-.034 14.92A6.11 6.11 0 0 0 415 37.148l14.92.033a6.11 6.11 0 0 0 6.124-6.096l.034-14.92a6.11 6.11 0 0 0-6.096-6.123Z"/><path fill="url(#aw)" d="M412.79 19.93c-.52 0-.94-.42-.94-.94v-5.17c.01-.52.44-.94.96-.94h4.94c.52.01.94.43.94.95s-.42.94-.94.94h-4v4.22c0 .52-.42.94-.94.94h-.02Z"/><path fill="url(#ax)" d="M433.01 27.61c.52 0 .94.42.94.94v5.17c-.01.52-.44.94-.96.94h-4.94a.954.954 0 0 1-.94-.95c0-.52.42-.94.94-.94h4v-4.22c0-.52.42-.94.94-.94h.02Z"/><path fill="url(#ay)" d="m460.651 10.111-14.92-.034a6.11 6.11 0 0 0-6.123 6.096l-.034 14.92a6.11 6.11 0 0 0 6.096 6.124l14.92.034a6.11 6.11 0 0 0 6.124-6.096l.034-14.92a6.11 6.11 0 0 0-6.097-6.124Z"/><path fill="url(#az)" d="M443.46 20c-.52 0-.94-.42-.94-.94v-5.17c.01-.52.44-.94.96-.94h4.94c.52.01.94.43.94.95s-.42.94-.94.94h-4v4.22c0 .52-.42.94-.94.94h-.02Z"/><path fill="url(#aA)" d="M463.68 27.68c.52 0 .94.42.94.94v5.17c-.01.52-.44.94-.96.94h-4.94a.954.954 0 0 1-.94-.95c0-.52.42-.94.94-.94h4v-4.22c0-.52.42-.94.94-.94h.02Z"/><path fill="url(#aB)" d="m528.701 10.255-14.92-.033a6.11 6.11 0 0 0-6.124 6.096l-.034 14.92a6.11 6.11 0 0 0 6.096 6.123l14.92.034a6.11 6.11 0 0 0 6.124-6.096l.034-14.92a6.11 6.11 0 0 0-6.096-6.124Z"/><path fill="url(#aC)" d="M511.51 20.16c-.52 0-.94-.42-.94-.94v-5.17c.01-.52.44-.94.96-.94h4.94c.52.01.94.43.94.95s-.42.94-.94.94h-4v4.22c0 .52-.42.94-.94.94h-.02Z"/><path fill="url(#aD)" d="M531.73 27.83c.52 0 .94.42.94.94v5.17c-.01.52-.44.94-.96.94h-4.94a.954.954 0 0 1-.94-.95c0-.52.42-.94.94-.94h4v-4.22c0-.52.42-.94.94-.94h.02Z"/><path fill="url(#aE)" d="m560.071 10.327-14.92-.034a6.11 6.11 0 0 0-6.124 6.096l-.034 14.92a6.11 6.11 0 0 0 6.096 6.124l14.92.034a6.11 6.11 0 0 0 6.124-6.096l.034-14.92a6.11 6.11 0 0 0-6.096-6.124Z"/><path fill="url(#aF)" d="M542.88 20.23c-.52 0-.94-.42-.94-.94v-5.17c.01-.52.44-.94.96-.94h4.94c.52.01.94.43.94.95s-.42.94-.94.94h-4v4.22c0 .52-.42.94-.94.94h-.02Z"/><path fill="url(#aG)" d="M563.1 27.91c.52 0 .94.42.94.94v5.17c-.01.52-.44.94-.96.94h-4.94a.954.954 0 0 1-.94-.95c0-.52.42-.94.94-.94h4v-4.22c0-.52.42-.94.94-.94h.02Z"/><path fill="url(#aH)" d="m497.779 46.335-14.92-.034a6.11 6.11 0 0 0-6.124 6.096l-.034 14.92a6.11 6.11 0 0 0 6.097 6.124l14.919.034a6.11 6.11 0 0 0 6.124-6.096l.034-14.92a6.11 6.11 0 0 0-6.096-6.124Z"/><path fill="url(#aI)" d="M480.59 56.24c-.52 0-.94-.42-.94-.94v-5.17c.01-.52.44-.94.96-.94h4.94c.52.01.94.43.94.95s-.42.94-.94.94h-4v4.22c0 .52-.42.94-.94.94h-.02Z"/><path fill="url(#aJ)" d="M500.82 63.92c.52 0 .94.42.94.94v5.17c-.01.52-.44.94-.96.94h-4.94a.954.954 0 0 1-.94-.95c0-.52.42-.94.94-.94h4v-4.22c0-.52.42-.94.94-.94h.02Z"/><path fill="url(#aK)" d="m528.619 46.405-14.92-.034a6.11 6.11 0 0 0-6.124 6.096l-.034 14.92a6.11 6.11 0 0 0 6.096 6.124l14.92.034a6.11 6.11 0 0 0 6.124-6.096l.034-14.92a6.11 6.11 0 0 0-6.096-6.124Z"/><path fill="url(#aL)" d="M511.43 56.31c-.52 0-.94-.42-.94-.94V50.2c.01-.52.44-.94.96-.94h4.94c.52.01.94.43.94.95s-.42.94-.94.94h-4v4.22c0 .52-.42.94-.94.94h-.02Z"/><path fill="url(#aM)" d="M531.65 63.99c.52 0 .94.42.94.94v5.17c-.01.52-.44.94-.96.94h-4.94a.954.954 0 0 1-.94-.95c0-.52.42-.94.94-.94h4v-4.22c0-.52.42-.94.94-.94h.02Z"/><path fill="url(#aN)" d="m559.989 46.476-14.92-.033a6.11 6.11 0 0 0-6.124 6.096l-.034 14.92a6.11 6.11 0 0 0 6.096 6.123l14.92.034a6.11 6.11 0 0 0 6.124-6.096l.034-14.92a6.11 6.11 0 0 0-6.096-6.124Z"/><path fill="url(#aO)" d="M542.8 56.38c-.52 0-.94-.42-.94-.94v-5.17c.01-.52.44-.94.96-.94h4.94c.52.01.94.43.94.95s-.42.94-.94.94h-4v4.22c0 .52-.42.94-.94.94h-.02Z"/><path fill="url(#aP)" d="M563.02 64.06c.52 0 .94.42.94.94v5.17c-.01.52-.44.94-.96.94h-4.94a.954.954 0 0 1-.94-.95c0-.52.42-.94.94-.94h4V65c0-.52.42-.94.94-.94h.02Z"/><path fill="url(#aQ)" d="m559.917 77.846-14.92-.034a6.11 6.11 0 0 0-6.123 6.096l-.034 14.92a6.109 6.109 0 0 0 6.096 6.124l14.92.034a6.11 6.11 0 0 0 6.124-6.096l.033-14.92a6.11 6.11 0 0 0-6.096-6.124Z"/><path fill="url(#aR)" d="M542.73 87.75c-.52 0-.94-.42-.94-.94v-5.17c.01-.52.44-.94.96-.94h4.94c.52.01.94.43.94.95s-.42.94-.94.94h-4v4.22c0 .52-.42.94-.94.94h-.02Z"/><path fill="url(#aS)" d="M562.95 95.43c.52 0 .94.42.94.94v5.17c-.01.52-.44.94-.96.94h-4.94a.954.954 0 0 1-.94-.95c0-.52.42-.94.94-.94h4v-4.22c0-.52.42-.94.94-.94h.02Z"/><path fill="url(#aT)" d="m528.558 77.785-45.23-.103a6.11 6.11 0 0 0-6.124 6.096l-.034 14.92a6.11 6.11 0 0 0 6.096 6.124l45.23.103a6.11 6.11 0 0 0 6.124-6.096l.034-14.92a6.11 6.11 0 0 0-6.096-6.124Z"/><path fill="url(#aU)" d="M481.06 87.61c-.52 0-.94-.42-.94-.94V81.5c.01-.52.44-.94.96-.94h4.94c.52.01.94.43.94.95s-.42.94-.94.94h-4v4.22c0 .52-.42.94-.94.94h-.02Z"/><path fill="url(#aV)" d="M531.05 95.36c.52 0 .94.42.94.94v5.17c-.01.52-.44.94-.96.94h-4.94a.954.954 0 0 1-.94-.95c0-.52.42-.94.94-.94h4V96.3c0-.52.42-.94.94-.94h.02Z"/><path fill="#E2BCB1" d="M537.71 267.05s-8.62-18.81-14.47-22.3c-5.85-3.49-13.65-8.15-18.34-11.38-4.68-3.23-16.77-9.57-16.77-9.57s-4.81-3.75-11.85-11.92c-3.37-3.91-7.19-6.65-11.85-8.88-2.76-1.32-5.07-3.03-7.91-4.25-1.96-.84-6.16-2.04-6.77-4.46-.39-1.56-1.32-7.4 5.3-9.62 6.62-2.22 23.53 10.07 23.53 10.07l12.62 10.62s-22.66-28.51-27.88-36.03c-5.2-7.5-19.63-31.93-19.69-32.02-1.29-2.19-3.04-4.06-4.11-6.38-1.79-3.89-1.14-10.89 4.31-11.41 1.14-.11 2.34.21 3.56.79.45.22.91.47 1.36.76 3.18 2 6.24 5.41 8.1 7.38 0 0 10.55 13.35 13.55 18.66 2.39 4.23 6.55 8.1 9.63 11.86a365.18 365.18 0 0 1 14.9 19.45c-1.36-3.12-3.64-5.73-5.42-8.62-1.78-2.9-3.08-6.39-2.18-9.67.67-2.43 2.58-4.48 4.96-5.32 3.85-1.35 7.87.87 10.72 3.38 0 0 4.3 6.09 8.61 14.39l1.04-.26s-8.47-11.66-5.76-18.42c1.88-4.7 8.64-5.45 12.63-3.12 3.7 2.16 5.5 7.11 6.48 10.99 0 0 .92 3.63 2.09 3.89 1.17.26-1.41-5.6-1.89-7.47-.47-1.87-2.95-5.11 1.97-9.67 12.07-11.17 25.43 21.52 28.33 29.14 5.43 14.24 9.1 29.74 20.27 40.86 6.64 6.61 13.94 18.01 14.2 19.05.26 1.04.54 6.49-11 15.48-11.53 8.99-30.6 16.57-30.6 16.57s-7.91 3.66-11.69-2.57h.02Z"/><path fill="#D3A094" d="M528.88 251.01s18.31 14.2 45.41 1.28c0 0 15.84-8.13 15.87-16.29 0 0 1.85 1.99.44 4.77-1.41 2.78-3.31 8.16-19.08 17.98-15.76 9.82-20.97 10.75-20.97 10.75s-6.56 3.33-11.72-.98l-9.96-17.51h.01Z"/><path fill="#C48C81" d="M491.21 205.37s-17.04-10.6-20.02-11.51c-2.98-.91-9.36-4.26-16.24-3.08-6.88 1.19-5.18 3.52-5.18 3.52s-1.37-6.68 3.45-8.81c4.83-2.12 7.94-.5 14.12 1.98 6.18 2.48 23.88 17.89 23.88 17.89l-.01.01ZM447.89 121.34s-5.32 3-3.87 8.71c1.44 5.71 4.38 15.25 4.38 15.25l-8.19-13.09s-2.43-3.92-.88-9.27c1.55-5.35 10.38-3.17 8.56-1.61v.01ZM498.9 155.43s-5.87.33-6.77 5.53c-.9 5.2 2.5 12.07 2.5 12.07s3.39 4.67 1.83 5.06c-1.56.39-5.87-6.64-5.87-6.64s-4.29-4.93-3.52-9.65c.77-4.72 3.36-5.96 5.24-6.97 1.88-1.01 6.1-.87 6.59.61v-.01ZM516.08 150.83s-5.23.29-6.03 4.92c-.8 4.63 2.22 10.75 2.22 10.75s3.02 4.16 1.63 4.51c-1.39.35-5.23-5.92-5.23-5.92s-3.82-4.39-3.14-8.6c.68-4.21 2.99-5.31 4.67-6.21 1.68-.9 5.43-.78 5.87.54l.01.01ZM535.41 149.23s-4.49-.73-6.03 3.04-.13 9.53-.13 9.53 1.78 4.09.54 4.13c-1.24.04-3.32-5.99-3.32-5.99s-2.41-4.44-1.05-7.87c1.37-3.44 3.53-3.94 5.12-4.39 1.59-.45 4.75.36 4.88 1.56l-.01-.01Z"/><defs><linearGradient id="a" x1="-.01" x2="585.12" y1="107.92" y2="107.92" gradientUnits="userSpaceOnUse"><stop offset=".27" stop-color="#5B35E4"/><stop offset=".41" stop-color="#503FDB"/><stop offset=".65" stop-color="#325CC3"/><stop offset=".98" stop-color="#038A9D"/><stop offset="1" stop-color="#008E9A"/></linearGradient><linearGradient id="b" x1="476.797" x2="503.977" y1="23.729" y2="23.729" gradientUnits="userSpaceOnUse"><stop offset=".27" stop-color="#886BFF"/><stop offset=".43" stop-color="#8F75FF"/><stop offset=".72" stop-color="#A292FF"/><stop offset="1" stop-color="#B9B4FF"/></linearGradient><linearGradient id="c" x1="479.74" x2="486.57" y1="16.56" y2="16.56" gradientUnits="userSpaceOnUse"><stop offset=".27" stop-color="#886BFF"/><stop offset=".43" stop-color="#8F75FF"/><stop offset=".72" stop-color="#A292FF"/><stop offset="1" stop-color="#B9B4FF"/></linearGradient><linearGradient id="d" x1="495" x2="501.84" y1="31.29" y2="31.29" gradientUnits="userSpaceOnUse"><stop offset=".27" stop-color="#886BFF"/><stop offset=".43" stop-color="#8F75FF"/><stop offset=".72" stop-color="#A292FF"/><stop offset="1" stop-color="#B9B4FF"/></linearGradient><linearGradient id="e" x1="13.799" x2="40.979" y1="22.699" y2="22.699" gradientUnits="userSpaceOnUse"><stop stop-color="#E4A089"/><stop offset="1" stop-color="#FF417D"/></linearGradient><linearGradient id="f" x1="16.75" x2="23.59" y1="15.52" y2="15.52" gradientUnits="userSpaceOnUse"><stop stop-color="#E4A089"/><stop offset="1" stop-color="#FF417D"/></linearGradient><linearGradient id="g" x1="32.01" x2="38.85" y1="30.25" y2="30.25" gradientUnits="userSpaceOnUse"><stop stop-color="#E4A089"/><stop offset="1" stop-color="#FF417D"/></linearGradient><linearGradient id="h" x1="205.348" x2="232.518" y1="23.119" y2="23.119" gradientUnits="userSpaceOnUse"><stop stop-color="#E4A089"/><stop offset="1" stop-color="#FF417D"/></linearGradient><linearGradient id="i" x1="208.28" x2="215.12" y1="15.95" y2="15.95" gradientUnits="userSpaceOnUse"><stop stop-color="#E4A089"/><stop offset="1" stop-color="#FF417D"/></linearGradient><linearGradient id="j" x1="223.54" x2="230.38" y1="30.68" y2="30.68" gradientUnits="userSpaceOnUse"><stop stop-color="#E4A089"/><stop offset="1" stop-color="#FF417D"/></linearGradient><linearGradient id="k" x1="236.518" x2="263.698" y1="23.189" y2="23.189" gradientUnits="userSpaceOnUse"><stop stop-color="#E4A089"/><stop offset="1" stop-color="#FF417D"/></linearGradient><linearGradient id="l" x1="239.46" x2="246.3" y1="16.02" y2="16.02" gradientUnits="userSpaceOnUse"><stop stop-color="#E4A089"/><stop offset="1" stop-color="#FF417D"/></linearGradient><linearGradient id="m" x1="254.72" x2="261.56" y1="30.75" y2="30.75" gradientUnits="userSpaceOnUse"><stop stop-color="#E4A089"/><stop offset="1" stop-color="#FF417D"/></linearGradient><linearGradient id="n" x1="267.488" x2="294.668" y1="23.259" y2="23.259" gradientUnits="userSpaceOnUse"><stop stop-color="#E4A089"/><stop offset="1" stop-color="#FF417D"/></linearGradient><linearGradient id="o" x1="270.43" x2="277.27" y1="16.09" y2="16.09" gradientUnits="userSpaceOnUse"><stop stop-color="#E4A089"/><stop offset="1" stop-color="#FF417D"/></linearGradient><linearGradient id="p" x1="285.69" x2="292.53" y1="30.82" y2="30.82" gradientUnits="userSpaceOnUse"><stop stop-color="#E4A089"/><stop offset="1" stop-color="#FF417D"/></linearGradient><linearGradient id="q" x1="298.158" x2="325.328" y1="23.329" y2="23.329" gradientUnits="userSpaceOnUse"><stop stop-color="#E4A089"/><stop offset="1" stop-color="#FF417D"/></linearGradient><linearGradient id="r" x1="301.09" x2="307.93" y1="16.16" y2="16.16" gradientUnits="userSpaceOnUse"><stop stop-color="#E4A089"/><stop offset="1" stop-color="#FF417D"/></linearGradient><linearGradient id="s" x1="316.36" x2="323.2" y1="30.89" y2="30.89" gradientUnits="userSpaceOnUse"><stop stop-color="#E4A089"/><stop offset="1" stop-color="#FF417D"/></linearGradient><linearGradient id="t" x1="64.969" x2="92.149" y1="22.799" y2="22.799" gradientUnits="userSpaceOnUse"><stop stop-color="#87D0BF"/><stop offset="1" stop-color="#56A6A4"/></linearGradient><linearGradient id="u" x1="67.92" x2="74.76" y1="15.63" y2="15.63" gradientUnits="userSpaceOnUse"><stop stop-color="#87D0BF"/><stop offset="1" stop-color="#56A6A4"/></linearGradient><linearGradient id="v" x1="83.18" x2="90.02" y1="30.37" y2="30.37" gradientUnits="userSpaceOnUse"><stop stop-color="#87D0BF"/><stop offset="1" stop-color="#56A6A4"/></linearGradient><linearGradient id="w" x1="96.149" x2="123.329" y1="22.869" y2="22.869" gradientUnits="userSpaceOnUse"><stop stop-color="#87D0BF"/><stop offset="1" stop-color="#56A6A4"/></linearGradient><linearGradient id="x" x1="99.1" x2="105.94" y1="15.7" y2="15.7" gradientUnits="userSpaceOnUse"><stop stop-color="#87D0BF"/><stop offset="1" stop-color="#56A6A4"/></linearGradient><linearGradient id="y" x1="114.36" x2="121.2" y1="30.44" y2="30.44" gradientUnits="userSpaceOnUse"><stop stop-color="#87D0BF"/><stop offset="1" stop-color="#56A6A4"/></linearGradient><linearGradient id="z" x1="127.118" x2="154.298" y1="22.939" y2="22.939" gradientUnits="userSpaceOnUse"><stop stop-color="#87D0BF"/><stop offset="1" stop-color="#56A6A4"/></linearGradient><linearGradient id="A" x1="130.07" x2="136.9" y1="15.77" y2="15.77" gradientUnits="userSpaceOnUse"><stop stop-color="#87D0BF"/><stop offset="1" stop-color="#56A6A4"/></linearGradient><linearGradient id="B" x1="145.33" x2="152.17" y1="30.51" y2="30.51" gradientUnits="userSpaceOnUse"><stop stop-color="#87D0BF"/><stop offset="1" stop-color="#56A6A4"/></linearGradient><linearGradient id="C" x1="11.429" x2="43.859" y1="189.609" y2="189.609" gradientUnits="userSpaceOnUse"><stop stop-color="#87D0BF"/><stop offset="1" stop-color="#56A6A4"/></linearGradient><linearGradient id="D" x1="14.95" x2="23.11" y1="181.04" y2="181.04" gradientUnits="userSpaceOnUse"><stop stop-color="#87D0BF"/><stop offset="1" stop-color="#56A6A4"/></linearGradient><linearGradient id="E" x1="33.16" x2="41.32" y1="198.62" y2="198.62" gradientUnits="userSpaceOnUse"><stop stop-color="#87D0BF"/><stop offset="1" stop-color="#56A6A4"/></linearGradient><linearGradient id="F" x1="49.699" x2="82.139" y1="189.689" y2="189.689" gradientUnits="userSpaceOnUse"><stop stop-color="#87D0BF"/><stop offset="1" stop-color="#56A6A4"/></linearGradient><linearGradient id="G" x1="53.22" x2="61.38" y1="181.13" y2="181.13" gradientUnits="userSpaceOnUse"><stop stop-color="#87D0BF"/><stop offset="1" stop-color="#56A6A4"/></linearGradient><linearGradient id="H" x1="71.43" x2="79.59" y1="198.71" y2="198.71" gradientUnits="userSpaceOnUse"><stop stop-color="#87D0BF"/><stop offset="1" stop-color="#56A6A4"/></linearGradient><linearGradient id="I" x1="87.719" x2="120.149" y1="189.769" y2="189.769" gradientUnits="userSpaceOnUse"><stop stop-color="#87D0BF"/><stop offset="1" stop-color="#56A6A4"/></linearGradient><linearGradient id="J" x1="91.23" x2="99.4" y1="181.21" y2="181.21" gradientUnits="userSpaceOnUse"><stop stop-color="#87D0BF"/><stop offset="1" stop-color="#56A6A4"/></linearGradient><linearGradient id="K" x1="109.45" x2="117.61" y1="198.8" y2="198.8" gradientUnits="userSpaceOnUse"><stop stop-color="#87D0BF"/><stop offset="1" stop-color="#56A6A4"/></linearGradient><linearGradient id="L" x1="124.928" x2="316.868" y1="190.039" y2="190.039" gradientUnits="userSpaceOnUse"><stop stop-color="#E4A089"/><stop offset="1" stop-color="#FF417D"/></linearGradient><linearGradient id="M" x1="128.44" x2="141.93" y1="183.96" y2="183.96" gradientUnits="userSpaceOnUse"><stop stop-color="#E4A089"/><stop offset="1" stop-color="#FF417D"/></linearGradient><linearGradient id="N" x1="299.26" x2="312.75" y1="196.05" y2="196.05" gradientUnits="userSpaceOnUse"><stop stop-color="#E4A089"/><stop offset="1" stop-color="#FF417D"/></linearGradient><linearGradient id="O" x1="401.617" x2="465.457" y1="123.789" y2="123.789" gradientUnits="userSpaceOnUse"><stop stop-color="#E4A089"/><stop offset="1" stop-color="#FF417D"/></linearGradient><linearGradient id="P" x1="405.1" x2="416.73" y1="117.98" y2="117.98" gradientUnits="userSpaceOnUse"><stop stop-color="#E4A089"/><stop offset="1" stop-color="#FF417D"/></linearGradient><linearGradient id="Q" x1="450.89" x2="461.95" y1="130.03" y2="130.03" gradientUnits="userSpaceOnUse"><stop stop-color="#E4A089"/><stop offset="1" stop-color="#FF417D"/></linearGradient><linearGradient id="R" x1="11.309" x2="70.429" y1="122.649" y2="122.649" gradientUnits="userSpaceOnUse"><stop stop-color="#E4A089"/><stop offset="1" stop-color="#FF417D"/></linearGradient><linearGradient id="S" x1="14.53" x2="25.31" y1="116.73" y2="116.73" gradientUnits="userSpaceOnUse"><stop stop-color="#E4A089"/><stop offset="1" stop-color="#FF417D"/></linearGradient><linearGradient id="T" x1="56.93" x2="67.18" y1="129" y2="129" gradientUnits="userSpaceOnUse"><stop stop-color="#E4A089"/><stop offset="1" stop-color="#FF417D"/></linearGradient><linearGradient id="U" x1="11.379" x2="55.609" y1="91.249" y2="91.249" gradientUnits="userSpaceOnUse"><stop stop-color="#E4A089"/><stop offset="1" stop-color="#FF417D"/></linearGradient><linearGradient id="V" x1="14.43" x2="23.56" y1="84.56" y2="84.56" gradientUnits="userSpaceOnUse"><stop stop-color="#E4A089"/><stop offset="1" stop-color="#FF417D"/></linearGradient><linearGradient id="W" x1="44.44" x2="53.06" y1="98.12" y2="98.12" gradientUnits="userSpaceOnUse"><stop stop-color="#E4A089"/><stop offset="1" stop-color="#FF417D"/></linearGradient><linearGradient id="X" x1="11.239" x2="82.589" y1="155.089" y2="155.089" gradientUnits="userSpaceOnUse"><stop stop-color="#E4A089"/><stop offset="1" stop-color="#FF417D"/></linearGradient><linearGradient id="Y" x1="14.46" x2="25.23" y1="149.16" y2="149.16" gradientUnits="userSpaceOnUse"><stop stop-color="#E4A089"/><stop offset="1" stop-color="#FF417D"/></linearGradient><linearGradient id="Z" x1="69.62" x2="79.86" y1="161.96" y2="161.96" gradientUnits="userSpaceOnUse"><stop stop-color="#E4A089"/><stop offset="1" stop-color="#FF417D"/></linearGradient><linearGradient id="aa" x1="321.917" x2="354.357" y1="190.299" y2="190.299" gradientUnits="userSpaceOnUse"><stop stop-color="#87D0BF"/><stop offset="1" stop-color="#56A6A4"/></linearGradient><linearGradient id="ab" x1="325.44" x2="333.6" y1="181.74" y2="181.74" gradientUnits="userSpaceOnUse"><stop stop-color="#87D0BF"/><stop offset="1" stop-color="#56A6A4"/></linearGradient><linearGradient id="ac" x1="343.65" x2="351.82" y1="199.32" y2="199.32" gradientUnits="userSpaceOnUse"><stop stop-color="#87D0BF"/><stop offset="1" stop-color="#56A6A4"/></linearGradient><linearGradient id="ad" x1="359.127" x2="391.567" y1="190.379" y2="190.379" gradientUnits="userSpaceOnUse"><stop stop-color="#87D0BF"/><stop offset="1" stop-color="#56A6A4"/></linearGradient><linearGradient id="ae" x1="362.65" x2="370.81" y1="181.83" y2="181.83" gradientUnits="userSpaceOnUse"><stop stop-color="#87D0BF"/><stop offset="1" stop-color="#56A6A4"/></linearGradient><linearGradient id="af" x1="380.86" x2="389.02" y1="199.41" y2="199.41" gradientUnits="userSpaceOnUse"><stop stop-color="#87D0BF"/><stop offset="1" stop-color="#56A6A4"/></linearGradient><linearGradient id="ag" x1="396.077" x2="428.517" y1="190.469" y2="190.469" gradientUnits="userSpaceOnUse"><stop stop-color="#87D0BF"/><stop offset="1" stop-color="#56A6A4"/></linearGradient><linearGradient id="ah" x1="399.6" x2="407.76" y1="181.91" y2="181.91" gradientUnits="userSpaceOnUse"><stop stop-color="#87D0BF"/><stop offset="1" stop-color="#56A6A4"/></linearGradient><linearGradient id="ai" x1="417.82" x2="425.98" y1="199.49" y2="199.49" gradientUnits="userSpaceOnUse"><stop stop-color="#87D0BF"/><stop offset="1" stop-color="#56A6A4"/></linearGradient><linearGradient id="aj" x1="433.297" x2="465.737" y1="190.559" y2="190.559" gradientUnits="userSpaceOnUse"><stop stop-color="#87D0BF"/><stop offset="1" stop-color="#56A6A4"/></linearGradient><linearGradient id="ak" x1="436.82" x2="444.98" y1="181.99" y2="181.99" gradientUnits="userSpaceOnUse"><stop stop-color="#87D0BF"/><stop offset="1" stop-color="#56A6A4"/></linearGradient><linearGradient id="al" x1="455.03" x2="463.2" y1="199.57" y2="199.57" gradientUnits="userSpaceOnUse"><stop stop-color="#87D0BF"/><stop offset="1" stop-color="#56A6A4"/></linearGradient><linearGradient id="am" x1="157.788" x2="184.958" y1="23.009" y2="23.009" gradientUnits="userSpaceOnUse"><stop stop-color="#87D0BF"/><stop offset="1" stop-color="#56A6A4"/></linearGradient><linearGradient id="an" x1="160.73" x2="167.57" y1="15.84" y2="15.84" gradientUnits="userSpaceOnUse"><stop stop-color="#87D0BF"/><stop offset="1" stop-color="#56A6A4"/></linearGradient><linearGradient id="ao" x1="176" x2="182.83" y1="30.57" y2="30.57" gradientUnits="userSpaceOnUse"><stop stop-color="#87D0BF"/><stop offset="1" stop-color="#56A6A4"/></linearGradient><linearGradient id="ap" x1="346.767" x2="373.947" y1="23.439" y2="23.439" gradientUnits="userSpaceOnUse"><stop stop-color="#87D0BF"/><stop offset="1" stop-color="#56A6A4"/></linearGradient><linearGradient id="aq" x1="349.71" x2="356.54" y1="16.27" y2="16.27" gradientUnits="userSpaceOnUse"><stop stop-color="#87D0BF"/><stop offset="1" stop-color="#56A6A4"/></linearGradient><linearGradient id="ar" x1="364.97" x2="371.81" y1="31" y2="31" gradientUnits="userSpaceOnUse"><stop stop-color="#87D0BF"/><stop offset="1" stop-color="#56A6A4"/></linearGradient><linearGradient id="as" x1="377.947" x2="405.117" y1="23.509" y2="23.509" gradientUnits="userSpaceOnUse"><stop stop-color="#87D0BF"/><stop offset="1" stop-color="#56A6A4"/></linearGradient><linearGradient id="at" x1="380.89" x2="387.72" y1="16.34" y2="16.34" gradientUnits="userSpaceOnUse"><stop stop-color="#87D0BF"/><stop offset="1" stop-color="#56A6A4"/></linearGradient><linearGradient id="au" x1="396.15" x2="402.99" y1="31.07" y2="31.07" gradientUnits="userSpaceOnUse"><stop stop-color="#87D0BF"/><stop offset="1" stop-color="#56A6A4"/></linearGradient><linearGradient id="av" x1="408.907" x2="436.087" y1="23.579" y2="23.579" gradientUnits="userSpaceOnUse"><stop stop-color="#87D0BF"/><stop offset="1" stop-color="#56A6A4"/></linearGradient><linearGradient id="aw" x1="411.85" x2="418.69" y1="16.41" y2="16.41" gradientUnits="userSpaceOnUse"><stop stop-color="#87D0BF"/><stop offset="1" stop-color="#56A6A4"/></linearGradient><linearGradient id="ax" x1="427.11" x2="433.95" y1="31.14" y2="31.14" gradientUnits="userSpaceOnUse"><stop stop-color="#87D0BF"/><stop offset="1" stop-color="#56A6A4"/></linearGradient><linearGradient id="ay" x1="439.577" x2="466.757" y1="23.649" y2="23.649" gradientUnits="userSpaceOnUse"><stop stop-color="#87D0BF"/><stop offset="1" stop-color="#56A6A4"/></linearGradient><linearGradient id="az" x1="442.52" x2="449.36" y1="16.48" y2="16.48" gradientUnits="userSpaceOnUse"><stop stop-color="#87D0BF"/><stop offset="1" stop-color="#56A6A4"/></linearGradient><linearGradient id="aA" x1="457.78" x2="464.62" y1="31.21" y2="31.21" gradientUnits="userSpaceOnUse"><stop stop-color="#87D0BF"/><stop offset="1" stop-color="#56A6A4"/></linearGradient><linearGradient id="aB" x1="507.636" x2="534.806" y1="23.799" y2="23.799" gradientUnits="userSpaceOnUse"><stop offset=".27" stop-color="#886BFF"/><stop offset=".43" stop-color="#8F75FF"/><stop offset=".72" stop-color="#A292FF"/><stop offset="1" stop-color="#B9B4FF"/></linearGradient><linearGradient id="aC" x1="510.57" x2="517.41" y1="16.63" y2="16.63" gradientUnits="userSpaceOnUse"><stop offset=".27" stop-color="#886BFF"/><stop offset=".43" stop-color="#8F75FF"/><stop offset=".72" stop-color="#A292FF"/><stop offset="1" stop-color="#B9B4FF"/></linearGradient><linearGradient id="aD" x1="525.84" x2="532.67" y1="31.36" y2="31.36" gradientUnits="userSpaceOnUse"><stop offset=".27" stop-color="#886BFF"/><stop offset=".43" stop-color="#8F75FF"/><stop offset=".72" stop-color="#A292FF"/><stop offset="1" stop-color="#B9B4FF"/></linearGradient><linearGradient id="aE" x1="538.996" x2="566.176" y1="23.869" y2="23.869" gradientUnits="userSpaceOnUse"><stop offset=".27" stop-color="#886BFF"/><stop offset=".43" stop-color="#8F75FF"/><stop offset=".72" stop-color="#A292FF"/><stop offset="1" stop-color="#B9B4FF"/></linearGradient><linearGradient id="aF" x1="541.94" x2="548.78" y1="16.7" y2="16.7" gradientUnits="userSpaceOnUse"><stop offset=".27" stop-color="#886BFF"/><stop offset=".43" stop-color="#8F75FF"/><stop offset=".72" stop-color="#A292FF"/><stop offset="1" stop-color="#B9B4FF"/></linearGradient><linearGradient id="aG" x1="557.2" x2="564.04" y1="31.43" y2="31.43" gradientUnits="userSpaceOnUse"><stop offset=".27" stop-color="#886BFF"/><stop offset=".43" stop-color="#8F75FF"/><stop offset=".72" stop-color="#A292FF"/><stop offset="1" stop-color="#B9B4FF"/></linearGradient><linearGradient id="aH" x1="476.707" x2="503.877" y1="59.879" y2="59.879" gradientUnits="userSpaceOnUse"><stop offset=".27" stop-color="#886BFF"/><stop offset=".43" stop-color="#8F75FF"/><stop offset=".72" stop-color="#A292FF"/><stop offset="1" stop-color="#B9B4FF"/></linearGradient><linearGradient id="aI" x1="479.65" x2="486.49" y1="52.71" y2="52.71" gradientUnits="userSpaceOnUse"><stop offset=".27" stop-color="#886BFF"/><stop offset=".43" stop-color="#8F75FF"/><stop offset=".72" stop-color="#A292FF"/><stop offset="1" stop-color="#B9B4FF"/></linearGradient><linearGradient id="aJ" x1="494.92" x2="501.76" y1="67.45" y2="67.45" gradientUnits="userSpaceOnUse"><stop offset=".27" stop-color="#886BFF"/><stop offset=".43" stop-color="#8F75FF"/><stop offset=".72" stop-color="#A292FF"/><stop offset="1" stop-color="#B9B4FF"/></linearGradient><linearGradient id="aK" x1="507.536" x2="534.716" y1="59.949" y2="59.949" gradientUnits="userSpaceOnUse"><stop offset=".27" stop-color="#886BFF"/><stop offset=".43" stop-color="#8F75FF"/><stop offset=".72" stop-color="#A292FF"/><stop offset="1" stop-color="#B9B4FF"/></linearGradient><linearGradient id="aL" x1="510.49" x2="517.33" y1="52.78" y2="52.78" gradientUnits="userSpaceOnUse"><stop offset=".27" stop-color="#886BFF"/><stop offset=".43" stop-color="#8F75FF"/><stop offset=".72" stop-color="#A292FF"/><stop offset="1" stop-color="#B9B4FF"/></linearGradient><linearGradient id="aM" x1="525.75" x2="532.59" y1="67.52" y2="67.52" gradientUnits="userSpaceOnUse"><stop offset=".27" stop-color="#886BFF"/><stop offset=".43" stop-color="#8F75FF"/><stop offset=".72" stop-color="#A292FF"/><stop offset="1" stop-color="#B9B4FF"/></linearGradient><linearGradient id="aN" x1="538.906" x2="566.086" y1="60.019" y2="60.019" gradientUnits="userSpaceOnUse"><stop offset=".27" stop-color="#886BFF"/><stop offset=".43" stop-color="#8F75FF"/><stop offset=".72" stop-color="#A292FF"/><stop offset="1" stop-color="#B9B4FF"/></linearGradient><linearGradient id="aO" x1="541.86" x2="548.7" y1="52.85" y2="52.85" gradientUnits="userSpaceOnUse"><stop offset=".27" stop-color="#886BFF"/><stop offset=".43" stop-color="#8F75FF"/><stop offset=".72" stop-color="#A292FF"/><stop offset="1" stop-color="#B9B4FF"/></linearGradient><linearGradient id="aP" x1="557.12" x2="563.96" y1="67.59" y2="67.59" gradientUnits="userSpaceOnUse"><stop offset=".27" stop-color="#886BFF"/><stop offset=".43" stop-color="#8F75FF"/><stop offset=".72" stop-color="#A292FF"/><stop offset="1" stop-color="#B9B4FF"/></linearGradient><linearGradient id="aQ" x1="538.836" x2="566.016" y1="91.389" y2="91.389" gradientUnits="userSpaceOnUse"><stop offset=".27" stop-color="#886BFF"/><stop offset=".43" stop-color="#8F75FF"/><stop offset=".72" stop-color="#A292FF"/><stop offset="1" stop-color="#B9B4FF"/></linearGradient><linearGradient id="aR" x1="541.79" x2="548.63" y1="84.22" y2="84.22" gradientUnits="userSpaceOnUse"><stop offset=".27" stop-color="#886BFF"/><stop offset=".43" stop-color="#8F75FF"/><stop offset=".72" stop-color="#A292FF"/><stop offset="1" stop-color="#B9B4FF"/></linearGradient><linearGradient id="aS" x1="557.05" x2="563.89" y1="98.95" y2="98.95" gradientUnits="userSpaceOnUse"><stop offset=".27" stop-color="#886BFF"/><stop offset=".43" stop-color="#8F75FF"/><stop offset=".72" stop-color="#A292FF"/><stop offset="1" stop-color="#B9B4FF"/></linearGradient><linearGradient id="aT" x1="477.167" x2="534.647" y1="91.289" y2="91.289" gradientUnits="userSpaceOnUse"><stop offset=".27" stop-color="#886BFF"/><stop offset=".43" stop-color="#8F75FF"/><stop offset=".72" stop-color="#A292FF"/><stop offset="1" stop-color="#B9B4FF"/></linearGradient><linearGradient id="aU" x1="480.12" x2="486.95" y1="84.08" y2="84.08" gradientUnits="userSpaceOnUse"><stop offset=".27" stop-color="#886BFF"/><stop offset=".43" stop-color="#8F75FF"/><stop offset=".72" stop-color="#A292FF"/><stop offset="1" stop-color="#B9B4FF"/></linearGradient><linearGradient id="aV" x1="525.15" x2="531.99" y1="98.88" y2="98.88" gradientUnits="userSpaceOnUse"><stop offset=".27" stop-color="#886BFF"/><stop offset=".43" stop-color="#8F75FF"/><stop offset=".72" stop-color="#A292FF"/><stop offset="1" stop-color="#B9B4FF"/></linearGradient></defs></svg>
