<svg xmlns="http://www.w3.org/2000/svg" fill="none" viewBox="0 0 1023 250"><path fill="#fff" d="M211.359 99.6c3.531 17.26 5.885 37.338 0 55.28-5.806 17.705-19.01 31.146-31.858 42.995-15.479 8.655-33.649 16.963-52.689 16.963-18.792 0-36.15-8.17-51.481-16.616-13.096-11.909-26.636-25.4-32.521-43.342-5.806-17.704-3.363-37.664 0-54.726 7.378-16.013 17.12-33.856 32.52-44.943 15.203-10.94 34.134-13.907 51.552-16.004 17.655 2.008 37.209 5.954 52.619 17.052 15.202 10.94 24.47 27.576 31.858 43.341Z"/><path fill="#B4EEE0" d="M127.109 211.475c-18.782 0-36.438-4.817-51.778-13.253.593 11.908 23.886 26.022 52.174 26.022 28.287 0 50.265-17.348 51.996-26.369-15.479 8.655-33.352 13.6-52.392 13.6Z"/><path fill="#D3D6E2" d="M75.33 198.221c-13.095-11.908-23.361-27.229-29.246-45.171-5.806-17.704-6.647-35.824-3.274-52.886-10.277 2.443-15.727 37.081-8.852 57.208 6.874 20.108 31.156 45.241 41.373 40.849Z"/><path fill="#FFC9DD" d="M77.13 58.633c15.203-10.94 32.334-17.33 49.752-19.426-8.467-7.408-42.758-1.929-57.644 9.337-14.886 11.266-32.432 41.067-26.428 51.62C50.198 84.131 61.72 69.72 77.13 58.633Z"/><path fill="#FFEBB2" d="M126.882 39.207a106.7 106.7 0 0 1 50.453 19.515c15.202 10.939 26.626 25.113 34.014 40.878 6.39-10.731-7.863-39.078-26.764-51.432-18.902-12.353-52.886-15.578-57.703-8.96Z"/><path fill="#C6E4A2" d="M211.359 99.59c3.531 17.26 2.75 35.637-3.135 53.579a105.187 105.187 0 0 1-28.723 44.696c14.599 1.395 34.875-17.833 41.096-41.126 6.221-23.282-.129-55.902-9.238-57.148Z"/><path fill="#A4BFDD" d="M33.958 157.363c-6.232 7.793 1.651 40.581 28.05 59.147 26.398 18.565 59.711 14.519 65.497 7.724-19.465-3.709-37.575-12.749-52.174-26.013-17.319-9.544-31.68-23.728-41.373-40.858Z"/><path fill="#99E2D1" d="M220.597 156.74c-9.574 17.2-23.837 31.472-41.096 41.125-14.51 13.373-32.561 22.532-51.996 26.369 6.973 8.407 44.904 4.154 65.437-8.15 20.534-12.304 31.641-48.662 27.655-59.344Z"/><path fill="#FFA7B3" d="M42.81 100.154c3.808-19.277 12.986-37.19 26.428-51.62C55.421 43.48 29.25 66.387 21.13 93.241c-8.12 26.853-1.592 57.584 12.829 64.112a105.367 105.367 0 0 1 8.852-57.199Z"/><path fill="#FCA" d="M126.881 39.207c19.683-2.364 39.712.742 57.703 8.951 5.905-11.078-31.581-31.522-57.772-31.522s-57.13 17.912-57.574 31.898a107.998 107.998 0 0 1 57.643-9.327Z"/><path fill="#E9D59E" d="M220.597 156.74c12.472-2.404 21.75-33.095 12.403-64.182-9.357-31.087-38.297-47.594-48.406-44.4 13.551 14.342 22.838 32.195 26.775 51.433 8.348 17.813 11.552 37.654 9.228 57.149Z"/><path fill="#A499D7" d="M62.008 216.51a106.04 106.04 0 0 1-8.477-10.178c-10.968-14.965-17.407-31.829-19.564-48.969-8.634-15.262-13.56-32.867-13.56-51.62 0-4.224.257-8.398.742-12.492-10.01 2.759-22.086 42.48-11.127 71.906 10.949 29.435 42.698 53.004 51.986 51.353Z"/><path fill="#56B8B6" d="M192.942 216.084a106.609 106.609 0 0 1-12.393 4.847c-17.754 5.717-35.923 6.567-53.044 3.303-17.329 3.423-35.746 2.621-53.737-3.175a108.754 108.754 0 0 1-11.76-4.559c4.698 14.312 28.545 32.699 65.586 32.699 37.041.01 58.494-18.021 65.348-33.115Z"/><path fill="#68C280" d="M232.99 92.558c.544 4.313.821 8.714.821 13.175 0 18.495-4.797 35.883-13.224 51.007-2.067 17.388-8.526 34.499-19.653 49.661a107.19 107.19 0 0 1-8.012 9.673c17.151 1.108 42.422-17.645 51.66-51.699s-2.285-67.633-11.592-71.817Z"/><path fill="#FF7A7F" d="M21.14 93.24c2.126-3.807 4.5-7.536 7.15-11.136 10.969-14.965 25.162-26.23 40.948-33.57 11.988-12.858 27.358-22.937 45.359-28.733a109.811 109.811 0 0 1 12.215-3.165c-14.48-7.17-49.86-2.917-72.46 11.74-22.59 14.659-37.367 51.037-33.213 64.865Z"/><path fill="#FFBA86" d="M126.812 16.646a108.17 108.17 0 0 1 12.898 3.294c17.754 5.717 32.956 15.608 44.875 28.218a105.925 105.925 0 0 1 41.59 33.866 108.824 108.824 0 0 1 6.815 10.534c6.528-12.334-13.283-49.424-33.658-64.656-20.375-15.232-57.337-18.05-72.52-11.256Z"/><path fill="#835283" d="M21.14 93.24c3.026-25.508 15.211-48.227 33.222-64.863C31.851 40.938 13.86 61.57 5.254 87.82c-8.694 26.498-6.25 53.935 4.758 77.327-4.856-23.916-1.405-49.435 11.127-71.906Z"/><path fill="#8075B4" d="M62.008 216.51a105.942 105.942 0 0 1-51.986-51.353c5.104 25.083 19.336 48.415 41.878 64.646 22.738 16.369 49.829 22.551 75.694 19.406-24.47-2.809-47.891-13.956-65.586-32.699Z"/><path fill="#2E9D87" d="M192.942 216.084c-17.576 18.872-40.918 30.157-65.348 33.125 25.647 2.957 52.451-3.264 74.992-19.485 22.739-16.379 37.041-39.989 42.016-65.339-10.267 22.185-28.199 40.819-51.66 51.699Z"/><path fill="#549558" d="M232.99 92.558c12.68 22.403 16.3 47.881 11.602 71.827 10.751-23.263 13.076-50.433 4.461-76.683-8.684-26.498-26.923-47.268-49.721-59.79 18.13 16.517 30.463 39.177 33.658 64.646Z"/><path fill="#FF9952" d="M126.812 16.646c25.42-5.024 50.997-.564 72.52 11.266C180.332 10.583 154.962 0 127.109 0c-28.11 0-53.687 10.781-72.747 28.387 21.453-11.978 47.011-16.607 72.45-11.74Z"/><path fill="#fff" d="M982.345 179v-79h11.692v10.744c9.163-6.32 18.803-10.481 28.913-12.482v12.008c-4.42.843-9.06 2.159-13.9 3.95-4.74 1.791-8.38 3.371-10.905 4.74l-3.95 2.054V179h-11.85ZM956.293 169.204l4.582-.474.316 9.322c-12.008 1.685-22.278 2.528-30.81 2.528-11.376 0-19.434-3.265-24.174-9.796-4.74-6.636-7.11-16.906-7.11-30.81 0-27.703 11.008-41.554 33.022-41.554 10.639 0 18.592 3.002 23.858 9.006 5.267 5.899 7.9 15.221 7.9 27.966l-.632 9.006h-52.14c0 8.743 1.58 15.221 4.74 19.434 3.16 4.213 8.638 6.32 16.432 6.32 7.9 0 15.906-.316 24.016-.948Zm-4.266-34.286c0-9.691-1.58-16.537-4.74-20.54-3.054-4.003-8.11-6.004-15.168-6.004-6.952 0-12.218 2.107-15.8 6.32-3.476 4.213-5.266 10.955-5.372 20.224h41.08ZM851.907 216.13c-12.64 0-21.488-1.738-26.544-5.214-4.95-3.371-7.426-9.585-7.426-18.644 0-4.319.948-7.847 2.844-10.586 1.896-2.633 5.109-5.635 9.638-9.006-2.949-2.001-4.424-5.635-4.424-10.902 0-1.791 1.317-5.109 3.95-9.954l1.422-2.528c-8.321-3.792-12.482-11.745-12.482-23.858 0-18.012 9.849-27.018 29.546-27.018 5.056 0 9.744.527 14.062 1.58l2.37.474 23.384-.632v10.112l-15.01-.316c3.476 3.476 5.214 8.743 5.214 15.8 0 9.901-2.475 16.853-7.426 20.856-4.845 3.897-12.534 5.846-23.068 5.846-2.844 0-5.424-.211-7.742-.632-1.896 4.635-2.844 7.637-2.844 9.006 0 3.265 1.001 5.319 3.002 6.162 2.002.737 8.058 1.106 18.17 1.106 10.112 0 17.38 1.58 21.804 4.74 4.424 3.16 6.636 9.322 6.636 18.486 0 16.748-11.692 25.122-35.076 25.122Zm-22.278-24.806c0 5.583 1.528 9.427 4.582 11.534 3.16 2.212 8.901 3.318 17.222 3.318 8.427 0 14.431-1.159 18.012-3.476 3.687-2.317 5.53-6.215 5.53-11.692 0-5.372-1.316-8.848-3.95-10.428-2.633-1.58-7.794-2.37-15.484-2.37l-17.064-.79c-3.476 2.528-5.846 4.74-7.11 6.636-1.158 1.896-1.738 4.319-1.738 7.268Zm1.106-65.886c0 6.215 1.37 10.639 4.108 13.272 2.844 2.633 7.479 3.95 13.904 3.95 6.426 0 11.008-1.317 13.746-3.95 2.739-2.633 4.108-7.057 4.108-13.272 0-6.32-1.369-10.797-4.108-13.43-2.738-2.633-7.32-3.95-13.746-3.95-6.425 0-11.06 1.369-13.904 4.108-2.738 2.633-4.108 7.057-4.108 13.272ZM798.456 65.556V179h-11.692v-5.372c-8.11 4.635-16.116 6.952-24.016 6.952-4.213 0-7.9-.527-11.06-1.58s-6.109-2.949-8.848-5.688c-5.688-5.688-8.532-16.169-8.532-31.442 0-15.379 2.528-26.439 7.584-33.18 5.162-6.847 13.641-10.27 25.438-10.27 6.11 0 12.588.685 19.434 2.054V65.556h11.692Zm-46.452 99.224c1.686 2.001 3.476 3.371 5.372 4.108 1.896.737 4.319 1.106 7.268 1.106 3.055 0 6.426-.474 10.112-1.422 3.792-1.053 6.742-2.054 8.848-3.002l3.16-1.422v-53.562c-6.741-1.264-13.008-1.896-18.802-1.896-8.005 0-13.588 2.581-16.748 7.742-3.16 5.056-4.74 12.956-4.74 23.7 0 12.219 1.844 20.435 5.53 24.648ZM711.733 169.204l4.582-.474.316 9.322c-12.008 1.685-22.278 2.528-30.81 2.528-11.376 0-19.434-3.265-24.174-9.796-4.74-6.636-7.11-16.906-7.11-30.81 0-27.703 11.007-41.554 33.022-41.554 10.639 0 18.591 3.002 23.858 9.006 5.267 5.899 7.9 15.221 7.9 27.966l-.632 9.006h-52.14c0 8.743 1.58 15.221 4.74 19.434 3.16 4.213 8.637 6.32 16.432 6.32 7.9 0 15.905-.316 24.016-.948Zm-4.266-34.286c0-9.691-1.58-16.537-4.74-20.54-3.055-4.003-8.111-6.004-15.168-6.004-6.952 0-12.219 2.107-15.8 6.32-3.476 4.213-5.267 10.955-5.372 20.224h41.08ZM622.393 179V65.556h11.85V179h-11.85ZM566.823 179v-79h11.692v10.744c9.164-6.32 18.802-10.481 28.914-12.482v12.008c-4.424.843-9.058 2.159-13.904 3.95-4.74 1.791-8.374 3.371-10.902 4.74l-3.95 2.054V179h-11.85ZM540.772 169.204l4.582-.474.316 9.322c-12.008 1.685-22.278 2.528-30.81 2.528-11.376 0-19.434-3.265-24.174-9.796-4.74-6.636-7.11-16.906-7.11-30.81 0-27.703 11.007-41.554 33.022-41.554 10.639 0 18.591 3.002 23.858 9.006 5.267 5.899 7.9 15.221 7.9 27.966l-.632 9.006h-52.14c0 8.743 1.58 15.221 4.74 19.434 3.16 4.213 8.637 6.32 16.432 6.32 7.9 0 15.905-.316 24.016-.948Zm-4.266-34.286c0-9.691-1.58-16.537-4.74-20.54-3.055-4.003-8.111-6.004-15.168-6.004-6.952 0-12.219 2.107-15.8 6.32-3.476 4.213-5.267 10.955-5.372 20.224h41.08ZM472.581 110.27h-25.122v37.762c0 9.059.632 15.01 1.896 17.854 1.37 2.844 4.53 4.266 9.48 4.266l14.062-.948.79 9.796c-7.057 1.159-12.429 1.738-16.116 1.738-8.216 0-13.904-2.001-17.064-6.004s-4.74-11.639-4.74-22.91V110.27h-11.218V100h11.218V75.826h11.692V100h25.122v10.27ZM359.109 179h-11.85v-79h11.692v5.53c8.532-4.74 16.695-7.11 24.49-7.11 10.533 0 17.59 2.844 21.172 8.532 3.686 5.688 5.53 15.8 5.53 30.336V179h-11.692v-41.396c0-10.955-1.106-18.433-3.318-22.436-2.107-4.108-6.689-6.162-13.746-6.162-3.371 0-6.952.527-10.744 1.58-3.687.948-6.531 1.896-8.532 2.844l-3.002 1.422V179ZM310.43 179V69.664h12.166V179H310.43Z"/></svg>
