<svg xmlns="http://www.w3.org/2000/svg" xml:space="preserve" viewBox="0 0 150 36"><path fill="#fff" d="M26.36 12.98H4.58c0-3.73 3.31-6.82 7.17-6.82h21.77c0 3.74-3.31 6.82-7.16 6.82z"/><path fill="#fff" d="m13.03 30.26 1.48-10.12a8.77 8.77 0 0 1 8.67-7.49L21.19 25.8c-.67 3.08-4.23 5.13-8.16 4.46zM39 14.16h4.34l-1.97 11.9h2.52l1.97-11.9h4.34l.36-2.13h-11.2L39 14.16zm11.27 11.9h2.48l1.75-10.52h-2.48l-1.75 10.52zm3.36-12.03c.79 0 1.49-.6 1.54-1.34.06-.75-.53-1.35-1.32-1.35s-1.49.6-1.56 1.35c-.05.73.55 1.34 1.34 1.34zm5.59 16.19c2.83 0 5.15-1.29 5.58-3.99l1.77-10.69h-2.45l-.29 1.74h-.13c-.25-.76-.86-1.88-2.71-1.88-2.43 0-4.66 1.9-5.23 5.36-.58 3.43 1.05 5.14 3.48 5.14 1.8 0 2.81-.97 3.3-1.74h.12l-.32 1.99c-.25 1.55-1.41 2.19-2.82 2.19-1.51 0-2.01-.7-2.22-1.32l-2.33.54c.25 1.48 1.56 2.66 4.25 2.66zm1.02-6.26c-1.64 0-2.26-1.27-1.95-3.21.32-1.91 1.36-3.32 3.01-3.32 1.59 0 2.29 1.32 1.97 3.32-.33 2.01-1.46 3.21-3.03 3.21zm11.75 2.3c2.46 0 4.33-1.2 5.08-3.03l-2.27-.26c-.49.9-1.37 1.36-2.46 1.36-1.67 0-2.53-.85-2.22-2.82l.01-.03h7.34l.12-.76c.62-3.69-1.33-5.32-3.92-5.32-3.01 0-5.35 2.21-5.88 5.46-.56 3.29 1.04 5.4 4.2 5.4zm-1.56-6.46c.28-1.26 1.53-2.47 2.96-2.47s2.21 1.04 1.97 2.47h-4.93zm8.38 6.26h2.48l1.02-6.19c.23-1.34 1.39-2.28 2.75-2.28.43 0 .93.07 1.14.14l.38-2.28c-.24-.05-.6-.07-.88-.07-1.21 0-2.34.69-2.92 1.9h-.11l.29-1.75h-2.4l-1.75 10.53zm7.78 0h5.68c3.21 0 5.06-1.64 5.43-3.82.35-2.12-.95-3.37-2.43-3.45l.03-.14c1.41-.33 2.64-1.29 2.94-2.99.36-2.09-.9-3.64-3.94-3.64h-5.37l-2.34 14.04zm2.9-2.13.68-4.11h2.81c1.57 0 2.37.96 2.17 2.21-.18 1.11-1.09 1.9-2.93 1.9h-2.73zm.99-5.94.63-3.87h2.58c1.49 0 2.14.78 1.95 1.87-.18 1.23-1.32 2-2.64 2h-2.52zm13.31 8.27c2.46 0 4.33-1.2 5.08-3.03l-2.27-.26c-.49.9-1.37 1.36-2.46 1.36-1.67 0-2.53-.85-2.22-2.82l.01-.03h7.34l.12-.76c.62-3.69-1.33-5.32-3.92-5.32-3.01 0-5.35 2.21-5.88 5.46-.56 3.29 1.04 5.4 4.2 5.4zm-1.56-6.46c.28-1.26 1.53-2.47 2.96-2.47s2.21 1.04 1.97 2.47h-4.93zm13.02 6.46c2.46 0 4.33-1.2 5.08-3.03l-2.27-.26c-.49.9-1.37 1.36-2.46 1.36-1.67 0-2.53-.85-2.22-2.82l.01-.03h7.34l.12-.76c.62-3.69-1.33-5.32-3.92-5.32-3.01 0-5.35 2.21-5.88 5.46-.56 3.29 1.03 5.4 4.2 5.4zm-1.56-6.46c.28-1.26 1.53-2.47 2.96-2.47s2.21 1.04 1.97 2.47h-4.93zm15.39-4.27H127l.42-2.52h-2.48l-.42 2.52h-1.49l-.31 1.92h1.49l-.97 5.85c-.34 1.97.92 2.95 2.8 2.9.7-.02 1.21-.16 1.51-.25l-.11-1.94c-.15.03-.44.1-.74.1-.62 0-1.09-.22-.93-1.22l.9-5.44h2.08l.33-1.92zm5.36-3.5h-2.48l-2.33 14.03h2.48l2.33-14.03zm4.85 14.23c2.46 0 4.33-1.2 5.08-3.03l-2.27-.26c-.49.9-1.37 1.36-2.46 1.36-1.67 0-2.53-.85-2.22-2.82l.01-.03h7.34l.12-.76c.62-3.69-1.33-5.32-3.92-5.32-3.01 0-5.35 2.21-5.88 5.46-.56 3.29 1.03 5.4 4.2 5.4zm-1.56-6.46c.28-1.26 1.53-2.47 2.96-2.47s2.21 1.04 1.97 2.47h-4.93z"/></svg>
