<svg xmlns="http://www.w3.org/2000/svg" fill="none" viewBox="0 0 1192 235"><path fill="#fff" d="M449.37 12.621h10.86l16.018 84.708h3.937l19.141-83.893h12.217l19.141 83.893h3.937l16.018-84.708h10.724l-19.005 93.939h-19.14l-17.784-80.228-17.783 80.228h-19.14L449.37 12.621ZM618.814 98.143l3.937-.407.271 8.009c-10.317 1.448-19.141 2.172-26.471 2.172-9.774 0-16.697-2.805-20.77-8.416-4.072-5.702-6.109-14.525-6.109-26.471 0-23.802 9.458-35.702 28.372-35.702 9.141 0 15.973 2.579 20.498 7.737 4.525 5.068 6.788 13.078 6.788 24.028l-.543 7.738h-44.798c0 7.511 1.358 13.077 4.073 16.697 2.715 3.62 7.421 5.43 14.118 5.43 6.787 0 13.665-.272 20.634-.815Zm-3.665-29.457c0-8.326-1.358-14.209-4.073-17.648-2.624-3.439-6.968-5.158-13.032-5.158-5.973 0-10.498 1.81-13.575 5.43-2.986 3.62-4.525 9.412-4.615 17.376h35.295ZM671.197 37.328c9.141 0 15.521 2.624 19.141 7.873 3.71 5.159 5.566 14.254 5.566 27.286 0 13.032-2.308 22.217-6.924 27.557-4.525 5.249-12.896 7.873-25.113 7.873-3.801 0-10.091-.362-18.87-1.086l-3.8-.407V9.092h10.045v32.987c6.878-3.168 13.53-4.751 19.955-4.751Zm-7.466 61.494c8.869 0 14.706-1.99 17.512-5.973 2.896-4.072 4.344-10.905 4.344-20.498 0-9.593-1.132-16.29-3.394-20.091-2.263-3.891-6.29-5.837-12.082-5.837-5.249 0-10.634.995-16.154 2.986l-2.715.95v47.784c5.882.453 10.045.68 12.489.68ZM465.252 232.84h-10.181v-67.875h10.046v4.751c6.787-4.072 13.394-6.108 19.819-6.108 8.417 0 14.299 2.307 17.648 6.923 2.986-1.81 6.832-3.394 11.538-4.751 4.797-1.448 9.005-2.172 12.625-2.172 9.05 0 15.113 2.443 18.19 7.33 3.168 4.797 4.752 13.485 4.752 26.064v35.838h-10.182v-35.567c0-9.411-.905-15.837-2.715-19.276-1.81-3.529-5.656-5.294-11.538-5.294-2.987 0-6.064.452-9.231 1.357-3.168.815-5.611 1.629-7.331 2.444l-2.579 1.222c1.177 2.986 1.765 9.593 1.765 19.819v35.295h-10.181v-35.024c0-9.773-.905-16.38-2.715-19.819-1.72-3.529-5.566-5.294-11.539-5.294-2.896 0-5.883.452-8.96 1.357-2.986.815-5.294 1.629-6.923 2.444l-2.308 1.222v55.114ZM565.563 198.767c0-12.399 2.217-21.358 6.652-26.879 4.434-5.52 11.9-8.28 22.398-8.28 10.589 0 18.055 2.76 22.399 8.28 4.434 5.521 6.652 14.48 6.652 26.879 0 12.398-2.082 21.403-6.245 27.014-4.163 5.611-11.765 8.416-22.806 8.416s-18.643-2.805-22.806-8.416c-4.163-5.611-6.244-14.616-6.244-27.014Zm10.453-.136c0 9.864 1.176 16.788 3.529 20.77 2.444 3.982 7.466 5.973 15.068 5.973 7.693 0 12.715-1.946 15.068-5.838 2.353-3.982 3.53-10.95 3.53-20.905 0-9.955-1.312-16.788-3.937-20.498-2.624-3.801-7.511-5.702-14.661-5.702-7.059 0-11.946 1.901-14.661 5.702-2.624 3.71-3.936 10.543-3.936 20.498ZM650.45 232.84h-10.182v-67.875h10.046v4.751c7.33-4.072 14.344-6.108 21.041-6.108 9.05 0 15.114 2.443 18.191 7.33 3.167 4.887 4.751 13.575 4.751 26.064v35.838h-10.046v-35.567c0-9.411-.95-15.837-2.85-19.276-1.81-3.529-5.747-5.294-11.811-5.294-2.896 0-5.973.452-9.231 1.357-3.167.815-5.611 1.629-7.33 2.444l-2.579 1.222v55.114ZM759.336 224.423l3.936-.407.272 8.009c-10.317 1.448-19.141 2.172-26.471 2.172-9.774 0-16.698-2.805-20.77-8.416-4.073-5.702-6.109-14.525-6.109-26.471 0-23.802 9.457-35.702 28.372-35.702 9.14 0 15.973 2.579 20.498 7.737 4.525 5.068 6.788 13.078 6.788 24.028l-.543 7.738h-44.798c0 7.511 1.358 13.077 4.073 16.697 2.715 3.62 7.421 5.43 14.118 5.43 6.787 0 13.665-.272 20.634-.815Zm-3.666-29.457c0-8.326-1.357-14.209-4.072-17.648-2.625-3.439-6.969-5.158-13.032-5.158-5.973 0-10.498 1.81-13.575 5.43-2.987 3.62-4.525 9.412-4.616 17.376h35.295ZM816.48 173.789h-21.584v32.444c0 7.783.543 12.896 1.629 15.34 1.176 2.443 3.891 3.665 8.144 3.665l12.082-.815.679 8.417c-6.064.995-10.679 1.493-13.847 1.493-7.058 0-11.945-1.719-14.66-5.158s-4.073-10.001-4.073-19.684v-35.702h-9.638v-8.824h9.638v-20.77h10.046v20.77h21.584v8.824ZM828.912 232.84v-67.875h10.182v67.875h-10.182Zm0-83.215v-11.81h10.182v11.81h-10.182ZM854.535 174.06v-9.095h50.363v9.095l-38.01 49.685h38.01v9.095h-50.363v-9.095l38.01-49.685h-38.01ZM968.304 185.463v34.752c.271 3.349 2.896 5.34 7.873 5.973l-.407 8.009c-7.15 0-12.534-1.81-16.154-5.43-8.145 3.62-16.29 5.43-24.435 5.43-6.245 0-10.996-1.764-14.254-5.294-3.258-3.529-4.887-8.597-4.887-15.204 0-6.606 1.674-11.448 5.023-14.525 3.348-3.168 8.597-5.113 15.747-5.837l21.313-2.036v-5.838c0-4.615-.996-7.918-2.987-9.909-1.991-1.991-4.706-2.987-8.145-2.987-7.24 0-14.751.453-22.534 1.358l-4.209.407-.407-7.738c9.955-1.991 18.779-2.986 26.471-2.986 7.693 0 13.259 1.764 16.697 5.294 3.53 3.529 5.295 9.05 5.295 16.561Zm-41.811 27.693c0 8.326 3.439 12.489 10.317 12.489 6.154 0 12.217-1.041 18.19-3.122l3.123-1.086v-22.399l-20.091 1.901c-4.073.362-7.014 1.538-8.824 3.529-1.81 1.991-2.715 4.887-2.715 8.688ZM1023.55 173.789h-21.58v32.444c0 7.783.54 12.896 1.63 15.34 1.17 2.443 3.89 3.665 8.14 3.665l12.08-.815.68 8.417c-6.06.995-10.68 1.493-13.85 1.493-7.05 0-11.942-1.719-14.657-5.158s-4.072-10.001-4.072-19.684v-35.702h-9.638v-8.824h9.638v-20.77h10.049v20.77h21.58v8.824ZM1035.98 232.84v-67.875h10.18v67.875h-10.18Zm0-83.215v-11.81h10.18v11.81h-10.18ZM1062.69 198.767c0-12.399 2.22-21.358 6.65-26.879 4.44-5.52 11.9-8.28 22.4-8.28 10.59 0 18.06 2.76 22.4 8.28 4.44 5.521 6.65 14.48 6.65 26.879 0 12.398-2.08 21.403-6.24 27.014-4.16 5.611-11.77 8.416-22.81 8.416s-18.64-2.805-22.8-8.416c-4.17-5.611-6.25-14.616-6.25-27.014Zm10.45-.136c0 9.864 1.18 16.788 3.53 20.77 2.45 3.982 7.47 5.973 15.07 5.973 7.69 0 12.72-1.946 15.07-5.838 2.35-3.982 3.53-10.95 3.53-20.905 0-9.955-1.31-16.788-3.94-20.498-2.62-3.801-7.51-5.702-14.66-5.702-7.06 0-11.94 1.901-14.66 5.702-2.62 3.71-3.94 10.543-3.94 20.498ZM1147.58 232.84h-10.18v-67.875h10.04v4.751c7.33-4.072 14.35-6.108 21.04-6.108 9.05 0 15.12 2.443 18.19 7.33 3.17 4.887 4.76 13.575 4.76 26.064v35.838h-10.05v-35.567c0-9.411-.95-15.837-2.85-19.276-1.81-3.529-5.75-5.294-11.81-5.294-2.9 0-5.97.452-9.23 1.357-3.17.815-5.61 1.629-7.33 2.444l-2.58 1.222v55.114Z"/><path fill="#FF7A7F" d="M256.555 178.726v19.37H21.395V66.866l31.17.01.01-21.24-52.41-.02v.03h-.01v172.42h.01v1.27h256.39v.01h21.24v-40.62h-21.24Z"/><path fill="#FFC8DC" d="M80.305 198.096h-58.91v21.4h58.91v-21.4Z"/><path fill="#A3BEDC" d="M21.4 219.493v-58.91H0v58.91h21.4Z"/><path fill="#56B7B5" d="M21.407 160.579v-58.91H.007v58.91h21.4Z"/><path fill="#FF9852" d="M138.945 198.096h-58.91v21.4h58.91v-21.4Z"/><path fill="#98E1D0" d="M198.015 198.096h-58.91v21.4h58.91v-21.4Z"/><path fill="#8075B3" d="M256.926 198.096h-58.91v21.4h58.91v-21.4Z"/><path fill="#8075B3" d="M277.798 219.481v-50.75h-21.4v50.75h21.4Z"/><path fill="#98E1D0" d="M47.586 173.72h277.64V0H47.586v173.72Z"/><path fill="#fff" d="M86.026 100.276h18.66c2.29 0 4.14-1.85 4.14-4.14v-18.65c0-2.29-1.85-4.14-4.14-4.14h-18.66c-2.29 0-4.14 1.85-4.14 4.14v18.66c0 2.28 1.85 4.13 4.14 4.13ZM186.406 130.676c23.88 0 43.24-19.359 43.24-43.24s-19.36-43.24-43.24-43.24c-23.881 0-43.24 19.359-43.24 43.24s19.359 43.24 43.24 43.24ZM268.096 100.276h18.66c2.29 0 4.14-1.85 4.14-4.14v-18.65c0-2.29-1.85-4.14-4.14-4.14h-18.66c-2.29 0-4.14 1.85-4.14 4.14v18.66c0 2.28 1.85 4.13 4.14 4.13Z"/></svg>
