<svg xmlns="http://www.w3.org/2000/svg" fill="none" viewBox="0 0 986 349"><ellipse cx="493.285" cy="118.301" fill="#fff" rx="81.905" ry="81.9"/><path fill="#FFA6B2" fill-rule="evenodd" d="M611.346 104.926c-4.458-41.89-30.931-77.21-67.618-94.16H509.47v28.05c32.856 6.354 58.526 32.836 63.665 66.101h38.211v.009Z" clip-rule="evenodd"/><path fill="#B3EDDF" fill-rule="evenodd" d="M440.441 221.849v-45.618a80.546 80.546 0 0 1-9.756-10.662h-28.146v25.061a118.028 118.028 0 0 0 37.902 31.219Z" clip-rule="evenodd"/><path fill="#FFB985" fill-rule="evenodd" d="M611.42 105.729h-38.173a80.37 80.37 0 0 1 .823 11.493c0 11.792-2.561 22.996-7.149 33.069v15.287h34.827C608.336 150.898 612 134.63 612 117.502c.009-3.98-.187-7.905-.58-11.773Z" clip-rule="evenodd"/><path fill="#FFCBA9" fill-rule="evenodd" d="M591.058 88.573c-9.363 0-16.96 7.588-16.96 16.96v2.392c0 9.363 7.588 16.96 16.96 16.96 9.364 0 16.961-7.588 16.961-16.96v-2.392c0-9.372-7.597-16.96-16.961-16.96Z" clip-rule="evenodd"/><path fill="#68C180" fill-rule="evenodd" d="M606.608 152.805c-14.989 47.636-59.516 82.191-112.108 82.191-4.794 0-9.522-.29-14.167-.841v-38.302a79.969 79.969 0 0 0 13.887 1.206c31.314 0 58.413-18.016 71.496-44.254h40.892Z" clip-rule="evenodd"/><path fill="#2E9C86" fill-rule="evenodd" d="M418.761 148.021a68.257 68.257 0 0 1 3.121 3.056 75.495 75.495 0 0 1-1.355-3.056h-1.766Zm54.396 47.674c0 12.661-2.439 24.762-6.887 35.881a116.683 116.683 0 0 1-30.735-12.427 63.345 63.345 0 0 0 4.504-23.454 63.386 63.386 0 0 0-5.168-25.061c10.093 11.204 23.306 19.529 38.276 23.622.01.476.01.953.01 1.439Z" clip-rule="evenodd"/><path fill="#98E1D0" fill-rule="evenodd" d="M385.074 160.383h26.641V92.162h-31.977A117.893 117.893 0 0 0 377 117.494c0 15.137 2.859 29.602 8.074 42.889Z" clip-rule="evenodd"/><path fill="#56B7B5" fill-rule="evenodd" d="M383.999 157.533c15.597-11.39 25.717-29.817 25.717-50.608 0-17.557-7.224-33.433-18.867-44.805a118.198 118.198 0 0 1 27.959-34.49 107.51 107.51 0 0 1 22.895 29.454c-16.746 14.633-27.324 36.143-27.324 60.129 0 19.969 7.335 38.227 19.455 52.234a107.326 107.326 0 0 1-27.062 26.201 117.301 117.301 0 0 1-22.773-38.115Z" clip-rule="evenodd"/><path fill="#8075B3" fill-rule="evenodd" d="M498.294.056A127.966 127.966 0 0 0 494.5 0c-43.612 0-81.682 23.762-101.95 59.046h46.975c14.288-13.437 33.529-21.67 54.695-21.67 1.364 0 2.719.038 4.074.103V.056Z" clip-rule="evenodd"/><path fill="#549458" fill-rule="evenodd" d="M485.473 234.651a79.112 79.112 0 0 1 9.84-37.601c-.365.01-.729.01-1.094.01a79.763 79.763 0 0 1-24.539-3.841c-5.046 11.372-8.111 23.819-8.765 36.91a117.719 117.719 0 0 0 24.558 4.522Zm124.125-93.348a103.402 103.402 0 0 0-36.809-9.746 79.467 79.467 0 0 1-8.718 24.388c.29 0 .57-.009.86-.009 13.381 0 25.987 3.308 37.042 9.148a116.975 116.975 0 0 0 7.625-23.781Z" clip-rule="evenodd"/><path fill="#FF9852" fill-rule="evenodd" d="M610.449 98.3c-3.168-7.81-10.84-13.315-19.783-13.315-8.429 0-15.708 4.887-19.185 11.97a79.974 79.974 0 0 1 2.598 20.268c0 .831-.009 1.663-.037 2.495 3.915 4.849 9.905 7.961 16.624 7.961 10.662 0 19.493-7.812 21.091-18.016-.262-3.85-.701-7.634-1.308-11.362Zm-6.42 8.027c0 7.382-5.981 13.363-13.363 13.363s-13.363-5.981-13.363-13.363 5.981-13.362 13.363-13.362c7.373-.01 13.363 5.98 13.363 13.362Z" clip-rule="evenodd"/><path fill="#825282" fill-rule="evenodd" d="M393.381 57.616C433.554 51.253 468.821 30.144 493.453 0h1.056c16.232 0 31.697 3.29 45.761 9.241a206.648 206.648 0 0 1-24.689 31.014 80.007 80.007 0 0 0-21.352-2.888c-37.127 0-68.328 25.332-77.271 59.653a204.928 204.928 0 0 1-39.024 5.663 116.53 116.53 0 0 1 15.447-45.067Z" clip-rule="evenodd"/><path fill="#FF7A7F" fill-rule="evenodd" d="M599.655 64.998c-.803.019-1.607.037-2.411.037-39.219 0-72.178-26.817-81.532-63.12 36.846 6.71 67.693 30.612 83.943 63.083Z" clip-rule="evenodd"/><path fill="#fff" d="M984.029 301.034c-6.136-.832-10.582-1.248-13.338-1.248-2.756 0-4.68.338-5.772 1.014-1.04.624-1.56 1.638-1.56 3.042s.572 2.392 1.716 2.964c1.196.572 3.952 1.248 8.268 2.028 4.368.728 7.462 1.898 9.282 3.51 1.82 1.612 2.73 4.472 2.73 8.58s-1.326 7.124-3.978 9.048c-2.6 1.924-6.422 2.886-11.466 2.886-3.172 0-7.176-.442-12.012-1.326l-2.418-.39.312-7.098c6.24.832 10.738 1.248 13.494 1.248 2.756 0 4.706-.338 5.85-1.014 1.196-.676 1.794-1.794 1.794-3.354s-.572-2.626-1.716-3.198c-1.092-.624-3.77-1.274-8.034-1.95-4.212-.728-7.306-1.846-9.282-3.354s-2.964-4.264-2.964-8.268c0-4.004 1.352-6.994 4.056-8.97 2.756-1.976 6.266-2.964 10.53-2.964 3.328 0 7.41.416 12.246 1.248l2.418.468-.156 7.098ZM949.989 300.254h-10.764v17.16c0 3.172.234 5.278.702 6.318.468 1.04 1.664 1.56 3.588 1.56l6.396-.234.39 6.786c-3.484.676-6.136 1.014-7.956 1.014-4.42 0-7.462-1.014-9.126-3.042-1.612-2.028-2.418-5.85-2.418-11.466v-18.096h-4.992V293h4.992v-11.31h8.424V293h10.764v7.254ZM917.166 324.98l2.184-.234.156 6.318c-5.928 1.196-11.18 1.794-15.756 1.794-5.772 0-9.932-1.586-12.48-4.758-2.496-3.172-3.744-8.242-3.744-15.21 0-13.832 5.642-20.748 16.926-20.748 10.92 0 16.38 5.954 16.38 17.862l-.546 6.084h-24.18c.052 3.224.754 5.59 2.106 7.098 1.352 1.508 3.874 2.262 7.566 2.262 3.692 0 7.488-.156 11.388-.468Zm-4.68-15.444c0-3.848-.624-6.526-1.872-8.034-1.196-1.56-3.25-2.34-6.162-2.34s-5.044.806-6.396 2.418c-1.3 1.612-1.976 4.264-2.028 7.956h16.458ZM847.503 348.77V293h8.424v2.418c3.588-2.184 6.942-3.276 10.062-3.276 5.148 0 8.918 1.586 11.31 4.758 2.392 3.12 3.588 8.398 3.588 15.834 0 7.384-1.378 12.584-4.134 15.6-2.704 3.016-7.15 4.524-13.338 4.524-2.132 0-4.602-.234-7.41-.702v16.614h-8.502Zm17.004-49.062c-2.444 0-4.888.546-7.332 1.638l-1.17.546v23.01c2.08.416 4.368.624 6.864.624 3.536 0 5.98-1.014 7.332-3.042 1.352-2.028 2.028-5.486 2.028-10.374 0-8.268-2.574-12.402-7.722-12.402ZM805.609 348.77V293h8.424v2.418c3.588-2.184 6.942-3.276 10.062-3.276 5.148 0 8.918 1.586 11.31 4.758 2.392 3.12 3.588 8.398 3.588 15.834 0 7.384-1.378 12.584-4.134 15.6-2.704 3.016-7.15 4.524-13.338 4.524-2.132 0-4.602-.234-7.41-.702v16.614h-8.502Zm17.004-49.062c-2.444 0-4.888.546-7.332 1.638l-1.17.546v23.01c2.08.416 4.368.624 6.864.624 3.536 0 5.98-1.014 7.332-3.042 1.352-2.028 2.028-5.486 2.028-10.374 0-8.268-2.574-12.402-7.722-12.402ZM786.794 332v-39h8.502v39h-8.502Zm0-45.63v-8.97h8.502v8.97h-8.502ZM752.716 332h-8.502v-39h8.424v2.418c3.796-2.184 7.384-3.276 10.764-3.276 5.2 0 8.736 1.482 10.608 4.446 1.924 2.912 2.886 7.748 2.886 14.508V332h-8.424v-20.67c0-4.212-.468-7.202-1.404-8.97-.884-1.768-2.73-2.652-5.538-2.652-2.652 0-5.2.52-7.644 1.56l-1.17.468V332ZM718.555 285.278c-6.604 0-9.906 2.314-9.906 6.942 0 2.392.78 4.108 2.34 5.148 1.56.988 4.992 2.236 10.296 3.744 5.356 1.456 9.126 3.224 11.31 5.304 2.184 2.028 3.276 5.252 3.276 9.672 0 5.616-1.612 9.828-4.836 12.636-3.172 2.756-7.514 4.134-13.026 4.134-4.42 0-9.308-.52-14.664-1.56l-2.808-.546.858-6.942c7.02.936 12.376 1.404 16.068 1.404 6.448 0 9.672-2.86 9.672-8.58 0-2.236-.728-3.874-2.184-4.914-1.456-1.092-4.732-2.262-9.828-3.51-5.096-1.3-8.892-3.068-11.388-5.304-2.496-2.236-3.744-5.772-3.744-10.608s1.56-8.476 4.68-10.92c3.172-2.496 7.54-3.744 13.104-3.744 4.004 0 8.736.468 14.196 1.404l2.73.468-.702 7.02c-7.28-.832-12.428-1.248-15.444-1.248ZM648.922 332h-8.658v-53.43h8.658v24.102l7.956-.624 10.92-23.478h9.906l-13.182 26.832L678.25 332h-10.062l-11.31-22.308-7.956.546V332ZM608.781 332h-18.486v-53.43h18.486c8.216 0 13.832 2.08 16.848 6.24 3.016 4.16 4.524 10.686 4.524 19.578 0 4.524-.312 8.372-.936 11.544-.572 3.12-1.612 5.954-3.12 8.502-2.964 5.044-8.736 7.566-17.316 7.566Zm12.402-27.612c0-6.448-.806-11.102-2.418-13.962-1.612-2.86-4.94-4.29-9.984-4.29h-9.828v38.22h9.828c5.148 0 8.58-1.898 10.296-5.694a21.984 21.984 0 0 0 1.638-6.162c.312-2.184.468-4.888.468-8.112ZM563.621 285.278c-6.604 0-9.906 2.314-9.906 6.942 0 2.392.78 4.108 2.34 5.148 1.56.988 4.992 2.236 10.296 3.744 5.356 1.456 9.126 3.224 11.31 5.304 2.184 2.028 3.276 5.252 3.276 9.672 0 5.616-1.612 9.828-4.836 12.636-3.172 2.756-7.514 4.134-13.026 4.134-4.42 0-9.308-.52-14.664-1.56l-2.808-.546.858-6.942c7.02.936 12.376 1.404 16.068 1.404 6.448 0 9.672-2.86 9.672-8.58 0-2.236-.728-3.874-2.184-4.914-1.456-1.092-4.732-2.262-9.828-3.51-5.096-1.3-8.892-3.068-11.388-5.304-2.496-2.236-3.744-5.772-3.744-10.608s1.56-8.476 4.68-10.92c3.172-2.496 7.54-3.744 13.104-3.744 4.004 0 8.736.468 14.196 1.404l2.73.468-.702 7.02c-7.28-.832-12.428-1.248-15.444-1.248ZM520.294 301.034c-6.136-.832-10.582-1.248-13.338-1.248-2.756 0-4.68.338-5.772 1.014-1.04.624-1.56 1.638-1.56 3.042s.572 2.392 1.716 2.964c1.196.572 3.952 1.248 8.268 2.028 4.368.728 7.462 1.898 9.282 3.51 1.82 1.612 2.73 4.472 2.73 8.58s-1.326 7.124-3.978 9.048c-2.6 1.924-6.422 2.886-11.466 2.886-3.172 0-7.176-.442-12.012-1.326l-2.418-.39.312-7.098c6.24.832 10.738 1.248 13.494 1.248 2.756 0 4.706-.338 5.85-1.014 1.196-.676 1.794-1.794 1.794-3.354s-.572-2.626-1.716-3.198c-1.092-.624-3.77-1.274-8.034-1.95-4.212-.728-7.306-1.846-9.282-3.354s-2.964-4.264-2.964-8.268c0-4.004 1.352-6.994 4.056-8.97 2.756-1.976 6.266-2.964 10.53-2.964 3.328 0 7.41.416 12.246 1.248l2.418.468-.156 7.098ZM486.255 300.254h-10.764v17.16c0 3.172.234 5.278.702 6.318.468 1.04 1.664 1.56 3.588 1.56l6.396-.234.39 6.786c-3.484.676-6.136 1.014-7.956 1.014-4.42 0-7.462-1.014-9.126-3.042-1.612-2.028-2.418-5.85-2.418-11.466v-18.096h-4.992V293h4.992v-11.31h8.424V293h10.764v7.254ZM431.195 332h-8.502v-39h8.424v2.418c3.796-2.184 7.384-3.276 10.764-3.276 5.2 0 8.736 1.482 10.608 4.446 1.924 2.912 2.886 7.748 2.886 14.508V332h-8.424v-20.67c0-4.212-.468-7.202-1.404-8.97-.884-1.768-2.73-2.652-5.538-2.652-2.652 0-5.2.52-7.644 1.56l-1.17.468V332ZM410.851 324.98l2.184-.234.156 6.318c-5.928 1.196-11.18 1.794-15.756 1.794-5.772 0-9.932-1.586-12.48-4.758-2.496-3.172-3.744-8.242-3.744-15.21 0-13.832 5.642-20.748 16.926-20.748 10.92 0 16.38 5.954 16.38 17.862l-.546 6.084h-24.18c.052 3.224.754 5.59 2.106 7.098 1.352 1.508 3.874 2.262 7.566 2.262 3.692 0 7.488-.156 11.388-.468Zm-4.68-15.444c0-3.848-.624-6.526-1.872-8.034-1.196-1.56-3.25-2.34-6.162-2.34s-5.044.806-6.396 2.418c-1.3 1.612-1.976 4.264-2.028 7.956h16.458ZM326.23 332h-8.502v-39h8.424v2.418c3.692-2.184 7.072-3.276 10.14-3.276 4.524 0 7.826 1.274 9.906 3.822 4.732-2.548 9.438-3.822 14.118-3.822s7.982 1.456 9.906 4.368c1.924 2.86 2.886 7.722 2.886 14.586V332h-8.424v-20.67c0-4.212-.442-7.202-1.326-8.97-.832-1.768-2.6-2.652-5.304-2.652-2.34 0-4.862.52-7.566 1.56l-1.326.546c.416 1.04.624 4.368.624 9.984V332h-8.424v-20.046c0-4.628-.416-7.826-1.248-9.594-.832-1.768-2.652-2.652-5.46-2.652-2.6 0-5.018.52-7.254 1.56l-1.17.468V332ZM275.75 293h8.346l8.268 31.746h2.106L302.738 293h8.424l-14.82 55.77h-8.346l4.68-16.77h-6.708l-10.218-39ZM269.121 305.012v17.784c.052 1.144.338 2.002.858 2.574.572.52 1.43.858 2.574 1.014l-.234 6.474c-4.472 0-7.93-.962-10.374-2.886-4.16 1.924-8.346 2.886-12.558 2.886-7.748 0-11.622-4.134-11.622-12.402 0-3.952 1.04-6.812 3.12-8.58 2.132-1.768 5.382-2.834 9.75-3.198l10.062-.858v-2.808c0-2.08-.468-3.536-1.404-4.368-.884-.832-2.21-1.248-3.978-1.248-3.328 0-7.488.208-12.48.624l-2.496.156-.312-6.006c5.668-1.352 10.868-2.028 15.6-2.028 4.784 0 8.216 1.04 10.296 3.12 2.132 2.028 3.198 5.278 3.198 9.75Zm-17.472 9.672c-3.588.312-5.382 2.262-5.382 5.85 0 3.588 1.586 5.382 4.758 5.382 2.6 0 5.356-.416 8.268-1.248l1.404-.468v-10.374l-9.048.858ZM215.15 315.386h-10.92V332h-8.658v-53.43h19.578c12.116 0 18.174 5.98 18.174 17.94 0 6.136-1.534 10.816-4.602 14.04-3.016 3.224-7.54 4.836-13.572 4.836Zm-10.92-7.488h10.842c6.24 0 9.36-3.796 9.36-11.388 0-3.64-.754-6.292-2.262-7.956-1.508-1.664-3.874-2.496-7.098-2.496H204.23v21.84ZM143.341 332h-8.502v-39h8.424v2.418c3.796-2.184 7.384-3.276 10.764-3.276 5.2 0 8.736 1.482 10.608 4.446 1.924 2.912 2.886 7.748 2.886 14.508V332h-8.424v-20.67c0-4.212-.468-7.202-1.404-8.97-.884-1.768-2.73-2.652-5.538-2.652-2.652 0-5.2.52-7.644 1.56l-1.17.468V332ZM122.998 324.98l2.184-.234.156 6.318c-5.928 1.196-11.18 1.794-15.756 1.794-5.772 0-9.932-1.586-12.48-4.758-2.496-3.172-3.744-8.242-3.744-15.21 0-13.832 5.642-20.748 16.926-20.748 10.92 0 16.38 5.954 16.38 17.862l-.546 6.084h-24.18c.052 3.224.754 5.59 2.106 7.098 1.352 1.508 3.874 2.262 7.566 2.262 3.692 0 7.488-.156 11.388-.468Zm-4.68-15.444c0-3.848-.624-6.526-1.872-8.034-1.196-1.56-3.25-2.34-6.162-2.34s-5.044.806-6.396 2.418c-1.3 1.612-1.976 4.264-2.028 7.956h16.458ZM53.335 348.77V293h8.424v2.418c3.588-2.184 6.942-3.276 10.063-3.276 5.147 0 8.918 1.586 11.31 4.758 2.391 3.12 3.587 8.398 3.587 15.834 0 7.384-1.377 12.584-4.133 15.6-2.704 3.016-7.15 4.524-13.339 4.524-2.132 0-4.602-.234-7.41-.702v16.614h-8.502Zm17.005-49.062c-2.445 0-4.889.546-7.333 1.638l-1.17.546v23.01c2.08.416 4.368.624 6.864.624 3.537 0 5.98-1.014 7.333-3.042 1.351-2.028 2.027-5.486 2.027-10.374 0-8.268-2.574-12.402-7.722-12.402ZM12.444 320.69c1.768 3.068 5.148 4.602 10.14 4.602 4.992 0 8.346-1.508 10.062-4.524 1.768-3.016 2.652-8.06 2.652-15.132 0-7.124-.91-12.298-2.73-15.522-1.768-3.224-5.096-4.836-9.984-4.836s-8.242 1.612-10.062 4.836c-1.82 3.224-2.73 8.372-2.73 15.444 0 7.02.884 12.064 2.652 15.132Zm26.988 5.616c-3.172 4.368-8.788 6.552-16.848 6.552-8.06 0-13.702-2.184-16.926-6.552-3.224-4.42-4.836-11.336-4.836-20.748s1.612-16.406 4.836-20.982c3.276-4.576 8.918-6.864 16.926-6.864s13.624 2.288 16.848 6.864c3.224 4.524 4.836 11.518 4.836 20.982 0 9.464-1.612 16.38-4.836 20.748Z"/></svg>
