<svg xmlns="http://www.w3.org/2000/svg" width="731" height="205" fill="none" viewBox="0 0 731 205"><path fill="#1F4FFF" d="M36.868 203.741c-4.573-1.185-11.96-4.553-15.637-7.131-3.628-2.544-9.993-9.021-12.53-12.752-3.675-5.405-6.182-11.359-7.523-17.862C.08 160.67 0 156.366 0 102.512s.08-58.157 1.178-63.483C4.971 20.63 19.4 5.6 37.427 1.269 42.693.002 44.61-.006 365.967 0c315.197.004 323.361.035 328.004 1.208 16.618 4.2 29.178 15.857 34.934 32.424l2.095 6.03v125.698l-2.093 6.031c-5.727 16.498-18.213 28.166-34.652 32.382-4.895 1.255-7.355 1.264-328.865 1.21-314.421-.053-324.067-.09-328.522-1.243Zm646.707-6.922c17.024-1.963 31.215-13.392 37.088-29.871l1.471-4.126.19-58.405c.212-65.044.351-62.615-4.105-71.827-5.492-11.354-16.148-20.088-28.693-23.518-3.91-1.07-19.864-1.135-318.81-1.316-208.479-.126-316.88.027-321.167.451-11.539 1.143-19.984 5.11-27.72 13.021-5.074 5.188-7.913 9.671-10.335 16.319l-1.696 4.656v120.619l1.696 4.656c.933 2.561 2.643 6.267 3.8 8.236 2.7 4.6 10.616 12.536 15.203 15.244 4.7 2.775 11.783 5.203 16.939 5.808 6.114.717 629.926.769 636.139.053Zm-639.774-7.031c-6.9-1.812-11.836-4.704-17.281-10.122-5.534-5.506-8.879-11.544-10.387-18.749-1.383-6.601-1.383-110.208 0-116.81C17.63 36.95 20.99 30.9 26.524 25.387c5.53-5.507 10.453-8.367 17.526-10.18 4.838-1.241 8.257-1.254 321.542-1.243 276.102.01 317.219.13 321.084.944 14.161 2.98 26.113 14.994 29.132 29.281 1.362 6.442 1.368 110.174.008 116.61-1.53 7.237-4.855 13.266-10.369 18.802-5.555 5.576-10.354 8.367-17.566 10.217-4.839 1.241-8.219 1.253-322.175 1.219-310.326-.034-317.386-.062-321.906-1.249Zm161.539-34.692c5.257-1.548 10.285-4.556 13.746-8.225 1.77-1.876 3.345-3.412 3.499-3.412.155 0 .281 1.438.281 3.195 0 5.651 2.148 8.867 5.922 8.867 3.784 0 3.576 1.496 3.576-25.662 0-15.083-.269-26.35-.683-28.594-2.497-13.545-11.841-21.019-27.178-21.737-11.112-.521-20.387 2.338-27.04 8.335-5.878 5.3-6.748 10.85-2.072 13.232 2.105 1.073 2.23 1.073 2.835 0 .348-.617 2.494-3.006 4.768-5.31 5.733-5.805 9.266-7.168 18.66-7.201 5.948-.022 7.427.188 10.131 1.43 3.763 1.728 6.938 4.632 8.6 7.864 1.362 2.648 2.895 10.573 2.331 12.047-.295.77-2.158 1.059-9.133 1.42-19.128.989-31.16 4.379-38.006 10.705-4.006 3.702-5.418 6.789-5.764 12.602-.677 11.351 5.711 18.934 17.9 21.249 5.139.976 12.758.628 17.627-.805Zm-16.072-7.425c-6.032-1.631-9.613-5.857-9.669-11.413-.109-10.685 10.585-15.971 34.976-17.289l8.488-.458-.369 6.209c-.311 5.215-.685 6.853-2.338 10.219-2.147 4.372-5.782 8.009-10.23 10.236-6.301 3.155-14.702 4.161-20.858 2.496Zm196.011 7.194c6.338-1.963 11.269-4.766 14.529-8.261 3.03-3.247 3.895-5.356 3.252-7.926-.366-1.46-3.913-4.322-4.889-3.945-.223.086-1.684 1.727-3.247 3.647-5.183 6.369-12.598 9.523-22.386 9.523-13.934 0-24.32-7.878-27.834-21.112-.486-1.831-.887-3.972-.892-4.758l-.007-1.428h60.742l.728-1.364c1.662-3.115-.782-16.219-4.266-22.867-5.7-10.875-16.471-17.049-29.701-17.024-10.508.02-18.893 3.402-25.923 10.458-7.692 7.72-11.085 16.378-11.068 28.245.017 12.325 3.02 20.3 10.461 27.782 5.232 5.26 11.189 8.501 18.393 10.008 6.054 1.267 16.328.812 22.108-.978Zm-40.578-45.178c.234-1.466 1.279-4.457 2.321-6.648 8.727-18.332 34.748-20.596 44.521-3.873 1.626 2.781 3.55 9.142 3.55 11.732v1.454h-50.817l.425-2.665Zm145.557 45.193c5.052-1.564 10.977-5.444 14.362-9.403l2.539-2.97.005 5.116c.005 6.418.711 7.581 4.605 7.581 5.321 0 4.898 4.436 4.895-51.341-.002-48.186-.038-49.657-1.247-51.644-1.319-2.17-3.142-2.947-6.114-2.606l-1.818.208-.167 21.058-.167 21.059-3.372-3.381c-6.475-6.493-15.344-9.598-25.737-9.012-11.765.663-20.29 5.386-26.486 14.674-6.281 9.416-8.363 22.638-5.507 34.983 2.899 12.535 12.385 22.864 23.832 25.95 5.219 1.408 15.393 1.272 20.377-.272Zm-16.95-7.993c-4.072-1.306-9.074-4.653-11.529-7.716-9.924-12.382-9.352-33.227 1.211-44.107 9.733-10.025 27.667-9.663 37.846.763 5.856 5.999 6.332 7.511 6.332 20.13 0 12.665-.624 15.467-4.665 20.97-2.867 3.905-7.517 7.406-12.431 9.358-3.993 1.587-12.715 1.9-16.764.602Zm110.252 8.676c11.381-2.164 22.549-10.587 21.464-16.189-.415-2.145-1.875-3.964-3.629-4.523-.932-.296-2.112.591-5.018 3.771-4.763 5.211-9.568 7.718-16.813 8.772-16.984 2.469-31.054-7.542-33.411-23.773l-.438-3.016h29.746c16.361 0 30.198-.173 30.749-.385 1.473-.567 1.345-9.492-.223-15.641-1.668-6.538-3.964-10.83-8.145-15.224-6.666-7.008-13.323-9.673-24.189-9.687-8.312-.01-11.629.733-18.043 4.049-8.061 4.167-14.301 11.698-17.415 21.017-1.904 5.697-2.382 16.395-1.021 22.854 2.86 13.582 13.119 24.406 26.123 27.562 4.294 1.043 15.728 1.276 20.263.413Zm-37.135-44.381c0-1.916 2.281-7.977 4.072-10.822 3.954-6.28 10.669-10.782 18.091-12.132 10.761-1.956 21.28 3.1 25.544 12.278 1.807 3.891 3.224 9.576 2.717 10.901-.312.815-3.814.945-25.393.945-23.9 0-25.031-.053-25.031-1.17ZM59.612 154.47c1.1-.998 1.157-3.215 1.157-44.565 0-26.334.23-43.277.58-42.912.319.332 6.584 13.744 13.924 29.806 14.176 31.02 15.116 32.623 19.224 32.764 5.01.172 7.815-.829 9.445-3.371.516-.803 6.845-14.316 14.066-30.028 7.221-15.712 13.395-28.84 13.72-29.17.367-.375.592 15.794.592 42.551 0 48.619-.263 45.976 4.577 45.976 1.535 0 3.08-.431 3.763-1.051 1.102-1 1.158-3.341 1.158-48.606 0-31.403-.222-47.971-.652-48.778-1.072-2.007-4.058-3.139-8.283-3.139-3.735 0-4.04.12-6.101 2.381-1.55 1.702-6.084 11.046-15.895 32.762-7.549 16.71-13.973 30.368-14.276 30.352-.302-.017-2.462-4.262-4.799-9.433a42163.8 42163.8 0 0 1-13.98-30.986c-5.863-13.008-10.411-22.278-11.447-23.33-1.542-1.566-2.163-1.745-6.042-1.743-5.477.002-8.065 1.403-9.029 4.884-.928 3.353-.931 91.486-.003 93.935.37.975 1.011 1.99 1.425 2.253 1.373.876 5.684.53 6.876-.552Zm210.785.394c1.166-.626 1.224-1.511 1.224-18.69 0-9.918.232-18.177.515-18.352.284-.176 8.191 7.407 17.571 16.85 18.326 18.448 21.057 20.849 23.714 20.849 1.917 0 5.072-2.742 5.03-4.372-.014-.563-7.987-8.737-17.716-18.165l-17.69-17.14 15.471-15.554c13.8-13.873 15.398-15.69 14.788-16.823-1.094-2.034-2.508-2.856-4.92-2.862-2.108-.005-3.332 1.081-18.955 16.823-9.185 9.256-16.95 16.829-17.254 16.829-.308 0-.554-13.381-.554-30.187 0-25.75-.141-30.46-.961-32.05-1.051-2.038-2.775-2.72-6.074-2.405l-2.146.206-.162 51.576c-.16 50.891-.145 51.594 1.108 52.851 1.396 1.399 4.966 1.713 7.011.616Zm159.828.026c3.57-1.361 4.532-9.247 1.519-12.462-1.679-1.792-5.352-2.437-8.715-1.529-3.207.866-4.508 3.075-4.508 7.656 0 2.751.287 3.542 1.851 5.11 1.553 1.558 2.361 1.856 5.024 1.856 1.746 0 3.918-.284 4.829-.631Zm229.171-.797c1.163-1.038 5.326-10.824 15.232-35.81 7.497-18.91 13.632-34.79 13.632-35.29 0-1.91-5.135-3.07-7.641-1.725-1.87 1.003-3.311 4.372-15.134 35.369-6.026 15.8-11.131 28.718-11.345 28.708-.214-.01-5.504-13.795-11.756-30.631-12.45-33.532-12.741-34.103-17.324-34.103-1.451 0-3.087.469-3.873 1.11l-1.362 1.111 14.256 35.548c7.841 19.551 14.745 35.906 15.343 36.344.597.439 2.726.797 4.729.797 2.882 0 3.977-.299 5.243-1.428Z"/></svg>
