<svg xmlns="http://www.w3.org/2000/svg" width="474" height="385" fill="none" viewBox="0 0 474 385"><path fill="url(#a)" d="M296.5 377.18H176.56l6.86-51.6h107.2l5.88 51.6Z"/><path fill="url(#b)" d="M0 282.36v31.87c0 6.47 5.29 11.76 11.77 11.76h449.52c6.46 0 11.76-5.29 11.76-11.76v-31.87H0Z"/><path fill="url(#c)" d="M473.05 11.76c0-6.47-5.29-11.76-11.76-11.76H11.77C5.3 0 0 5.29 0 11.76v270.59h473.05V11.76Z"/><path fill="url(#d)" d="M456.38 15.69H16.67v250.98h439.71V15.69Z"/><path fill="#ED87FE" d="M33.217 50.666a3.64 3.64 0 0 1-.897.375 3.435 3.435 0 0 1-.937.129c-1.016 0-1.81-.305-2.385-.914-.57-.61-.855-1.453-.855-2.531s.285-1.922.855-2.532c.574-.609 1.37-.914 2.385-.914.316 0 .625.041.926.123.3.082.603.21.908.381v1.131a2.906 2.906 0 0 0-.861-.55 2.618 2.618 0 0 0-.973-.17c-.676 0-1.195.218-1.559.656-.363.437-.545 1.062-.545 1.875 0 .808.182 1.433.545 1.875.367.437.887.656 1.559.656a2.81 2.81 0 0 0 1.008-.17c.297-.117.572-.297.826-.54v1.12ZM37.6 45.193c-.547 0-.961.213-1.242.639-.282.426-.422 1.057-.422 1.893 0 .832.14 1.462.422 1.892.28.426.695.639 1.242.639.55 0 .967-.213 1.248-.639.281-.43.422-1.06.422-1.892 0-.836-.14-1.467-.422-1.893-.281-.426-.697-.639-1.248-.639Zm0-.914c.91 0 1.605.295 2.086.885.484.59.726 1.443.726 2.56 0 1.122-.24 1.977-.72 2.567-.48.586-1.178.879-2.092.879-.91 0-1.606-.293-2.086-.879-.48-.59-.72-1.445-.72-2.566 0-1.118.24-1.971.72-2.56.48-.59 1.176-.886 2.086-.886ZM47.14 46.934V51h-1.085v-4.066c0-.59-.103-1.024-.31-1.301-.207-.278-.532-.416-.973-.416-.504 0-.893.18-1.166.539-.27.355-.404.867-.404 1.535V51h-1.078v-6.563h1.078v.985c.191-.375.45-.658.779-.85.328-.195.717-.293 1.166-.293.668 0 1.166.221 1.494.662.332.438.498 1.102.498 1.993ZM53.673 44.666v1.055a4.106 4.106 0 0 0-.932-.405 3.441 3.441 0 0 0-.955-.134c-.488 0-.854.08-1.096.24-.238.156-.357.396-.357.72 0 .293.09.512.27.657.179.144.626.285 1.341.422l.434.082c.535.101.94.304 1.212.61.278.304.417.7.417 1.189 0 .648-.23 1.156-.692 1.523-.46.363-1.101.545-1.922.545-.324 0-.664-.035-1.02-.105a8.964 8.964 0 0 1-1.154-.305v-1.113c.403.206.788.363 1.155.468.367.102.715.153 1.043.153.476 0 .845-.096 1.107-.288.262-.195.393-.466.393-.814 0-.5-.479-.846-1.436-1.037l-.047-.012-.404-.082c-.621-.12-1.074-.324-1.36-.61-.285-.288-.427-.68-.427-1.177 0-.629.213-1.113.639-1.453.425-.344 1.033-.516 1.822-.516.351 0 .69.033 1.014.1.324.062.642.158.955.287ZM58.56 42.574v1.864h2.449v.837h-2.45v3.563c0 .484.092.822.276 1.014.184.191.504.287.96.287h1.214V51H59.69c-.808 0-1.378-.162-1.71-.486-.333-.325-.499-.883-.499-1.676v-3.563H55.73v-.837h1.752v-1.864h1.078Z"/><path fill="#45BDE3" d="M72.552 45.193c-.547 0-.96.213-1.242.639-.281.426-.422 1.057-.422 1.893 0 .832.14 1.462.422 1.892.281.426.695.639 1.242.639.551 0 .967-.213 1.248-.639.282-.43.422-1.06.422-1.892 0-.836-.14-1.467-.422-1.893-.281-.426-.697-.639-1.248-.639Zm0-.914c.91 0 1.606.295 2.086.885.484.59.727 1.443.727 2.56 0 1.122-.24 1.977-.721 2.567-.48.586-1.178.879-2.092.879-.91 0-1.605-.293-2.086-.879-.48-.59-.72-1.445-.72-2.566 0-1.118.24-1.971.72-2.56.48-.59 1.176-.886 2.086-.886ZM77.076 48.516v-4.067h1.078v4.067c0 .59.103 1.023.31 1.3.212.278.536.416.973.416.508 0 .897-.177 1.166-.533.27-.36.404-.873.404-1.54v-3.71h1.084V51h-1.084v-.984a2.031 2.031 0 0 1-.785.861c-.328.195-.712.293-1.154.293-.672 0-1.172-.219-1.5-.656-.328-.442-.492-1.108-.492-1.998ZM86.521 42.574v1.864h2.45v.837h-2.45v3.563c0 .484.092.822.276 1.014.183.191.504.287.96.287h1.214V51h-1.319c-.808 0-1.379-.162-1.71-.486-.333-.325-.499-.883-.499-1.676v-3.563h-1.752v-.837h1.752v-1.864h1.078ZM94.942 47.666c0-.809-.133-1.422-.399-1.84-.262-.422-.644-.633-1.148-.633-.528 0-.93.211-1.207.633-.278.418-.416 1.031-.416 1.84 0 .809.138 1.426.416 1.852.28.422.687.632 1.218.632.496 0 .875-.212 1.137-.638.266-.426.399-1.041.399-1.846Zm1.078 2.912c0 .984-.233 1.73-.698 2.238-.464.508-1.148.762-2.05.762-.297 0-.608-.027-.932-.082a6.81 6.81 0 0 1-.973-.24V52.19c.383.18.73.312 1.043.398.313.086.6.129.862.129.582 0 1.005-.158 1.271-.475.266-.316.399-.818.399-1.506v-.779c-.172.367-.407.64-.704.82-.296.18-.658.27-1.084.27-.765 0-1.376-.307-1.834-.92-.457-.613-.685-1.434-.685-2.461 0-1.031.228-1.853.685-2.467.458-.613 1.069-.92 1.834-.92.422 0 .78.084 1.073.252.293.168.531.428.715.78v-.85h1.078v6.117ZM100.514 45.193c-.547 0-.96.213-1.242.639-.281.426-.422 1.057-.422 1.893 0 .832.14 1.462.422 1.892.281.426.695.639 1.242.639.551 0 .967-.213 1.248-.639.281-.43.422-1.06.422-1.892 0-.836-.141-1.467-.422-1.893-.281-.426-.697-.639-1.248-.639Zm0-.914c.91 0 1.606.295 2.086.885.484.59.727 1.443.727 2.56 0 1.122-.241 1.977-.721 2.567-.481.586-1.178.879-2.092.879-.91 0-1.605-.293-2.086-.879-.48-.59-.72-1.445-.72-2.566 0-1.118.24-1.971.72-2.56.48-.59 1.176-.886 2.086-.886ZM105.747 44.46h2.759v5.702h2.139V51h-5.355v-.838h2.138V45.3h-1.681v-.838Zm1.681-2.548h1.078v1.36h-1.078v-1.36ZM117.044 46.934V51h-1.084v-4.066c0-.59-.104-1.024-.311-1.301-.207-.278-.531-.416-.972-.416-.504 0-.893.18-1.166.539-.27.355-.405.867-.405 1.535V51h-1.078v-6.563h1.078v.985c.192-.375.452-.658.78-.85.328-.195.716-.293 1.166-.293.668 0 1.166.221 1.494.662.332.438.498 1.102.498 1.993ZM122.903 47.666c0-.809-.132-1.422-.398-1.84-.262-.422-.645-.633-1.148-.633-.528 0-.93.211-1.207.633-.278.418-.416 1.031-.416 1.84 0 .809.138 1.426.416 1.852.281.422.687.632 1.218.632.496 0 .875-.212 1.137-.638.266-.426.398-1.041.398-1.846Zm1.079 2.912c0 .984-.233 1.73-.698 2.238-.465.508-1.148.762-2.05.762-.297 0-.608-.027-.932-.082a6.81 6.81 0 0 1-.973-.24V52.19c.383.18.731.312 1.043.398.313.086.6.129.862.129.582 0 1.005-.158 1.271-.475.266-.316.398-.818.398-1.506v-.779c-.171.367-.406.64-.703.82-.297.18-.658.27-1.084.27-.765 0-1.377-.307-1.834-.92-.457-.613-.685-1.434-.685-2.461 0-1.031.228-1.853.685-2.467.457-.613 1.069-.92 1.834-.92.422 0 .78.084 1.073.252.293.168.531.428.714.78v-.85h1.079v6.117ZM127.204 43.225v3.287h1.372c.546 0 .972-.145 1.277-.434.308-.289.463-.693.463-1.213 0-.52-.153-.922-.457-1.207-.305-.289-.733-.433-1.283-.433h-1.372Zm-1.183-.973h2.555c.976 0 1.716.223 2.22.668.504.441.756 1.09.756 1.945 0 .863-.252 1.516-.756 1.957-.5.442-1.24.662-2.22.662h-1.372V51h-1.183v-8.748ZM135.97 47.701h-.357c-.629 0-1.104.111-1.424.334-.316.219-.475.547-.475.985 0 .394.12.7.358.92.238.218.568.328.99.328.594 0 1.061-.206 1.401-.616.339-.414.511-.984.515-1.71v-.24h-1.008Zm2.092-.445V51h-1.084v-.973c-.23.391-.521.68-.873.867-.348.184-.771.276-1.271.276-.668 0-1.202-.188-1.6-.563-.398-.379-.598-.884-.598-1.517 0-.73.244-1.285.733-1.664.492-.38 1.213-.569 2.162-.569h1.447v-.17c-.004-.523-.137-.902-.398-1.136-.262-.239-.68-.358-1.254-.358-.367 0-.738.053-1.113.159-.375.105-.741.26-1.096.463v-1.079a7.297 7.297 0 0 1 1.142-.34 5.132 5.132 0 0 1 1.067-.117c.543 0 1.006.08 1.388.24.387.16.7.4.938.721.148.195.254.438.316.727.063.285.094.715.094 1.289ZM143.875 48.89c-.18.458-.408 1.06-.686 1.805-.386 1.032-.646 1.66-.779 1.887-.18.305-.404.533-.674.686a1.883 1.883 0 0 1-.943.228h-.867v-.902h.638c.317 0 .565-.092.744-.276.18-.183.409-.658.686-1.423l-2.537-6.458h1.142l1.946 5.133 1.916-5.133h1.142l-1.728 4.454ZM149.799 45.105c.133-.28.301-.488.504-.62a1.32 1.32 0 0 1 .744-.206c.527 0 .898.205 1.113.615.219.407.328 1.174.328 2.303V51h-.984v-3.756c0-.926-.053-1.5-.158-1.722-.102-.227-.289-.34-.563-.34-.312 0-.527.12-.644.363-.114.238-.17.805-.17 1.7V51h-.985v-3.756c0-.937-.056-1.516-.169-1.734-.11-.219-.309-.328-.598-.328-.285 0-.485.12-.598.363-.109.238-.164.805-.164 1.7V51h-.978v-6.563h.978V45c.129-.234.289-.412.481-.533.195-.125.416-.188.662-.188.297 0 .543.069.738.205.199.137.354.344.463.621ZM159.391 47.18v.527h-4.67v.035c-.031.895.139 1.537.51 1.928.375.39.902.586 1.582.586.344 0 .703-.055 1.078-.164.375-.11.775-.276 1.201-.498v1.072c-.41.168-.807.293-1.189.375a4.972 4.972 0 0 1-1.102.129c-1.019 0-1.816-.305-2.391-.914-.574-.613-.861-1.457-.861-2.531 0-1.047.281-1.883.844-2.508.562-.625 1.312-.938 2.25-.938.836 0 1.494.283 1.974.85.485.566.743 1.25.774 2.05Zm-1.078-.317a2.067 2.067 0 0 0-.498-1.172c-.281-.332-.688-.498-1.219-.498-.52 0-.947.172-1.283.516-.336.344-.52.73-.551 1.16l3.551-.006ZM165.977 46.934V51h-1.084v-4.066c0-.59-.103-1.024-.31-1.301-.207-.278-.532-.416-.973-.416-.504 0-.893.18-1.166.539-.27.355-.404.867-.404 1.535V51h-1.079v-6.563h1.079v.985c.191-.375.451-.658.779-.85.328-.195.717-.293 1.166-.293.668 0 1.166.221 1.494.662.332.438.498 1.102.498 1.993ZM170.407 42.574v1.864h2.449v.837h-2.449v3.563c0 .484.092.822.275 1.014.184.191.504.287.961.287h1.213V51h-1.318c-.809 0-1.379-.162-1.711-.486-.332-.325-.498-.883-.498-1.676v-3.563h-1.752v-.837h1.752v-1.864h1.078Z"/><path fill="#FF417D" d="M181.306 48.07h6.193v.99h-6.193v-.99Zm0-2.76h6.193v.99h-6.193v-.99ZM198.885 47.701h-.358c-.629 0-1.103.111-1.424.334-.316.219-.474.547-.474.985 0 .394.119.7.357.92.238.218.568.328.99.328.594 0 1.061-.206 1.401-.616.34-.414.511-.984.515-1.71v-.24h-1.007Zm2.091-.445V51h-1.084v-.973c-.23.391-.521.68-.873.867-.347.184-.771.276-1.271.276-.668 0-1.201-.188-1.6-.563-.398-.379-.597-.884-.597-1.517 0-.73.244-1.285.732-1.664.492-.38 1.213-.569 2.162-.569h1.447v-.17c-.004-.523-.136-.902-.398-1.136-.262-.239-.68-.358-1.254-.358-.367 0-.738.053-1.113.159-.375.105-.741.26-1.096.463v-1.079a7.276 7.276 0 0 1 1.143-.34 5.115 5.115 0 0 1 1.066-.117c.543 0 1.006.08 1.389.24.386.16.699.4.937.721.149.195.254.438.317.727.062.285.093.715.093 1.289ZM201.762 44.438h1.066l1.143 5.302.937-3.387h.92l.949 3.387 1.143-5.303h1.066L207.451 51h-1.031l-1.049-3.598L204.328 51h-1.031l-1.535-6.563ZM212.865 47.701h-.357c-.629 0-1.103.111-1.424.334-.316.219-.474.547-.474.985 0 .394.119.7.357.92.238.218.568.328.99.328.594 0 1.061-.206 1.401-.616.339-.414.511-.984.515-1.71v-.24h-1.008Zm2.092-.445V51h-1.084v-.973c-.23.391-.521.68-.873.867-.347.184-.771.276-1.271.276-.668 0-1.201-.188-1.6-.563-.398-.379-.598-.884-.598-1.517 0-.73.245-1.285.733-1.664.492-.38 1.213-.569 2.162-.569h1.447v-.17c-.004-.523-.136-.902-.398-1.136-.262-.239-.68-.358-1.254-.358-.367 0-.738.053-1.113.159-.375.105-.741.26-1.096.463v-1.079a7.276 7.276 0 0 1 1.143-.34 5.115 5.115 0 0 1 1.066-.117c.543 0 1.006.08 1.389.24.386.16.699.4.937.721.149.195.254.438.317.727.062.285.093.715.093 1.289ZM217.594 44.46h2.76v5.702h2.139V51h-5.356v-.838h2.139V45.3h-1.682v-.838Zm1.682-2.548h1.078v1.36h-1.078v-1.36ZM226.331 42.574v1.864h2.449v.837h-2.449v3.563c0 .484.092.822.275 1.014.184.191.504.287.961.287h1.213V51h-1.318c-.809 0-1.379-.162-1.711-.486-.332-.325-.498-.883-.498-1.676v-3.563h-1.752v-.837h1.752v-1.864h1.078Z"/><path fill="#45BDE3" d="M242.931 50.666a3.635 3.635 0 0 1-.897.375 3.429 3.429 0 0 1-.937.129c-1.016 0-1.811-.305-2.385-.914-.57-.61-.855-1.453-.855-2.531s.285-1.922.855-2.532c.574-.609 1.369-.914 2.385-.914.316 0 .625.041.926.123.3.082.603.21.908.381v1.131a2.902 2.902 0 0 0-.861-.55 2.623 2.623 0 0 0-.973-.17c-.676 0-1.195.218-1.559.656-.363.437-.545 1.062-.545 1.875 0 .808.182 1.433.545 1.875.367.437.887.656 1.559.656.375 0 .711-.057 1.008-.17a2.55 2.55 0 0 0 .826-.54v1.12ZM247.917 48.627c0 .484.088.85.264 1.096.18.246.443.369.791.369h1.26V51h-1.365c-.645 0-1.145-.205-1.5-.615-.352-.414-.528-1-.528-1.758v-5.936h-1.728v-.843h2.806v6.779ZM252.547 44.46h2.759v5.702h2.139V51h-5.355v-.838h2.138V45.3h-1.681v-.838Zm1.681-2.548h1.078v1.36h-1.078v-1.36ZM264.248 47.18v.527h-4.67v.035c-.031.895.139 1.537.51 1.928.375.39.902.586 1.582.586.344 0 .703-.055 1.078-.164.375-.11.775-.276 1.201-.498v1.072c-.41.168-.806.293-1.189.375a4.972 4.972 0 0 1-1.102.129c-1.019 0-1.816-.305-2.39-.914-.575-.613-.862-1.457-.862-2.531 0-1.047.281-1.883.844-2.508.562-.625 1.312-.938 2.25-.938.836 0 1.494.283 1.975.85.484.566.742 1.25.773 2.05Zm-1.078-.317a2.067 2.067 0 0 0-.498-1.172c-.281-.332-.688-.498-1.219-.498-.519 0-.947.172-1.283.516-.336.344-.52.73-.551 1.16l3.551-.006ZM270.834 46.934V51h-1.084v-4.066c0-.59-.103-1.024-.31-1.301-.207-.278-.532-.416-.973-.416-.504 0-.893.18-1.166.539-.27.355-.404.867-.404 1.535V51h-1.078v-6.563h1.078v.985c.191-.375.451-.658.779-.85.328-.195.717-.293 1.166-.293.668 0 1.166.221 1.494.662.332.438.498 1.102.498 1.993ZM275.264 42.574v1.864h2.449v.837h-2.449v3.563c0 .484.092.822.275 1.014.184.191.504.287.961.287h1.213V51h-1.318c-.809 0-1.379-.162-1.711-.486-.332-.325-.498-.883-.498-1.676v-3.563h-1.752v-.837h1.752v-1.864h1.078Z"/><path fill="#D6ECF3" d="M280.936 48.633h2.063V51h-2.063v-2.367ZM289.257 45.193c-.547 0-.961.213-1.242.639-.282.426-.422 1.057-.422 1.893 0 .832.14 1.462.422 1.892.281.426.695.639 1.242.639.55 0 .967-.213 1.248-.639.281-.43.422-1.06.422-1.892 0-.836-.141-1.467-.422-1.893-.281-.426-.698-.639-1.248-.639Zm0-.914c.91 0 1.605.295 2.086.885.484.59.726 1.443.726 2.56 0 1.122-.24 1.977-.72 2.567-.481.586-1.178.879-2.092.879-.91 0-1.606-.293-2.086-.879-.481-.59-.721-1.445-.721-2.566 0-1.118.24-1.971.721-2.56.48-.59 1.176-.886 2.086-.886ZM293.78 48.516v-4.067h1.079v4.067c0 .59.103 1.023.31 1.3.211.278.535.416.973.416.508 0 .896-.177 1.166-.533.269-.36.404-.873.404-1.54v-3.71h1.084V51h-1.084v-.984a2.029 2.029 0 0 1-.785.861c-.328.195-.713.293-1.154.293-.672 0-1.172-.219-1.5-.656-.329-.442-.493-1.108-.493-1.998ZM303.226 42.574v1.864h2.449v.837h-2.449v3.563c0 .484.092.822.275 1.014.184.191.504.287.961.287h1.213V51h-1.318c-.809 0-1.379-.162-1.711-.486-.332-.325-.498-.883-.498-1.676v-3.563h-1.752v-.837h1.752v-1.864h1.078ZM311.646 47.666c0-.809-.133-1.422-.398-1.84-.262-.422-.645-.633-1.149-.633-.527 0-.929.211-1.207.633-.277.418-.416 1.031-.416 1.84 0 .809.139 1.426.416 1.852.281.422.688.632 1.219.632.496 0 .875-.212 1.137-.638.265-.426.398-1.041.398-1.846Zm1.078 2.912c0 .984-.232 1.73-.697 2.238-.465.508-1.148.762-2.051.762-.297 0-.607-.027-.931-.082a6.778 6.778 0 0 1-.973-.24V52.19c.383.18.73.312 1.043.398.312.086.599.129.861.129.582 0 1.006-.158 1.272-.475.265-.316.398-.818.398-1.506v-.779c-.172.367-.406.64-.703.82-.297.18-.658.27-1.084.27-.766 0-1.377-.307-1.834-.92-.457-.613-.686-1.434-.686-2.461 0-1.031.229-1.853.686-2.467.457-.613 1.068-.92 1.834-.92.422 0 .779.084 1.072.252.293.168.531.428.715.78v-.85h1.078v6.117ZM317.219 45.193c-.547 0-.961.213-1.243.639-.281.426-.421 1.057-.421 1.893 0 .832.14 1.462.421 1.892.282.426.696.639 1.243.639.55 0 .966-.213 1.248-.639.281-.43.422-1.06.422-1.892 0-.836-.141-1.467-.422-1.893-.282-.426-.698-.639-1.248-.639Zm0-.914c.91 0 1.605.295 2.086.885.484.59.726 1.443.726 2.56 0 1.122-.24 1.977-.721 2.567-.48.586-1.177.879-2.091.879-.911 0-1.606-.293-2.086-.879-.481-.59-.721-1.445-.721-2.566 0-1.118.24-1.971.721-2.56.48-.59 1.175-.886 2.086-.886ZM322.451 44.46h2.76v5.702h2.139V51h-5.356v-.838h2.139V45.3h-1.682v-.838Zm1.682-2.548h1.078v1.36h-1.078v-1.36ZM333.748 46.934V51h-1.084v-4.066c0-.59-.103-1.024-.31-1.301-.207-.278-.531-.416-.973-.416-.504 0-.892.18-1.166.539-.269.355-.404.867-.404 1.535V51h-1.078v-6.563h1.078v.985c.191-.375.451-.658.779-.85.328-.195.717-.293 1.166-.293.668 0 1.166.221 1.494.662.332.438.498 1.102.498 1.993ZM339.608 47.666c0-.809-.133-1.422-.398-1.84-.262-.422-.645-.633-1.149-.633-.527 0-.93.211-1.207.633-.277.418-.416 1.031-.416 1.84 0 .809.139 1.426.416 1.852.281.422.688.632 1.219.632.496 0 .875-.212 1.137-.638.265-.426.398-1.041.398-1.846Zm1.078 2.912c0 .984-.232 1.73-.697 2.238-.465.508-1.149.762-2.051.762-.297 0-.607-.027-.932-.082a6.798 6.798 0 0 1-.972-.24V52.19c.383.18.73.312 1.043.398.312.086.599.129.861.129.582 0 1.006-.158 1.272-.475.265-.316.398-.818.398-1.506v-.779c-.172.367-.406.64-.703.82-.297.18-.658.27-1.084.27-.766 0-1.377-.307-1.834-.92-.457-.613-.686-1.434-.686-2.461 0-1.031.229-1.853.686-2.467.457-.613 1.068-.92 1.834-.92.422 0 .779.084 1.072.252.293.168.531.428.715.78v-.85h1.078v6.117ZM343.909 43.225v3.287h1.371c.547 0 .973-.145 1.277-.434.309-.289.463-.693.463-1.213 0-.52-.152-.922-.457-1.207-.304-.289-.732-.433-1.283-.433h-1.371Zm-1.184-.973h2.555c.977 0 1.717.223 2.221.668.504.441.756 1.09.756 1.945 0 .863-.252 1.516-.756 1.957-.5.442-1.24.662-2.221.662h-1.371V51h-1.184v-8.748ZM352.675 47.701h-.358c-.628 0-1.103.111-1.423.334-.317.219-.475.547-.475.985 0 .394.119.7.357.92.239.218.569.328.991.328.593 0 1.06-.206 1.4-.616.34-.414.512-.984.516-1.71v-.24h-1.008Zm2.092-.445V51h-1.084v-.973c-.231.391-.522.68-.873.867-.348.184-.772.276-1.272.276-.668 0-1.201-.188-1.599-.563-.399-.379-.598-.884-.598-1.517 0-.73.244-1.285.732-1.664.492-.38 1.213-.569 2.162-.569h1.448v-.17c-.004-.523-.137-.902-.399-1.136-.262-.239-.679-.358-1.254-.358-.367 0-.738.053-1.113.159-.375.105-.74.26-1.096.463v-1.079a7.34 7.34 0 0 1 1.143-.34 5.122 5.122 0 0 1 1.066-.117c.543 0 1.006.08 1.389.24.387.16.699.4.937.721.149.195.254.438.317.727.062.285.094.715.094 1.289ZM360.579 48.89c-.179.458-.408 1.06-.685 1.805-.387 1.032-.647 1.66-.779 1.887a1.84 1.84 0 0 1-.674.686c-.27.152-.584.228-.944.228h-.867v-.902h.639c.316 0 .564-.092.744-.276.18-.183.408-.658.686-1.423l-2.538-6.458h1.143l1.945 5.133 1.916-5.133h1.143l-1.729 4.454ZM366.503 45.105c.133-.28.301-.488.504-.62a1.32 1.32 0 0 1 .744-.206c.528 0 .899.205 1.114.615.219.407.328 1.174.328 2.303V51h-.984v-3.756c0-.926-.053-1.5-.159-1.722-.101-.227-.289-.34-.562-.34-.313 0-.528.12-.645.363-.113.238-.17.805-.17 1.7V51h-.984v-3.756c0-.937-.057-1.516-.17-1.734-.109-.219-.309-.328-.598-.328-.285 0-.484.12-.597.363-.11.238-.164.805-.164 1.7V51h-.979v-6.563h.979V45c.129-.234.289-.412.48-.533.195-.125.416-.188.662-.188.297 0 .543.069.739.205.199.137.353.344.462.621ZM376.095 47.18v.527h-4.669v.035c-.032.895.138 1.537.509 1.928.375.39.903.586 1.582.586.344 0 .703-.055 1.078-.164.375-.11.776-.276 1.202-.498v1.072a7.056 7.056 0 0 1-1.19.375 4.97 4.97 0 0 1-1.101.129c-1.02 0-1.817-.305-2.391-.914-.574-.613-.861-1.457-.861-2.531 0-1.047.281-1.883.843-2.508.563-.625 1.313-.938 2.25-.938.836 0 1.495.283 1.975.85.484.566.742 1.25.773 2.05Zm-1.078-.317a2.067 2.067 0 0 0-.498-1.172c-.281-.332-.687-.498-1.218-.498-.52 0-.948.172-1.284.516-.336.344-.519.73-.55 1.16l3.55-.006ZM382.682 46.934V51h-1.084v-4.066c0-.59-.104-1.024-.311-1.301-.207-.278-.531-.416-.973-.416-.503 0-.892.18-1.166.539-.269.355-.404.867-.404 1.535V51h-1.078v-6.563h1.078v.985c.192-.375.451-.658.779-.85.329-.195.717-.293 1.166-.293.668 0 1.166.221 1.495.662.332.438.498 1.102.498 1.993ZM387.112 42.574v1.864h2.449v.837h-2.449v3.563c0 .484.091.822.275 1.014.184.191.504.287.961.287h1.213V51h-1.319c-.808 0-1.378-.162-1.711-.486-.332-.325-.498-.883-.498-1.676v-3.563h-1.752v-.837h1.752v-1.864h1.079ZM392.784 48.633h2.062V51h-2.062v-2.367Z"/><path fill="#71E75E" d="M403.712 50.666a3.635 3.635 0 0 1-.897.375 3.434 3.434 0 0 1-.937.129c-1.016 0-1.811-.305-2.385-.914-.57-.61-.856-1.453-.856-2.531s.286-1.922.856-2.532c.574-.609 1.369-.914 2.385-.914.316 0 .625.041.925.123.301.082.604.21.909.381v1.131a2.919 2.919 0 0 0-.862-.55 2.614 2.614 0 0 0-.972-.17c-.676 0-1.196.218-1.559.656-.363.437-.545 1.062-.545 1.875 0 .808.182 1.433.545 1.875.367.437.887.656 1.559.656.375 0 .711-.057 1.007-.17.297-.117.573-.297.827-.54v1.12ZM411.253 45.791a2.452 2.452 0 0 0-.703-.393 2.402 2.402 0 0 0-.785-.123c-.672 0-1.186.211-1.541.633-.356.422-.534 1.032-.534 1.828V51h-1.084v-6.563h1.084v1.284c.18-.465.455-.82.827-1.067.375-.25.818-.375 1.33-.375.265 0 .513.033.744.1.23.066.451.17.662.31v1.102ZM418.038 47.18v.527h-4.67v.035c-.031.895.139 1.537.51 1.928.375.39.902.586 1.582.586.344 0 .703-.055 1.078-.164.375-.11.776-.276 1.201-.498v1.072c-.41.168-.806.293-1.189.375a4.972 4.972 0 0 1-1.102.129c-1.019 0-1.816-.305-2.39-.914-.574-.613-.862-1.457-.862-2.531 0-1.047.282-1.883.844-2.508.563-.625 1.313-.938 2.25-.938.836 0 1.494.283 1.975.85.484.566.742 1.25.773 2.05Zm-1.078-.317a2.067 2.067 0 0 0-.498-1.172c-.281-.332-.687-.498-1.219-.498-.519 0-.947.172-1.283.516-.336.344-.519.73-.551 1.16l3.551-.006ZM422.58 47.701h-.358c-.629 0-1.103.111-1.424.334-.316.219-.474.547-.474.985 0 .394.119.7.357.92.238.218.568.328.99.328.594 0 1.061-.206 1.401-.616.34-.414.511-.984.515-1.71v-.24h-1.007Zm2.091-.445V51h-1.084v-.973c-.23.391-.521.68-.873.867-.347.184-.771.276-1.271.276-.668 0-1.201-.188-1.6-.563-.398-.379-.597-.884-.597-1.517 0-.73.244-1.285.732-1.664.492-.38 1.213-.569 2.162-.569h1.447v-.17c-.004-.523-.136-.902-.398-1.136-.262-.239-.68-.358-1.254-.358-.367 0-.738.053-1.113.159-.375.105-.741.26-1.096.463v-1.079a7.276 7.276 0 0 1 1.143-.34 5.115 5.115 0 0 1 1.066-.117c.543 0 1.006.08 1.389.24.386.16.699.4.937.721.149.195.254.438.317.727.062.285.093.715.093 1.289ZM429.054 42.574v1.864h2.45v.837h-2.45v3.563c0 .484.092.822.276 1.014.183.191.504.287.961.287h1.213V51h-1.319c-.808 0-1.379-.162-1.711-.486-.332-.325-.498-.883-.498-1.676v-3.563h-1.752v-.837h1.752v-1.864h1.078ZM439.01 47.18v.527h-4.67v.035c-.031.895.138 1.537.51 1.928.375.39.902.586 1.582.586a3.85 3.85 0 0 0 1.078-.164c.375-.11.775-.276 1.201-.498v1.072c-.41.168-.807.293-1.19.375a4.97 4.97 0 0 1-1.101.129c-1.02 0-1.817-.305-2.391-.914-.574-.613-.861-1.457-.861-2.531 0-1.047.281-1.883.844-2.508.562-.625 1.312-.938 2.25-.938.836 0 1.494.283 1.974.85.485.566.742 1.25.774 2.05Zm-1.078-.317a2.067 2.067 0 0 0-.498-1.172c-.282-.332-.688-.498-1.219-.498-.52 0-.948.172-1.283.516-.336.344-.52.73-.551 1.16l3.551-.006Z"/><path fill="#D6ECF3" d="M444.447 41.309c-.519.89-.908 1.779-1.166 2.666a9.618 9.618 0 0 0-.38 2.672c0 .894.126 1.785.38 2.671.258.887.647 1.78 1.166 2.678h-.937c-.59-.93-1.029-1.834-1.318-2.713a8.406 8.406 0 0 1-.434-2.636c0-.872.144-1.749.434-2.631.289-.883.728-1.785 1.318-2.707h.937ZM47.028 70.299v.844h-.375c-.973 0-1.625-.145-1.957-.434-.328-.29-.492-.865-.492-1.728v-1.172a1.73 1.73 0 0 0-.364-1.102c-.238-.309-.61-.463-1.113-.463h-.715v-.838h.715c.55 0 .934-.13 1.149-.392.218-.262.328-.647.328-1.155v-1.523c0-.863.164-1.438.492-1.723.332-.289.984-.433 1.957-.433h.375v.838h-.41c-.547 0-.905.085-1.073.257-.164.168-.246.53-.246 1.084v1.57c0 .688-.135 1.151-.404 1.39-.27.234-.795.404-1.576.51.758.089 1.277.263 1.558.52.282.254.422.715.422 1.383v1.225c0 .559.082.922.246 1.09.168.168.526.252 1.073.252h.41ZM57.16 88.174v3.322h-1.085v-9.058h1.084v.837c.18-.324.418-.57.715-.738.3-.172.646-.258 1.037-.258.793 0 1.414.307 1.863.92.453.614.68 1.463.68 2.549 0 1.066-.227 1.904-.68 2.514-.453.605-1.074.908-1.863.908-.398 0-.748-.084-1.049-.252a1.824 1.824 0 0 1-.703-.744Zm3.163-2.45c0-.835-.133-1.466-.398-1.892-.262-.426-.653-.639-1.172-.639-.523 0-.92.215-1.19.645-.27.426-.404 1.055-.404 1.887 0 .828.135 1.457.404 1.886.27.43.666.645 1.19.645.52 0 .91-.213 1.172-.639.265-.426.398-1.056.398-1.892ZM66.066 85.701h-.358c-.629 0-1.103.112-1.424.334-.316.219-.474.547-.474.984 0 .395.119.702.357.92.239.22.569.329.99.329.594 0 1.061-.206 1.4-.616.34-.414.513-.984.516-1.71v-.24h-1.007Zm2.091-.445V89h-1.084v-.973c-.23.391-.521.68-.873.867-.347.184-.771.276-1.271.276-.668 0-1.201-.188-1.6-.563-.398-.379-.597-.884-.597-1.517 0-.73.244-1.285.732-1.664.492-.38 1.213-.569 2.162-.569h1.447v-.17c-.003-.523-.136-.902-.398-1.136-.262-.239-.68-.358-1.254-.358-.367 0-.738.053-1.113.159-.375.105-.74.26-1.096.462v-1.078c.398-.152.78-.265 1.143-.34a5.122 5.122 0 0 1 1.066-.117c.543 0 1.006.08 1.389.24.386.16.699.4.937.721.149.196.254.438.317.727.062.285.093.715.093 1.289ZM73.97 86.89c-.18.458-.408 1.06-.685 1.805-.387 1.032-.647 1.66-.78 1.887-.18.305-.404.533-.673.686-.27.152-.584.228-.944.228h-.867v-.902h.639c.316 0 .564-.092.744-.276.18-.183.408-.658.685-1.424l-2.537-6.457h1.143l1.945 5.133 1.916-5.132H75.7L73.97 86.89ZM79.894 83.106c.133-.282.301-.489.504-.622a1.32 1.32 0 0 1 .744-.205c.528 0 .899.205 1.114.615.218.407.328 1.174.328 2.303V89h-.985v-3.756c0-.926-.052-1.5-.158-1.722-.102-.227-.289-.34-.562-.34-.313 0-.528.12-.645.363-.113.238-.17.805-.17 1.7V89h-.984v-3.756c0-.937-.057-1.516-.17-1.734-.11-.219-.309-.328-.598-.328-.285 0-.484.12-.597.363-.11.238-.165.805-.165 1.7V89h-.978v-6.563h.978V83c.13-.234.29-.412.48-.533.196-.125.417-.188.663-.188.297 0 .543.069.738.205.2.137.354.344.463.622ZM89.486 85.18v.527h-4.67v.035c-.03.895.139 1.537.51 1.928.375.39.902.586 1.582.586.344 0 .703-.055 1.078-.164a6.62 6.62 0 0 0 1.201-.498v1.072a7.03 7.03 0 0 1-1.189.375 4.971 4.971 0 0 1-1.102.129c-1.02 0-1.816-.305-2.39-.914-.574-.613-.862-1.457-.862-2.531 0-1.047.282-1.883.844-2.508.563-.625 1.313-.938 2.25-.938.836 0 1.494.284 1.975.85.484.566.742 1.25.773 2.05Zm-1.078-.317a2.065 2.065 0 0 0-.498-1.172c-.281-.332-.687-.498-1.219-.498-.52 0-.947.172-1.283.516-.336.344-.52.73-.55 1.16l3.55-.006ZM96.072 84.934V89h-1.084v-4.066c0-.59-.103-1.024-.31-1.301-.207-.277-.531-.416-.973-.416-.504 0-.892.18-1.166.539-.27.355-.404.867-.404 1.535V89h-1.078v-6.563h1.078v.985c.191-.375.451-.658.78-.85.327-.195.716-.293 1.165-.293.668 0 1.166.221 1.494.662.332.438.498 1.102.498 1.993ZM100.502 80.574v1.864h2.45v.837h-2.45v3.563c0 .484.092.822.276 1.014.183.191.504.287.961.287h1.213V89h-1.319c-.808 0-1.379-.162-1.71-.486-.333-.325-.499-.883-.499-1.676v-3.563h-1.752v-.838h1.752v-1.863h1.078ZM106.233 81.225v3.287h1.371c.547 0 .973-.145 1.277-.434.309-.289.463-.693.463-1.213 0-.52-.152-.922-.457-1.207-.304-.289-.732-.433-1.283-.433h-1.371Zm-1.184-.973h2.555c.977 0 1.717.223 2.221.668.504.441.756 1.09.756 1.945 0 .864-.252 1.516-.756 1.957-.5.442-1.24.662-2.221.662h-1.371V89h-1.184v-8.748ZM114.495 83.193c-.547 0-.961.213-1.242.639-.281.426-.422 1.057-.422 1.893 0 .832.141 1.463.422 1.892.281.426.695.639 1.242.639.551 0 .967-.213 1.248-.639.281-.43.422-1.06.422-1.892 0-.836-.141-1.467-.422-1.893-.281-.426-.697-.639-1.248-.639Zm0-.914c.91 0 1.605.295 2.086.885.484.59.727 1.443.727 2.56 0 1.122-.241 1.977-.721 2.567-.481.586-1.178.879-2.092.879-.91 0-1.605-.293-2.086-.879-.48-.59-.721-1.445-.721-2.566 0-1.118.241-1.971.721-2.56.481-.59 1.176-.886 2.086-.886ZM119.728 82.46h2.759v5.702h2.139V89h-5.355v-.838h2.138V83.3h-1.681v-.838Zm1.681-2.548h1.078v1.36h-1.078v-1.36ZM131.025 84.934V89h-1.084v-4.066c0-.59-.104-1.024-.311-1.301-.207-.277-.531-.416-.972-.416-.504 0-.893.18-1.166.539-.27.355-.405.867-.405 1.535V89h-1.078v-6.563h1.078v.985a2.01 2.01 0 0 1 .78-.85c.328-.195.716-.293 1.166-.293.668 0 1.166.221 1.494.662.332.438.498 1.102.498 1.993ZM135.455 80.574v1.864h2.449v.837h-2.449v3.563c0 .484.091.822.275 1.014.184.191.504.287.961.287h1.213V89h-1.318c-.809 0-1.379-.162-1.711-.486-.332-.325-.498-.883-.498-1.676v-3.563h-1.752v-.838h1.752v-1.863h1.078ZM145.41 85.18v.527h-4.67v.035c-.031.895.139 1.537.51 1.928.375.39.902.586 1.582.586.344 0 .703-.055 1.078-.164.375-.11.775-.276 1.201-.498v1.072c-.41.168-.806.293-1.189.375a4.972 4.972 0 0 1-1.102.129c-1.019 0-1.816-.305-2.39-.914-.575-.613-.862-1.457-.862-2.531 0-1.047.281-1.883.844-2.508.562-.625 1.312-.938 2.25-.938.836 0 1.494.284 1.975.85.484.566.742 1.25.773 2.05Zm-1.078-.317a2.067 2.067 0 0 0-.498-1.172c-.281-.332-.688-.498-1.219-.498-.519 0-.947.172-1.283.516-.336.344-.52.73-.551 1.16l3.551-.006ZM152.606 83.791a2.443 2.443 0 0 0-.704-.393 2.398 2.398 0 0 0-.785-.123c-.672 0-1.185.211-1.541.633-.355.422-.533 1.031-.533 1.828V89h-1.084v-6.563h1.084v1.284c.18-.465.455-.82.826-1.067.375-.25.819-.375 1.33-.375.266 0 .514.034.744.1.231.066.452.17.663.31v1.102ZM155.342 82.443h1.828v2.116h-1.828v-2.116Zm0 4.424h1.828V89h-1.828v-2.133Z"/><path fill="#45BDE3" d="M172.511 82.666v1.055a4.125 4.125 0 0 0-.932-.405 3.445 3.445 0 0 0-.955-.134c-.488 0-.854.08-1.096.24-.238.156-.357.396-.357.72 0 .294.09.512.269.657.18.144.627.285 1.342.422l.434.082c.535.101.939.304 1.213.61.277.304.416.7.416 1.189 0 .648-.231 1.156-.692 1.523-.461.363-1.101.545-1.922.545a5.25 5.25 0 0 1-1.019-.106 8.95 8.95 0 0 1-1.155-.304v-1.114c.403.207.788.364 1.155.47.367.1.715.152 1.043.152.476 0 .845-.096 1.107-.287.262-.196.393-.467.393-.815 0-.5-.479-.846-1.436-1.037l-.047-.012-.404-.082c-.621-.12-1.074-.324-1.359-.61-.286-.288-.428-.68-.428-1.177 0-.629.213-1.113.639-1.453.425-.344 1.033-.516 1.822-.516.351 0 .689.034 1.013.1.325.062.643.158.956.287ZM180.362 85.18v.527h-4.67v.035c-.031.895.139 1.537.51 1.928.375.39.903.586 1.582.586.344 0 .703-.055 1.078-.164.375-.11.776-.276 1.202-.498v1.072a7.056 7.056 0 0 1-1.19.375 4.97 4.97 0 0 1-1.101.129c-1.02 0-1.817-.305-2.391-.914-.574-.613-.861-1.457-.861-2.531 0-1.047.281-1.883.843-2.508.563-.625 1.313-.938 2.25-.938.836 0 1.494.284 1.975.85.484.566.742 1.25.773 2.05Zm-1.078-.317a2.067 2.067 0 0 0-.498-1.172c-.281-.332-.687-.498-1.219-.498-.519 0-.947.172-1.283.516-.336.344-.519.73-.551 1.16l3.551-.006ZM186.949 84.934V89h-1.084v-4.066c0-.59-.104-1.024-.311-1.301-.207-.277-.531-.416-.973-.416-.504 0-.892.18-1.166.539-.269.355-.404.867-.404 1.535V89h-1.078v-6.563h1.078v.985c.191-.375.451-.658.779-.85.328-.195.717-.293 1.166-.293.668 0 1.166.221 1.494.662.333.438.499 1.102.499 1.993ZM192.808 83.275v-3.392h1.078V89h-1.078v-.826c-.18.324-.42.572-.721.744-.296.168-.64.252-1.031.252-.793 0-1.418-.307-1.875-.92-.453-.617-.68-1.467-.68-2.549 0-1.066.229-1.902.686-2.508.457-.609 1.08-.914 1.869-.914.395 0 .742.086 1.043.258.301.168.537.414.709.738Zm-3.17 2.45c0 .836.133 1.466.399 1.892.265.426.658.639 1.177.639.52 0 .914-.215 1.184-.645.273-.43.41-1.058.41-1.886 0-.832-.137-1.461-.41-1.887-.27-.43-.664-.645-1.184-.645-.519 0-.912.213-1.177.639-.266.426-.399 1.057-.399 1.893ZM196.623 82.46h2.76v5.702h2.138V89h-5.355v-.838h2.138V83.3h-1.681v-.838Zm1.681-2.548h1.079v1.36h-1.079v-1.36ZM207.92 84.934V89h-1.084v-4.066c0-.59-.104-1.024-.311-1.301-.207-.277-.531-.416-.972-.416-.504 0-.893.18-1.166.539-.27.355-.405.867-.405 1.535V89h-1.078v-6.563h1.078v.985c.192-.375.452-.658.78-.85.328-.195.717-.293 1.166-.293.668 0 1.166.221 1.494.662.332.438.498 1.102.498 1.993ZM213.78 85.666c0-.809-.133-1.422-.399-1.84-.262-.422-.644-.633-1.148-.633-.528 0-.93.211-1.207.633-.278.418-.416 1.031-.416 1.84 0 .809.138 1.426.416 1.852.281.421.687.632 1.218.632.496 0 .875-.213 1.137-.638.266-.426.399-1.041.399-1.846Zm1.078 2.912c0 .984-.233 1.73-.698 2.238-.464.508-1.148.762-2.05.762-.297 0-.608-.027-.932-.082a6.844 6.844 0 0 1-.973-.24v-1.067c.383.18.731.313 1.043.399.313.086.6.129.862.129.582 0 1.005-.158 1.271-.475.266-.316.399-.818.399-1.506v-.779c-.172.367-.407.64-.704.82-.296.18-.658.27-1.084.27-.765 0-1.377-.307-1.834-.92-.457-.613-.685-1.434-.685-2.461 0-1.031.228-1.853.685-2.467.457-.613 1.069-.92 1.834-.92.422 0 .78.084 1.073.252.293.168.531.428.715.78v-.85h1.078v6.117ZM218.081 81.225v3.287h1.371c.547 0 .972-.145 1.277-.434.309-.289.463-.693.463-1.213 0-.52-.152-.922-.457-1.207-.305-.289-.733-.433-1.283-.433h-1.371Zm-1.184-.973h2.555c.976 0 1.716.223 2.22.668.504.441.756 1.09.756 1.945 0 .864-.252 1.516-.756 1.957-.5.442-1.24.662-2.22.662h-1.371V89h-1.184v-8.748ZM226.846 85.701h-.357c-.629 0-1.104.112-1.424.334-.316.219-.474.547-.474.984 0 .395.119.702.357.92.238.22.568.329.99.329.594 0 1.061-.206 1.401-.616.339-.414.511-.984.515-1.71v-.24h-1.008Zm2.092-.445V89h-1.084v-.973c-.23.391-.521.68-.873.867-.347.184-.771.276-1.271.276-.668 0-1.201-.188-1.6-.563-.398-.379-.598-.884-.598-1.517 0-.73.245-1.285.733-1.664.492-.38 1.213-.569 2.162-.569h1.447v-.17c-.004-.523-.137-.902-.398-1.136-.262-.239-.68-.358-1.254-.358-.367 0-.738.053-1.113.159-.375.105-.741.26-1.096.462v-1.078a7.297 7.297 0 0 1 1.142-.34 5.132 5.132 0 0 1 1.067-.117c.543 0 1.006.08 1.389.24.386.16.699.4.937.721.148.196.254.438.316.727.063.285.094.715.094 1.289ZM234.751 86.89c-.18.458-.408 1.06-.686 1.805-.386 1.032-.646 1.66-.779 1.887-.18.305-.404.533-.674.686a1.883 1.883 0 0 1-.943.228h-.867v-.902h.638c.317 0 .565-.092.745-.276.179-.183.408-.658.685-1.424l-2.537-6.457h1.143l1.945 5.133 1.916-5.132h1.142l-1.728 4.453ZM240.675 83.106c.133-.282.301-.489.504-.622a1.32 1.32 0 0 1 .744-.205c.527 0 .898.205 1.113.615.219.407.328 1.174.328 2.303V89h-.984v-3.756c0-.926-.053-1.5-.158-1.722-.102-.227-.289-.34-.563-.34-.312 0-.527.12-.644.363-.113.238-.17.805-.17 1.7V89h-.984v-3.756c0-.937-.057-1.516-.17-1.734-.11-.219-.309-.328-.598-.328-.285 0-.484.12-.598.363-.109.238-.164.805-.164 1.7V89h-.978v-6.563h.978V83c.129-.234.289-.412.481-.533.195-.125.416-.188.662-.188.297 0 .543.069.738.205.199.137.354.344.463.622ZM250.267 85.18v.527h-4.67v.035c-.031.895.139 1.537.51 1.928.375.39.902.586 1.582.586.344 0 .703-.055 1.078-.164.375-.11.775-.276 1.201-.498v1.072c-.41.168-.806.293-1.189.375a4.972 4.972 0 0 1-1.102.129c-1.019 0-1.816-.305-2.39-.914-.575-.613-.862-1.457-.862-2.531 0-1.047.281-1.883.844-2.508.562-.625 1.312-.938 2.25-.938.836 0 1.494.284 1.975.85.484.566.742 1.25.773 2.05Zm-1.078-.317a2.067 2.067 0 0 0-.498-1.172c-.281-.332-.688-.498-1.219-.498-.519 0-.947.172-1.283.516-.336.344-.52.73-.551 1.16l3.551-.006ZM256.853 84.934V89h-1.084v-4.066c0-.59-.103-1.024-.31-1.301-.207-.277-.532-.416-.973-.416-.504 0-.893.18-1.166.539-.27.355-.404.867-.404 1.535V89h-1.078v-6.563h1.078v.985c.191-.375.451-.658.779-.85.328-.195.717-.293 1.166-.293.668 0 1.166.221 1.494.662.332.438.498 1.102.498 1.993ZM261.283 80.574v1.864h2.449v.837h-2.449v3.563c0 .484.092.822.276 1.014.183.191.503.287.96.287h1.213V89h-1.318c-.809 0-1.379-.162-1.711-.486-.332-.325-.498-.883-.498-1.676v-3.563h-1.752v-.838h1.752v-1.863h1.078ZM267.014 81.225v3.287h1.371c.547 0 .973-.145 1.277-.434.309-.289.463-.693.463-1.213 0-.52-.152-.922-.457-1.207-.305-.289-.732-.433-1.283-.433h-1.371Zm-1.184-.973h2.555c.976 0 1.717.223 2.221.668.504.441.755 1.09.755 1.945 0 .864-.251 1.516-.755 1.957-.5.442-1.241.662-2.221.662h-1.371V89h-1.184v-8.748ZM275.276 83.193c-.547 0-.961.213-1.242.639-.282.426-.422 1.057-.422 1.893 0 .832.14 1.463.422 1.892.281.426.695.639 1.242.639.551 0 .967-.213 1.248-.639.281-.43.422-1.06.422-1.892 0-.836-.141-1.467-.422-1.893-.281-.426-.697-.639-1.248-.639Zm0-.914c.91 0 1.605.295 2.086.885.484.59.726 1.443.726 2.56 0 1.122-.24 1.977-.72 2.567-.481.586-1.178.879-2.092.879-.91 0-1.606-.293-2.086-.879-.481-.59-.721-1.445-.721-2.566 0-1.118.24-1.971.721-2.56.48-.59 1.176-.886 2.086-.886ZM280.508 82.46h2.76v5.702h2.139V89h-5.356v-.838h2.139V83.3h-1.682v-.838Zm1.682-2.548h1.078v1.36h-1.078v-1.36ZM291.806 84.934V89h-1.084v-4.066c0-.59-.104-1.024-.311-1.301-.207-.277-.531-.416-.973-.416-.504 0-.892.18-1.166.539-.269.355-.404.867-.404 1.535V89h-1.078v-6.563h1.078v.985c.191-.375.451-.658.779-.85.328-.195.717-.293 1.166-.293.668 0 1.166.221 1.494.662.333.438.499 1.102.499 1.993ZM296.235 80.574v1.864h2.45v.837h-2.45v3.563c0 .484.092.822.276 1.014.183.191.504.287.961.287h1.213V89h-1.319c-.808 0-1.379-.162-1.711-.486-.332-.325-.498-.883-.498-1.676v-3.563h-1.752v-.838h1.752v-1.863h1.078ZM306.191 85.18v.527h-4.67v.035c-.031.895.139 1.537.51 1.928.375.39.902.586 1.582.586a3.85 3.85 0 0 0 1.078-.164c.375-.11.775-.276 1.201-.498v1.072c-.41.168-.807.293-1.189.375a4.979 4.979 0 0 1-1.102.129c-1.02 0-1.816-.305-2.391-.914-.574-.613-.861-1.457-.861-2.531 0-1.047.281-1.883.844-2.508.562-.625 1.312-.938 2.25-.938.836 0 1.494.284 1.974.85.485.566.743 1.25.774 2.05Zm-1.078-.317a2.067 2.067 0 0 0-.498-1.172c-.282-.332-.688-.498-1.219-.498-.52 0-.947.172-1.283.516-.336.344-.52.73-.551 1.16l3.551-.006ZM313.386 83.791c-.23-.18-.465-.31-.703-.393a2.398 2.398 0 0 0-.785-.123c-.672 0-1.186.211-1.541.633-.355.422-.533 1.031-.533 1.828V89h-1.084v-6.563h1.084v1.284c.18-.465.455-.82.826-1.067.375-.25.818-.375 1.33-.375.266 0 .514.034.744.1.231.066.451.17.662.31v1.102Z"/><path fill="#D6ECF3" d="M315.889 86.633h2.062V89h-2.062v-2.367ZM322.451 82.46h2.76v5.702h2.139V89h-5.356v-.838h2.139V83.3h-1.682v-.838Zm1.682-2.548h1.078v1.36h-1.078v-1.36ZM332.617 83.275v-3.392h1.079V89h-1.079v-.826a1.882 1.882 0 0 1-.72.744 2.06 2.06 0 0 1-1.031.252c-.793 0-1.418-.307-1.875-.92-.454-.617-.68-1.467-.68-2.549 0-1.066.228-1.902.685-2.508.457-.609 1.08-.914 1.87-.914.394 0 .742.086 1.043.258.3.168.537.414.708.738Zm-3.169 2.45c0 .836.132 1.466.398 1.892.266.426.658.639 1.178.639.519 0 .914-.215 1.183-.645.274-.43.41-1.058.41-1.886 0-.832-.136-1.461-.41-1.887-.269-.43-.664-.645-1.183-.645-.52 0-.912.213-1.178.639-.266.426-.398 1.057-.398 1.893ZM337.17 86.885h1.829v1.552l-1.301 2.526-1.172.006.644-2.531v-1.553ZM59.075 104.701h-.357c-.63 0-1.104.111-1.424.334-.316.219-.475.547-.475.985 0 .394.12.701.358.919.238.219.568.329.99.329.594 0 1.06-.206 1.4-.616.34-.414.512-.984.516-1.711v-.24h-1.008Zm2.092-.445V108h-1.084v-.973c-.23.391-.521.68-.873.868-.348.183-.772.275-1.272.275-.668 0-1.2-.188-1.6-.563-.398-.378-.597-.884-.597-1.517 0-.731.244-1.285.733-1.664.492-.379 1.213-.569 2.162-.569h1.447v-.169c-.004-.524-.137-.903-.398-1.137-.262-.239-.68-.358-1.254-.358-.368 0-.739.053-1.114.159-.375.105-.74.259-1.095.462v-1.078c.398-.152.779-.265 1.142-.34a5.129 5.129 0 0 1 1.067-.117c.543 0 1.006.08 1.388.241.387.16.7.4.938.72.148.196.254.438.316.727.063.285.094.715.094 1.289ZM68.17 107.666a3.639 3.639 0 0 1-.897.375 3.435 3.435 0 0 1-.938.129c-1.015 0-1.81-.305-2.385-.914-.57-.61-.855-1.453-.855-2.531 0-1.079.285-1.922.855-2.532.575-.609 1.37-.914 2.385-.914.317 0 .625.041.926.123.3.082.604.209.908.381v1.131a2.916 2.916 0 0 0-.861-.551 2.623 2.623 0 0 0-.973-.17c-.676 0-1.195.219-1.558.657-.364.437-.545 1.062-.545 1.875 0 .808.181 1.433.545 1.875.367.437.886.656 1.558.656.375 0 .711-.057 1.008-.17.297-.117.572-.297.826-.539v1.119ZM75.16 107.666a3.64 3.64 0 0 1-.897.375 3.435 3.435 0 0 1-.937.129c-1.016 0-1.81-.305-2.385-.914-.57-.61-.856-1.453-.856-2.531 0-1.079.286-1.922.856-2.532.574-.609 1.369-.914 2.385-.914.316 0 .625.041.925.123.301.082.604.209.909.381v1.131a2.918 2.918 0 0 0-.862-.551 2.624 2.624 0 0 0-.972-.17c-.676 0-1.196.219-1.559.657-.363.437-.545 1.062-.545 1.875 0 .808.182 1.433.545 1.875.367.437.887.656 1.559.656.375 0 .71-.057 1.007-.17.297-.117.573-.297.827-.539v1.119ZM82.496 104.18v.527h-4.67v.035c-.031.895.139 1.537.51 1.928.375.391.902.586 1.582.586.343 0 .703-.055 1.078-.164.375-.11.775-.276 1.201-.498v1.072c-.41.168-.807.293-1.19.375a4.972 4.972 0 0 1-1.101.129c-1.02 0-1.817-.305-2.39-.914-.575-.613-.862-1.457-.862-2.531 0-1.047.281-1.883.844-2.508.562-.625 1.312-.938 2.25-.938.836 0 1.494.283 1.974.85.485.566.743 1.25.774 2.051Zm-1.078-.317a2.068 2.068 0 0 0-.498-1.172c-.282-.332-.688-.498-1.22-.498-.519 0-.946.172-1.282.516-.336.344-.52.73-.551 1.16l3.55-.006ZM88.625 101.666v1.055a4.104 4.104 0 0 0-.932-.405 3.471 3.471 0 0 0-.955-.134c-.488 0-.853.08-1.096.24-.238.156-.357.396-.357.721 0 .293.09.511.27.656.18.144.627.285 1.341.422l.434.082c.535.101.94.304 1.213.609.277.305.416.701.416 1.19 0 .648-.23 1.156-.692 1.523-.46.363-1.101.545-1.921.545-.325 0-.664-.035-1.02-.106a8.99 8.99 0 0 1-1.154-.304v-1.114c.402.208.787.364 1.154.469a3.9 3.9 0 0 0 1.043.153c.477 0 .846-.096 1.108-.288.261-.195.392-.466.392-.814 0-.5-.478-.846-1.436-1.037l-.046-.012-.405-.082c-.62-.121-1.074-.324-1.359-.609-.285-.289-.428-.682-.428-1.178 0-.629.213-1.113.639-1.453.426-.344 1.033-.516 1.822-.516.352 0 .69.033 1.014.1.324.062.642.158.955.287ZM95.615 101.666v1.055a4.104 4.104 0 0 0-.931-.405 3.47 3.47 0 0 0-.955-.134c-.489 0-.854.08-1.096.24-.238.156-.358.396-.358.721 0 .293.09.511.27.656.18.144.627.285 1.342.422l.433.082c.536.101.94.304 1.213.609.278.305.416.701.416 1.19 0 .648-.23 1.156-.691 1.523-.461.363-1.102.545-1.922.545-.324 0-.664-.035-1.02-.106a8.987 8.987 0 0 1-1.154-.304v-1.114c.403.208.787.364 1.155.469a3.9 3.9 0 0 0 1.043.153c.476 0 .845-.096 1.107-.288.262-.195.392-.466.392-.814 0-.5-.478-.846-1.435-1.037l-.047-.012-.404-.082c-.621-.121-1.074-.324-1.36-.609-.285-.289-.427-.682-.427-1.178 0-.629.213-1.113.638-1.453.426-.344 1.034-.516 1.823-.516.351 0 .69.033 1.013.1.325.062.643.158.955.287ZM97.18 99.252h6.674v.996h-2.736V108h-1.19v-7.752H97.18v-.996ZM107.505 102.193c-.547 0-.961.213-1.243.639-.281.426-.422 1.057-.422 1.893 0 .832.141 1.463.422 1.892.282.426.696.639 1.243.639.55 0 .966-.213 1.248-.639.281-.429.421-1.06.421-1.892 0-.836-.14-1.467-.421-1.893-.282-.426-.698-.639-1.248-.639Zm0-.914c.91 0 1.605.295 2.085.885.485.59.727 1.443.727 2.561 0 1.121-.24 1.976-.721 2.566-.48.586-1.177.879-2.091.879-.911 0-1.606-.293-2.086-.879-.481-.59-.721-1.445-.721-2.566 0-1.118.24-1.971.721-2.561.48-.59 1.175-.885 2.086-.885ZM112.268 98.883h1.114v5.279l2.83-2.724h1.312l-2.584 2.472 2.989 4.09h-1.319l-2.426-3.387-.802.756V108h-1.114v-9.117ZM124.439 104.18v.527h-4.67v.035c-.032.895.138 1.537.509 1.928.375.391.903.586 1.582.586.344 0 .704-.055 1.079-.164.375-.11.775-.276 1.201-.498v1.072c-.41.168-.807.293-1.19.375a4.97 4.97 0 0 1-1.101.129c-1.02 0-1.817-.305-2.391-.914-.574-.613-.861-1.457-.861-2.531 0-1.047.281-1.883.844-2.508.562-.625 1.312-.938 2.25-.938.835 0 1.494.283 1.974.85.485.566.742 1.25.774 2.051Zm-1.079-.317a2.057 2.057 0 0 0-.498-1.172c-.281-.332-.687-.498-1.218-.498-.52 0-.948.172-1.284.516-.335.344-.519.73-.55 1.16l3.55-.006ZM131.025 103.934V108h-1.084v-4.066c0-.59-.104-1.024-.311-1.301-.207-.278-.531-.416-.972-.416-.504 0-.893.179-1.166.539-.27.355-.405.867-.405 1.535V108h-1.078v-6.562h1.078v.984c.192-.375.451-.658.78-.85.328-.195.716-.293 1.166-.293.668 0 1.166.221 1.494.662.332.438.498 1.102.498 1.993ZM134.371 101.443h1.828v2.116h-1.828v-2.116Zm0 4.424h1.828V108h-1.828v-2.133Z"/><path fill="#45BDE3" d="M152.055 107.666a3.635 3.635 0 0 1-.897.375 3.43 3.43 0 0 1-.937.129c-1.016 0-1.811-.305-2.385-.914-.57-.61-.855-1.453-.855-2.531 0-1.079.285-1.922.855-2.532.574-.609 1.369-.914 2.385-.914.316 0 .625.041.926.123a4 4 0 0 1 .908.381v1.131a2.92 2.92 0 0 0-.862-.551 2.62 2.62 0 0 0-.972-.17c-.676 0-1.196.219-1.559.657-.363.437-.545 1.062-.545 1.875 0 .808.182 1.433.545 1.875.367.437.887.656 1.559.656.375 0 .711-.057 1.008-.17.296-.117.572-.297.826-.539v1.119ZM156.438 102.193c-.547 0-.961.213-1.242.639-.282.426-.422 1.057-.422 1.893 0 .832.14 1.463.422 1.892.281.426.695.639 1.242.639.551 0 .967-.213 1.248-.639.281-.429.422-1.06.422-1.892 0-.836-.141-1.467-.422-1.893-.281-.426-.697-.639-1.248-.639Zm0-.914c.91 0 1.605.295 2.086.885.484.59.726 1.443.726 2.561 0 1.121-.24 1.976-.72 2.566-.481.586-1.178.879-2.092.879-.91 0-1.606-.293-2.086-.879-.481-.59-.721-1.445-.721-2.566 0-1.118.24-1.971.721-2.561.48-.59 1.176-.885 2.086-.885ZM165.977 103.934V108h-1.084v-4.066c0-.59-.103-1.024-.31-1.301-.207-.278-.532-.416-.973-.416-.504 0-.893.179-1.166.539-.27.355-.404.867-.404 1.535V108h-1.079v-6.562h1.079v.984c.191-.375.451-.658.779-.85.328-.195.717-.293 1.166-.293.668 0 1.166.221 1.494.662.332.438.498 1.102.498 1.993ZM170.407 99.574v1.864h2.449v.837h-2.449v3.563c0 .484.092.822.275 1.014.184.191.504.287.961.287h1.213V108h-1.318c-.809 0-1.379-.162-1.711-.486-.332-.325-.498-.883-.498-1.676v-3.563h-1.752v-.837h1.752v-1.864h1.078ZM175.651 101.461h2.76v5.701h2.139V108h-5.356v-.838h2.139v-4.863h-1.682v-.838Zm1.682-2.549h1.078v1.359h-1.078v-1.359ZM186.949 103.934V108h-1.084v-4.066c0-.59-.104-1.024-.311-1.301-.207-.278-.531-.416-.973-.416-.504 0-.892.179-1.166.539-.269.355-.404.867-.404 1.535V108h-1.078v-6.562h1.078v.984c.191-.375.451-.658.779-.85.328-.195.717-.293 1.166-.293.668 0 1.166.221 1.494.662.333.438.499 1.102.499 1.993ZM188.923 105.516v-4.067h1.078v4.067c0 .589.104 1.023.311 1.3.211.278.535.416.973.416.507 0 .896-.177 1.166-.533.269-.359.404-.873.404-1.541v-3.709h1.084V108h-1.084v-.984a2.025 2.025 0 0 1-.785.861c-.328.195-.713.293-1.154.293-.672 0-1.172-.219-1.5-.656-.329-.442-.493-1.108-.493-1.998ZM198.885 104.701h-.358c-.629 0-1.103.111-1.424.334-.316.219-.474.547-.474.985 0 .394.119.701.357.919.238.219.568.329.99.329.594 0 1.061-.206 1.401-.616.34-.414.511-.984.515-1.711v-.24h-1.007Zm2.091-.445V108h-1.084v-.973c-.23.391-.521.68-.873.868-.347.183-.771.275-1.271.275-.668 0-1.201-.188-1.6-.563-.398-.378-.597-.884-.597-1.517 0-.731.244-1.285.732-1.664.492-.379 1.213-.569 2.162-.569h1.447v-.169c-.004-.524-.136-.903-.398-1.137-.262-.239-.68-.358-1.254-.358-.367 0-.738.053-1.113.159a4.826 4.826 0 0 0-1.096.462v-1.078a7.397 7.397 0 0 1 1.143-.34 5.121 5.121 0 0 1 1.066-.117c.543 0 1.006.08 1.389.241.386.16.699.4.937.72.149.196.254.438.317.727.062.285.093.715.093 1.289ZM205.359 99.574v1.864h2.45v.837h-2.45v3.563c0 .484.092.822.276 1.014.183.191.504.287.961.287h1.213V108h-1.319c-.808 0-1.379-.162-1.711-.486-.332-.325-.498-.883-.498-1.676v-3.563h-1.752v-.837h1.752v-1.864h1.078ZM210.604 101.461h2.76v5.701h2.138V108h-5.355v-.838h2.138v-4.863h-1.681v-.838Zm1.681-2.549h1.079v1.359h-1.079v-1.359ZM219.352 102.193c-.547 0-.961.213-1.242.639-.281.426-.422 1.057-.422 1.893 0 .832.141 1.463.422 1.892.281.426.695.639 1.242.639.551 0 .967-.213 1.248-.639.281-.429.422-1.06.422-1.892 0-.836-.141-1.467-.422-1.893-.281-.426-.697-.639-1.248-.639Zm0-.914c.91 0 1.606.295 2.086.885.484.59.727 1.443.727 2.561 0 1.121-.241 1.976-.721 2.566-.481.586-1.178.879-2.092.879-.91 0-1.605-.293-2.086-.879-.48-.59-.721-1.445-.721-2.566 0-1.118.241-1.971.721-2.561.481-.59 1.176-.885 2.086-.885ZM228.891 103.934V108h-1.084v-4.066c0-.59-.103-1.024-.31-1.301-.207-.278-.531-.416-.973-.416-.504 0-.892.179-1.166.539-.269.355-.404.867-.404 1.535V108h-1.078v-6.562h1.078v.984c.191-.375.451-.658.779-.85.328-.195.717-.293 1.166-.293.668 0 1.166.221 1.494.662.332.438.498 1.102.498 1.993Z"/><path fill="#D6ECF3" d="M232.003 105.633h2.062V108h-2.062v-2.367ZM240.827 104.701h-.357c-.629 0-1.104.111-1.424.334-.316.219-.475.547-.475.985 0 .394.12.701.358.919.238.219.568.329.99.329.594 0 1.061-.206 1.401-.616.339-.414.511-.984.515-1.711v-.24h-1.008Zm2.092-.445V108h-1.084v-.973c-.23.391-.521.68-.873.868-.348.183-.771.275-1.271.275-.668 0-1.202-.188-1.6-.563-.398-.378-.598-.884-.598-1.517 0-.731.245-1.285.733-1.664.492-.379 1.213-.569 2.162-.569h1.447v-.169c-.004-.524-.137-.903-.398-1.137-.262-.239-.68-.358-1.254-.358-.367 0-.738.053-1.113.159a4.826 4.826 0 0 0-1.096.462v-1.078a7.42 7.42 0 0 1 1.142-.34 5.138 5.138 0 0 1 1.067-.117c.543 0 1.006.08 1.388.241.387.16.7.4.938.72.148.196.254.438.316.727.063.285.094.715.094 1.289ZM249.921 107.666a3.644 3.644 0 0 1-.896.375 3.436 3.436 0 0 1-.938.129c-1.015 0-1.81-.305-2.384-.914-.571-.61-.856-1.453-.856-2.531 0-1.079.285-1.922.856-2.532.574-.609 1.369-.914 2.384-.914.317 0 .625.041.926.123.301.082.604.209.908.381v1.131a2.915 2.915 0 0 0-.861-.551 2.622 2.622 0 0 0-.973-.17c-.675 0-1.195.219-1.558.657-.364.437-.545 1.062-.545 1.875 0 .808.181 1.433.545 1.875.367.437.886.656 1.558.656.375 0 .711-.057 1.008-.17.297-.117.572-.297.826-.539v1.119ZM256.912 107.666a3.635 3.635 0 0 1-.897.375 3.43 3.43 0 0 1-.937.129c-1.016 0-1.811-.305-2.385-.914-.57-.61-.855-1.453-.855-2.531 0-1.079.285-1.922.855-2.532.574-.609 1.369-.914 2.385-.914.316 0 .625.041.926.123a4 4 0 0 1 .908.381v1.131a2.906 2.906 0 0 0-.862-.551 2.62 2.62 0 0 0-.972-.17c-.676 0-1.195.219-1.559.657-.363.437-.545 1.062-.545 1.875 0 .808.182 1.433.545 1.875.367.437.887.656 1.559.656.375 0 .711-.057 1.008-.17.297-.117.572-.297.826-.539v1.119ZM264.248 104.18v.527h-4.67v.035c-.031.895.139 1.537.51 1.928.375.391.902.586 1.582.586a3.86 3.86 0 0 0 1.078-.164c.375-.11.775-.276 1.201-.498v1.072c-.41.168-.806.293-1.189.375a4.972 4.972 0 0 1-1.102.129c-1.019 0-1.816-.305-2.39-.914-.575-.613-.862-1.457-.862-2.531 0-1.047.281-1.883.844-2.508.562-.625 1.312-.938 2.25-.938.836 0 1.494.283 1.975.85.484.566.742 1.25.773 2.051Zm-1.078-.317a2.07 2.07 0 0 0-.498-1.172c-.281-.332-.688-.498-1.219-.498-.519 0-.947.172-1.283.516-.336.344-.52.73-.551 1.16l3.551-.006ZM270.377 101.666v1.055a4.086 4.086 0 0 0-.932-.405 3.463 3.463 0 0 0-.955-.134c-.488 0-.853.08-1.095.24-.239.156-.358.396-.358.721 0 .293.09.511.27.656.179.144.627.285 1.342.422l.433.082c.535.101.94.304 1.213.609.277.305.416.701.416 1.19 0 .648-.23 1.156-.691 1.523-.461.363-1.102.545-1.922.545-.324 0-.664-.035-1.02-.106a9.004 9.004 0 0 1-1.154-.304v-1.114c.402.208.787.364 1.154.469a3.9 3.9 0 0 0 1.043.153c.477 0 .846-.096 1.108-.288.261-.195.392-.466.392-.814 0-.5-.478-.846-1.435-1.037l-.047-.012-.404-.082c-.622-.121-1.075-.324-1.36-.609-.285-.289-.428-.682-.428-1.178 0-.629.213-1.113.639-1.453.426-.344 1.033-.516 1.822-.516.352 0 .69.033 1.014.1.324.062.643.158.955.287ZM277.368 101.666v1.055a4.124 4.124 0 0 0-.932-.405 3.474 3.474 0 0 0-.955-.134c-.488 0-.854.08-1.096.24-.238.156-.357.396-.357.721 0 .293.09.511.269.656.18.144.627.285 1.342.422l.434.082c.535.101.939.304 1.213.609.277.305.416.701.416 1.19 0 .648-.231 1.156-.692 1.523-.461.363-1.101.545-1.922.545-.324 0-.664-.035-1.019-.106a9.016 9.016 0 0 1-1.155-.304v-1.114a6.33 6.33 0 0 0 1.155.469 3.9 3.9 0 0 0 1.043.153c.476 0 .845-.096 1.107-.288.262-.195.393-.466.393-.814 0-.5-.479-.846-1.436-1.037l-.047-.012-.404-.082c-.621-.121-1.074-.324-1.359-.609-.286-.289-.428-.682-.428-1.178 0-.629.213-1.113.639-1.453.425-.344 1.033-.516 1.822-.516.351 0 .689.033 1.014.1.324.062.642.158.955.287ZM285.829 109.113v.996h-7.172v-.996h7.172ZM289.245 99.574v1.864h2.449v.837h-2.449v3.563c0 .484.092.822.275 1.014.184.191.504.287.961.287h1.213V108h-1.318c-.809 0-1.379-.162-1.711-.486-.332-.325-.498-.883-.498-1.676v-3.563h-1.752v-.837h1.752v-1.864h1.078ZM296.247 102.193c-.547 0-.961.213-1.242.639-.281.426-.422 1.057-.422 1.893 0 .832.141 1.463.422 1.892.281.426.695.639 1.242.639.551 0 .967-.213 1.248-.639.281-.429.422-1.06.422-1.892 0-.836-.141-1.467-.422-1.893-.281-.426-.697-.639-1.248-.639Zm0-.914c.91 0 1.606.295 2.086.885.485.59.727 1.443.727 2.561 0 1.121-.241 1.976-.721 2.566-.48.586-1.178.879-2.092.879-.91 0-1.605-.293-2.086-.879-.48-.59-.72-1.445-.72-2.566 0-1.118.24-1.971.72-2.561.481-.59 1.176-.885 2.086-.885ZM301.011 98.883h1.113v5.279l2.83-2.724h1.313l-2.584 2.472 2.988 4.09h-1.318l-2.426-3.387-.803.756V108h-1.113v-9.117ZM313.181 104.18v.527h-4.67v.035c-.031.895.139 1.537.51 1.928.375.391.902.586 1.582.586a3.86 3.86 0 0 0 1.078-.164c.375-.11.776-.276 1.201-.498v1.072c-.41.168-.806.293-1.189.375a4.972 4.972 0 0 1-1.102.129c-1.019 0-1.816-.305-2.39-.914-.574-.613-.862-1.457-.862-2.531 0-1.047.282-1.883.844-2.508.563-.625 1.313-.938 2.25-.938.836 0 1.494.283 1.975.85.484.566.742 1.25.773 2.051Zm-1.078-.317a2.07 2.07 0 0 0-.498-1.172c-.281-.332-.687-.498-1.219-.498-.519 0-.947.172-1.283.516-.336.344-.519.73-.551 1.16l3.551-.006ZM319.767 103.934V108h-1.084v-4.066c0-.59-.103-1.024-.31-1.301-.207-.278-.531-.416-.973-.416-.504 0-.892.179-1.166.539-.269.355-.404.867-.404 1.535V108h-1.078v-6.562h1.078v.984c.191-.375.451-.658.779-.85.328-.195.717-.293 1.166-.293.668 0 1.166.221 1.494.662.332.438.498 1.102.498 1.993ZM322.879 105.633h2.062V108h-2.062v-2.367ZM328.176 101.438h1.119l1.905 5.507 1.91-5.507h1.119L331.897 108h-1.389l-2.332-6.562ZM338.694 104.701h-.358c-.628 0-1.103.111-1.423.334-.317.219-.475.547-.475.985 0 .394.119.701.357.919.239.219.569.329.991.329.593 0 1.06-.206 1.4-.616.34-.414.512-.984.516-1.711v-.24h-1.008Zm2.092-.445V108h-1.084v-.973c-.231.391-.522.68-.873.868-.348.183-.772.275-1.272.275-.668 0-1.201-.188-1.599-.563-.399-.378-.598-.884-.598-1.517 0-.731.244-1.285.732-1.664.493-.379 1.213-.569 2.162-.569h1.448v-.169c-.004-.524-.137-.903-.399-1.137-.261-.239-.679-.358-1.254-.358-.367 0-.738.053-1.113.159-.375.105-.74.259-1.096.462v-1.078c.399-.152.78-.265 1.143-.34a5.128 5.128 0 0 1 1.066-.117c.543 0 1.006.08 1.389.241.387.16.699.4.938.72.148.196.253.438.316.727.062.285.094.715.094 1.289ZM345.784 105.627c0 .484.088.85.264 1.096.179.246.443.369.791.369h1.259V108h-1.365c-.644 0-1.144-.205-1.5-.615-.351-.414-.527-1-.527-1.758v-5.936h-1.729v-.843h2.807v6.779ZM349.704 105.516v-4.067h1.078v4.067c0 .589.104 1.023.311 1.3.211.278.535.416.972.416.508 0 .897-.177 1.166-.533.27-.359.405-.873.405-1.541v-3.709h1.084V108h-1.084v-.984a2.031 2.031 0 0 1-.785.861c-.329.195-.713.293-1.155.293-.672 0-1.172-.219-1.5-.656-.328-.442-.492-1.108-.492-1.998ZM362.115 104.18v.527h-4.67v.035c-.032.895.138 1.537.509 1.928.375.391.903.586 1.582.586.344 0 .704-.055 1.079-.164.375-.11.775-.276 1.201-.498v1.072c-.41.168-.807.293-1.19.375a4.97 4.97 0 0 1-1.101.129c-1.02 0-1.817-.305-2.391-.914-.574-.613-.861-1.457-.861-2.531 0-1.047.281-1.883.843-2.508.563-.625 1.313-.938 2.25-.938.836 0 1.495.283 1.975.85.484.566.742 1.25.774 2.051Zm-1.079-.317a2.057 2.057 0 0 0-.498-1.172c-.281-.332-.687-.498-1.218-.498-.52 0-.948.172-1.284.516-.336.344-.519.73-.55 1.16l3.55-.006ZM365.132 105.885h1.828v1.553l-1.3 2.525-1.172.006.644-2.531v-1.553ZM42.674 127.299c.547 0 .903-.084 1.067-.252.168-.168.252-.531.252-1.09v-1.225c0-.668.14-1.128.421-1.382.282-.258.801-.432 1.56-.522-.782-.105-1.307-.275-1.577-.51-.27-.238-.404-.701-.404-1.388v-1.571c0-.554-.084-.916-.252-1.084-.164-.171-.52-.257-1.067-.257h-.41v-.838h.375c.973 0 1.623.144 1.951.433.332.285.498.86.498 1.723v1.523c0 .508.108.893.323 1.155.218.261.603.392 1.154.392h.715v.838h-.715c-.504 0-.877.154-1.12.463a1.75 1.75 0 0 0-.357 1.102v1.171c0 .864-.166 1.44-.498 1.729-.328.289-.978.434-1.95.434h-.376v-.844h.41ZM50.561 124.885h1.828v1.553l-1.3 2.525-1.172.006.644-2.531v-1.553ZM47.028 146.299v.844h-.375c-.973 0-1.625-.145-1.957-.434-.328-.289-.492-.865-.492-1.729v-1.171c0-.426-.121-.793-.364-1.102-.238-.309-.61-.463-1.113-.463h-.715v-.838h.715c.55 0 .934-.131 1.149-.392.218-.262.328-.647.328-1.155v-1.523c0-.863.164-1.438.492-1.723.332-.289.984-.433 1.957-.433h.375v.838h-.41c-.547 0-.905.086-1.073.257-.164.168-.246.53-.246 1.084v1.571c0 .687-.135 1.15-.404 1.388-.27.235-.795.405-1.576.51.758.09 1.277.264 1.558.522.282.254.422.714.422 1.382v1.225c0 .559.082.922.246 1.09.168.168.526.252 1.073.252h.41ZM56.907 161.748c0 .836.131 1.467.393 1.893.265.425.658.638 1.178.638.519 0 .912-.213 1.177-.638.27-.43.404-1.061.404-1.893 0-.832-.134-1.461-.404-1.887-.265-.429-.658-.644-1.178-.644-.519 0-.912.213-1.177.638-.262.426-.393 1.057-.393 1.893Zm3.153 2.438a1.893 1.893 0 0 1-.715.75 2.041 2.041 0 0 1-1.037.257c-.786 0-1.407-.302-1.864-.908-.453-.609-.68-1.447-.68-2.514 0-1.085.227-1.935.68-2.548.453-.614 1.075-.92 1.864-.92.39 0 .734.086 1.03.258.302.168.542.414.721.738v-.838h1.085v9.059H60.06v-3.334ZM63.095 162.516v-4.067h1.078v4.067c0 .589.104 1.023.31 1.3.212.278.536.416.973.416.508 0 .897-.177 1.166-.533.27-.359.405-.873.405-1.541v-3.709h1.084V165h-1.084v-.984a2.028 2.028 0 0 1-.786.861c-.328.195-.713.293-1.154.293-.672 0-1.172-.219-1.5-.656-.328-.442-.492-1.108-.492-1.998ZM72.552 159.193c-.547 0-.96.213-1.242.639-.281.426-.422 1.057-.422 1.893 0 .832.14 1.463.422 1.892.281.426.695.639 1.242.639.551 0 .967-.213 1.248-.639.282-.429.422-1.06.422-1.892 0-.836-.14-1.467-.422-1.893-.281-.426-.697-.639-1.248-.639Zm0-.914c.91 0 1.606.295 2.086.885.484.59.727 1.443.727 2.561 0 1.121-.24 1.976-.721 2.566-.48.586-1.178.879-2.092.879-.91 0-1.605-.293-2.086-.879-.48-.59-.72-1.445-.72-2.566 0-1.118.24-1.971.72-2.561.48-.59 1.176-.885 2.086-.885ZM79.53 156.574v1.864h2.45v.837h-2.45v3.563c0 .484.093.822.276 1.014.184.191.504.287.961.287h1.213V165h-1.318c-.809 0-1.38-.162-1.711-.486-.332-.325-.498-.883-.498-1.676v-3.563H76.7v-.837h1.752v-1.864h1.078ZM89.486 161.18v.527h-4.67v.035c-.03.895.139 1.537.51 1.928.375.391.902.586 1.582.586.344 0 .703-.055 1.078-.164.375-.11.776-.276 1.201-.498v1.072a7.03 7.03 0 0 1-1.189.375 4.972 4.972 0 0 1-1.102.129c-1.02 0-1.816-.305-2.39-.914-.574-.613-.862-1.457-.862-2.531 0-1.047.282-1.883.844-2.508.563-.625 1.313-.938 2.25-.938.836 0 1.494.283 1.975.85.484.566.742 1.25.773 2.051Zm-1.078-.317a2.068 2.068 0 0 0-.498-1.172c-.281-.332-.687-.498-1.219-.498-.52 0-.947.172-1.283.516-.336.344-.52.73-.55 1.16l3.55-.006ZM91.092 156.252h4.857v.996h-1.834v6.756h1.834V165h-4.857v-.996h1.834v-6.756h-1.834v-.996ZM101.932 159.275v-3.392h1.078V165h-1.078v-.826c-.18.324-.42.572-.721.744-.297.168-.64.252-1.031.252-.793 0-1.418-.307-1.875-.92-.453-.617-.68-1.467-.68-2.549 0-1.066.229-1.902.686-2.508.457-.609 1.08-.914 1.869-.914.395 0 .742.086 1.043.258.301.168.537.414.709.738Zm-3.17 2.45c0 .836.133 1.466.398 1.892.266.426.659.639 1.178.639.52 0 .914-.215 1.184-.645.273-.429.41-1.058.41-1.886 0-.832-.137-1.461-.41-1.887-.27-.43-.664-.645-1.184-.645-.52 0-.912.213-1.177.639-.266.426-.399 1.057-.399 1.893ZM106.409 158.443h1.828v2.116h-1.828v-2.116Zm0 4.424h1.828V165h-1.828v-2.133Z"/><path fill="#45BDE3" d="M119.821 161.748c0 .836.131 1.467.393 1.893.266.425.658.638 1.178.638.519 0 .912-.213 1.177-.638.27-.43.405-1.061.405-1.893 0-.832-.135-1.461-.405-1.887-.265-.429-.658-.644-1.177-.644-.52 0-.912.213-1.178.638-.262.426-.393 1.057-.393 1.893Zm3.153 2.438a1.894 1.894 0 0 1-.715.75 2.043 2.043 0 0 1-1.037.257c-.785 0-1.406-.302-1.863-.908-.454-.609-.68-1.447-.68-2.514 0-1.085.226-1.935.68-2.548.453-.614 1.074-.92 1.863-.92.39 0 .734.086 1.031.258.301.168.541.414.721.738v-.838h1.084v9.059h-1.084v-3.334ZM126.009 162.516v-4.067h1.078v4.067c0 .589.104 1.023.311 1.3.211.278.535.416.972.416.508 0 .897-.177 1.166-.533.27-.359.405-.873.405-1.541v-3.709h1.084V165h-1.084v-.984a2.031 2.031 0 0 1-.785.861c-.329.195-.713.293-1.155.293-.672 0-1.172-.219-1.5-.656-.328-.442-.492-1.108-.492-1.998ZM135.466 159.193c-.546 0-.961.213-1.242.639-.281.426-.422 1.057-.422 1.893 0 .832.141 1.463.422 1.892.281.426.696.639 1.242.639.551 0 .967-.213 1.248-.639.282-.429.422-1.06.422-1.892 0-.836-.14-1.467-.422-1.893-.281-.426-.697-.639-1.248-.639Zm0-.914c.911 0 1.606.295 2.086.885.485.59.727 1.443.727 2.561 0 1.121-.24 1.976-.721 2.566-.48.586-1.178.879-2.092.879-.91 0-1.605-.293-2.086-.879-.48-.59-.72-1.445-.72-2.566 0-1.118.24-1.971.72-2.561.481-.59 1.176-.885 2.086-.885ZM142.445 156.574v1.864h2.449v.837h-2.449v3.563c0 .484.092.822.276 1.014.183.191.503.287.96.287h1.213V165h-1.318c-.809 0-1.379-.162-1.711-.486-.332-.325-.498-.883-.498-1.676v-3.563h-1.752v-.837h1.752v-1.864h1.078ZM152.4 161.18v.527h-4.669v.035c-.032.895.138 1.537.509 1.928.375.391.903.586 1.582.586a3.86 3.86 0 0 0 1.078-.164 6.72 6.72 0 0 0 1.202-.498v1.072a7.056 7.056 0 0 1-1.19.375 4.97 4.97 0 0 1-1.101.129c-1.02 0-1.817-.305-2.391-.914-.574-.613-.861-1.457-.861-2.531 0-1.047.281-1.883.843-2.508.563-.625 1.313-.938 2.25-.938.836 0 1.495.283 1.975.85.484.566.742 1.25.773 2.051Zm-1.078-.317a2.07 2.07 0 0 0-.498-1.172c-.281-.332-.687-.498-1.218-.498-.52 0-.948.172-1.284.516-.336.344-.519.73-.55 1.16l3.55-.006Z"/><path fill="#D6ECF3" d="M155.108 162.633h2.062V165h-2.062v-2.367ZM161.67 158.461h2.76v5.701h2.139V165h-5.356v-.838h2.139v-4.863h-1.682v-.838Zm1.682-2.549h1.078v1.359h-1.078v-1.359ZM171.837 159.275v-3.392h1.078V165h-1.078v-.826c-.18.324-.42.572-.721.744a2.059 2.059 0 0 1-1.031.252c-.793 0-1.418-.307-1.875-.92-.453-.617-.68-1.467-.68-2.549 0-1.066.229-1.902.686-2.508.457-.609 1.08-.914 1.869-.914.394 0 .742.086 1.043.258.301.168.537.414.709.738Zm-3.17 2.45c0 .836.133 1.466.398 1.892.266.426.658.639 1.178.639.519 0 .914-.215 1.184-.645.273-.429.41-1.058.41-1.886 0-.832-.137-1.461-.41-1.887-.27-.43-.665-.645-1.184-.645-.52 0-.912.213-1.178.639-.265.426-.398 1.057-.398 1.893ZM176.39 162.885h1.828v1.553l-1.301 2.525-1.172.006.645-2.531v-1.553ZM42.674 184.299c.547 0 .903-.084 1.067-.252.168-.168.252-.531.252-1.09v-1.225c0-.668.14-1.128.421-1.382.282-.258.801-.432 1.56-.522-.782-.105-1.307-.275-1.577-.51-.27-.238-.404-.701-.404-1.388v-1.571c0-.554-.084-.916-.252-1.084-.164-.171-.52-.257-1.067-.257h-.41v-.838h.375c.973 0 1.623.144 1.951.433.332.285.498.86.498 1.723v1.523c0 .508.108.893.323 1.155.218.261.603.392 1.154.392h.715v.838h-.715c-.504 0-.877.154-1.12.463a1.75 1.75 0 0 0-.357 1.102v1.171c0 .864-.166 1.44-.498 1.729-.328.289-.978.434-1.95.434h-.376v-.844h.41ZM50.561 181.885h1.828v1.553l-1.3 2.525-1.172.006.644-2.531v-1.553ZM29.04 193.309h.937c.59.921 1.029 1.824 1.318 2.707.289.882.433 1.759.433 2.63 0 .879-.144 1.76-.433 2.643-.29.883-.729 1.785-1.318 2.707h-.938c.52-.906.906-1.803 1.16-2.689a9.494 9.494 0 0 0 .387-2.661c0-.89-.129-1.779-.387-2.666a11.792 11.792 0 0 0-1.16-2.671ZM36.58 200.885h1.828v1.553l-1.154 2.238H36l.58-2.238v-1.553Zm-.076-4.442h1.828v2.116h-1.828v-2.116Z"/><path fill="url(#e)" d="M176.56 377.18H296.5l21.09 4.99-162.13.12 21.1-5.11Z"/><path fill="url(#f)" d="M316.49 384.94H156.56l-1.06-2.65 162.09-.12-1.1 2.77Z"/><path fill="#fff" d="M244.94 305.56a8.41 8.41 0 0 1-8.41 8.41c-4.64 0-8.42-3.77-8.42-8.41 0-4.64 3.76-8.42 8.42-8.42s8.41 3.77 8.41 8.42Z"/><defs><linearGradient id="a" x1="176.56" x2="296.5" y1="351.38" y2="351.38" gradientUnits="userSpaceOnUse"><stop stop-color="#7652E4"/><stop offset="1" stop-color="#009B9A"/></linearGradient><linearGradient id="b" x1="0" x2="473.05" y1="304.17" y2="304.17" gradientUnits="userSpaceOnUse"><stop stop-color="#7652E4"/><stop offset="1" stop-color="#FF7A4E"/></linearGradient><linearGradient id="c" x1="0" x2="473.05" y1="141.18" y2="141.18" gradientUnits="userSpaceOnUse"><stop stop-color="#70009B"/><stop offset=".12" stop-color="#2285AF"/><stop offset=".3" stop-color="#4D6ACA"/><stop offset=".44" stop-color="#685ADB"/><stop offset=".53" stop-color="#7254E2"/><stop offset="1" stop-color="#009B9A"/></linearGradient><linearGradient id="d" x1="16.67" x2="456.38" y1="141.18" y2="141.18" gradientUnits="userSpaceOnUse"><stop offset=".2"/><stop offset=".58" stop-color="#0A1D40"/><stop offset=".77" stop-color="#00073E"/></linearGradient><linearGradient id="e" x1="155.46" x2="317.59" y1="379.74" y2="379.74" gradientUnits="userSpaceOnUse"><stop stop-color="#7652E4"/><stop offset="1" stop-color="#FF7A4E"/></linearGradient><linearGradient id="f" x1="155.5" x2="317.59" y1="383.55" y2="383.55" gradientUnits="userSpaceOnUse"><stop stop-color="#7652E4"/><stop offset="1" stop-color="#009B9A"/></linearGradient></defs></svg>
