<svg xmlns="http://www.w3.org/2000/svg" fill="none" viewBox="0 0 1507 233"><path fill="#fff" d="M397.539 110.445c0 22.586-3.605 38.934-10.804 49.062-7.199 10.129-20.294 15.193-39.267 15.193-18.981 0-32.067-5.184-39.266-15.562-7.199-10.369-10.804-26.699-10.804-48.971 0-22.272 3.66-38.814 10.989-49.617 7.319-10.803 20.321-16.2 38.998-16.2 18.677 0 31.698 5.37 39.092 16.108 7.374 10.747 11.062 27.41 11.062 49.987Zm-85.678-.37c0 18.557 2.44 31.883 7.319 40.006 4.88 8.114 14.306 12.171 28.288 12.171 13.974 0 23.372-3.965 28.196-11.903 4.824-7.929 7.236-21.237 7.236-39.914 0-18.677-2.504-32.28-7.504-40.828-5.009-8.54-14.37-12.818-28.103-12.818-13.733 0-23.067 4.242-28.011 12.725-4.953 8.493-7.421 22.013-7.421 40.561ZM420.975 213.524V81.334h13.548v6.59c9.278-5.61 18.427-8.42 27.465-8.42 11.598 0 20.017 3.697 25.266 11.08 5.25 7.385 7.874 19.565 7.874 36.523 0 16.967-3.087 29.138-9.241 36.522-6.164 7.384-16.385 11.081-30.663 11.081-7.449 0-14.278-.675-20.507-2.015v40.829h-13.742Zm38.989-121.756c-3.659 0-7.596.61-11.81 1.83-4.214 1.22-7.541 2.44-9.981 3.66l-3.475 1.829v61.696c8.669 1.34 15.258 2.014 19.777 2.014 9.888 0 16.81-2.809 20.784-8.419 3.965-5.609 5.952-14.767 5.952-27.465 0-12.689-1.803-21.727-5.397-27.096-3.614-5.36-8.891-8.05-15.85-8.05ZM579.706 161.522l5.314-.546.369 10.804c-13.917 1.95-25.811 2.929-35.699 2.929-13.179 0-22.522-3.817-28.011-11.441-5.49-7.624-8.243-19.499-8.243-35.607 0-32.096 12.753-48.148 38.268-48.148 12.328 0 21.542 3.447 27.641 10.341 6.1 6.895 9.159 17.735 9.159 32.493l-.749 10.434h-60.42c0 10.128 1.829 17.642 5.489 22.521 3.66 4.88 10.036 7.319 19.13 7.319 9.103 0 18.353-.36 27.752-1.099Zm-4.944-39.729c0-11.229-1.802-19.158-5.397-23.797-3.605-4.64-9.464-6.959-17.578-6.959-8.123 0-14.222 2.44-18.307 7.32-4.094 4.879-6.201 12.697-6.312 23.436h47.594ZM623.64 172.88h-13.733V81.334h13.548v6.404c9.888-5.49 19.342-8.243 28.38-8.243 12.208 0 20.414 3.3 24.629 9.888 4.214 6.59 6.311 18.307 6.311 35.155v48.332h-13.548v-47.963c0-12.688-1.256-21.394-3.752-26.088-2.504-4.695-7.845-7.052-16.015-7.052-3.909 0-8.031.583-12.356 1.738-4.334 1.164-7.661 2.292-9.98 3.392l-3.475 1.644v74.339h-.009ZM797.203 130.221h-32.225v42.659h-14.093V46.18h46.318c13.788 0 23.981 3.354 30.57 10.073 6.59 6.718 9.889 16.967 9.889 30.755 0 28.806-13.493 43.213-40.459 43.213Zm-32.225-12.448h32.04c17.457 0 26.181-10.249 26.181-30.755 0-9.76-2.079-16.94-6.229-21.514-4.149-4.575-10.803-6.867-19.952-6.867h-32.04v59.136ZM920.779 108.985v46.872c.369 4.519 3.9 7.199 10.618 8.059l-.545 10.803c-9.648 0-16.903-2.44-21.791-7.319-10.988 4.879-21.967 7.319-32.955 7.319-8.419 0-14.833-2.384-19.222-7.144-4.39-4.759-6.59-11.598-6.59-20.507 0-8.908 2.255-15.47 6.774-19.684 4.51-4.214 11.589-6.801 21.237-7.781l28.741-2.745v-7.873c0-6.229-1.349-10.683-4.029-13.364-2.689-2.68-6.349-4.029-10.988-4.029-9.768 0-19.897.61-30.395 1.83l-5.675.545-.545-10.433c13.428-2.68 25.322-4.03 35.7-4.03 10.369 0 17.91 2.385 22.614 7.144 4.694 4.76 7.051 12.208 7.051 22.337Zm-56.391 37.344c0 11.229 4.639 16.847 13.917 16.847 8.299 0 16.478-1.404 24.536-4.214l4.214-1.46v-30.21l-27.096 2.56c-5.489.489-9.463 2.079-11.903 4.759-2.449 2.689-3.668 6.589-3.668 11.718ZM938.356 81.334h13.733l22.882 79.643h6.044l23.065-79.643h13.73l-38.08 132.189h-13.732l11.903-40.643h-13.548l-25.997-91.546ZM1049.12 172.88h-13.74V81.334h13.55v6.404c9.16-5.49 18.06-8.243 26.73-8.243 11.34 0 19.28 3.114 23.79 9.334 4.03-2.44 9.24-4.602 15.66-6.497 6.4-1.894 12.05-2.837 16.94-2.837 12.21 0 20.41 3.271 24.63 9.796 4.21 6.534 6.31 18.279 6.31 35.247v48.332h-13.73v-47.963c0-12.688-1.22-21.394-3.66-26.088-2.44-4.695-7.64-7.052-15.57-7.052-4.03 0-8.18.583-12.45 1.738-4.26 1.164-7.56 2.292-9.88 3.392l-3.48 1.644c1.58 4.03 2.39 12.938 2.39 26.727v47.602h-13.74v-47.233c0-13.178-1.19-22.124-3.56-26.818-2.39-4.695-7.6-7.052-15.66-7.052-3.91 0-7.9.583-11.99 1.738-4.1 1.164-7.24 2.292-9.43 3.392l-3.11 1.644v74.339ZM1250.69 161.522l5.31-.546.37 10.804c-13.91 1.95-25.81 2.929-35.7 2.929-13.18 0-22.52-3.817-28.01-11.441-5.49-7.624-8.24-19.499-8.24-35.607 0-32.096 12.75-48.148 38.27-48.148 12.33 0 21.54 3.447 27.65 10.341 6.1 6.895 9.16 17.735 9.16 32.493l-.73 10.434h-60.42c0 10.128 1.83 17.642 5.49 22.521 3.65 4.88 10.03 7.319 19.12 7.319 9.09 0 18.33-.36 27.73-1.099Zm-4.94-39.729c0-11.229-1.81-19.158-5.4-23.797-3.61-4.64-9.47-6.959-17.58-6.959-8.11 0-14.22 2.44-18.31 7.32-4.09 4.879-6.2 12.697-6.31 23.436h47.6ZM1294.63 172.88h-13.73V81.334h13.55v6.404c9.89-5.49 19.34-8.243 28.38-8.243 12.21 0 20.41 3.3 24.63 9.888 4.21 6.59 6.31 18.307 6.31 35.155v48.332h-13.55v-47.963c0-12.688-1.26-21.394-3.75-26.088-2.51-4.695-7.85-7.052-16.02-7.052-3.91 0-8.03.583-12.35 1.738-4.34 1.164-7.66 2.292-9.98 3.392l-3.48 1.644v74.339h-.01ZM1426.08 93.237h-29.11v43.758c0 10.498.76 17.393 2.29 20.692 1.53 3.299 5.16 4.944 10.9 4.944l16.29-1.1.92 11.349c-8.18 1.34-14.4 2.014-18.68 2.014-9.52 0-16.11-2.319-19.78-6.959-3.66-4.639-5.49-13.483-5.49-26.55V93.237h-13V81.334h13v-28.01h13.55v28.01h29.11v11.903ZM1471.67 91.767c-13.31 0-19.95 4.64-19.95 13.918 0 4.269 1.52 7.291 4.57 9.066 3.05 1.774 10.01 3.604 20.87 5.489 10.86 1.895 18.55 4.547 23.07 7.966 4.51 3.42 6.77 9.824 6.77 19.222 0 9.399-3.02 16.293-9.07 20.692-6.04 4.39-14.86 6.589-26.45 6.589-7.57 0-16.48-.859-26.73-2.56l-5.49-.915.73-11.903c13.92 2.08 24.41 3.115 31.5 3.115 7.07 0 12.47-1.128 16.2-3.392 3.72-2.255 5.58-6.044 5.58-11.348 0-5.305-1.59-8.909-4.76-10.804-3.18-1.894-10.13-3.687-20.87-5.397-10.74-1.709-18.37-4.214-22.88-7.504-4.52-3.299-6.77-9.398-6.77-18.307 0-8.909 3.14-15.498 9.42-19.776 6.29-4.27 14.13-6.405 23.53-6.405 7.44 0 16.78.86 28.01 2.56l5.13.915-.37 11.718c-13.55-1.96-24.23-2.939-32.04-2.939Z"/><path fill="#fff" d="M116.766 197.913c44.909 0 81.315-36.404 81.315-81.311 0-44.907-36.406-81.311-81.315-81.311-44.91 0-81.316 36.404-81.316 81.311 0 44.907 36.406 81.311 81.316 81.311Z"/><path fill="#FFA6B2" fill-rule="evenodd" d="M231.757 103.767c-4.408-41.427-30.589-76.358-66.871-93.121h-33.879v27.741c32.492 6.284 57.879 32.473 62.961 65.37h37.789v.01Z" clip-rule="evenodd"/><path fill="#B3EDDF" fill-rule="evenodd" d="M62.74 219.398v-45.114a79.656 79.656 0 0 1-9.648-10.544H25.257v24.784a116.724 116.724 0 0 0 37.483 30.874Z" clip-rule="evenodd"/><path fill="#FFB985" fill-rule="evenodd" d="M231.83 104.561h-37.751c.536 3.715.813 7.504.813 11.366 0 11.662-2.532 22.742-7.069 32.704v15.118h34.443c6.515-14.517 10.137-30.606 10.137-47.544.01-3.937-.184-7.818-.573-11.644Z" clip-rule="evenodd"/><path fill="#FFCBA9" fill-rule="evenodd" d="M211.693 87.595c-9.26 0-16.773 7.503-16.773 16.772v2.366c0 9.259 7.504 16.772 16.773 16.772 9.26 0 16.774-7.504 16.774-16.772v-2.366c0-9.269-7.514-16.772-16.774-16.772Z" clip-rule="evenodd"/><path fill="#68C180" fill-rule="evenodd" d="M227.071 151.117c-14.823 47.11-58.858 81.283-110.869 81.283-4.741 0-9.417-.287-14.01-.832V193.69a79.194 79.194 0 0 0 13.733 1.192c30.968 0 57.768-17.817 70.706-43.765h40.44Z" clip-rule="evenodd"/><path fill="#2E9C86" fill-rule="evenodd" d="M41.3 146.385a68.315 68.315 0 0 1 3.086 3.022 72.957 72.957 0 0 1-1.34-3.022H41.3Zm53.794 47.148c0 12.521-2.412 24.488-6.81 35.485a115.387 115.387 0 0 1-30.396-12.291 62.628 62.628 0 0 0-.656-47.978c9.98 11.079 23.048 19.313 37.853 23.361.01.471.01.942.01 1.423Z" clip-rule="evenodd"/><path fill="#98E1D0" fill-rule="evenodd" d="M7.985 158.611h26.347V91.143H2.708A116.572 116.572 0 0 0 0 116.195c0 14.971 2.828 29.276 7.985 42.416Z" clip-rule="evenodd"/><path fill="#56B7B5" fill-rule="evenodd" d="M6.922 155.793c15.424-11.265 25.432-29.488 25.432-50.049 0-17.364-7.143-33.064-18.658-44.31a116.89 116.89 0 0 1 27.65-34.109 106.32 106.32 0 0 1 22.642 29.128c-16.56 14.471-27.022 35.744-27.022 59.465 0 19.748 7.254 37.805 19.24 51.657a106.17 106.17 0 0 1-26.763 25.912 116.009 116.009 0 0 1-22.521-37.694Z" clip-rule="evenodd"/><path fill="#8075B3" fill-rule="evenodd" d="M119.954.055A126.542 126.542 0 0 0 116.202 0c-43.13 0-80.78 23.5-100.824 58.393h46.456c14.13-13.288 33.159-21.43 54.09-21.43 1.35 0 2.69.038 4.03.102V.055Z" clip-rule="evenodd"/><path fill="#549458" fill-rule="evenodd" d="M107.275 232.058c.12-13.473 3.641-26.142 9.731-37.185-.361.009-.721.009-1.082.009a78.89 78.89 0 0 1-24.268-3.798c-4.99 11.246-8.021 23.555-8.668 36.502a116.428 116.428 0 0 0 24.287 4.472Zm122.753-92.317a102.255 102.255 0 0 0-36.402-9.638 78.596 78.596 0 0 1-8.622 24.119c.287 0 .564-.009.85-.009 13.234 0 25.701 3.271 36.633 9.046a115.592 115.592 0 0 0 7.541-23.518Z" clip-rule="evenodd"/><path fill="#FF9852" fill-rule="evenodd" d="M230.87 97.215c-3.133-7.726-10.721-13.169-19.565-13.169-8.335 0-15.534 4.833-18.972 11.838a79.151 79.151 0 0 1 2.569 20.044c0 .822-.009 1.644-.037 2.467 3.872 4.796 9.796 7.873 16.44 7.873 10.545 0 19.278-7.725 20.858-17.816-.258-3.808-.693-7.55-1.293-11.237Zm-6.349 7.938c0 7.3-5.915 13.214-13.216 13.214-7.3 0-13.215-5.914-13.215-13.214 0-7.3 5.915-13.215 13.215-13.215 7.292-.01 13.216 5.914 13.216 13.215Z" clip-rule="evenodd"/><path fill="#825282" fill-rule="evenodd" d="M16.2 56.98C55.93 50.687 90.806 29.81 115.167 0h1.044c16.052 0 31.347 3.253 45.255 9.14a204.323 204.323 0 0 1-24.416 30.67 79.126 79.126 0 0 0-21.116-2.855c-36.716 0-67.574 25.052-76.418 58.994a202.647 202.647 0 0 1-38.592 5.6A115.248 115.248 0 0 1 16.2 56.979Z" clip-rule="evenodd"/><path fill="#FF7A7F" fill-rule="evenodd" d="M220.195 64.28c-.794.019-1.589.037-2.384.037-38.786 0-71.381-26.521-80.631-62.422 36.439 6.635 66.945 30.273 83.015 62.385Z" clip-rule="evenodd"/></svg>
