<svg xmlns="http://www.w3.org/2000/svg" fill="none" viewBox="0 0 720 226"><path fill="#fff" d="M3.173 114.501V4.536h12.115V114.5H3.173ZM52.253 114.501H40.449V35.288h11.804v5.592c8.698-4.66 16.774-7.145 24.54-7.145 10.562 0 17.706 2.796 21.434 8.698 3.728 5.592 5.591 15.843 5.591 30.442v41.936H92.014V72.875c0-10.872-1.242-18.638-3.106-22.676-2.175-4.038-6.834-6.213-13.979-6.213-3.417 0-6.834.622-10.872 1.553-3.728.932-6.523 1.864-8.698 2.796l-3.106 1.553v64.613ZM166.256 45.54h-25.161v37.897c0 9.009.621 15.221 1.864 18.017 1.242 2.796 4.349 4.349 9.319 4.349l13.978-.932.932 9.94c-7.144 1.243-12.425 1.864-16.153 1.864-8.387 0-13.978-1.864-17.085-5.902-3.106-4.038-4.659-11.804-4.659-22.987V45.54h-11.183V35.289h11.183v-24.23h11.804v24.23h25.161v10.25ZM234.907 104.56l4.66-.621.31 9.319c-12.115 1.553-22.366 2.485-31.063 2.485-11.494 0-19.57-3.417-24.23-9.94s-7.145-16.775-7.145-30.753c0-27.957 11.183-41.625 33.238-41.625 10.562 0 18.639 3.106 23.919 9.008 5.281 5.902 8.077 15.532 8.077 28.268l-.621 9.008h-52.498c0 8.698 1.553 15.222 4.66 19.57 3.106 4.349 8.698 6.213 16.463 6.213 8.077 0 16.153-.31 24.23-.932Zm-4.349-34.48c0-9.63-1.553-16.464-4.659-20.502-3.107-4.039-8.077-5.902-15.222-5.902-7.144 0-12.425 2.174-15.842 6.212-3.417 4.35-5.281 10.873-5.591 20.192h41.314ZM261 114.501V35.288h11.804v10.873c9.319-6.213 18.949-10.562 29.2-12.426V45.85c-4.349.932-9.009 2.175-13.979 4.038-4.97 1.864-8.387 3.417-11.183 4.66l-4.038 2.174v58.4H261v-.621ZM316.915 114.501V.497h11.804v114.004h-11.804ZM406.688 104.56l4.659-.621.311 9.319c-12.115 1.553-22.366 2.485-31.064 2.485-11.493 0-19.57-3.417-24.229-9.94-4.66-6.523-7.145-16.775-7.145-30.753 0-27.957 11.183-41.625 33.238-41.625 10.562 0 18.638 3.106 23.919 9.008 5.281 5.902 8.076 15.532 8.076 28.268l-.621 9.008h-52.497c0 8.698 1.553 15.222 4.659 19.57 3.107 4.349 8.698 6.213 16.464 6.213 8.077 0 16.153-.31 24.23-.932Zm-4.349-34.48c0-9.63-1.554-16.464-4.66-20.502-3.106-4.039-8.076-5.902-15.221-5.902s-12.425 2.174-15.842 6.212c-3.417 4.35-5.281 10.873-5.592 20.192h41.315ZM493.666.497v114.004h-11.804v-5.281c-8.077 4.659-16.153 6.834-24.23 6.834-4.349 0-8.076-.621-11.183-1.553-3.106-.932-6.212-3.107-9.008-5.592-5.592-5.591-8.698-16.153-8.698-31.685 0-15.531 2.485-26.404 7.766-33.238 5.281-6.833 13.668-10.25 25.472-10.25 6.213 0 12.736.62 19.57 2.174V.497h12.115ZM452.662 104.25c1.864.621 4.349 1.242 7.455 1.242 3.107 0 6.524-.621 10.251-1.553 3.728-.932 6.834-1.864 8.698-2.796l3.106-1.553V45.85c-6.833-1.242-13.046-1.864-18.948-1.864-8.077 0-13.668 2.486-16.775 7.766-3.106 5.281-4.659 13.047-4.659 23.92 0 12.425 1.864 20.501 5.591 24.85 1.553 1.864 3.107 3.106 5.281 3.728ZM547.406 151.777c-12.736 0-21.434-1.864-26.715-5.281-4.97-3.417-7.455-9.63-7.455-18.949 0-4.349.932-7.766 2.796-10.561 1.863-2.796 5.28-5.592 9.629-9.009-3.106-1.864-4.349-5.591-4.349-10.872 0-1.864 1.243-5.28 4.039-9.94l1.553-2.485c-8.387-3.728-12.426-11.805-12.426-23.92 0-18.016 9.941-27.025 29.821-27.025 4.971 0 9.941.622 13.979 1.553l2.485.622 23.608-.621v10.25l-15.221-.31c3.417 3.417 5.281 8.698 5.281 15.842 0 9.94-2.485 16.775-7.455 20.813-4.97 4.038-12.736 5.902-23.298 5.902-2.796 0-5.591-.31-7.766-.621-1.864 4.66-2.796 7.765-2.796 9.008 0 3.417.932 5.281 3.107 6.213 1.864.932 8.076 1.242 18.327 1.242 10.251 0 17.396 1.554 22.055 4.66 4.66 3.106 6.524 9.319 6.524 18.638-.311 16.464-12.115 24.851-35.723 24.851Zm-22.366-24.851c0 5.591 1.553 9.63 4.659 11.804 3.107 2.175 9.009 3.106 17.396 3.106s14.6-1.242 18.017-3.417c3.417-2.174 5.591-6.212 5.591-11.804 0-5.591-1.242-9.008-4.038-10.561-2.796-1.553-7.766-2.485-15.532-2.485l-17.085-.932c-3.417 2.485-5.902 4.659-7.144 6.523-1.243 2.485-1.864 4.66-1.864 7.766Zm1.242-66.165c0 6.212 1.554 10.561 4.349 13.357 2.796 2.796 7.456 4.038 13.979 4.038 6.523 0 11.183-1.242 13.668-4.038 2.796-2.796 4.038-7.145 4.038-13.357 0-6.213-1.242-10.873-4.038-13.358-2.796-2.795-7.455-4.038-13.668-4.038-6.523 0-11.183 1.243-13.979 4.038-3.106 2.485-4.349 7.145-4.349 13.358ZM652.401 104.56l4.659-.621.311 9.319c-12.115 1.553-22.366 2.485-31.064 2.485-11.493 0-19.57-3.417-24.229-9.94-4.66-6.523-7.145-16.775-7.145-30.753 0-27.957 11.183-41.625 33.238-41.625 10.562 0 18.638 3.106 23.919 9.008 5.281 5.902 8.077 15.532 8.077 28.268l-.622 9.008h-52.497c0 8.698 1.553 15.222 4.659 19.57 3.107 4.349 8.698 6.213 16.464 6.213 8.077 0 16.153-.31 24.23-.932Zm-4.349-34.48c0-9.63-1.553-16.464-4.66-20.502-3.106-4.039-8.076-5.902-15.221-5.902-7.144 0-12.425 2.174-15.842 6.212-3.417 4.35-5.281 10.873-5.592 20.192h41.315ZM678.494 114.501V35.288h11.804v10.873c9.319-6.213 18.949-10.562 29.2-12.426V45.85c-4.349.932-9.009 2.175-13.979 4.038-4.97 1.864-8.387 3.417-11.183 4.66l-4.038 2.174v58.4h-11.804v-.621ZM19.814 175.795c-6.838 0-10.257 2.396-10.257 7.188 0 2.477.807 4.253 2.423 5.33 1.615 1.023 5.169 2.316 10.66 3.877 5.547 1.508 9.45 3.338 11.712 5.492 2.261 2.1 3.392 5.438 3.392 10.015 0 5.815-1.67 10.176-5.008 13.084-3.284 2.854-7.78 4.281-13.487 4.281-4.577 0-9.638-.539-15.184-1.616l-2.908-.565.889-7.188c7.268.969 12.814 1.454 16.637 1.454 6.677 0 10.015-2.962 10.015-8.885 0-2.315-.754-4.011-2.261-5.088-1.508-1.131-4.9-2.342-10.177-3.634-5.276-1.346-9.207-3.177-11.791-5.492-2.585-2.316-3.877-5.977-3.877-10.984 0-5.008 1.615-8.777 4.846-11.308 3.284-2.584 7.807-3.876 13.568-3.876 4.146 0 9.046.484 14.7 1.454l2.826.484-.727 7.269c-7.538-.861-12.868-1.292-15.991-1.292ZM55.994 206.486c0 7.161 3.77 10.741 11.307 10.741 7.538 0 11.308-3.58 11.308-10.741v-37.637h9.045v37.475c0 6.515-1.723 11.28-5.169 14.295-3.392 2.962-8.48 4.443-15.264 4.443-6.73 0-11.792-1.481-15.184-4.443-3.392-3.015-5.088-7.78-5.088-14.295v-37.475h9.045v37.637ZM99.962 224.173v-55.324h15.588l12.357 43.209 12.357-43.209h15.668v55.324h-9.045v-45.39h-1.212l-13.084 43.129h-9.369l-13.084-43.129h-1.211v45.39h-8.965ZM168.581 224.173v-55.324h15.588l12.357 43.209 12.357-43.209h15.668v55.324h-9.045v-45.39h-1.212l-13.084 43.129h-9.369l-13.084-43.129h-1.211v45.39h-8.965ZM237.2 224.173v-55.324h8.965v55.324H237.2ZM253.559 176.845v-7.996h40.383v7.996h-15.588v47.328h-9.046v-47.328h-15.749Z"/></svg>
