<svg xmlns="http://www.w3.org/2000/svg" fill="none" viewBox="0 0 795 270"><path fill="#fff" d="M228.268 107.569c3.813 18.64 6.356 40.324 0 59.702-6.271 19.12-20.531 33.637-34.407 46.435-16.718 9.346-36.341 18.319-56.904 18.319-20.296 0-39.043-8.823-55.6-17.946-14.143-12.861-28.767-27.431-35.122-46.808-6.27-19.121-3.632-40.678 0-59.104 7.968-17.294 18.49-36.565 35.122-48.54 16.419-11.814 36.864-15.019 55.675-17.283 19.068 2.168 40.186 6.43 56.829 18.416 16.418 11.814 26.427 29.781 34.407 46.809Z"/><path fill="#B4EEE0" d="M137.278 228.393c-20.285 0-39.353-5.202-55.92-14.314.64 12.861 25.796 28.105 56.347 28.105 30.551 0 54.286-18.737 56.156-28.479-16.718 9.347-36.02 14.688-56.583 14.688Z"/><path fill="#D3D6E2" d="M81.357 214.079c-14.143-12.861-25.23-29.408-31.587-48.785-6.27-19.121-7.178-38.69-3.535-57.117-11.099 2.639-16.985 40.047-9.56 61.785 7.423 21.717 33.648 48.86 44.682 44.117Z"/><path fill="#FFC9DD" d="M83.301 63.323c16.419-11.814 34.92-18.715 53.731-20.98-9.144-8-46.178-2.082-62.255 10.084-16.076 12.167-35.026 44.352-28.542 55.75 7.98-17.315 20.424-32.88 37.066-44.854Z"/><path fill="#FFEBB2" d="M137.032 42.344a115.236 115.236 0 0 1 54.489 21.075c16.419 11.815 28.757 27.122 36.736 44.149 6.901-11.59-8.492-42.204-28.906-55.546-20.413-13.342-57.117-16.825-62.319-9.678Z"/><path fill="#C6E4A2" d="M228.268 107.558c3.813 18.64 2.969 38.487-3.386 57.864a113.623 113.623 0 0 1-31.021 48.273c15.767 1.506 37.665-19.26 44.384-44.416 6.719-25.146-.139-60.375-9.977-61.721Z"/><path fill="#A4BFDD" d="M36.674 169.952c-6.73 8.417 1.784 43.828 30.295 63.878 28.51 20.051 64.487 15.682 70.736 8.343-21.022-4.006-40.581-13.769-56.348-28.094-18.704-10.308-34.214-25.626-44.683-44.127Z"/><path fill="#99E2D1" d="M238.245 169.279c-10.34 18.576-25.744 33.99-44.384 44.416-15.671 14.442-35.166 24.333-56.156 28.478 7.531 9.08 48.497 4.487 70.673-8.802 22.176-13.288 34.172-52.556 29.867-64.092Z"/><path fill="#FFA7B3" d="M46.235 108.167c4.112-20.82 14.025-40.165 28.542-55.75C59.854 46.958 31.59 71.698 22.82 100.7c-8.77 29.002-1.72 62.191 13.854 69.241a113.791 113.791 0 0 1 9.56-61.774Z"/><path fill="#FCA" d="M137.032 42.344c21.257-2.553 42.889.8 62.319 9.667 6.377-11.964-34.108-34.044-62.394-34.044s-61.7 19.345-62.18 34.45c19.388-9.005 40.998-12.498 62.255-10.073Z"/><path fill="#E9D59E" d="M238.245 169.279c13.47-2.596 23.49-35.742 13.395-69.316-10.105-33.574-41.361-51.402-52.278-47.952 14.634 15.489 24.665 34.77 28.916 55.547 9.016 19.238 12.477 40.666 9.967 61.721Z"/><path fill="#A499D7" d="M66.969 233.83a114.603 114.603 0 0 1-9.155-10.991c-11.846-16.162-18.8-34.375-21.13-52.887-9.325-16.483-14.644-35.497-14.644-55.75 0-4.561.277-9.069.8-13.491-10.81 2.98-23.852 45.879-12.016 77.658 11.825 31.79 46.114 57.245 56.145 55.461Z"/><path fill="#56B8B6" d="M208.378 233.371a115.074 115.074 0 0 1-13.385 5.234c-19.174 6.175-38.797 7.093-57.288 3.568-18.715 3.696-38.605 2.831-58.036-3.429-4.38-1.41-8.62-3.066-12.7-4.924 5.073 15.457 30.828 35.315 70.832 35.315 40.005.01 63.174-19.463 70.577-35.764Z"/><path fill="#68C280" d="M251.629 99.963c.587 4.657.887 9.411.887 14.228 0 19.976-5.181 38.755-14.282 55.088-2.233 18.779-9.208 37.259-21.226 53.634a115.814 115.814 0 0 1-8.652 10.447c18.523 1.197 45.815-19.056 55.792-55.835 9.977-36.778-2.467-73.044-12.519-77.562Z"/><path fill="#FF7A7F" d="M22.83 100.7a114.05 114.05 0 0 1 7.723-12.028C42.4 72.51 57.728 60.343 74.777 52.417c12.947-13.887 29.547-24.772 48.988-31.032a118.64 118.64 0 0 1 13.192-3.418c-15.638-7.744-53.848-3.151-78.256 12.68-24.398 15.83-40.357 55.12-35.87 70.053Z"/><path fill="#FFBA86" d="M136.957 17.978c4.658.886 9.315 2.072 13.93 3.557 19.174 6.174 35.593 16.856 48.464 30.476a114.394 114.394 0 0 1 44.918 36.575 117.573 117.573 0 0 1 7.36 11.377c7.051-13.32-14.346-53.378-36.351-69.829-22.005-16.45-61.924-19.495-78.321-12.156Z"/><path fill="#835283" d="M22.83 100.7C26.1 73.15 39.26 48.614 58.711 30.647 34.4 44.213 14.968 66.496 5.675 94.846c-9.39 28.617-6.751 58.249 5.138 83.512-5.245-25.829-1.517-53.389 12.017-77.658Z"/><path fill="#8075B4" d="M66.969 233.83a114.411 114.411 0 0 1-56.145-55.461c5.511 27.09 20.883 52.289 45.227 69.818 24.558 17.679 53.817 24.355 81.75 20.958-26.427-3.033-51.722-15.072-70.832-35.315Z"/><path fill="#2E9D87" d="M208.378 233.371c-18.982 20.381-44.192 32.57-70.577 35.774 27.699 3.194 56.647-3.525 80.992-21.043 24.558-17.69 40.004-43.188 45.377-70.566-11.088 23.96-30.454 44.085-55.792 55.835Z"/><path fill="#549558" d="M251.629 99.963c13.695 24.195 17.604 51.712 12.531 77.573 11.611-25.124 14.121-54.468 4.817-82.818-9.379-28.617-29.076-51.05-53.699-64.573 19.581 17.839 32.901 42.312 36.351 69.818Z"/><path fill="#FF9952" d="M136.957 17.978c27.453-5.427 55.077-.609 78.321 12.167C194.758 11.43 167.359 0 137.278 0c-30.359 0-57.982 11.643-78.567 30.657 23.17-12.936 50.772-17.935 78.246-12.68Z"/><path fill="#fff" d="M765.75 111.632v-52h11.232v6.24c5.893-3.813 11.786-6.275 17.679-7.384v11.336c-5.962 1.179-11.058 2.704-15.287 4.576l-2.288.936v36.296H765.75ZM749.961 102.272l2.912-.312.208 8.424c-7.904 1.595-14.907 2.392-21.008 2.392-7.696 0-13.243-2.115-16.64-6.344-3.328-4.229-4.992-10.99-4.992-20.28 0-18.443 7.523-27.664 22.568-27.664 14.56 0 21.84 7.939 21.84 23.816l-.728 8.112h-32.24c.069 4.299 1.005 7.453 2.808 9.464s5.165 3.016 10.088 3.016c4.923 0 9.984-.208 15.184-.624Zm-6.24-20.592c0-5.13-.832-8.701-2.496-10.712-1.595-2.08-4.333-3.12-8.216-3.12-3.883 0-6.725 1.075-8.528 3.224-1.733 2.15-2.635 5.685-2.704 10.608h21.944ZM703.745 118.704c0 11.371-8.216 17.056-24.648 17.056-7.904 0-13.763-1.075-17.576-3.224-3.814-2.149-5.72-6.067-5.72-11.752 0-2.565.624-4.784 1.872-6.656 1.248-1.803 3.258-3.779 6.032-5.928-2.288-1.525-3.432-4.056-3.432-7.592 0-1.387.936-3.64 2.808-6.76l.936-1.56c-4.992-2.981-7.488-8.181-7.488-15.6 0-6.24 1.872-10.816 5.616-13.728 3.744-2.912 8.805-4.368 15.184-4.368 3.05 0 6.066.347 9.048 1.04l1.56.312 16.12-.416v9.152l-8.632-.52c1.872 2.427 2.808 5.27 2.808 8.528 0 6.795-1.734 11.51-5.2 14.144-3.398 2.565-8.736 3.848-16.016 3.848-1.803 0-3.328-.139-4.576-.416-.971 2.357-1.456 4.195-1.456 5.512 0 1.248.624 2.115 1.872 2.6 1.317.485 4.437.763 9.36.832 8.25.069 13.901 1.179 16.952 3.328 3.05 2.149 4.576 6.205 4.576 12.168Zm-36.816 1.04c0 2.427.97 4.16 2.912 5.2 1.941 1.04 5.269 1.56 9.984 1.56 8.389 0 12.584-2.392 12.584-7.176 0-2.704-.763-4.437-2.288-5.2-1.456-.693-4.403-1.075-8.84-1.144l-10.192-.624c-1.526 1.248-2.6 2.392-3.224 3.432-.624 1.109-.936 2.427-.936 3.952Zm.832-43.056c0 3.19.762 5.547 2.288 7.072 1.525 1.456 3.986 2.184 7.384 2.184 3.397 0 5.824-.728 7.28-2.184 1.525-1.525 2.288-3.883 2.288-7.072 0-3.19-.763-5.512-2.288-6.968-1.526-1.525-3.987-2.288-7.384-2.288-6.379 0-9.568 3.085-9.568 9.256ZM644.564 38v73.632h-11.232v-2.704c-5.061 2.565-9.706 3.848-13.936 3.848-6.794 0-11.786-2.045-14.976-6.136-3.12-4.091-4.68-10.955-4.68-20.592 0-9.637 1.734-16.64 5.2-21.008 3.536-4.368 9.014-6.552 16.432-6.552 2.496 0 6.448.45 11.856 1.352V38h11.336Zm-13.104 62.816 1.768-.728V69.304c-4.16-.693-8.008-1.04-11.544-1.04-7.002 0-10.504 5.824-10.504 17.472 0 6.379.798 10.816 2.392 13.312 1.664 2.427 4.264 3.64 7.8 3.64 3.536 0 6.899-.624 10.088-1.872ZM586.344 102.272l2.912-.312.208 8.424c-7.904 1.595-14.907 2.392-21.008 2.392-7.696 0-13.243-2.115-16.64-6.344-3.328-4.229-4.992-10.99-4.992-20.28 0-18.443 7.523-27.664 22.568-27.664 14.56 0 21.84 7.939 21.84 23.816l-.728 8.112h-32.24c.069 4.299 1.005 7.453 2.808 9.464s5.165 3.016 10.088 3.016c4.923 0 9.984-.208 15.184-.624Zm-6.24-20.592c0-5.13-.832-8.701-2.496-10.712-1.595-2.08-4.333-3.12-8.216-3.12-3.883 0-6.725 1.075-8.528 3.224-1.733 2.15-2.635 5.685-2.704 10.608h21.944ZM523.639 111.632V38h11.336v73.632h-11.336ZM485.437 111.632v-52h11.232v6.24c5.893-3.813 11.787-6.275 17.68-7.384v11.336c-5.963 1.179-11.059 2.704-15.288 4.576l-2.288.936v36.296h-11.336ZM469.649 102.272l2.912-.312.208 8.424c-7.904 1.595-14.907 2.392-21.008 2.392-7.696 0-13.243-2.115-16.64-6.344-3.328-4.229-4.992-10.99-4.992-20.28 0-18.443 7.522-27.664 22.568-27.664 14.56 0 21.84 7.939 21.84 23.816l-.728 8.112h-32.24c.069 4.299 1.005 7.453 2.808 9.464 1.802 2.011 5.165 3.016 10.088 3.016 4.922 0 9.984-.208 15.184-.624Zm-6.24-20.592c0-5.13-.832-8.701-2.496-10.712-1.595-2.08-4.334-3.12-8.216-3.12-3.883 0-6.726 1.075-8.528 3.224-1.734 2.15-2.635 5.685-2.704 10.608h21.944ZM423.327 69.304h-14.352v22.88c0 4.23.312 7.037.936 8.424.624 1.387 2.219 2.08 4.784 2.08l8.528-.312.52 9.048c-4.645.901-8.181 1.352-10.608 1.352-5.893 0-9.949-1.352-12.168-4.056-2.149-2.704-3.224-7.8-3.224-15.288V69.304h-6.656v-9.672h6.656v-15.08h11.232v15.08h14.352v9.672ZM349.914 111.632h-11.336v-52h11.232v3.224c5.061-2.912 9.845-4.368 14.352-4.368 6.933 0 11.648 1.976 14.144 5.928 2.565 3.883 3.848 10.33 3.848 19.344v27.872h-11.232v-27.56c0-5.616-.624-9.603-1.872-11.96-1.179-2.357-3.64-3.536-7.384-3.536-3.536 0-6.934.693-10.192 2.08l-1.56.624v40.352ZM312 111.632v-71.24h11.544v71.24H312ZM774.016 198.886h-10.764v17.16c0 3.172.234 5.278.702 6.318.468 1.04 1.664 1.56 3.588 1.56l6.396-.234.39 6.786c-3.484.676-6.136 1.014-7.956 1.014-4.42 0-7.462-1.014-9.126-3.042-1.612-2.028-2.418-5.85-2.418-11.466v-18.096h-4.992v-7.254h4.992v-11.31h8.424v11.31h10.764v7.254ZM741.193 223.612l2.183-.234.157 6.318c-5.928 1.196-11.181 1.794-15.757 1.794-5.772 0-9.932-1.586-12.48-4.758-2.496-3.172-3.744-8.242-3.744-15.21 0-13.832 5.642-20.748 16.926-20.748 10.92 0 16.38 5.954 16.38 17.862l-.546 6.084h-24.18c.052 3.224.754 5.59 2.106 7.098 1.352 1.508 3.875 2.262 7.567 2.262s7.488-.156 11.388-.468Zm-4.681-15.444c0-3.848-.623-6.526-1.871-8.034-1.196-1.56-3.251-2.34-6.163-2.34-2.912 0-5.044.806-6.396 2.418-1.3 1.612-1.975 4.264-2.027 7.956h16.457ZM694.164 230.632v-55.224h8.502v55.224h-8.502ZM674.436 230.632v-55.224h8.502v55.224h-8.502ZM663.294 203.644v17.784c.052 1.144.338 2.002.858 2.574.572.52 1.43.858 2.574 1.014l-.234 6.474c-4.472 0-7.93-.962-10.374-2.886-4.16 1.924-8.346 2.886-12.558 2.886-7.748 0-11.622-4.134-11.622-12.402 0-3.952 1.04-6.812 3.12-8.58 2.132-1.768 5.382-2.834 9.75-3.198l10.062-.858v-2.808c0-2.08-.468-3.536-1.404-4.368-.884-.832-2.21-1.248-3.978-1.248-3.328 0-7.488.208-12.48.624l-2.496.156-.312-6.006c5.668-1.352 10.868-2.028 15.6-2.028 4.784 0 8.216 1.04 10.296 3.12 2.132 2.028 3.198 5.278 3.198 9.75Zm-17.472 9.672c-3.588.312-5.382 2.262-5.382 5.85 0 3.588 1.586 5.382 4.758 5.382 2.6 0 5.356-.416 8.268-1.248l1.404-.468v-10.374l-9.048.858ZM571.521 191.632h8.346l6.162 31.746h1.56l7.41-30.966h8.736l7.41 30.966h1.56l6.084-31.746h8.424l-8.268 39h-13.494l-6.084-26.754-6.084 26.754h-13.494l-8.268-39ZM550.451 198.886h-10.764v17.16c0 3.172.234 5.278.702 6.318.468 1.04 1.664 1.56 3.588 1.56l6.396-.234.39 6.786c-3.484.676-6.136 1.014-7.956 1.014-4.42 0-7.462-1.014-9.126-3.042-1.612-2.028-2.418-5.85-2.418-11.466v-18.096h-4.992v-7.254h4.992v-11.31h8.424v11.31h10.764v7.254ZM517.628 223.612l2.184-.234.156 6.318c-5.928 1.196-11.18 1.794-15.756 1.794-5.772 0-9.932-1.586-12.48-4.758-2.496-3.172-3.744-8.242-3.744-15.21 0-13.832 5.642-20.748 16.926-20.748 10.92 0 16.38 5.954 16.38 17.862l-.546 6.084h-24.18c.052 3.224.754 5.59 2.106 7.098 1.352 1.508 3.874 2.262 7.566 2.262 3.692 0 7.488-.156 11.388-.468Zm-4.68-15.444c0-3.848-.624-6.526-1.872-8.034-1.196-1.56-3.25-2.34-6.162-2.34s-5.044.806-6.396 2.418c-1.3 1.612-1.976 4.264-2.028 7.956h16.458ZM455.782 230.632h-8.502v-39h8.424v2.418c3.796-2.184 7.384-3.276 10.764-3.276 5.2 0 8.736 1.482 10.608 4.446 1.924 2.912 2.886 7.748 2.886 14.508v20.904h-8.424v-20.67c0-4.212-.468-7.202-1.404-8.97-.884-1.768-2.73-2.652-5.538-2.652-2.652 0-5.2.52-7.644 1.56l-1.17.468v30.264ZM440.307 198.886h-10.764v17.16c0 3.172.234 5.278.702 6.318.468 1.04 1.664 1.56 3.588 1.56l6.396-.234.39 6.786c-3.484.676-6.136 1.014-7.956 1.014-4.42 0-7.462-1.014-9.126-3.042-1.612-2.028-2.418-5.85-2.418-11.466v-18.096h-4.992v-7.254h4.992v-11.31h8.424v11.31h10.764v7.254ZM409.828 199.666c-6.136-.832-10.582-1.248-13.338-1.248-2.756 0-4.68.338-5.772 1.014-1.04.624-1.56 1.638-1.56 3.042s.572 2.392 1.716 2.964c1.196.572 3.952 1.248 8.268 2.028 4.368.728 7.462 1.898 9.282 3.51 1.82 1.612 2.73 4.472 2.73 8.58s-1.326 7.124-3.978 9.048c-2.6 1.924-6.422 2.886-11.466 2.886-3.172 0-7.176-.442-12.012-1.326l-2.418-.39.312-7.098c6.24.832 10.738 1.248 13.494 1.248 2.756 0 4.706-.338 5.85-1.014 1.196-.676 1.794-1.794 1.794-3.354s-.572-2.626-1.716-3.198c-1.092-.624-3.77-1.274-8.034-1.95-4.212-.728-7.306-1.846-9.282-3.354s-2.964-4.264-2.964-8.268c0-4.004 1.352-6.994 4.056-8.97 2.756-1.976 6.266-2.964 10.53-2.964 3.328 0 7.41.416 12.246 1.248l2.418.468-.156 7.098ZM370.921 223.612l2.184-.234.156 6.318c-5.928 1.196-11.18 1.794-15.756 1.794-5.772 0-9.932-1.586-12.48-4.758-2.496-3.172-3.744-8.242-3.744-15.21 0-13.832 5.642-20.748 16.926-20.748 10.92 0 16.38 5.954 16.38 17.862l-.546 6.084h-24.18c.052 3.224.754 5.59 2.106 7.098 1.352 1.508 3.874 2.262 7.566 2.262 3.692 0 7.488-.156 11.388-.468Zm-4.68-15.444c0-3.848-.624-6.526-1.872-8.034-1.196-1.56-3.25-2.34-6.162-2.34s-5.044.806-6.396 2.418c-1.3 1.612-1.976 4.264-2.028 7.956h16.458ZM336.18 198.886h-10.764v17.16c0 3.172.234 5.278.702 6.318.468 1.04 1.664 1.56 3.588 1.56l6.396-.234.39 6.786c-3.484.676-6.136 1.014-7.956 1.014-4.42 0-7.462-1.014-9.126-3.042-1.612-2.028-2.418-5.85-2.418-11.466v-18.096H312v-7.254h4.992v-11.31h8.424v11.31h10.764v7.254Z"/></svg>
