<svg xmlns="http://www.w3.org/2000/svg" viewBox="0 0 4641.305 4583.576"><g><animateTransform attributeName="transform" attributeType="XML" dur="60s" from="0 2000 2000" repeatCount="indefinite" to="360 2000 2000" type="rotate"/><path fill="#8c528c" d="m1537.731 3923.985-1.473-1.9a1817.692 1817.692 0 0 1-796.52-748.31 1745.873 1745.873 0 0 1-649.171-869.562c-295.913 916.335 207.023 1899.058 1123.357 2194.994a1743.545 1743.545 0 0 0 1118.642-15.934 1745.4 1745.4 0 0 1-794.835-559.288" data-name="Path 79"/><path fill="#8775bd" d="M3121.715 3914.933v-1.473l-2.315 1.263a1815.08 1815.08 0 0 1-1581.25 8.844l-2.947-1.473 1.473 1.894a1745.389 1745.389 0 0 0 795.888 559.287 1746.964 1746.964 0 0 0 789.151-568.342" data-name="Path 80"/><path fill="#adc8e6" d="M1539.208 3923.568a1815.087 1815.087 0 0 0 1581.25-8.843 3123.757 3123.757 0 0 1-791.673-296.173 3115.487 3115.487 0 0 1-789.577 305.016" data-name="Path 81"/><path fill="#56c1bf" d="M3911.293 3157.145a1817.844 1817.844 0 0 1-788.309 757.786v1.475a1746.987 1746.987 0 0 1-789.151 568.342c911.177 311.45 1902.3-174.714 2213.75-1085.89a1743.54 1743.54 0 0 0 2.99-1119.068 1744.2 1744.2 0 0 1-639.28 877.35" data-name="Path 82"/><path fill="#2ea690" d="M3907.711 1414.449a1814.022 1814.022 0 0 1 3.578 1741.439 1744.344 1744.344 0 0 0 639.279-876.514 1747.122 1747.122 0 0 0-642.857-864.925" data-name="Path 83"/><path fill="#81dec8" d="M3911.289 3157.148a1814.021 1814.021 0 0 0-3.58-1741.439 3129.445 3129.445 0 0 1-291.957 872.929 3125.459 3125.459 0 0 1 295.537 868.51" data-name="Path 84"/><path fill="#a2ebda" d="M3615.752 2287.585q-68.612 134.506-149.032 261.225a3165.727 3165.727 0 0 1-877.56 909.764q-126.3 85.884-259.332 159.978a3123.383 3123.383 0 0 0 790.626 296.379l2.315-1.261a1817.875 1817.875 0 0 0 788.309-757.789 3125.245 3125.245 0 0 0-295.325-868.3" data-name="Path 85"/><path fill="#ff7a7f" d="M724.165 1431.074a16.826 16.826 0 0 0 1.473-2.526 1820.525 1820.525 0 0 1 799.887-768.944A1747.163 1747.163 0 0 1 2307.31 99.681C1396.112-211.683 405.031 274.581 93.665 1185.803a1743.533 1743.533 0 0 0-3.094 1118.41 1745.673 1745.673 0 0 1 633.595-873.14" data-name="Path 86"/><path fill="#f2666d" d="M739.531 3173.773a1813.457 1813.457 0 0 1-15.364-1742.7 1745.672 1745.672 0 0 0-633.6 873.14 1745.857 1745.857 0 0 0 648.961 869.56" data-name="Path 87"/><path fill="#ffb0bc" d="M725.85 1431.074v-1.262a16.819 16.819 0 0 1-1.473 2.526 1813.43 1813.43 0 0 0 15.365 1741.649 3117.193 3117.193 0 0 1 287.118-873.772 3118.25 3118.25 0 0 1-301.01-869.14" data-name="Path 88"/><path fill="#ffdbdb" d="M2067.338 3461.101a3161.883 3161.883 0 0 1-888.506-902.4q-81.463-126.294-151.137-258.909a3117.2 3117.2 0 0 0-287.117 873.771 1817.631 1817.631 0 0 0 796.1 748.524l2.946 1.476a3115.48 3115.48 0 0 0 789.573-305.01q-134.918-72.623-261.858-157.452" data-name="Path 89"/><path fill="#68cb88" d="M3096.665 652.237a1819.126 1819.126 0 0 1 810.2 762.629 1747.083 1747.083 0 0 1 642.857 865.351c296.404-916.186-206.028-1899.163-1122.218-2195.563A1743.451 1743.451 0 0 0 2308.567 100.1a1745.655 1745.655 0 0 1 788.1 552.133" data-name="Path 90"/><path fill="#ffa252" d="M1526.784 660.029a1816.163 1816.163 0 0 1 1569.883-7.789 1745.666 1745.666 0 0 0-788.1-552.132 1747.164 1747.164 0 0 0-781.783 559.921" data-name="Path 91"/><path fill="#ffc38f" d="M2313.413 958.088a3108.6 3108.6 0 0 1 783.468-305.851 1816.167 1816.167 0 0 0-1569.883 8.63 3123.53 3123.53 0 0 1 786.415 297.221" data-name="Path 92"/><path fill="#cfedab" d="M2313.405 958.088a3109.923 3109.923 0 0 1 268.6 163.346 3162.2 3162.2 0 0 1 881.556 902.818q82.094 127.561 152.188 263.331a3129.584 3129.584 0 0 0 291.956-872.931 1819.151 1819.151 0 0 0-810.408-762.415 3108.3 3108.3 0 0 0-783.892 305.851" data-name="Path 93"/><path fill="#f9d4b2" d="M1026.645 2299.794q67.98-135.139 147.348-262.91a3159.8 3159.8 0 0 1 872.508-912.5 3109.577 3109.577 0 0 1 266.909-166.292 3123.592 3123.592 0 0 0-787.046-297.645 1820.526 1820.526 0 0 0-799.887 768.944v1.681a3118.264 3118.264 0 0 0 300.168 868.719" data-name="Path 94"/></g></svg>
