<svg xmlns="http://www.w3.org/2000/svg" fill="none" viewBox="0 0 919 610" width="919" height="610"><path fill="url(#a)" d="M451.627 497.9c-2.742 1.309-5.497 5.259-8.242 6.565l-9.459 46.992s26.511 11.289 41.566-3.623l-13.528-45.856"/><path fill="url(#b)" d="M504.976 497.995c2.704 1.385 5.351 5.408 8.055 6.793l7.163 46.117s-22.708 14.756-37.341-.568l12.017-49.617"/><path fill="#591F1F" d="M728.02 61.242c6.265 3.759 12.772 5.031 19.538 3.813 5.34-.962 9.905-4.997 16.671-5.391.721-.051 1.115.292 1.166 1.014l.841 9.323c.051.687.428 1.048 1.115 1.099 5.596.445 10.834-.31 13.65 5.803.514 1.081 1.973 1.272 2.732.343 2.248-2.765 8.602-3.47 8.602 1.99 0 .53.242.929.704 1.184 3.725 1.973 5.579 5.272 5.579 9.888 7.194-22.851 5.803-58.013-26.148-60.261-3.313-.225-7.469.395-12.48 1.888a226.746 226.746 0 0 1-35.093 7.47c-8.704 1.15-12.756 4.19-10.851 13.46 1.528 7.503 6.198 10.282 13.977 8.377h-.003Z"/><path fill="#F9AB94" d="M477.771 83.767c-7.021-6.885-14.817-8.756-23.382-5.633-1.973.721-4.412.463-7.313-.79-.636-.275-.946-.754-.946-1.459l.034-5.718c0-.55.259-.945.755-1.183 9.701-4.67 15.572-12.344 17.617-23.005.136-.704.891-1.132 1.561-.874 9.633 3.52 19.504 4.463 29.651 2.85.602-.084 1.116.069 1.544.497 3.742 3.813 6.249 8.31 7.521 13.511.98 5.82 1.374 11.555 1.184 17.239a1.383 1.383 0 0 1-1.939 1.218c-7.504-3.347-13.872-2.062-19.127 3.864-3.037 1.357-5.425 1.183-7.16-.514v-.003Z"/><path fill="#9E4452" d="m728.02 61.242-1.735 16.174c6.371-.585 5.633 9.718 16.001 8.824 5.854-.514 10.405.102 16.517 1.82 1.888.53 7.933 1.751 9.048-.293.293-.53.136-.823-.462-.84-4.293-.208-18.8-.892-20.26-5.65-.241-.79.48-1.561 1.289-1.34 7.195 1.956 13.494 2.078 19.692 6.592.513.377 1.064.462 1.667.241 4.738-1.769 13.065-7.453 17.684-6.748.929.153.997.462.207.962a103.318 103.318 0 0 1-25.048 11.33c-.568.17-.912.552-1.031 1.116-3.83 17.872-17.599 11.436-22.096-1.047-.361-.98-1.718-1.048-2.146-.102l-2.439 5.2c-.327.67-.857.997-1.596.98l-1.853-.068c-.31-.017-.395.12-.276.395.395.911.259 1.629-.446 2.18l.208 8.137c6.851-.637 13.375.394 19.572 3.091 22.678 9.889 25.719-22.405 30.903-20.912.585.153.874.551.891 1.167.051 6.473.463 12.912 1.269 19.296 1.306 10.317-10.473 20.26-18.698 26.389-.497.361-.67.841-.531 1.443 1.561 6.49 6.164 10.643 13.218 9.718 16.688-2.198 23.382-18.215 29.77-31.607-6.884-7.725-9.803-16.858-8.721-27.382 0-4.62-1.854-7.916-5.579-9.888-.462-.259-.704-.654-.704-1.184 0-5.46-6.354-4.755-8.602-1.99-.755.929-2.215.738-2.732-.343-2.816-6.113-8.051-5.358-13.65-5.803-.687-.051-1.064-.412-1.115-1.1l-.841-9.323c-.051-.72-.445-1.064-1.166-1.013-6.766.394-11.331 4.428-16.671 5.391-6.766 1.218-13.273-.051-19.538-3.813Z"/><path fill="#9E4452" d="M768.65 87.471c-.091.041-.156.068-.18.078-2.49 1.02-4.796.49-7.354.034-2.673-.476-5.34-1.102-7.895-2.023-2.061-.742-5.367-1.919-6.092-4.283-.241-.79.449-1.337 1.286-1.34 6.82-.03 13.208 2 19.116 5.3.773.431 1.926.843 2.507 1.506.062.068-.959.534-1.388.725v.003Z"/><path fill="#081232" d="M716.638 87.89c.551.292.874.738.98 1.357 1.133 7.245 4.395 13.409 13.116 11.725.704-.551.84-1.272.446-2.18-.119-.276-.034-.412.275-.395l1.854.068c.738.017 1.269-.31 1.595-.98l2.439-5.2c.429-.946 1.786-.875 2.146.101 4.497 12.48 18.267 18.92 22.097 1.048.119-.568.462-.946 1.03-1.116a103.3 103.3 0 0 0 25.049-11.33c.789-.497.721-.806-.208-.963-4.564-.697-12.748 4.844-17.514 6.677-.064.058-.105.14-.184.184-.598.419-1.268.715-1.959.946-1.218 1.942-7.129.752-8.997.224-6.112-1.718-10.66-2.333-16.517-1.82-10.372.892-9.633-9.408-16.001-8.823a38.248 38.248 0 0 1-10.011 5.769c-.619.224-.996.67-1.132 1.306-.361 1.544.136 2.677 1.493 3.398l.003.004Zm27.624.962c4.309-.36 7.881.068 10.749 1.29 1.013.428.962.636-.137.636l-8.051.016c3.004 1.803 6.317 2.456 9.956 1.956.585-.068.946.19 1.065.755 1.357 6.44-4.463 11.538-10.164 6.817-3.452-2.867-4.602-6.677-3.415-11.47h-.003Zm-15.708-4.602c-1.735 1.425-3.623 1.684-5.633.738a.348.348 0 0 1 0-.636l4.446-1.99c.513-.241 1.115-.05 1.425.429.292.48.19 1.098-.242 1.459h.004Zm2.867 3.398 2.953.687c.67.153.891.568.636 1.235l-2.266 6.027c-.136.344-.53.514-.857.361-.568-.276-.721-.79-.445-1.544.19-.568.224-1.15.085-1.735l-.98-4.153c-.191-.772.102-1.065.874-.874v-.004Zm-10.558 1.306c.102-.687.496-1.047 1.201-1.081l5.837-.225a.52.52 0 0 1 .53.446l1.235 9.03c.275 1.974-1.82 3.399-3.572 2.44-4.153-2.283-5.905-5.82-5.235-10.61h.004Z"/><path fill="#F9AB94" d="M436.344 83.665c-.292-.497-.412-1.03-.326-1.596 1.149-8.894 11.16-2.591 14.782-.394.497.31.773.755.79 1.357.53 12.497 7.673 21.239 20.912 14.576 1.769-.892 3.606-3.776 5.527-8.67.259-.67.756-.998 1.477-.963l2.49.136c.772.05 1.183.462 1.234 1.234a11.155 11.155 0 0 0 1.837 5.667c1.871 3.222 6.007 3.932 9.416 4.075 2.023.085 4.054-.034 6.068-.217.871-.079 1.888-.354 2.755-.283 1.316.106.857.718.493 1.97-1.697 5.806-5.782 10.663-9.718 15.034-3.303 3.667-6.694 7.317-10.8 10.103a1.852 1.852 0 0 0-.823 1.374c-.962 8.017 7.092 7.915 12.412 9.218l.429.721c-.98.17-1.425.721-1.306 1.65a3.088 3.088 0 0 1-.225 1.527c-4.997 12.052-13.65 18.198-25.923 18.44-15.538.309-26.936-6.902-34.215-21.634 1.357-.602 3.037-1.201 5.048-1.769 5.666-1.632 7.537-3.571 7.83-9.65.462-9.167.068-16.912-1.15-23.245a2.293 2.293 0 0 0-.891-1.443c-4.068-3.109-6.439-7.33-7.109-12.67.224-1.562-.119-3.092-1.014-4.552v.004Z"/><path fill="#F9AB94" d="M475.696 86.189c.259 13.375-17.923 16.361-21.477 2.66-3.432-13.29 15.058-11.657 20.946-4.136.344.428.514.928.531 1.476ZM505.344 85.433c.411.412.636.912.67 1.494.772 12.446-11.916 16.98-18.8 7.228-1.184-2.731-1.218-5.425-.068-8.085 6.282-6.456 12.344-6.66 18.198-.636Z"/><path fill="#9E4452" d="M731.438 94.413c-.275.756-.119 1.273.446 1.545.326.153.721-.017.857-.36l2.265-6.028c.259-.67.034-1.082-.636-1.235l-2.952-.687c-.772-.19-1.065.102-.874.874l.979 4.153a3.17 3.17 0 0 1-.085 1.735v.004Z"/><path fill="#79424B" d="m744.262 88.849 2.558 1.938 8.051-.017c1.099 0 1.15-.207.136-.636-2.867-1.217-6.439-1.65-10.749-1.289l.004.004Z"/><path fill="#9E4452" d="M744.262 88.849c-1.184 4.789-.034 8.602 3.415 11.469 5.701 4.722 11.521-.377 10.164-6.816-.119-.568-.48-.823-1.065-.755-3.64.496-6.953-.153-9.956-1.956l-2.558-1.939v-.003Z"/><path fill="#081232" d="M616.396 349.918a47.045 47.045 0 0 1 8.316-8.889c-.006-.061-.013-.125-.013-.197l-.136-25.617-13.065-.068-.096 44.652c1.007-3.561 2.851-6.891 4.994-9.881ZM624.923 389.814l.014-.096c-2.014-2.772-4.402-5.241-6.687-7.789-2.327-2.592-4.569-5.337-5.977-8.551a19.583 19.583 0 0 1-.894-2.497l-.259 120.294-.17 22.919c.84 6.559 1.031 13.443.531 20.654l.068 18.232c-.361 1.939-.191 3.657.53 5.184.259.551.704.823 1.306.823h9.031c.636 0 1.082-.275 1.375-.84.789-1.595 1.047-3.313.772-5.167v-62.666l.36-100.504v.004Z"/><path fill="url(#c)" d="M774.229 314.858a847.5 847.5 0 0 0-48.57.408l-49.444 10.096a1.24 1.24 0 0 1-.398.024c-.072.884-.058 1.776-.044 2.66.017 1.35-.034 2.701-.041 4.051-.014 2.014.017 4.027.061 6.041a5228.47 5228.47 0 0 1 91.143-20.916c4.487-.983 7.749-1.391 9.79-1.217-.823-.368-1.66-.749-2.49-1.147h-.007Z"/><path fill="#591F1F" d="M748.167 143.086c.251.051.428.126.541.224.676-.013 1.353-.03 2.03-.064 2.487-.119 4.987-.378 7.402-1.004 2.197-.568 4.422-1.462 6.038-3.109.146-.149.336-.078.425.058 0-.422.19-.772.575-1.051 8.224-6.13 20-16.069 18.698-26.389a164.39 164.39 0 0 1-1.269-19.297c-.017-.619-.31-1.013-.891-1.166-5.184-1.494-8.225 30.8-30.903 20.912-6.197-2.694-12.722-3.725-19.572-3.088-2.027 7.537-1.973 14.987.17 22.354 2.901 9.922 8.208 9.888 16.756 11.623v-.003Zm-12.446-28.379c3.949-.051 7.639.874 11.092 2.748.704.395.84.929.378 1.596l-2.473 3.656c-.463.687-.892.67-1.324-.034l-.513-.874c-.242-.394-.585-.619-1.048-.653-2.935-.19-5.408-1.323-7.398-3.364-1.099-1.15-.31-3.055 1.289-3.072l-.003-.003Z"/><path fill="url(#d)" d="M883.676 226.351c-.602-21.477-4.514-40.757-11.708-57.839-11.916-28.328-35.178-38.954-64.329-50.819-6.388 13.392-13.083 29.41-29.77 31.607-7.055.929-11.657-3.228-13.219-9.718a1.478 1.478 0 0 1-.023-.133.305.305 0 0 1-.051.079c-.888.904-1.967 1.602-3.113 2.136-2.282 1.061-4.789 1.561-7.276 1.86-1.802.215-3.619.31-5.432.344a1.746 1.746 0 0 1-.241.316c-3.933 4.102-7.195 8.463-9.82 13.099-9.219 21.617-4.912 38.628-3.055 60.193.034.395-.276.841-.361 1.099-.309.929-.602.67-.891-.772-2.66-13.701-5.323-32.722-2.01-46.339a62.321 62.321 0 0 0 1.374-7.776 612.952 612.952 0 0 0-39.607 68.932 1.868 1.868 0 0 1-1.408 1.031l-40.036 6.078c5.511 2.575 11.708 6.711 17.906 6.783 4.857.051 9.803.411 14.817 1.115.636.085.874.429.755 1.048-1.837 8.671-1.803 17.256.068 25.753l27.933 2.129c4.102-.619 8.568-.394 13.409.653.928.208 1.234 1.392.53 2.028-1.081.979-1.493 2.231-1.234 3.775a22709.8 22709.8 0 0 0 49.736 8.344c1.837.31 3.606.891 5.273 1.769.568.293.857.755.857 1.391v16.773c0 .497-.191.929-.568 1.252-1.803 1.612-3.623 2.405-5.443 2.371-.384-.011-.768-.014-1.153-.024 1.096.5 2.201.983 3.289 1.483a532.483 532.483 0 0 0 59.122 7.742c6.045.445 16.191 1.612 22.249 5.956.48.36.823.806 1.014 1.374 2.146 6.473 2.473 13.082.963 19.814.377.224.738.343 1.098.36.585.051 1.031-.17 1.357-.67l8.569-13.562c10.49-35.331 12.191-74.459 10.439-111.028l-.01-.007Zm-91.079-35.607a1887.787 1887.787 0 0 1-17.854 48.74c-1.837 4.807-6.677 7.864-10.885 8.069a4639.204 4639.204 0 0 1-53.206 2.265c-1.545.051-4.773.548-6.491-.102-1.459-.531-1.425-.857.136-.963a5967.285 5967.285 0 0 1 60.847-3.758c6.027-.344 8.497-8.154 10.163-12.705a2625.954 2625.954 0 0 1 16.498-44.209c.874-2.266 1.34-2.405 1.425-.412.034.772-.17 1.786-.636 3.072l.003.003Zm84.555 7.657c-2.609 6.49-5.528 12.585-8.739 18.266a1787.98 1787.98 0 0 1-39.127 66.047c-.119.224-.31.326-.568.309a2.265 2.265 0 0 0-.48 0c-.789.034-.996-.292-.602-.962l48.278-84.262a.686.686 0 0 1 .891-.276.682.682 0 0 1 .343.874l.004.004Z"/><path fill="url(#e)" d="M660.408 329.019c-.078.02-.16.04-.245.051-12.242 1.836-23.623 5.956-34.148 12.327-.343.211-.598.262-.768.156-.072.058-.143.112-.211.174-3.354 2.83-6.351 6.139-8.769 9.803-2.154 3.258-3.943 6.939-4.565 10.827l-.014 5.946a19.6 19.6 0 0 0 2.085 6.251c1.636 3.058 3.967 5.661 6.293 8.205 1.827 2 3.66 4 5.286 6.163l.755-5.483a2.625 2.625 0 0 0-.292-1.65c-.704-1.374-.208-2.455 1.459-3.245-2.66-12.157-5.667-25.786 9.218-31.453 9.048-3.453 16.98-5.633 23.797-6.541.133-.017.248-.017.357 0-.388-3.83-.248-7.688-.228-11.535l-.01.004Z"/><path fill="#9E4452" d="m742.578 121.796.514.874c.428.704.857.721 1.323.034l2.473-3.657c.462-.67.326-1.2-.378-1.595-3.452-1.871-7.143-2.799-11.092-2.748-1.595.017-2.388 1.922-1.289 3.071 1.993 2.045 4.462 3.177 7.398 3.364.463.034.806.259 1.048.653l.003.004Z"/><path fill="url(#f)" d="M495.302 137.007c-.979.17-1.425.721-1.306 1.65a3.098 3.098 0 0 1-.224 1.527c-4.997 12.052-13.651 18.198-25.923 18.44-15.538.309-26.937-6.902-34.216-21.634l-13.443 3.589 11.623 39.848c.153.569.531.858 1.133.841 34.937-.119 69.894.102 104.848.653 5.837.085 8.806 3.02 8.895 8.772a884.69 884.69 0 0 1-.017 27.675c-.017.928.445 1.374 1.374 1.357l10.422-.241c-7.813-24.192-13.579-41.601-17.324-52.244-8.208-23.297-25.409-22.681-45.838-30.233h-.004Z"/><path fill="url(#g)" d="M431.813 180.427c.153.568.531.857 1.133.84 34.937-.119 69.894.102 104.848.654 5.837.085 8.806 3.02 8.895 8.772.136 8.721.136 17.94-.017 27.675-.017.928.445 1.374 1.374 1.357l10.422-.242 2.147 2.575a1.704 1.704 0 0 1-.31.293 2.01 2.01 0 0 1-1.442.568l-17.6-.017c-.653 0-1.166.258-1.561.789-2.01 2.694-1.786 4.602.67 5.735l4.31 55.043c-51.043.395-96.402.446-136.077.119-2.694-.017-5.786-.411-9.273-1.167a2.123 2.123 0 0 1-1.289-.84c-1.289-1.82-1.34-3.792-.17-5.939l4.619-1.132c.568-.154.857-.514.857-1.082l.463-44.21c-.017-12.378.034-24.79.136-37.205.119-15.848 15.606-11.399 25.562-11.831.705-.034.98-.394.79-1.064-1.065-3.949-10.3-38.954-11.831-38.818l1.718-.721 11.623 39.848h.003Zm46.271 42.594c-.276-1.684-1.082-3.004-2.439-3.966-1.048-.738-1.527-.48-1.408.806a6.01 6.01 0 0 0 1.235 3.177c.445.568.309.912-.412 1.014l-2.953.411c-.704.102-1.149.497-1.323 1.184l-2.371 9.184a2.7 2.7 0 0 0 .017 1.425c.463 1.65 1.443 2.987 2.902 4 .446.31.946.463 1.476.48l7.915.051c.497.017.946-.136 1.341-.446 6.248-4.911 7.813-17.443-2.987-16.551-.568.051-.908-.208-.997-.772l.004.003Z"/><path fill="url(#h)" d="M430.303 180.118c.19.67-.085 1.031-.789 1.065-9.956.428-25.443-4.018-25.563 11.83a3881.228 3881.228 0 0 0-.136 37.206l-24.824-5.082-11.262-5.065a1.428 1.428 0 0 1-.755-1.769 1011.39 1011.39 0 0 1 11.347-31.556c9.596-25.409 13.994-40.501 40.158-45.444 1.528-.136 10.766 34.869 11.831 38.818l-.007-.003Zm-58.227 26.831a.782.782 0 0 0 .371 1.027l28.739 13.525a.778.778 0 0 0 1.027-.371l.031-.061a.784.784 0 0 0-.371-1.028l-28.739-13.524a.777.777 0 0 0-1.027.371l-.031.061Z"/><path fill="#0B2A53" d="M738.391 157.283c-2.215 1.837-3.864 3.967-4.946 6.405a62.505 62.505 0 0 1-1.374 7.776c-3.313 13.617-.653 32.638 2.01 46.339.293 1.442.585 1.701.891.772.085-.258.395-.704.361-1.099-1.854-21.562-6.164-38.576 3.054-60.193h.004Z"/><path fill="url(#i)" d="M566.533 184.033a3.903 3.903 0 0 1 3.813-4.963c13.235.153 26.937.378 41.067.636 4.551.085 9.459.17 10.66 4.102a13766.308 13766.308 0 0 1 17.082 56.707l9.905 34.682c.119.394.48.67.892.67l34.919-.378a20.298 20.298 0 0 0 6.97 1.34c3.004.051 5.306.191 6.936.412 5.031.738 10.061.514 15.092-.687 4.102-.619 8.569-.395 13.409.653.929.207 1.235 1.391.531 2.027-1.082.98-1.494 2.232-1.235 3.776-19.899.395-39.798.963-59.697 1.667-21.048.738-40.722-1.116-61.274-2.936-4.722-.428-8.276-.928-10.644-1.51a2917.936 2917.936 0 0 1-28.429-96.195l.003-.003Zm33.753 36.035c-1.03-.207-1.272.137-.704 1.014.891 1.425.912 2.8.034 4.119a2.083 2.083 0 0 0-.309 1.735c1.047 4.327 2.85 12.497 8.377 12.463.722 0 1.167-.343 1.324-1.047 1.081-4.892.102-9.099-2.919-12.637-1.391-1.633-3.759-2.282-5.099-4.619.017-.602-.224-.946-.704-1.031v.003Z"/><path fill="url(#j)" d="M322.57 185.526c.497-1.7 1.426-3.109 2.8-4.258 3.623-3.038 25.702-1.752 30.576-1.613 2.248.068 3.83 2.232 3.194 4.395l-22.045 74.51-6.715 20.103c-.19.568-.017.997.514 1.269l.874.428a179.972 179.972 0 0 1-50.216 6.439c3.983-2.626 2.66-6.299 6.867-9.014 1.528 1.854 6.249 2.215 5.511-1.217a132.148 132.148 0 0 0 9.082-26.114 4180.833 4180.833 0 0 0 19.555-64.931l.003.003Zm14.355 36.328c-.017-.377-.153-.428-.412-.17-4.514 4.603-6.833 10.181-6.986 16.722-.017 1.252 1.595 1.769 2.299.721 3.487-5.201 5.184-10.953 5.099-17.273Z"/><path fill="#1A407A" d="M763.559 247.556c4.207-.207 9.048-3.262 10.884-8.068a1888.184 1888.184 0 0 0 17.855-48.74c.462-1.29.67-2.3.636-3.072-.085-1.99-.551-1.854-1.425.412a2591.747 2591.747 0 0 0-16.501 44.209c-1.667 4.551-4.136 12.361-10.164 12.705a6011.108 6011.108 0 0 0-60.846 3.758c-1.561.102-1.595.429-.136.963 1.718.653 4.946.153 6.49.102a4638.41 4638.41 0 0 0 53.207-2.265v-.004Z"/><path fill="#0B2A53" d="M876.856 198.401a.681.681 0 0 0-.344-.874.686.686 0 0 0-.891.275l-48.277 84.262c-.395.67-.191.997.602.963.153-.017.326-.017.479 0a.554.554 0 0 0 .568-.31 1787.746 1787.746 0 0 0 39.128-66.047c3.211-5.684 6.129-11.776 8.738-18.266l-.003-.003Z"/><path fill="#F6C19C" d="m372.102 206.887-.028.062a.771.771 0 0 0 .369 1.027l28.741 13.524a.772.772 0 0 0 1.027-.37l.029-.061a.772.772 0 0 0-.37-1.028l-28.74-13.524a.773.773 0 0 0-1.028.37Z"/><path fill="url(#k)" d="M883.376 226.351c1.752 36.57.051 75.697-10.439 111.029 4.293-5.014 7.313-11.436 9.082-19.263 8.31-37.015 16.671-68.779 18.97-97.501a2.307 2.307 0 0 0-.36-1.425c-.497-.772-.619-1.493-.395-2.197.191-.586.602-.892 1.201-.929l1.184-.085c-8.293-1.718-13.838 5.561-19.246 10.371h.003Z"/><path fill="url(#l)" d="M916.289 223.348c-3.003-5.167-7.554-7.623-13.667-7.365l-1.184.085c-.602.034-1.013.344-1.2.929-.225.704-.102 1.425.394 2.197.276.429.395.912.361 1.426-2.3 28.722-10.66 60.485-18.97 97.5-1.769 7.831-4.79 14.249-9.082 19.263l-8.569 13.562c-.326.496-.772.721-1.357.67-.36-.017-.721-.136-1.099-.361-2.867 13.596-12.67 36.621-29.668 36.502-14.248-.102-47.263-.085-99.062.051-5.251.017-13.493.772-24.722 2.282-.602.085-.738.378-.445.891l9.527 16.773 27.127 1.082c2.181-.531 4.293-.619 6.3-.276l39.195-.153 27.934-.034c7.554 0 15.109-.034 22.66-.034.636 0 1.031.31 1.167.929l.963 4.225c.806-3.742 2.918-5.477 6.299-5.218l34.543.428c-.259-1.717.034-3.381.857-5.013l-6.49-.463c-.602-.051-.874-.361-.84-.963.207-3.847.67-12-2.643-14.575-.412-.31-.48-.687-.208-1.116a38.46 38.46 0 0 1 8.531-9.561 14.336 14.336 0 0 1 6.3-1.718l-1.289-8.514a2.756 2.756 0 0 1 .241-1.65 124.273 124.273 0 0 0 9.545-27.47c9.255-41.91 16.017-74.735 20.293-98.515.84-4.721.258-9.973-1.752-15.796h.01Z"/><path fill="#FEFEFE" d="M478.08 223.021c-.275-1.684-1.081-3.003-2.439-3.966-1.047-.738-1.527-.48-1.408.806a6.018 6.018 0 0 0 1.235 3.177c.446.568.31.912-.412 1.014l-2.952.411c-.704.102-1.15.497-1.323 1.184l-2.371 9.184a2.7 2.7 0 0 0 .017 1.425c.463 1.65 1.442 2.987 2.901 4.001a2.7 2.7 0 0 0 1.477.479l7.915.051c.497.017.946-.136 1.34-.445 6.249-4.912 7.813-17.443-2.986-16.552-.568.051-.909-.208-.997-.772l.003.003ZM600.99 221.099c.017-.602-.224-.945-.704-1.031-1.03-.207-1.272.137-.704 1.014.891 1.425.912 2.8.034 4.119a2.087 2.087 0 0 0-.309 1.735c1.047 4.327 2.85 12.497 8.377 12.463.722 0 1.167-.343 1.324-1.047 1.081-4.892.102-9.099-2.919-12.637-1.391-1.633-3.758-2.282-5.099-4.619v.003ZM331.823 239.124c3.486-5.201 5.183-10.953 5.098-17.273-.017-.378-.153-.429-.411-.17-4.514 4.602-6.834 10.18-6.987 16.722-.017 1.251 1.595 1.768 2.3.721ZM560.611 222.058c-.085.102-.19.208-.309.293a2.009 2.009 0 0 1-1.443.568l-17.599-.017c-.653 0-1.167.258-1.561.789-2.011 2.694-1.786 4.602.67 5.735h30.045c1.323-2.456 1.442-4.929.361-7.398-.259-.568-.687-.823-1.306-.772l-8.858.806v-.004Z"/><path fill="#F9AB94" d="m378.984 225.133-1.217 11.521 19.691.823c.67.017 1.048.361 1.167 1.014.309 1.735.051 3.432-.756 5.099a280.067 280.067 0 0 1-2.506 31.263l.857 1.65c.275.53.67.67 1.201.377l.445-.241 4.619-1.133c.568-.153.858-.513.858-1.081l.462-44.21-24.824-5.082h.003Z"/><path fill="url(#m)" d="M570.414 229.426h-30.045l4.309 55.043c6.627.806 13.324.98 20.069.551.602-.051.997-.343 1.184-.911.395-1.167.48-2.388.259-3.674l4.224-51.009Z"/><path fill="url(#n)" d="m357.592 252.532 3.365 4.225c7.741 6.045 6.765 18.028 8.153 27.042-.378 3.211.446 4.806 2.473 4.823 7.296.034 14.524 0 21.684-.085.619-.017.946-.326.997-.928l1.099-12.756a280.363 280.363 0 0 0 2.507-31.263c-10.164.53-20.569.479-31.196-.17-1.629 2.282-1.921 4.963-.857 8.051.463 1.289.102 1.561-1.047.823-3.262-2.129-5.477-5.048-6.644-8.738-.67-2.113.875-4.293 3.109-4.327l4.446-.068c1.629.034 2.817-.463 3.555-1.493-13.426-7.691-20.018 5.031-11.64 14.868l-.004-.004Z"/><path fill="#D4D8D7" d="m377.767 236.654-8.535 1.014c-.738 1.031-1.922 1.527-3.554 1.493 1.578.874 1.905 2.3.996 4.259 10.627.653 21.032.704 31.196.17.806-1.667 1.064-3.364.755-5.099-.119-.653-.497-.997-1.167-1.014l-19.691-.823Z"/><path fill="#FEFEFE" d="m365.678 239.161-4.446.068c-2.231.034-3.776 2.215-3.109 4.327 1.167 3.691 3.381 6.609 6.643 8.738 1.15.738 1.51.463 1.048-.823-1.065-3.092-.772-5.769.857-8.051.912-1.956.585-3.381-.997-4.259h.004Z"/><path fill="#9E4452" d="m652.394 239.726-13.235.789 9.905 34.682c.119.394.479.67.891.67l34.92-.378 1.065-1.064c-1.871-8.497-1.905-17.083-.068-25.753.119-.619-.119-.963-.756-1.048a115.15 115.15 0 0 0-14.817-1.116c-6.197-.068-12.395-4.207-17.905-6.782Z"/><path fill="#7EA5C6" d="m685.94 274.425-1.065 1.064a20.267 20.267 0 0 0 6.97 1.341c3.003.051 5.306.19 6.935.411 5.031.738 10.062.514 15.093-.687l-27.933-2.129Z"/><path fill="url(#o)" d="M182.044 293.585c.051-.636.378-1.064.98-1.268 4.786-1.64 9.67-3.007 14.609-4.109 4.939-1.103 10.011-2.198 15.096-2.106 18.045.34 25.896.061 43.944-.252 3.885-.068 17.95.704 21.838.623 3.915-.082 7.82.592 11.728.35 4.654-.286 9.303-.612 13.94-1.136a180.727 180.727 0 0 0 25.803-4.84c5.943-1.568 12.137-1.279 18.219-1.082 4.987.163 16.174-1.34 20.576 1.425.299.191.129 4.375.336 2.606-.377 3.211.446 4.806 2.473 4.823 7.296.034 14.525 0 21.685-.085.619-.017.945-.326.996-.929l1.099-12.755.857 1.65c.276.53.67.67 1.201.377l.446-.241c-1.167 2.146-1.116 4.119.17 5.939.326.445.755.721 1.289.84 3.486.755 6.575 1.15 9.272 1.167 39.676.326 85.035.275 136.078-.119 6.626.806 13.323.979 20.068.551.603-.051.997-.344 1.184-.912.395-1.167.48-2.388.259-3.674l28.773-.207c2.371.585 5.922 1.082 10.643 1.51 20.552 1.82 40.226 3.674 61.275 2.936A3874.223 3874.223 0 0 1 726.577 283c16.569 2.799 33.151 5.578 49.737 8.344 1.837.309 3.606.891 5.273 1.769.568.292.857.755.857 1.391v16.773c0 .496-.191.928-.568 1.251-1.803 1.613-3.623 2.405-5.443 2.371a844.455 844.455 0 0 0-51.077.361c-15.966-2.575-32.998-.225-51.009-.136l-13.306-.068-36.485.153-13.065-.068-63.404-.31-10.973.031c-9.161.027-18.321.051-27.481.078l-35.886.102-36.192.102-28.399.082c-5.592.017-11.171-.443-16.753-.738-5.476-.293-10.83-.055-16.317.149-16.575.613-33.134.476-49.723.429-1.262-.004-2.221.248-3.5.149-1.816-.136-3.684-.037-5.507-.051-17.885-.132-35.774.545-53.652.361-17.661-.17-35.495-.612-53.223-.752-.181 0-.364 0-.544-.003-5.841-.044-11.681-.003-17.522-.003h-7.003a3.46 3.46 0 0 1-3.453-3.416l-.17-14.66.259-3.109-.004.003Z"/><path fill="#7EA5C6" d="M293.933 276.571c-1.837.462-3.656.462-5.442 0l-.068 1.218c1.527 1.853 6.248 2.214 5.51-1.218ZM222.049 281.112c-.085.231-.143.439-.224.643l.112 4.402 71.993.642c-5.504-7.724-11.746-11.432-22.501-9.888a422.132 422.132 0 0 1-49.38 4.198v.003Z"/><path fill="url(#p)" d="m548.094 314.838-151.514.428c-17.15 13.358-16.823 31.332-10.592 50.853a106.478 106.478 0 0 0 5.15 22.198 980.693 980.693 0 0 0 10.045 27.726 18.815 18.815 0 0 1 1.217 7.252c.136.265.266.534.402.799 1.809 3.545 3.721 7.031 5.626 10.524.139-.302.367-.108.687.586l10.643 22.851 23.624 46.407c.258.496.585.568.979.17 4.946-4.892 10.542-5.596 16.79-2.113.619.327.891.153.806-.551l-4.428-40.774-8.552-62.526a.485.485 0 0 1 .119-.378c.085-.119.191-.224.276-.326-1.374-.823-3.415-14.749-3.881-17.341-.259-1.357.309-1.973 1.683-1.888a433.317 433.317 0 0 0 53.207.395c.874-.051 1.289.36 1.2 1.234L500.02 398.1l-4.789 92.64-.361 9.973c-.017.636.276.84.874.653 6.593-2.146 11.882-.636 15.848 4.568.429.569.823.551 1.15-.085l1.442-2.728 25.229-61.387a.28.28 0 0 1-.027-.275c.826-1.919 1.381-3.936 1.894-5.956.449-1.766.871-3.544 1.415-5.283a11.18 11.18 0 0 1 1.058-2.405c.432-.734.881-1.462 1.252-2.227.398-.824.677-1.701 1.034-2.541.027-.065.058-.126.085-.191.072-.275.146-.554.235-.837a478.636 478.636 0 0 0 7.898-28.705c.119-.531.412-.946.874-1.235l.755-.479c-.704-8.259 2.405-17.273 4.293-25.325 3.055-21.048 7.776-36.896-12.085-51.437Z"/><path fill="url(#q)" d="M674.643 457.698c.119-.051.259-.191.395-.378.224-.292.462-.309.721-.051l32.43 32.981c1.306 1.167 2.299 2.834 2.986 4.98.738.446 1.357-1.425 2.232-2.044 1.717-1.201 3.537-1.443 5.442-.721.395-2.181 1.718-3.504 3.932-3.933a209.957 209.957 0 0 0 20.671-18.783c.395-.394.602-.874.619-1.425l.531-9.34v-3.865c-.153.017-.31.017-.463-.017a.356.356 0 0 1-.275-.19l-26.321-47.162-9.528-16.773c-.292-.513-.153-.806.446-.891 11.228-1.51 19.47-2.265 24.722-2.282 51.798-.136 84.813-.153 99.062-.051 16.997.119 26.8-22.903 29.668-36.502 1.51-6.732 1.184-13.341-.963-19.814a2.775 2.775 0 0 0-1.013-1.374c-6.062-4.344-16.208-5.51-22.25-5.956a531.388 531.388 0 0 1-60.502-8c-1.939-.378-5.46 0-10.558 1.115a5253.06 5253.06 0 0 0-91.559 21.015c-.602.136-.891.514-.874 1.133l.293 20.756c0 .602.292.857.891.789 40.845-4.585 81.67-9.099 122.481-13.545.531-.051 1.544.568 1.408.789-.377.653-.755 1.133-.928 1.15L675.497 363.18a1.353 1.353 0 0 0-1.201 1.34l.344 93.174.003.004Z"/><path fill="url(#r)" d="m626.968 378.551 6.626 21.702a587.931 587.931 0 0 0 27.314 37.702l.034-96.555c0-.653-.327-.929-.963-.84-6.816.911-14.749 3.092-23.797 6.541-14.885 5.667-11.881 19.297-9.218 31.454l.004-.004Z"/><path fill="url(#s)" d="M560.182 366.275c-1.887 8.052-4.996 17.066-4.292 25.325l8.946-2.011c.602-.136.911.102.945.704l7.143 143.374.929 18.388c2.282.807 4.568.807 6.868 0l-.789-15.813-7.453-149.537c-.051-.806.326-1.289 1.116-1.459.738-.153 1.289-.756 1.683-1.803a7.14 7.14 0 0 0 .446-1.82c.514-4.653.411-9.29-.293-13.922-.102-.67-.479-.997-1.149-1.014l-14.096-.412h-.004Z"/><path fill="url(#t)" d="m385.988 366.119-8.085.619c-.602.051-.946.361-1.031.963-.343 2.455-1.993 17.255 1.939 17.031a1.61 1.61 0 0 1 1.684 1.701l-5.735 100.882-3.932 65.172c2.405.98 4.721.858 6.935-.36l4.722-77.687 4.551-85.034c.034-.636.36-1.014.962-1.167.773-.191 1.82-.17 3.143.085a106.301 106.301 0 0 1-5.149-22.198l-.004-.007Z"/><path fill="#021A39" d="M882.948 377.004c.67 8.327 1.65 16.636 2.936 24.895.17 1.116-.259 1.701-1.29 1.786-.823 1.629-1.115 3.296-.857 5.014.857-.119 1.667-.085 2.422.119.585.153.929.531 1.014 1.133l23.538 164.49c1.374 2.986 3.657 3.554 6.868 1.717l-28.328-200.872a14.34 14.34 0 0 0-6.3 1.718h-.003Z"/><path fill="url(#u)" d="M626.968 378.552c-1.667.789-2.164 1.87-1.46 3.245a2.61 2.61 0 0 1 .293 1.649l-.874 6.371 8.67 10.439-6.626-21.701-.003-.003Z"/><path fill="url(#v)" d="M449.375 397.967c16.878.687 33.77.738 50.649.136l1.561-17.735c.085-.874-.327-1.289-1.201-1.235a433.102 433.102 0 0 1-53.206-.395c-1.374-.085-1.939.531-1.684 1.888.463 2.592 2.507 16.518 3.881 17.341Z"/><path fill="#021A39" d="m842.895 413.488 20.739 152.799c1.871 1.701 3.983 1.973 6.371.789l-20.807-158.809c-3.381-.259-5.493 1.476-6.299 5.218l-.004.003Z"/><path fill="#081232" d="m744.673 408.835-.068 46.287v3.865l-.085 37.685.085 68.329v5.15l.619 4.997c.085.67.48 1.014 1.15 1.014h3.793c.568 0 .857-.293.874-.858l.136-6.439V457.701l.259-21.185-.463-27.95c-2.01-.343-4.119-.258-6.3.276v-.007Z"/><path fill="url(#w)" d="m553.176 528.517-7.025-92.225c-.088.673-.377 1.197-.86 1.575.486-.381.772-.905.86-1.575.068-.507.028-1.095-.136-1.772-.075-3.259-.585-6.14-.309-9.161-.177.402-.364.796-.575 1.184-.418.769-.898 1.504-1.296 2.282-.408.8-.646 1.677-.895 2.535-.908 3.156-1.52 6.405-2.704 9.473-.146-.691-.364-.541-.639.469l6.282 82.494 1.854 27.47c2.044 1.167 4.174 1.289 6.371.361l-.928-23.11Zm-12.906-87.49v-.007.007Zm.163 2.282c-.003-.156-.01-.306-.017-.452.007.143.011.296.017.452Zm-.023-.633c-.004-.088-.007-.173-.014-.255.003.082.007.167.014.255Zm-.051-.857c0-.024-.004-.044-.007-.068 0 .024.003.044.007.068Zm4.779.439a1.585 1.585 0 0 0-.034-.235l-.531-2.66.531 2.66c.017.082.027.16.034.235Z"/><path fill="url(#x)" d="M751.18 457.698v104.865c7.759-2.439 13.528-6.936 17.29-13.511 1.392-2.439 2.456-6.249 3.177-11.436 2.249-16.001 8.807-31.178 12.052-47.179a4.11 4.11 0 0 0-.963-3.554l-4.48-4.963a1.916 1.916 0 0 1-.496-1.374c.068-3.177-.772-6.079-2.541-8.688a20.741 20.741 0 0 0-8.497-4.275 4.146 4.146 0 0 1-1.667-.841l-10.011-8.429a2.519 2.519 0 0 0-1.683-.619h-2.181v.004Z"/><path fill="#9E4452" d="m744.605 458.983-.53 9.341a2.047 2.047 0 0 1-.619 1.425 209.957 209.957 0 0 1-20.671 18.783c1.442 2.987 2.316 6.164 2.643 9.511 4.224 2.731 7.966 6.078 11.228 10.028.704.857 2.078.551 2.333-.531.909-3.864 2.749-7.487 5.528-10.868l.085-37.685.003-.004Z"/><path fill="url(#y)" d="M407.591 434.251c-1.782-3.262-3.558-6.527-5.249-9.834-.884 12.535-1.785 25.056-2.687 37.573.555.14 1 .358 1.354.647-.35-.289-.799-.504-1.354-.647l-.857 8.157-5.65 81.912 6.507-.361 6.3-86.272.136-2.146 2.187-27.763c-.231-.422-.459-.844-.687-1.262v-.004Zm-3.606 30.393v-.017.017Zm-2.891-1.943-.02-.02.02.02Zm.83 2.242c-.068 2.456.136 2.456.636.034-.496 2.422-.704 2.422-.636-.034Zm.714-1.306c.034-.061.092-.095.174-.106-.078.011-.14.045-.174.106Zm1.211 2.218a.275.275 0 0 1 0 0Z"/><path fill="#D4D8D7" d="M775.215 471.861c1.769 2.609 2.609 5.511 2.541 8.688-.017.53.153.979.497 1.374l4.48 4.963a4.128 4.128 0 0 1 .962 3.554c-3.245 16.001-9.803 31.179-12.051 47.179-.721 5.184-1.786 8.997-3.177 11.436-3.759 6.575-9.528 11.075-17.29 13.511v6.299c6.422-1.972 12.018-5.234 16.773-9.752 4.585-7.759 6.609-16.242 6.112-25.46-.17-3.245.997-5.612 3.521-7.126.496-.293.84-.721 1.048-1.252 3.622-9.289 9.837-26.491 7.452-36.192-1.769-7.211-.585-16.001-10.868-17.218v-.004Z"/><path fill="#021A39" d="M722.785 488.532c-2.215.429-3.538 1.752-3.932 3.932v42.492l.568 8.585c3.864-2.507 5.82-5.115 5.837-7.83.085-12.551.153-25.117.17-37.668-.327-3.347-1.201-6.524-2.643-9.511Z"/><path fill="url(#z)" d="M711.179 495.226c-5.358 10.334-12.807 15.161-5.426 27.675.293.497.344 1.031.153 1.595l-.687 1.854c-.207.585-.102 1.099.31 1.561 3.588 4.035 8.017 6.371 13.323 7.038v-42.491c-1.904-.722-3.724-.48-5.442.721-.874.619-1.493 2.49-2.231 2.044v.003Z"/><path fill="url(#A)" d="M744.52 496.669c-2.782 3.381-4.619 7.004-5.527 10.868a1.332 1.332 0 0 1-2.334.53c-3.262-3.949-7.003-7.296-11.228-10.027a6955.972 6955.972 0 0 1-.17 37.668c-.017 2.711-1.973 5.323-5.837 7.83-1.65 4.102-1.667 8.242-.068 12.378 3.898 6.66 17.923 8.514 25.256 9.082l-.085-68.329h-.007Z"/><path fill="url(#B)" d="m447.334 528.673-.653-10.765c-.034-.688-.377-1.099-1.047-1.252-5.167-1.218-6.732 5.218-6.423 9.201.052.462.293.738.739.857l2.333.585c.531.136.912.463 1.099.98 2.214 5.973 6.884 8.551 14.028 7.708 6.214-.722 8.445-6.732 11.983-11.004.361-.429.531-.929.551-1.494.051-4.241-1.905-6.867-5.854-7.898a1.507 1.507 0 0 0-1.871 1.252l-1.561 11.381c-.102.687-.497 1.031-1.184 1.048l-11.126.309c-.636.017-.98-.275-1.014-.911v.003Z"/><path fill="url(#C)" d="M508.779 516.122c-.67.034-1.048.395-1.133 1.065l-1.251 11.759-13.6.428-.738-12.997a.864.864 0 0 0-1.03-.789c-5.014.997-8.722 8.446-4.378 12.069 2.18 2.918 3.741 6.265 7.228 7.52 4.653 1.684 9.133 1.065 13.443-1.871l3.037-4.119a2.235 2.235 0 0 1 1.374-.874c6.266-1.252 3.882-12.603-2.952-12.191Z"/><path fill="url(#D)" d="M475.489 547.831c-9.753 8.241-30.165 6.677-41.567 3.622-.636 3.381-.102 6.283 1.561 8.722a2.41 2.41 0 0 0 1.375.979c10.867 3.092 41.495 6.953 38.627-13.323h.004Z"/><path fill="url(#E)" d="M482.853 550.337c-6.677 15.933 19.899 13.066 28.396 12.086 7.02-.806 9.993-4.653 8.945-11.521-8.997 3.004-29.426 5.701-37.341-.568v.003Z"/><path fill="#D4D8D7" d="m719.349 555.919-1.289.568c2.507 11.589 17.167 13.977 26.542 13.668v-5.15c-7.33-.568-21.358-2.422-25.256-9.082l.003-.004Z"/><path fill="#B23408" d="M504.813 61.963c.98 5.82 1.374 11.555 1.184 17.239a1.383 1.383 0 0 1-1.939 1.218c-7.504-3.347-13.872-2.062-19.127 3.864.208 1.183.946 1.786 2.215 1.786 6.282-6.456 12.344-6.66 18.198-.636.411.411.636.911.67 1.493.772 12.446-11.916 16.98-18.8 7.228-.225.929-.946 1.218-2.147.857 3.072 5.29 7.742 7.572 14.028 6.868 6.147-1.94 9.596-6.164 10.334-12.654.085-.687.462-1.082 1.132-1.183 1.031-.154 1.752-.688 2.164-1.613.585-1.34.153-2.146-1.272-2.422l-2.249-.428c-.704-.136-.996-.568-.908-1.27a79.69 79.69 0 0 0 .242-19.486l-3.725-.857v-.004Z"/><path fill="#B23408" d="M436.467 76.539a2.2 2.2 0 0 0 .394-1.562c-1.15-10.18-.823-23.453 4.429-32.226.292-.496.224-.945-.191-1.34-17.82-16.705-11.674-29.1 8.103-38.44 18.885-8.912 34.457 3.194 30.664 23.42-.119.584.119.962.704 1.115 17.96 4.823 27.281 16.586 27.968 35.314l-3.725-.857c-1.269-5.2-3.776-9.7-7.521-13.51-.428-.43-.945-.586-1.544-.497-10.147 1.612-20.018.67-29.651-2.85-.67-.26-1.425.17-1.561.873-2.045 10.66-7.916 18.338-17.617 23.005-.496.241-.755.636-.755 1.184l-.034 5.717c0 .705.31 1.184.946 1.46 2.901 1.252 5.34 1.51 7.313.789 8.568-3.126 16.361-1.252 23.382 5.633 1.735 1.7 4.119 1.87 7.16.513.208 1.184.946 1.786 2.215 1.786-1.15 2.66-1.116 5.358.068 8.086-.225.928-.946 1.217-2.147.857a11.155 11.155 0 0 1-1.837-5.667c-.051-.772-.462-1.184-1.234-1.235l-2.49-.136c-.721-.034-1.218.293-1.476.963-1.922 4.891-4.13 8.442-5.899 9.333-13.235 6.661-20.011-2.741-20.541-15.238-.017-.602-.293-1.048-.79-1.358-3.622-2.197-13.633-8.497-14.782.395-.086.568.034 1.099.326 1.595.891 1.46 1.235 2.987 1.014 4.552-3.313-3.83-3.623-7.708-.891-11.674Zm39.042 8.602c-5.888-7.52-24.722-9.579-21.29 3.708 3.555 13.701 21.736 10.714 21.477-2.66-.017-.551.153-.62-.19-1.048h.003Z"/><path fill="#9E4452" d="M757.841 93.502s-1.068-4.283-6.916-4.497c-5.847-.214-6.663-.156-6.663-.156l-.221 3.87s4.354 1.453 4.616 1.61c.262.156 5.391 1.176 5.391 1.176l3.796-2.003h-.003ZM734.374 88.335l-6.201-1.68 1.52 10.939s2.266.089 3.048-2c.786-2.085 2.102-5.592 2.102-5.592l-.473-1.67.004.003Z"/><path fill="#330504" d="M137.746 149.344c4.086-.224 7.899-1.408 11.453-3.554.497-.293 1.014-.446 1.578-.429 4.035.119 6.678 2.045 7.933 5.752.19.568.085 1.065-.293 1.527-4.411 5.167-5.871 9.702.874 13.634 6.715 3.915 9.117 9.837 7.246 17.786-.463 1.939-1.528 3.521.908 4.721a1.173 1.173 0 0 0 1.65-.721c1.323-4.619 4.568-7.092 9.718-7.381l1.425-4.721c-4.31-16.637 15.674-16.31 17.701-30.474.531-3.674.636-6.249.31-7.742-1.922-8.773-1.939-17.821-.068-27.161.224-1.099-1.184-1.752-1.871-.857-1.718 2.214-2.456 4.789-2.231 7.725a.556.556 0 0 1-.412.568.522.522 0 0 1-.602-.361c-3.038-9.82 5.184-12.395 12.79-11.021.891.153 1.183.67.857 1.527l-3.021 7.725c-.292.772.653 1.408 1.255.84l8.171-7.656a2.9 2.9 0 0 1 3.571-.293l4.946 3.279c.531.344.963.259 1.306-.275 2.388-3.657 5.684-6.079 9.889-7.297.67-.19 1.289-.102 1.853.293l4.052 2.711c.53.377 1.064.377 1.595-.017 4.017-2.902 8.259-3.228 12.722-.963.462.225.891.208 1.323-.068l2.833-1.803c.98-.636 1.306-.394.98.722l-4.721 16.136c-.137.446-.429.704-.892.755-11.004 1.426-7.126 12.018-6.66 18.937l2.936-3.933c.309-6.405 4.823-7.415 9.255-9.752 9.184-4.84 11.399-22.062 3.364-29.014a2.033 2.033 0 0 1-.738-1.494c-1.255-17.256-10.079-28.722-26.474-34.423-29.719-9.718-58.819 11.194-67.748 38.886-2.061 6.371-4.479 9.837-9.752 13.031a2.672 2.672 0 0 1-1.612.378c-20.378-1.408-.653 20.739-14.524 23.042a2.2 2.2 0 0 0-1.443.874c-2.299 3.071-2.782 6.592-1.425 10.558l-.007.003Z"/><path fill="#8D5157" d="M197.939 145.48c.531-3.673.636-6.248.31-7.742-1.922-8.772-1.939-17.82-.068-27.161.224-1.098-1.184-1.751-1.871-.857-1.718 2.215-2.456 4.79-2.231 7.725a.555.555 0 0 1-.412.568.521.521 0 0 1-.602-.36c-3.038-9.821 5.184-12.396 12.79-11.021.891.153 1.183.67.857 1.527l-3.021 7.725c-.292.772.653 1.408 1.255.84l8.171-7.657a2.9 2.9 0 0 1 3.571-.292l4.946 3.279c.531.343.963.258 1.306-.276 2.388-3.656 5.684-6.078 9.888-7.296.671-.191 1.29-.102 1.854.292l4.051 2.711c.531.378 1.065.378 1.596-.017 4.017-2.901 8.259-3.228 12.721-.962.463.224.892.207 1.324-.068l2.833-1.803c.98-.636 1.306-.395.98.721l-4.722 16.137c-.136.445-.428.704-.891.755-11.004 1.425-7.126 12.018-6.66 18.936l-1.357 1.357c-1.595-.738-3.055-.619-4.361.361-1.065.19-1.99.585-2.765 1.218-.463.394-.67.874-.585 1.476.102.823-.619 1.031-2.147.636a10.286 10.286 0 0 1-1.785-.619c-1.065-.48-2.232-.67-3.487-.585-.755.051-.963 1.082-.276 1.408 2.8 1.391 4.963 3.211 6.457 5.477-7.725 17.701-16.879 6.265-24.93-1.409-.412-.394-.823-.411-1.252-.034a58.182 58.182 0 0 0-9.82 11.093c-1.116-.429-2.044.224-2.765 1.938-2.851 2.8-5.065 6.147-6.661 10.045-.224.568-.653.84-1.251.823l-6.97-.19c-.514-.017-.891.207-1.133.67l-.585 1.099c-4.309-16.637 15.674-16.311 17.702-30.475l-.004.007Z"/><path fill="#330504" d="M240.189 142.905c-.513 3.487-2.044 6.49-4.585 9.014-7.725 17.702-16.878 6.266-24.929-1.408-.412-.394-.824-.411-1.252-.034a58.207 58.207 0 0 0-9.82 11.092 346.455 346.455 0 0 1 12.619 8.946c7.143 5.324 1.425 12.001 5.667 17.838 2.677 3.691 6.198 6.354 10.575 8.017.48.191.858.497 1.116.946 1.133 1.922.755 3.588-1.133 5.014-.462.36-.602.806-.411 1.357.326.98.979 1.306 1.939.963 14.337-5.15-1.786-15.743 7.211-23.127 16.035-13.185 10.232-22.199 7.364-38.971-1.595-.739-3.054-.619-4.361.36v-.007Z"/><path fill="#8D5157" d="M240.189 142.905c-1.064.191-1.989.585-2.765 1.218-.463.395-.67.874-.585 1.476.102.823-.619 1.031-2.146.636a10.213 10.213 0 0 1-1.786-.619c-1.065-.479-2.232-.67-3.487-.585-.755.051-.962 1.082-.275 1.408 2.799 1.392 4.963 3.211 6.456 5.477 2.541-2.524 4.068-5.528 4.585-9.014l.003.003Z"/><path fill="url(#F)" d="M137.746 149.345c-14.147 4.962-22.354 14.987-24.603 30.045l-.928 4.823c-.068.361.068.497.428.378.208-.068.412-.136.619-.225a.617.617 0 0 1 .653.137c11.11 9.684 16.603 18.936 20.498 30.885a486.389 486.389 0 0 0 15.847 41.995c2.028 4.687 3.899 7.864 5.633 9.494 6.422 6.078 18.542 4.258 27.076 3.262 6.249-.738 11.814 1.167 17.923 1.167.411 0 .772-.31 1.098-.929 1.358-7.415 5.633-13.133 12.824-17.167 2.422-1.358 2.936-3.453 1.561-6.266-.258-.497-.547-.531-.908-.119-4.275 4.806-8.017 8.293-14.817 9.272a494.61 494.61 0 0 1-32.535 3.487 1.462 1.462 0 0 1-1.544-1.218l-6.079-38.199-6.817-34.559c-.119-.636.137-.946.79-.929 1.666.085 3.003.756 4.051 2.045.36.445.806.789 1.34 1.03 5.425 2.405 9.29 5.15 11.021 11.314a160.9 160.9 0 0 0 9.667 25.787c1.956 4.102 5.116 5.993 9.031 7.707.514.225.946.551 1.306.98 3.381 4 6.011 3.398 10.626 3.555.361.017.548-.153.603-.514l1.989-13.922c.085-.602-.136-1.031-.704-1.29-2.044-.945-3.33-2.489-3.847-4.636a282.158 282.158 0 0 0-20.739-36.052c-5.15.292-8.395 2.765-9.718 7.381a1.173 1.173 0 0 1-1.65.721c-2.438-1.201-1.374-2.782-.908-4.721 1.871-7.95-.53-13.872-7.245-17.787-6.749-3.932-5.289-8.463-.874-13.633.377-.463.479-.963.292-1.527-1.251-3.708-3.898-5.633-7.932-5.752-.568-.017-1.082.136-1.578.428-3.555 2.147-7.365 3.33-11.453 3.555l.003-.003Z"/><path fill="#8D5157" d="M196.841 163.508c-2.851 2.8-5.065 6.147-6.661 10.045-.224.568-.653.84-1.251.823l-6.97-.19c-.514-.017-.891.207-1.133.67l-.585 1.098-1.425 4.722a281.923 281.923 0 0 1 20.739 36.052l2.061 2.096c.412.428.874.479 1.375.153.67-.429.568-1.099-.293-2.045-2.748-7.847-4.174-16-4.276-24.429 0-1.031.997-1.786 1.994-1.46l1.149.361-1.82-20.14c-.051-.602.208-1.014.773-1.201.496-.191 1.013-.242 1.544-.191l-5.218-6.371-.003.007Z"/><path fill="url(#G)" d="M202.059 169.876a3.365 3.365 0 0 0-1.545.19c-.568.191-.823.603-.772 1.201l1.82 20.141 1.786 15.949.411 8.086c.017.496.17.945.463 1.34 3.228 4.653 1.701 13.391.136 18.164-.548 1.701.857 3.398 2.626 3.177l9.596-1.218c.051-9.939-.48-19.848-1.562-29.736-.136-1.184.225-1.752.412-2.884-1.218-6.592.619-12.875-1.905-18.766-2.592-6.011-6.405-11.229-11.47-15.641l.004-.003Z"/><path fill="url(#H)" d="m113.143 179.386-4.721 14.593a203.634 203.634 0 0 1 10.096 14.113c1.612 2.473 1.234 5.201 3.69 7.589.412.394.67.891.755 1.459.568 3.588 2.936 6.197 3.983 8.823 3.759 9.341 7.487 18.661 10.97 28.104 3.415 9.255 11.178 27.161 21.719 29.528 6.732 1.51 21.341-2.214 29.307 1.803 1.116.568 1.048.874-.19.945-2.351.153-3.932 1.252-4.773 3.296l5.201-2.163 10.3-3.432a22.599 22.599 0 0 1 3.072-11.092l-.568-2.575c-.327.619-.687.928-1.099.928-6.113 0-11.674-1.904-17.923-1.166-8.534.996-20.653 2.816-27.076-3.262-1.734-1.633-3.605-4.807-5.632-9.494a487.012 487.012 0 0 1-15.848-41.995c-3.898-11.949-9.392-21.202-20.497-30.886-.191-.17-.412-.224-.654-.136-.207.085-.411.153-.619.225-.36.119-.496-.017-.428-.378l.928-4.823.007-.004Z"/><path fill="url(#I)" d="M160.495 220.164a127.184 127.184 0 0 0 19.692 15.058c.428.276 7.796 5.375 8.395 6.317 2.558 4.068 6.316 5.527 10.575 3.092.463-.276.98-.412 1.527-.395 5.307.102 10.354-.911 15.144-3.037.568-.259.84-.687.823-1.306l-.068-2.987-9.596 1.218c-1.769.224-3.177-1.476-2.626-3.177 1.562-4.773 3.092-13.511-.136-18.164a2.331 2.331 0 0 1-.462-1.34l-.412-8.086-.653 9.579c.857.945.963 1.612.292 2.044-.496.327-.962.276-1.374-.153l-2.061-2.095c.514 2.146 1.803 3.69 3.847 4.636.568.259.789.687.704 1.289l-1.99 13.923c-.051.36-.241.53-.602.513-4.619-.153-7.245.446-10.626-3.554a3.498 3.498 0 0 0-1.306-.98c-3.915-1.718-7.072-3.606-9.031-7.708a160.865 160.865 0 0 1-9.667-25.787c-1.735-6.163-5.596-8.912-11.021-11.313a3.633 3.633 0 0 1-1.34-1.031c-1.048-1.289-2.388-1.956-4.052-2.044-.653-.017-.911.292-.789.929l6.817 34.559h-.004Z"/><path fill="#8D5157" d="m202.695 216.936.653-9.579-1.786-15.95-1.15-.36c-.996-.327-1.993.429-1.993 1.459.102 8.429 1.527 16.586 4.276 24.43Z"/><path fill="url(#J)" d="m108.422 193.982-14.525 38.322a.47.47 0 0 1-.258.258l-.378.191a426.989 426.989 0 0 0-25.15 95.698c-.164 1.139.057 2.381 1.013 3.102 1.02.772 2.218 1.173 3.402 1.622.582.221 1.163.422 1.775.562.613.139 1.388.068 2 .241l19.539 5.888a564.617 564.617 0 0 1 5.922-56.019c.479-3.021 2.694-5.528 1.595-9.324a.847.847 0 0 1 .119-.755c.085-.119.208-.241.361-.394.394-.361.547-.79.428-1.324-.602-2.867-.207-5.544 1.184-8.068a1.49 1.49 0 0 0 .051-1.425c-1.854-4.068-1.323-7.296 1.612-9.684.446-.361.738-.84.858-1.409 1.768-8.275-.137-17.255-.085-23.194.034-4.001.19-8.018.462-12.052.085-1.218 1.752-1.476 2.197-.343 8.344 21.239 28.257 105.929 35.09 127.906 3.882 11.504-4.755-42.648 8.725-42.491a1.6 1.6 0 0 1 1.545 1.956l-6.715 29.409c-.395 1.667.224 2.748 1.854 3.245 5.65 1.752 13.392 3.47 16.671.085.782-.816.411-2.544.462-3.561.099-1.902.497-3.82.762-5.705 1.068-7.602 2.174-14.959 4.215-22.375 1.391-5.061 3.836-9.004 7.83-12.483.605-.527 2.714-1.555 2.986-2.215.841-2.044 2.422-3.143 4.773-3.296 1.234-.068 1.306-.377.19-.945-7.966-4.018-22.576-.293-29.307-1.803-10.541-2.371-18.3-20.277-21.719-29.529-3.486-9.442-7.211-18.766-10.97-28.103-1.047-2.626-3.415-5.235-3.983-8.823a2.504 2.504 0 0 0-.755-1.46c-2.456-2.387-2.078-5.115-3.691-7.588a203.62 203.62 0 0 0-10.095-14.113l.01-.004Z"/><path fill="url(#K)" d="M215.433 204.282c-.19 1.133-.551 1.701-.411 2.885a261.034 261.034 0 0 1 1.561 29.736l.068 2.986c.017.619-.258 1.048-.823 1.306-4.789 2.13-9.837 3.143-15.144 3.038a2.786 2.786 0 0 0-1.527.394c-4.259 2.439-8.017.98-10.575-3.092-.602-.945-7.966-6.044-8.395-6.316a126.806 126.806 0 0 1-19.691-15.059l6.078 38.199a1.462 1.462 0 0 0 1.544 1.218 489.918 489.918 0 0 0 32.536-3.487c6.799-.979 10.541-4.462 14.817-9.272.36-.412.653-.378.908.119 1.374 2.816.857 4.912-1.561 6.266-7.195 4.034-11.47 9.752-12.824 17.167l.568 2.575c8.327-1.306 17.803-1.493 25.049-2.643 14.919-2.35 28.981-7.092 43.985-8.585l-3.433-3.865c-4.857-4.241-9.133-6.507-12.857-6.816-5.133-.412-7.228.513-11.059-3.47a55.423 55.423 0 0 1-6.129-7.605 200.585 200.585 0 0 1-22.678-35.692l-.007.013Z"/><path fill="url(#L)" d="M95.84 339.863c-.102 1.809 18.63 3.619 20.388 3.867-1.204 0-9.963-1.007-10.772-1.898.401 1.055 9.276 1.864 10.391 2.014 9.722 1.289 19.784.388 29.182 3.18 3.344.993 2-1.711 1.49-3.534-.633-2.265-1.262-4.527-1.891-6.793-1.773-6.367-3.541-12.738-5.303-19.109-2.943-10.647-6.303-21.294-8.695-32.083-.051-.228-.316-.83-.217-1.065.653-1.595 1.612-2.851 2.901-3.759a942.095 942.095 0 0 0-22.766-64.812c-.446-1.133-2.112-.874-2.198.344a202.448 202.448 0 0 0-.462 12.051c-.051 5.939 1.854 14.919.085 23.195a2.415 2.415 0 0 1-.857 1.408c-2.936 2.388-3.47 5.613-1.613 9.684.225.48.208.963-.051 1.425-1.391 2.524-1.785 5.201-1.183 8.069.119.53-.034.962-.429 1.323-.153.153-.275.275-.36.395a.834.834 0 0 0-.12.755c1.099 3.792-1.115 6.299-1.595 9.323a564.853 564.853 0 0 0-5.922 56.02h-.003Z"/><path fill="url(#M)" d="M49.26 230.824C22.476 231.923.227 244.988.002 274.673c-.119 15.691 4.293 29.015 13.202 39.985l7.88 5.2c10.284 4.79 21.1 7.538 32.448 8.242l14.575.344a427.034 427.034 0 0 1 25.151-95.698c-14.766-2.799-29.426-3.453-44.002-1.922h.004Z"/><path fill="#031F4D" d="M13.207 314.657c.446 1.735 1.235 3.416 1.476 5.116A2783.74 2783.74 0 0 0 28.16 401.29c2.214.327 4.378.171 6.507-.496l-13.579-80.932-7.881-5.201v-.004ZM33.81 417.669c-1.65 13.888 17.239 10.265 25.014 9.612a.736.736 0 0 1 .773.946L14.102 572.495l-.446 2.163c-.153.687.085 1.201.687 1.528 1.735.962 3.47.962 5.235-.017.53-.293.912-.721 1.116-1.29l1.734-4.772 44.295-142.139c.17-.53.547-.823 1.115-.84l40.655-1.442c-.496-1.391-.602-2.765-.326-4.136.119-.636.513-.946 1.149-.946h5.596c.497 0 .772.242.857.738l.514 3.555 52.689-.068c.738-.017 1.15.343 1.235 1.082l17.184 137.192a268.406 268.406 0 0 1 1.993 16.62c.327 3.864 2.181 4.327 5.596 3.381.891-.258 1.289-.84 1.184-1.751l-2.198-19.967-17.238-138.139a1123.95 1123.95 0 0 0-98.29-3.003c-11.606.428-23.212.789-34.818 1.081-1.888.051-3.194-.772-2.953-2.799-2.146-1.082-4.428-1.374-6.867-.857h.01Z"/><path fill="url(#N)" d="M115.79 410.356c-12.947-1.184-25.89-3.589-34.267-13.787-1.735.946-.946 1.29-3.487 1.46-14.456.911-28.913 1.836-43.369 2.765-2.13.67-4.293.823-6.507.497-6.3 1.578-16.895 1.629-22.66 5.684a1.848 1.848 0 0 0-.807 1.34c-.245 1.799.486 3.228 1.885 4.367.428.5 1.241.902 1.625 1.116 1.592.895 3.317 1.565 5.024 2.204 5.031 1.888 8.045 3.728 13.372 4.606 5.544.911 13.225 1.306 18.83.918 4.892-.34 9.797-.258 14.695-.394 6.31-.177 12.02-.674 18.327-.885-.452.021-.755-.01-.996-.088.306.075.636.105.996.088 32.808-.428 65.568.568 98.29 3.004 12.31 1.561 23.831-.585 34.525-6.405-31.657.36-63.968-3.623-95.473-6.49h-.003Z"/><path fill="#031F4D" d="m108.49 425.686.929 1.358c.653.962 1.527 1.408 2.643 1.34.687-.051 1.2.224 1.544.806l.377.636c.636 1.065 1.065.98 1.29-.242l.445-2.54.568-2.147-.513-3.554c-.085-.497-.361-.739-.858-.739h-5.595c-.636 0-1.031.31-1.15.946-.275 1.374-.173 2.749.327 4.136h-.007Z"/><path fill="#031F4D" d="m115.718 427.043-.445 2.541c-.225 1.218-.654 1.306-1.29.242l-.377-.636c-.344-.585-.857-.858-1.544-.807-1.116.068-1.99-.377-2.643-1.34l2.146 48.931.721 9.871 3.932 78.905 1.014 14.732c.034.568.343.84.911.823l4.446-.136c.738-.017 1.082-.395 1.065-1.133l-.497-18.508-4.857-93.568-.857-6.868a20.295 20.295 0 0 1-.361-9.082l.068-2.507-1.425-21.46h-.007Z"/><path fill="#031F4D" d="M117.075 451.01a20.295 20.295 0 0 0 .361 9.082l-.361-9.082Z"/><path fill="#90596A" d="M238.081 475.011a238.482 238.482 0 0 1-9.46 32.141c-2.8 8.636-.514 15.263 6.851 19.899l2.609-52.036v-.004Z"/><path fill="#031F4D" d="M111.565 475.974a24.51 24.51 0 0 0 .721 9.871l-.721-9.871Z"/><path fill="#8D5157" d="M287.406 514.602a92.372 92.372 0 0 1-26.114 6.935c5.307 12.463 8.154 25.46 8.514 38.988l.174 5.392c7.228 5.34 20.858 6.316 29.702 7.503a2.462 2.462 0 0 0 1.632-.326c2.249-1.269 3.776-3.143 4.62-5.63-3.793-2.35-6.919-5.374-9.375-9.082-7.796-5.544-8.378-30.542-9.15-43.78h-.003ZM246.628 515.033l5.341-11.949a.82.82 0 0 1 .789-.497h.738l-5.973-19.453a.284.284 0 0 0-.31-.207c-.136.017-3.442-9.739-3.442-9.599v43.61l-.163.109.585 14.293c3.813 1.252 7.004.31 9.596-2.799-4.773-3.381-7.161-7.881-7.161-13.511v.003Z"/><path fill="url(#O)" d="M269.98 565.92c-4.446 6.231-12.412 27.504 1.629 27.797 17.872.361 35.747.361 53.635 0 3.864-.085 8.051-.636 12.535-1.684a2.81 2.81 0 0 0 2.095-3.33c-1.633-7.296-25.083-17.324-32.018-21.082a1.795 1.795 0 0 0-1.116-.225l-.806.068c-.84 2.49-2.371 4.361-4.62 5.63a2.457 2.457 0 0 1-1.632.326c-8.841-1.183-22.474-2.163-29.702-7.503v.003Z"/><path fill="url(#P)" d="M272.534 550.089c-2.629-7.558-18.745-21.545-18.745-21.545-7.225 7.735-18.317-1.493-18.317-1.493-7.365-4.637-9.65-11.263-6.851-19.899-8.67 1.252-15.725 5.34-21.168 12.293a3.875 3.875 0 0 0 .034 4.857 147.368 147.368 0 0 0 15.845 16.858c1.265 2.691 4.49 5.691 10.782 8.929 26.505 13.647 41.05 7.558 38.42 0Z"/><path fill="url(#Q)" d="M145.029 347.026s1.891 2.477 2.871 2.038c.976-.439 12.595-4.602 12.595-4.602s5.803-4.385 6.133-5.259c.33-.878.548-4.385.548-4.385s-8 10.957-8.439-5.041c-.439-15.997 1.095-22.024.769-24.545-.327-2.52 6.466-16.436-7.232-11.177-13.698 5.258-19.286 17.504-17.752 26.94 1.534 9.439 3.615 25.218 3.615 25.218l6.892.81v.003Z"/><path fill="url(#R)" d="M314.512 353.22c.068-15.983-10.868-24.963-25.994-26.113-17.821-1.357-35.621-.809-53.448.065-17.977.881-35.94 1.391-53.941 1.102-4.184-.068-8.368-.17-12.551-.31l-.242 2.269a3.579 3.579 0 0 0-.932.84c-3.949 5.364-16.123 12.065-21.358 14.79-5.252-1.187-9.045-1.738-11.378-1.657-6.045.225-12.069.068-18.096-.428-6.558-.395-13.477-1.701-20.74-3.915l-19.537-5.888c-7.538 20.912-8.137 43.849 5.218 62.598 8.377 10.197 21.324 12.602 34.266 13.786 31.505 2.867 63.816 6.851 95.474 6.49 4.857-1.289 10.01-1.459 15.453-.497.602.102 1.013.429 1.269.997 6.357 13.98 8.847 29.154 12.701 43.903a621.771 621.771 0 0 0 10.157 34.733c1 3.085 6.446 25.957 10.449 25.559a92.374 92.374 0 0 0 26.114-6.936c3.347-.789 4.911-2.799 4.721-6.01-1.374-22.75-2.766-45.495-4.153-68.245 8.394-23.899 13.976-47.352 22.541-70.543 2.66-7.161 3.983-12.688 4-16.586l.007-.004Z"/><path fill="url(#S)" d="m210.763 286.218 81.639.571a1.52 1.52 0 0 0 1.531-1.52v-7.137a1.52 1.52 0 0 0-1.565-1.52l-81.639 2.513a1.52 1.52 0 0 0-1.473 1.521v4.051a1.52 1.52 0 0 0 1.51 1.521h-.003Z"/><path fill="#fff" d="M337.41 231.324c1.425-5.962.506-11.291-2.054-11.903-2.559-.613-5.79 3.724-7.216 9.686-1.426 5.962-.507 11.291 2.053 11.903 2.56.612 5.791-3.724 7.217-9.686ZM608.635 240.445c2.426-1.019 2.469-6.427.096-12.079-2.374-5.651-6.265-9.407-8.691-8.388-2.427 1.019-2.47 6.427-.097 12.079 2.374 5.651 6.265 9.407 8.692 8.388ZM477.652 246.583c8.08 0 14.63-6.55 14.63-14.63 0-8.079-6.55-14.63-14.63-14.63-8.08 0-14.63 6.551-14.63 14.63 0 8.08 6.55 14.63 14.63 14.63Z"/><path fill="#F9AB94" d="m360.956 256.757-1.785.497c7.347 6.575 8.48 13.939 3.398 22.062.085 3.555 2.265 5.048 6.541 4.48-1.391-9.014-.412-20.998-8.154-27.042v.003Z"/><path fill="#8D5157" d="M268.878 274.125c2.228-.578 7.231-.806 10.442-1.898 1.82-.619 5.708-1.694 5.708-1.694s5.572-2.673 5.524-3.037c-.265-1.966-4.589-1.164-6.953-.014-1.884-.003-5.942 1.238-5.942 1.238s-8.762.752-8.871-.439c-.048-.506 5.276-1.581 10.337-3.425 4.697-1.707 9.164-4.17 8.966-5.109-.336-1.592-5.755-.224-5.755-.224s-3.745 1.153-5.017 1.442c-1.493.34-6.038 1.037-6.038 1.037s-15.933 1.718-15.936.582c-.007-1.133 1.191-4.068 2.143-4.504.952-.435 3.123-.357 4.075-.792.952-.436 1.823-1.783 1.374-2.943-.449-1.159-5.867-.744-5.867-.744s-4.405.367-6.939 2.051c-8.78 5.83-7.446 6.993-8.589 7.711-1.354.85-22.862.922-22.862.922s-5.415-.177-13.548-.446c-1.037 1.453-1.922 3.007-2.575 4.674-1.432 3.656-1.952 7.619-3.551 11.225a16.27 16.27 0 0 1-4.504 5.946c20.12-2.307 38.839-4.525 42.196-4.827 0 0 9.3 2.381 15.195 3.694 5.894 1.309 12.129.027 13.85.149.256.017 6.021.106 13.175-1.598 6.166-1.473-.344-2.779-.344-2.779s-11.905.762-11.793-.15c.085-.701 6.609-.752 13.446-2.31 1.759-.401 3.493-.802 5.082-1.183 4.174-1 4.762-3.739.231-3.358-1.598.137-4.252.422-6.119.881-2.017.497-4.024.334-5.783.504-3.486.34-6.027.626-5.959.483.085-.191-.65-.592 1.204-1.072l-.003.007Z"/><path stroke="#fff" stroke-miterlimit="10" stroke-width="2" d="M185.153 356.625s73.17-12.82 86.439 4.603c13.269 17.422 16.831 86.486 16.831 86.486"/><path fill="#031F4D" d="M244.414 315.117h-9.374V610h9.374V315.117Z"/><path fill="url(#T)" d="M389.839 231.355h-11.787c-7.789-10.637-7.922-20.331-.394-29.1 12.674-14.729 21.348-33.872 6.412-50.825-10.637-12.032-10.147-19.331 5.129-27.27.565-.303.888-.755.963-1.378.602-4.789-1.83-8.881 2.49-12.807.547-.489 1.017-.435 1.452.15 15.504 20.858-35.831 16.953-3.565 41.832 19.236 14.824 11.844 27.759-.452 43.658-.395.51-.548 1.095-.415 1.735 2.735 13.807 9.242 20.633.17 34.005h-.003Zm-11.127-27.178c-4.905 9.599-3.697 18.218 3.64 25.875a.78.78 0 0 0 1.037.075.78.78 0 0 0 .17-1.017c-4.735-7.524-5.884-15.671-3.469-24.406a.75.75 0 0 0-.453-.888.744.744 0 0 0-.925.357v.004Z" opacity=".5"/><path fill="url(#U)" d="M391.029 132.228c.697-1.207 1.548-1.303 2.507-.303 5.545 5.715 6.167 11.994 1.885 18.821-.415.66-1.416.643-1.793-.058-3.357-6.109-6.752-11.371-2.602-18.463l.003.003Z" opacity=".5"/><path fill="url(#V)" d="M378.712 204.177c.17-.34.565-.49.925-.357a.747.747 0 0 1 .453.887c-2.415 8.732-1.262 16.879 3.469 24.406a.78.78 0 0 1-.17 1.017.779.779 0 0 1-1.037-.075c-7.337-7.656-8.545-16.276-3.64-25.875v-.003Z" opacity=".5"/><path fill="#081232" d="M675.079 555.127v-61.805l-.137-35.624-.343-92.827c-.078-.657-.177-1.317-.18-1.977-.007-.898.197-1.782.207-2.68a.25.25 0 0 1 .16-.241l-.289-20.6c-.017-.568.231-.929.738-1.092a218.168 218.168 0 0 1-.061-6.32c.01-1.347.058-2.694.037-4.044-.013-.983-.02-1.97.085-2.946a1.19 1.19 0 0 1-.078-.364l-.568-9.476-13.307-.069-.119 12.807c-.007.34-.095.606-.258.803-.014 4.446-.232 8.915.401 13.33a.298.298 0 0 1-.126.29l-.034 95.66v50.649l-.292 65.24.258 44.74c.017 1.65.84 2.473 2.473 2.473h10.749a.93.93 0 0 0 .928-.996 451.187 451.187 0 0 1-.241-44.931h-.003Z"/><path fill="url(#W)" d="M798.162 347.373a38606.751 38606.751 0 0 0-122.481 13.545c-.218.024-.395.007-.531-.054-.061.677-.177 1.35-.17 2.03 0 .225.014.449.034.671a1.39 1.39 0 0 1 .789-.381l122.842-13.872c.17-.017.548-.496.929-1.15.136-.224-.874-.84-1.409-.789h-.003Z"/><path stroke="#4605A3" stroke-miterlimit="10" stroke-width="3" d="M726.577 283.007s80.31 7.942 101.845.017"/><path fill="#E29788" d="M487.02 123.051c1.023-1.191 2.207-2.919 2.306-4.521-1.711 1.269-3.065 3.058-4.82 4.337-8.562 6.242-21.232 1.034-27.668-5.898-.15-.163-.299-.327-.446-.497-.428-.496-.738-.428-.911.208-.429 1.527-.225 2.884.619 4.051 3.422 4.749 10.279 8.242 16.045 8.446 4.905.173 11.33-1.993 14.875-6.123v-.003Z"/><defs><linearGradient id="a" x1="433.926" x2="475.489" y1="526.724" y2="526.724" gradientUnits="userSpaceOnUse"><stop stop-color="#EBA790"/><stop offset="1" stop-color="#FF417D"/></linearGradient><linearGradient id="b" x1="520.826" x2="483.496" y1="528.169" y2="527.132" gradientUnits="userSpaceOnUse"><stop stop-color="#EBA790"/><stop offset="1" stop-color="#FF417D"/></linearGradient><linearGradient id="c" x1="675.725" x2="776.719" y1="326.413" y2="326.413" gradientUnits="userSpaceOnUse"><stop stop-color="#008897"/><stop offset=".59" stop-color="#009E87"/><stop offset="1" stop-color="#00A880"/></linearGradient><linearGradient id="d" x1="652.693" x2="884.275" y1="234.657" y2="234.657" gradientUnits="userSpaceOnUse"><stop stop-color="#E0CC95"/><stop offset=".46" stop-color="#FF7A4E"/></linearGradient><linearGradient id="e" x1="611.681" x2="660.636" y1="358.972" y2="358.972" gradientUnits="userSpaceOnUse"><stop stop-color="#008897"/><stop offset=".59" stop-color="#009E87"/><stop offset="1" stop-color="#00A880"/></linearGradient><linearGradient id="f" x1="420.19" x2="558.465" y1="178.359" y2="178.359" gradientUnits="userSpaceOnUse"><stop offset=".37" stop-color="#6652E5"/><stop offset="1" stop-color="#99ACFF"/></linearGradient><linearGradient id="g" x1="397.033" x2="560.611" y1="212.691" y2="212.691" gradientUnits="userSpaceOnUse"><stop stop-color="#E0CC95"/><stop offset=".46" stop-color="#FF7A4E"/></linearGradient><linearGradient id="h" x1="366.889" x2="430.361" y1="185.758" y2="185.758" gradientUnits="userSpaceOnUse"><stop offset=".37" stop-color="#6652E5"/><stop offset="1" stop-color="#99ACFF"/></linearGradient><linearGradient id="i" x1="566.387" x2="728.2" y1="231.953" y2="231.953" gradientUnits="userSpaceOnUse"><stop offset=".37" stop-color="#7652E5"/><stop offset="1" stop-color="#99ACFF"/></linearGradient><linearGradient id="j" x1="281.555" x2="359.28" y1="233.042" y2="233.042" gradientUnits="userSpaceOnUse"><stop stop-color="#EBA790"/><stop offset="1" stop-color="#FF417D"/></linearGradient><linearGradient id="k" x1="872.941" x2="902.626" y1="276.554" y2="276.554" gradientUnits="userSpaceOnUse"><stop stop-color="#99ACFF"/><stop offset=".95" stop-color="#7652E5"/></linearGradient><linearGradient id="l" x1="707.872" x2="918.415" y1="314.726" y2="314.726" gradientUnits="userSpaceOnUse"><stop stop-color="#99ACFF"/><stop offset=".95" stop-color="#7652E5"/></linearGradient><linearGradient id="m" x1="540.369" x2="570.414" y1="257.335" y2="257.335" gradientUnits="userSpaceOnUse"><stop stop-color="#008897"/><stop offset=".59" stop-color="#009E87"/><stop offset="1" stop-color="#00A880"/></linearGradient><linearGradient id="n" x1="353.875" x2="397.87" y1="261.968" y2="261.968" gradientUnits="userSpaceOnUse"><stop stop-color="#99ACFF"/><stop offset=".95" stop-color="#7652E5"/></linearGradient><linearGradient id="o" x1="181.789" x2="782.444" y1="295.208" y2="295.208" gradientUnits="userSpaceOnUse"><stop stop-color="#8DC64E"/><stop offset="1" stop-color="#B5EE75"/></linearGradient><linearGradient id="p" x1="382.08" x2="562.972" y1="410.594" y2="410.594" gradientUnits="userSpaceOnUse"><stop stop-color="#008897"/><stop offset=".59" stop-color="#009E87"/><stop offset="1" stop-color="#00A880"/></linearGradient><linearGradient id="q" x1="674.197" x2="862.852" y1="405.631" y2="405.631" gradientUnits="userSpaceOnUse"><stop stop-color="#8ED7C6"/><stop offset="1" stop-color="#56ADAB"/></linearGradient><linearGradient id="r" x1="624.777" x2="660.942" y1="389.249" y2="389.249" gradientUnits="userSpaceOnUse"><stop stop-color="#8ED7C6"/><stop offset="1" stop-color="#56ADAB"/></linearGradient><linearGradient id="s" x1="555.788" x2="580.714" y1="459.466" y2="459.466" gradientUnits="userSpaceOnUse"><stop stop-color="#E0CC95"/><stop offset=".46" stop-color="#FF7A4E"/></linearGradient><linearGradient id="t" x1="370.831" x2="391.141" y1="459.63" y2="459.63" gradientUnits="userSpaceOnUse"><stop stop-color="#E0CC95"/><stop offset=".46" stop-color="#FF7A4E"/></linearGradient><linearGradient id="u" x1="624.923" x2="633.594" y1="389.402" y2="389.402" gradientUnits="userSpaceOnUse"><stop stop-color="#008897"/><stop offset=".59" stop-color="#009E87"/><stop offset="1" stop-color="#00A880"/></linearGradient><linearGradient id="v" x1="445.436" x2="501.595" y1="388.627" y2="388.627" gradientUnits="userSpaceOnUse"><stop stop-color="#E0CC95"/><stop offset=".46" stop-color="#FF7A4E"/></linearGradient><linearGradient id="w" x1="539.597" x2="554.104" y1="488.801" y2="488.801" gradientUnits="userSpaceOnUse"><stop stop-color="#E0CC95"/><stop offset=".46" stop-color="#FF7A4E"/></linearGradient><linearGradient id="x" x1="751.18" x2="783.78" y1="510.129" y2="510.129" gradientUnits="userSpaceOnUse"><stop stop-color="#8DC64E"/><stop offset="1" stop-color="#B5EE75"/></linearGradient><linearGradient id="y" x1="393.148" x2="408.278" y1="488.237" y2="488.237" gradientUnits="userSpaceOnUse"><stop stop-color="#E0CC95"/><stop offset=".46" stop-color="#FF7A4E"/></linearGradient><linearGradient id="z" x1="702.658" x2="718.852" y1="513.506" y2="513.506" gradientUnits="userSpaceOnUse"><stop stop-color="#8DC64E"/><stop offset="1" stop-color="#B5EE75"/></linearGradient><linearGradient id="A" x1="718.169" x2="744.605" y1="530.837" y2="530.837" gradientUnits="userSpaceOnUse"><stop stop-color="#8DC64E"/><stop offset="1" stop-color="#B5EE75"/></linearGradient><linearGradient id="B" x1="439.174" x2="469.944" y1="525.84" y2="525.84" gradientUnits="userSpaceOnUse"><stop offset=".37" stop-color="#6652E5"/><stop offset="1" stop-color="#99ACFF"/></linearGradient><linearGradient id="C" x1="484.73" x2="515.368" y1="525.837" y2="525.837" gradientUnits="userSpaceOnUse"><stop offset=".37" stop-color="#6652E5"/><stop offset="1" stop-color="#99ACFF"/></linearGradient><linearGradient id="D" x1="433.664" x2="475.679" y1="555.739" y2="555.739" gradientUnits="userSpaceOnUse"><stop offset=".37" stop-color="#6652E5"/><stop offset="1" stop-color="#99ACFF"/></linearGradient><linearGradient id="E" x1="481.788" x2="520.402" y1="556.804" y2="556.804" gradientUnits="userSpaceOnUse"><stop offset=".37" stop-color="#6652E5"/><stop offset="1" stop-color="#99ACFF"/></linearGradient><linearGradient id="F" x1="112.201" x2="217.127" y1="208.333" y2="208.333" gradientUnits="userSpaceOnUse"><stop stop-color="#8ED7C6"/><stop offset="1" stop-color="#56ADAB"/></linearGradient><linearGradient id="G" x1="199.735" x2="216.586" y1="204" y2="204" gradientUnits="userSpaceOnUse"><stop stop-color="#8ED7C6"/><stop offset="1" stop-color="#56ADAB"/></linearGradient><linearGradient id="H" x1="108.422" x2="202.559" y1="234.515" y2="234.515" gradientUnits="userSpaceOnUse"><stop stop-color="#8ED7C6"/><stop offset="1" stop-color="#56ADAB"/></linearGradient><linearGradient id="I" x1="153.652" x2="216.654" y1="215.245" y2="215.245" gradientUnits="userSpaceOnUse"><stop stop-color="#8ED7C6"/><stop offset="1" stop-color="#56ADAB"/></linearGradient><linearGradient id="J" x1="68.063" x2="189.732" y1="269.68" y2="269.68" gradientUnits="userSpaceOnUse"><stop stop-color="#008897"/><stop offset=".59" stop-color="#009E87"/><stop offset="1" stop-color="#00A880"/></linearGradient><linearGradient id="K" x1="160.496" x2="271.592" y1="238.62" y2="238.62" gradientUnits="userSpaceOnUse"><stop stop-color="#008897"/><stop offset=".59" stop-color="#009E87"/><stop offset="1" stop-color="#00A880"/></linearGradient><linearGradient id="L" x1="95.836" x2="147.219" y1="281.193" y2="281.193" gradientUnits="userSpaceOnUse"><stop stop-color="#008897"/><stop offset=".59" stop-color="#009E87"/><stop offset="1" stop-color="#00A880"/></linearGradient><linearGradient id="M" x1=".002" x2="93.261" y1="279.231" y2="279.231" gradientUnits="userSpaceOnUse"><stop stop-color="#99ACFF"/><stop offset=".95" stop-color="#7652E5"/></linearGradient><linearGradient id="N" x1="4.645" x2="211.263" y1="410.155" y2="410.155" gradientUnits="userSpaceOnUse"><stop stop-color="#99ACFF"/><stop offset=".95" stop-color="#7652E5"/></linearGradient><linearGradient id="O" x1="263.67" x2="339.935" y1="579.951" y2="579.951" gradientUnits="userSpaceOnUse"><stop offset=".64" stop-color="#FF7A4E"/><stop offset="1" stop-color="#E0CC95"/></linearGradient><linearGradient id="P" x1="206.61" x2="272.837" y1="532.673" y2="532.673" gradientUnits="userSpaceOnUse"><stop offset=".64" stop-color="#FF7A4E"/><stop offset="1" stop-color="#E0CC95"/></linearGradient><linearGradient id="Q" x1="134.273" x2="167.173" y1="320.998" y2="320.998" gradientUnits="userSpaceOnUse"><stop stop-color="#008897"/><stop offset=".59" stop-color="#009E87"/><stop offset="1" stop-color="#00A880"/></linearGradient><linearGradient id="R" x1="70.978" x2="314.512" y1="423.914" y2="423.914" gradientUnits="userSpaceOnUse"><stop stop-color="#FFBED2"/><stop offset=".38" stop-color="#FF7BA8"/></linearGradient><linearGradient id="S" x1="209.253" x2="293.933" y1="281.704" y2="281.704" gradientUnits="userSpaceOnUse"><stop stop-color="#EBA790"/><stop offset="1" stop-color="#FF417D"/></linearGradient><linearGradient id="T" x1="372.11" x2="402.315" y1="170.498" y2="170.498" gradientUnits="userSpaceOnUse"><stop offset=".64" stop-color="#FF7A4E"/><stop offset="1" stop-color="#E0CC95"/></linearGradient><linearGradient id="U" x1="389.111" x2="398.223" y1="141.235" y2="141.235" gradientUnits="userSpaceOnUse"><stop offset=".64" stop-color="#FF7A4E"/><stop offset="1" stop-color="#E0CC95"/></linearGradient><linearGradient id="V" x1="375.763" x2="383.675" y1="217.031" y2="217.031" gradientUnits="userSpaceOnUse"><stop offset=".64" stop-color="#FF7A4E"/><stop offset="1" stop-color="#E0CC95"/></linearGradient><linearGradient id="W" x1="674.98" x2="799.581" y1="355.466" y2="355.466" gradientUnits="userSpaceOnUse"><stop stop-color="#008897"/><stop offset=".59" stop-color="#009E87"/><stop offset="1" stop-color="#00A880"/></linearGradient></defs></svg>
