<svg width="1524" height="1052" fill="none" xmlns="http://www.w3.org/2000/svg"><path d="M295.68.79c24.28-.99 60.95 5.93 77.85 25.24 7.36 8.4 6.43 15.38-2.79 20.94-18.32 2.91-40.89-2.73-59.56-6.57-3.46-.73-5.55.67-6.25 4.16l-2.3 11.49c-.23 1.11-.84 1.89-1.83 2.38l-13.09 6.34c-1.42.67-1.48 2.65-.12 3.43 10.09 5.7 20.07 11.55 29.87 17.51 4.8 2.94 9.63 3.87 11.98-2.38.44-1.22.03-1.83-1.28-1.83h-13.03c-1.42 0-1.92-1.92-.64-2.59 13.52-7.07 25.27-5.5 35.25 4.68.84.9 1.86 1.51 3.05 1.89l4.68 1.45c1.16.38 2.12.09 2.88-.84l.47-.58c.99-1.22.7-1.83-.87-1.83h-4.01c-.96 0-1.45-.47-1.48-1.42-.09-1.28.55-2.15 1.86-2.65 5.5-2.09 11.14-2.91 16.93-2.47l.23 4.36c-.73 2.53-2.44 4.22-5.09 5.09-1.8.96-2.82 2.44-3.05 4.39-.09.79.2 1.4.9 1.8.2.15.41.29.58.47l.12 3.52c-5.5 5.03-5.76 10.18-.84 15.38l-1.45 2.91-1.45-.23c-12.04-8.03-3.69-17.91-10.35-23.67-1.28-1.11-3.26 0-2.97 1.69 4.94 28.96-33.62 27.05-29.46 2.68.35-2.09-.64-4.19-2.5-5.21l-31.29-17.39c-.7-.38-1.57.06-1.66.84-1.51 13.49-1.98 27.25 5 39.23 10.5 18.12 30.97 41.18 55.02 36.93 6.08-1.11 10.21-5.18 13.14-10.24.67-1.16-.2-2.59-1.54-2.5l-28.32 1.83c-1.22.09-2.06-1.16-1.54-2.27 1.19-2.53 24.69-3.66 28.44-3.72a1.304 1.304 0 0 0 1.05-2.04c-5.41-7.91-14.25-2.85-21.75-3.02-1.25-.03-1.66-.64-1.22-1.8l1.34-3.61c.38-.99 1.08-1.4 2.09-1.25 12.18 1.86 18.64-1.02 26.23 10.96 2.76 12.36 2.47 24.78-.87 37.22-7.04 26.26-30.88 17.27-47.78 9.89l-7.04-4.22c-23.15-14.69-36.99-35.22-32.57-63.83 2.15-13.93 2.53-26.38 1.11-37.37-.15-1.13-.73-2.01-1.74-2.56-9.74-5.41-17.42-2.94-23.03 7.39-.87-32.11 4.01-75.06 44.73-78h-.04Zm30.42 93.67-.61 1.57c-3.32 8.96 2.65 16.29 12.01 13.58 9.71-2.82 13.87-20.59 1.92-24.28-.9-.26-1.74-.12-2.5.47l-10.82 8.67v-.01Z" fill="#081232"/><path d="M1275.41 75.62c6.98-7.62 11.87-16.52 1.02-23.79-.84-.55-1.75-.84-2.73-.84l-7.24-.09c-1.28-.03-1.69-.61-1.22-1.8 2.12-5.44.7-9.45-4.22-12.07-.9-.49-1.8-.52-2.76-.15-1.63.67-3.26.67-4.89 0-1.05-.44-1.45-1.22-1.22-2.33.99-4.91-.26-8.9-3.78-11.95a4.744 4.744 0 0 1-1.48-2.36l-.96-3.26c-.32-1.11-1.08-1.66-2.24-1.66h-4.13c-1.25 0-2.09-.58-2.59-1.72-3.37-8.06-17.48-4.54-23-2.36-.79.32-1.6.35-2.44.12l-13.67-3.81c-.79-.23-1.37-.73-1.72-1.45-3.11-6.69-9.8-4.04-14.45-4.62-11.49-1.37-19.25 3.55-23.26 14.8-.32.93-.99 1.28-1.95 1.08-6.31-1.34-10.64.9-12.94 6.72-.41 1.05-1.08 1.25-2.04.64-5.79-3.75-10.53-2.97-14.19 2.41-.64.93-.9 1.95-.81 3.08l.99 10.5c.15 1.54-1.37 2.68-2.79 2.15-13.14-4.97-26.26 7.53-16.75 20.04.55.76.55 1.51 0 2.27-4.3 5.82-3.26 10.73 3.11 14.71.9.55 1.4 1.37 1.48 2.44.49 5.73 3.66 9.19 9.51 10.44.96.2 1.37.81 1.28 1.77l-2.09 19.981c-.09 1.02.2 1.86.9 2.59l2.97 3.02 48.39-8.35c1.69-.29 3.29.87 3.52 2.56l1.92 13.41a5.022 5.022 0 0 0 3.93 4.19l17.88 3.69c1.05.2 1.63.84 1.77 1.89l.41 2.59c.11.77-.08 1.36-.6 1.78.22.63.52 1.23.92 1.79 2.4 3.36 8.03 5.05 11.2 2.42 3.92-7.63 6.34-18.48 18.14-13.66 4.04 1.63 5.03 6.66 5.03 11.23.03 11.98 5.64 20.53 16.9 25.68l-1.95-54.64c-.03-1.08.49-1.63 1.57-1.6 8.08.12 13.87-3.55 17.36-10.99.41-.84.41-1.72 0-2.56l-.76-1.6c-.47-.99-.26-1.8.61-2.41 6.78-4.86 8.06-10.64 3.84-17.33-.58-.9-.49-1.77.23-2.59h-.01Z" fill="#330504"/><path d="M836.14 207.88c-5.18 3.14-11.6.64-17.13-3.4-3.78-2.7-9.13-3.72-16.02-3-7.33-16.29-8.99-33.3-4.97-51.04.15-.73.61-1.05 1.34-.9 13.32 2.41 14.57-36-1.37-26.14-.96.58-1.45 1.43-1.48 2.56-.03.93-.47 1.69-1.28 2.27-.99.73-1.92.67-2.76-.23-5.09-5.29-9.48-9.74-16.98-11.57-20.91-5.12-45.83-6.31-46.79-34-.03-.79-.35-.9-.9-.35-8.58 8.2-16.17 17.22-22.8 27.05-1.08-35.68 15.65-56.88 50.22-63.63.99-.2 1.34-.79 1.05-1.74-5.9-19.6 6.49-20.91 18.5-30.77 10.56-8.67 24.05-4.8 31.41 5.73a5.11 5.11 0 0 0 2.18 1.83c14.08 6.08 11.2 24.37 2.24 32.98-.73.67-.73 1.4-.06 2.15 30.07 33.65 18.26 69.21 18.76 107.4.17 13 5.79 30.16 6.86 44.81l-.02-.01Z" fill="url(#a)"/><path d="m373.47 81.49 12.39 7.68c1.54.93 2.18 2.85 1.54 4.54-3.55 9.25-9.45 25.27-22.77 21.35l1.45-2.91c8.23 0 12.71-4.07 13.44-12.18.09-.87-.26-1.48-1.05-1.83-3.69-1.69-7.56-2.15-11.55-1.37l-.12-3.52c4.3 2.09 8.58 2.24 12.8.44 1.16-.49 1.45-1.28.9-2.41-2.33-4.62-6.37-6.17-12.13-4.68 2.65-.87 4.36-2.56 5.09-5.09l.01-.02Z" fill="#021A39"/><path d="M370.73 46.97c-18.32 2.91-40.89-2.73-59.56-6.57-3.46-.73-5.55.67-6.25 4.16l-2.3 11.49c-.23 1.11-.84 1.89-1.83 2.38l-13.09 6.34c-1.42.67-1.48 2.65-.12 3.43 10.09 5.7 20.07 11.55 29.87 17.51 4.8 2.94 9.63 3.87 11.98-2.38.44-1.22.03-1.83-1.28-1.83h-13.03c-1.42 0-1.92-1.92-.64-2.59 13.52-7.07 25.27-5.5 35.25 4.68.84.9 1.86 1.51 3.05 1.89l4.68 1.45c1.16.38 2.12.09 2.88-.84l.47-.58c.99-1.22.7-1.83-.87-1.83h-4.01c-.96 0-1.45-.47-1.48-1.42-.09-1.28.55-2.15 1.86-2.65 5.5-2.09 11.14-2.91 16.93-2.47l-2.5-30.16-.01-.01ZM274.62 111.33c2.15-13.93 2.53-26.38 1.1-37.37-.15-1.13-.73-2.01-1.75-2.56-9.74-5.41-17.42-2.94-23.03 7.39 3.72 26.64-2.73 50.37-19.37 71.16 10.06 21.52 13.55 44.09 22.65 65.32l6.25 4.65c31.73 10.59 36-16.61 44.41-37.37-.49-2.97.29-5.44 2.3-7.39-23.15-14.69-36.99-35.22-32.57-63.83h.01Z" fill="#864443"/><path d="M352.82 91.15c-1.28-1.11-3.26 0-2.97 1.69 4.94 28.96-33.62 27.05-29.46 2.68.35-2.09-.64-4.19-2.5-5.21L286.6 72.92c-.7-.38-1.57.06-1.66.84-1.51 13.49-1.98 27.25 5 39.23 10.5 18.12 30.97 41.18 55.02 36.93 6.08-1.11 10.21-5.18 13.14-10.24.67-1.16-.2-2.59-1.54-2.5l-28.32 1.83c-1.22.09-2.06-1.16-1.54-2.27 1.19-2.53 24.69-3.66 28.44-3.72a1.304 1.304 0 0 0 1.05-2.04c-5.41-7.91-14.25-2.85-21.75-3.02-1.25-.03-1.66-.64-1.22-1.8l1.34-3.61c.38-.99 1.08-1.4 2.09-1.25 12.19 1.86 18.64-1.02 26.23 10.96l.29-17.45c-12.04-8.03-3.69-17.91-10.35-23.67v.01Z" fill="#864443"/><path d="M337.49 109.61c9.71-2.82 13.87-20.59 1.92-24.28-.9-.26-1.74-.12-2.5.47l-10.82 8.67-.61 1.57c-3.31 8.96 2.65 16.29 12.01 13.58v-.01Z" fill="#864443"/><path d="M231.58 149.95c10.06 21.52 13.55 44.09 22.65 65.32 1.45 7.71 3.23 15.35 5.29 22.94 13.2 47.95 6.63 89.05.38 142.09-.96 8.26.23 14.69 3.64 19.28 7.36 2.38 13.93 5.61 19.66 9.68l-14.22 12.68c-.73.64-1.57.9-2.53.81-35.25-3.66-87.88-21.61-98.21-60.6-11.63-44.03-31.87-120.13 5.21-157.73 1.63-1.66 4.39-1.34 5.61.64 7.36 12.24 12.1 25.36 14.19 39.38 5.44 36.5 6.86 73.17 4.3 110.01-.76 10.67 2.36 17.59 13.09 19.63 1.6.32 1.95-.2.99-1.54l-1.95-2.68c-.55-.79-.87-1.66-.9-2.62-1.25-30.51-3.9-65.64-7.88-105.42-2.79-27.71-12.82-51.68-30.1-71.83-.61-.73-.7-1.51-.2-2.36 3.87-6.46 8.78-8.17 16.31-5.9 18.67 5.61 44.41 16.23 48.36 34.96 2.33 11.14 4.54 22.31 6.6 33.47 2.59 42.75 2.3 85.44-.81 128.1-.03.49.17.84.67 1.05.29.09.61.23.96.38 1.05.44 1.63.09 1.77-1.05 4.91-42.81 5.09-85.64.55-128.51.47-10.85-.7-21.46-3.52-31.81-6.89-25.33-45.05-38.59-66.8-45.83-7.53-9.22-11.57-19.57-12.18-31.06-1.13-22.68 18.18-36.61 38.85-24.14 13.2 7.97 21.43 20.41 30.22 32.66Zm-43.59 2.15c27.25 7.21 45.69 23.9 55.34 50.11.58 1.6 1.02 1.54 1.31-.15 1.57-9.34-11.05-26.49-17.77-32.31-9.83-8.58-20.91-15.12-33.27-19.63-2.41-.9-4.39-.79-5.93.32-1.08.79-.96 1.34.32 1.66Z" fill="url(#b)"/><path d="M799.36 149.541c13.32 2.41 14.57-36-1.37-26.14-.96.58-1.45 1.43-1.48 2.56-.03.93-.47 1.69-1.28 2.27-.99.73-1.92.67-2.76-.23-5.09-5.29-9.48-9.74-16.98-11.57-20.91-5.12-45.83-6.31-46.79-34-.03-.79-.35-.9-.9-.35a164.61 164.61 0 0 0-22.8 27.05l1.45 18.18v2.91l5.09 39.26c9.42 14.54 12.21 21.58 27.28 31.58 1.25.81 1.13 1.42-.32 1.83l-8.06 2.21c12.71 25.59 44.46 25.88 66.13 12.5 6.98-4.3 9.13-9.68 6.43-16.11-7.33-16.29-8.99-33.3-4.97-51.04.15-.73.61-1.05 1.34-.9l-.01-.01Zm-86.99-9.24v.12-.12Z" fill="#F5C0AA"/><path d="M1225.28 142.12c.15-.49.47-.81.96-.96 5.29-1.54 2.91 13.03 2.59 15.27-.15.84-.61 1.34-1.45 1.42-5.55.61-2.85-13.06-2.09-15.73h-.01Z" fill="#330504"/><path d="M187.67 150.44c1.54-1.11 3.52-1.22 5.93-.32 12.36 4.51 23.44 11.05 33.27 19.63 6.72 5.82 19.34 22.97 17.77 32.31-.29 1.69-.73 1.74-1.31.15-9.65-26.2-28.09-42.89-55.34-50.11-1.28-.32-1.4-.87-.32-1.66Z" fill="#F39735"/><path d="M711.53 169.46c9.42 14.54 12.21 21.58 27.28 31.58 1.25.81 1.13 1.42-.32 1.83l-8.06 2.21c-4.62-1.08-9.28-1.02-13.93.12l-14.34 3.26c-.26-14.08 2.88-27.07 9.36-39h.01Z" fill="url(#c)"/><path d="M174.7 172.48c21.75 7.24 59.91 20.5 66.8 45.83 2.82 10.35 3.98 20.97 3.52 31.81l-3.14.03c-2.06-11.17-4.27-22.33-6.6-33.47-3.96-18.73-29.69-29.34-48.36-34.96-7.53-2.27-12.45-.55-16.31 5.9-.49.84-.41 1.63.2 2.36 17.27 20.15 27.31 44.12 30.1 71.83 3.98 39.78 6.63 74.91 7.88 105.42.03.96.35 1.83.9 2.62l1.95 2.68c.96 1.34.61 1.86-.99 1.54-10.73-2.04-13.84-8.96-13.09-19.63 2.56-36.85 1.13-73.52-4.3-110.01-2.09-14.02-6.83-27.13-14.19-39.38-1.22-1.98-3.98-2.3-5.61-.64-37.08 37.6-16.84 113.71-5.21 157.73 10.32 39 62.96 56.94 98.21 60.6.96.09 1.8-.17 2.53-.81l14.22-12.68c6.83 1.92 9.74 6.28 8.72 13.09-9.51-.55-12.42 7.27-23.26 6.78-51.01 5.09-122.17 5.96-146.86-49.67-10.56-23.73-17.04-51.15-19.46-82.27-.03-.58-.29-1.08-.73-1.45-.26-.2-.49-.44-.73-.67-1.25-1.25-1.8-.99-1.66.79 2.65 32.08 8.17 63.63 16.52 94.69 10.82 40.16 38.45 55.81 75.84 66.94l-30.01 46.41c-.41.61-.58 1.28-.52 2.01.03.32.06.61.12.9l-1.69 14.54c-25.91 12.42-53.63 17.27-83.17 14.57-3.75-43.65-3.46-87.24.9-130.84a1966.66 1966.66 0 0 1 19.51-159.25c1.28-7.88 4.04-15.27 6.72-22.65 16.63-26.7 40.39-43.59 71.25-50.69Z" fill="url(#d)"/><path d="m307.19 175.16 7.04 4.22c-3 4.45-3.05 8.35-.17 11.69 16.46 19.28 28.47 38.53 36.03 57.75 2.59 35.3 7.21 70.32 13.87 105.07 5.03 26.23 31.96 34.08 55.52 36.64.84.09 1.48.47 1.98 1.13l.73.99c-6.69 8.87-5 18.12-4.83 28.53.03 1.42-.58 1.77-1.83 1.05-23.67-13.93-42.08-5.29-64.3 2.15a196.046 196.046 0 0 1-26.58-49.79c7.68-8.38 1.4-108.38-.09-125.45-.06-.76-.99-1.69-2.41-2.38-.52-.23-.76.17-.67 1.22 2.85 41.61 3.14 83.32.87 125.05l-4.13 1.45c-2.88-32.72-4.45-65.78-4.65-99.19-.84-23.82-3.11-48.04-6.81-72.67.55-6.6-.09-13.29-1.86-20.07-.49-2.97.29-5.44 2.3-7.39h-.01Z" fill="url(#e)"/><path d="M304.89 182.55c1.77 6.78 2.41 13.46 1.86 20.07-3.34 1.83-6.57 6.05-9.74 12.68-3.14 6.54-9.68 10.21-19.63 10.93-5.29.38-10.93-1.72-16.9-6.31 31.73 10.59 36-16.61 44.41-37.37Z" fill="url(#f)"/><path d="M802.99 201.48c6.89-.73 12.24.29 16.02 3-6.17 20.56-18.99 34.29-38.5 41.18-6.89 2.41-13.67.61-21.11.99-21.67-4.97-34.61-22.25-42.89-41.44 4.65-1.13 9.31-1.19 13.93-.12 12.71 25.59 44.46 25.88 66.13 12.5 6.98-4.3 9.13-9.68 6.43-16.11h-.01Z" fill="url(#g)"/><path d="M306.75 202.61c3.69 24.63 5.96 48.86 6.81 72.67-14.8 15.03-25.59 31.7-32.34 49.93-7.74 20.91-12.88 43.62-15.47 68.11-.2 1.72-.93 3.78-2.21 6.25-3.4-4.59-4.59-11.02-3.64-19.28 6.25-53.04 12.82-94.13-.38-142.09-2.06-7.59-3.84-15.24-5.29-22.94l6.25 4.65c5.96 4.59 11.6 6.69 16.9 6.31 9.95-.73 16.49-4.39 19.63-10.93 3.17-6.63 6.4-10.85 9.74-12.68Z" fill="url(#h)"/><path d="M1288.79 206.541c-16.31-7.88-27.74-20.3-34.29-37.19-11.25-5.15-16.87-13.7-16.9-25.68 0-4.57-.99-9.6-5.03-11.23-3.17-1.29-6.9-1.96-9.91.07-2.53 1.71-4.22 4.54-5.48 7.22-.43.92-1.04 2.34-1.44 3.27-.4.93-.54 1.54-1.09 2.34-.79 1.14-1.69 1.73-3.06 1.92-1.87.25-3.99-.23-5.56-1.26-.8-.53-1.67-1.06-2.31-1.78-1.2-1.36-.44-2.23-.69-3.86-.11-.69-.41-2.14-.52-2.83-.15-1.05-.73-1.69-1.77-1.89l-17.88-3.69c-2.06-.44-3.64-2.12-3.93-4.19l-1.92-13.41c-.23-1.69-1.83-2.85-3.52-2.56l-48.39 8.35c-1.21.27 1.04 13.84 1.18 14.97.52 3.99 1.18 7.98 1.36 12 .14 3.19-1.32 6.66.15 9.65.8 1.62 2.09 2.95 3.39 4.2 3.58 3.45 7.54 6.74 9.67 11.24a53.341 53.341 0 0 0-11.07-12.93c-.32-.27-.69-.55-1.11-.52-.84.07-1.02 1.25-.78 2.06.66 2.28 2.56 3.97 4.5 5.32 5.25 3.66 10.34 8.01 11.97 14.52 2.05 8.21 2.91 16.78 4.13 25.14.38 2.59 1.92 3.95 4.65 4.13 1.25.06 1.95.7 2.09 1.95l.67 5.76c.12.84.47 1.57 1.05 2.18 2.94 3.05 6.6 4.48 11.05 4.27 1.72-1.19 3.23-2.52 4.53-4-1.3 1.48-2.81 2.82-4.53 4 11.78 22.01 30.07 7.68 42.43-2.88.67-.58 1.37-.58 2.04.03 8.58 7.39 15.33 16.11 20.3 26.17 2.82 1.08 4.65 3.84 5.5 8.23 5.93 6.05 13.06 7.15 21.4 3.32 16.66-7.65 26.58-20.59 29.81-38.82.7-4.01 1.66-8.03 2.85-12.04l-3.52-1.57-.02.02Zm-93.83-55.98c-.13.03-.25.07-.38.1.13-.04.25-.07.38-.1Z" fill="#B76941"/><path d="M1292.31 208.11c17.48 1.48 34.2 5.85 50.16 13.09 29.52 22.07 32.86 46.68 32.43 84.97-.47 38.59 1.89 80.09-7.56 117.72-2.15 8.52-6.81 15.12-13.96 19.77-13.41-7.15-26.78-13.96-42.17-14.77l1.89-2.21c.64-.73.96-1.6.96-2.56.26-41.73 1.89-77.56-6.57-113.88-.09-.32-.29-.47-.61-.47-.26 0-.55 0-.84-.03-1.08-.09-1.54.38-1.37 1.45 5.21 33.97.2 62.26-5.03 100.36-1.02 7.47-1.08 13.35-.17 17.62a849.335 849.335 0 0 1-74.04.44c-4.04-51.42-6.92-91.66-8.58-120.74-1.25-22.04-.87-41.79 15.91-61.45 2.82 1.08 4.65 3.84 5.5 8.23 5.93 6.05 13.06 7.15 21.4 3.32 16.66-7.65 26.58-20.59 29.81-38.82.7-4.01 1.66-8.03 2.85-12.04h-.01Z" fill="url(#i)"/><path d="M1342.47 221.2c39.26 13.99 59.24 67.03 69.68 103.12-.87-.29-1.4-.9-1.54-1.86-.17-1.02-.79-1.6-1.8-1.74-7.18-.96-6.28 12.68-5.87 16.69-3.2 33.47-9.02 65-17.42 94.54-3.34 11.75-10.21 21.05-20.59 27.92-1.92-7.01-5.76-12.39-11.55-16.2 7.15-4.65 11.81-11.25 13.96-19.77 9.45-37.63 7.1-79.13 7.56-117.72.44-38.3-2.91-62.9-32.43-84.97v-.01Z" fill="url(#j)"/><path d="M945.55 408.56c-4.62-17.39-7.27-34.32-7.91-50.8-5.87-15.21-11.98-30.48-18.29-45.8-1.37-3.32-.49-6.34 2.68-9.1-3.14-18.09-10.56-35.45-22.22-52.05-7.62-10.82-16.63-19.6-27.07-26.35.96.62.16 10.01.18 11.44v.79c-.03-2.52-.06-5.04-.1-7.55-.02-1.38.18-2.99-.08-4.34-.17-.91-1.68-1.6-2.46-2.15-1.97-.98-3.77-2.48-5.71-3.56-9.34-5.17-19.76-8.33-29.9-11.54-4.09-1.29-8.17-2.47-12.47-2.84-.32-.03-3.01-.49-3.17-.24-6.17 20.56-18.99 34.29-38.5 41.18-6.89 2.41-13.67.61-21.11.99-21.67-4.97-34.61-22.25-42.89-41.44l-14.34 3.26c-42.66 19.16-55.31 49.76-68.66 91.87-.03 8.61-1.69 16.87-4.97 24.75l-7.36 81.08c-.29 3.23 3.84 4.83 5.79 2.24 12.77-16.95 42.66-21.99 61.22-16.69 5.5 1.54 7.91 5.55 7.24 11.98l4.97.61 3.71 29.36c-.15-1.31 12.89 1.98 14.2 1.95.29 0 1.15-4.51 1.41-4.59-.84-.84 11.82 4.59 11.82 3.63-.03-1.13-11.99-19.58-10.86-19.64l1.29-.84 8.68 4.67c1.13.09 7.72 7.14 7.98 8.25l6.68 5.74c.29 1.19 8.52 1.9 9.74 1.81 20.59-1.28 6.68-4.32 18.27-6.34 32.63-1.02 64.39-6.57 95.27-16.63-2.3-2.88-2.27-6.05.12-9.57-6.43-11.11-9.98-23.21-10.64-36.29-.09-1.95.61-3.05 2.09-3.34.93-.2 1.54.17 1.83 1.08l4.51 15.18c.11.37.38.58.68.66.14 6.96.59 13.91 1.29 20.85.05.52.13 1.1.53 1.45.95.83 8.27-2.6 9.71-3.03 3.4-1 6.86-1.81 10.36-2.33 7.17-1.07 14.47-.88 21.55.69 10.79 2.38 22.68 6.28 29.55 14.4 2.15 2.53 6.22.38 5.38-2.82l-.02-.04Zm-81.89-88.73c-34.75 17.36-71.68 24.46-110.8 21.32-25.68-2.01-49.32-9.97-70.93-23.9-3.93-2.53-4.27-5.64-1.08-9.36.61-.7 1.28-.79 2.06-.29 21.87 14.25 45.92 22.45 72.12 24.6 37.22 2.5 72.59-4.45 106.06-20.82 1.31-.64 2.18-.26 2.56 1.13l1.28 4.48c.38 1.31-.06 2.24-1.28 2.85l.01-.01Zm9.36-71.91v4.92c0-4.33-.03-8.66-.08-12.98.03 2.69.06 5.38.07 8.06h.01Z" fill="url(#k)"/><path d="m324.64 374.6-2.3-1.57c2.27-41.73 1.98-83.43-.87-125.05-.09-1.05.15-1.45.67-1.22 1.42.7 2.36 1.63 2.41 2.38 1.48 17.07 7.76 117.08.09 125.45v.01Z" fill="#021A39"/><path d="M350.09 248.82c.76.7 1.34 1.48 1.74 2.36 14.57 31.64 27.89 64.12 39.99 97.45.47 1.25 1.34 2.04 2.65 2.33 19.34 4.36 38.74 9.83 58.13 16.37l-5.93 18.06c-9.8-2.85-17.94-.44-24.49 7.27l-.73-.99c-.49-.67-1.13-1.05-1.98-1.13-23.56-2.56-50.48-10.41-55.52-36.64a912.397 912.397 0 0 1-13.87-105.07l.01-.01Z" fill="url(#l)"/><path d="m241.88 250.16 3.14-.03c4.54 42.87 4.36 85.7-.55 128.51-.15 1.13-.73 1.48-1.77 1.05-.35-.15-.67-.29-.96-.38-.49-.2-.7-.55-.67-1.05 3.11-42.66 3.4-85.35.81-128.1Z" fill="#123662"/><path d="M313.56 275.29c.2 33.41 1.77 66.48 4.65 99.19l6.43 53.68-32.72-5.82c1.02-6.81-1.89-11.17-8.72-13.09-5.73-4.07-12.3-7.3-19.66-9.68 1.28-2.47 2.01-4.54 2.21-6.25 2.59-24.49 7.74-47.2 15.47-68.11 6.75-18.23 17.54-34.9 32.34-49.93v.01Z" fill="url(#m)"/><path d="m268.66 429.12-.61 26.78c-3.64 15.47-61.86 5.38-76.45 1.57-37.4-11.14-65.02-26.78-75.84-66.94-8.35-31.06-13.87-62.61-16.52-94.69-.15-1.77.41-2.04 1.66-.79.23.23.47.47.73.67.44.38.7.87.73 1.45 2.41 31.12 8.9 58.54 19.46 82.27 24.69 55.63 95.85 54.76 146.86 49.67l-.02.01Z" fill="#F39735"/><path d="M633.51 300.32c-.03 8.61-1.69 16.87-4.97 24.75l-35.74 99.57-2.5-4.97c-.44-.9-.61-1.83-.49-2.82 1.6-13.73 1.34-27.39-.79-41.03a4.306 4.306 0 0 0-1.45-2.7c-1.8-1.69-4.07-3.69-6.51-4.57a3660.205 3660.205 0 0 0-105.21-35.48c-2.62-.84-5.53-2.59-8.7-5.23.9-7.91 4.07-14.57 9.51-19.95.79-.76 1.69-1.16 2.76-1.22l55.28-3.66 94.6-4.19c.99-.03 1.92.2 2.79.7l1.43.81-.01-.01Z" fill="url(#n)"/><path d="M755.04 332.2c37.22 2.5 72.59-4.45 106.06-20.82 1.31-.64 2.18-.26 2.56 1.13l1.28 4.48c.38 1.31-.06 2.24-1.28 2.85-34.75 17.36-71.68 24.46-110.8 21.32-25.68-2.01-49.32-9.97-70.93-23.9-3.93-2.53-4.27-5.64-1.08-9.36.61-.7 1.28-.79 2.06-.29 21.87 14.25 45.92 22.45 72.12 24.6l.01-.01Z" fill="url(#o)"/><path d="m1311.21 428.89-11.75.29c-.9-4.27-.84-10.15.17-17.62 5.23-38.1 10.24-66.39 5.03-100.36-.17-1.08.29-1.54 1.37-1.45.29.03.58.03.84.03.32 0 .52.15.61.47 8.46 36.32 6.83 72.15 6.57 113.88 0 .96-.32 1.83-.96 2.56l-1.89 2.21.01-.01Z" fill="url(#p)"/><path d="m1412.15 324.32 20.59 80.7c10.99 56.39 25.77 117.46 9.83 174.28-.23.78-1.13 1.19-1.86.81l-59.82-31.15c20.44-68.54 28.3-138.54 23.56-209.99-.03-.52-.29-.9-.76-1.16-.26-.15-.49-.26-.76-.41-.41-4.01-1.31-17.65 5.87-16.69 1.02.15 1.63.73 1.8 1.74.15.96.67 1.57 1.54 1.86l.01.01Z" fill="url(#q)"/><path d="M635.98 412.37c18.06-13.09 37.89-15.99 59.44-8.7.67-6.43-1.74-10.44-7.24-11.98-18.55-5.29-48.45-.26-61.22 16.69-1.61 2.14-4.67 1.4-5.53-.73-.56 3.78.77 2.61.44 2.89 1.73.77 8.52 7.34 8.38 9.02-.07.9-.03 1.87.09 2.89.27-3.83 1.89-7.37 5.63-10.07l.01-.01Z" fill="url(#r)"/><path d="M936.32 423.29c.81-1.35 1.55-2.74 2.19-4.19.99-2.27 2.12-4.5 3.04-6.8-.5-.17-.98-.43-1.38-.91-6.86-8.11-18.76-12.01-29.55-14.4-14.28-3.14-28.27-1.45-41.91 5.09-2.38 3.52-2.41 6.69-.12 9.57 21.11-10.7 51.07-6.57 67.64 11.52.04.04.05.09.08.12h.01Z" fill="url(#s)"/><path d="M1257.35 471.58a20.693 20.693 0 0 0-7.74-6.83c-45.72 4.28-91.34 7.56-136.88 9.92-4.57.23-10.35-.12-17.39-1.08-35.16-4.74-70.32-9.65-105.45-14.77-3.97-.58-7.26-2.41-9.9-5.47-.13-.15-1.44.02-1.68.03l-1.98.03-3.78.06c-2.5.04-4.99.07-7.49.08-4.95.03-10-.05-14.98-.25-5.08-.21-10.13-.72-15.2-.97-3.67-.18-7.56-.87-10.55-3.17-.59-.46-1.18-1.06-1.2-1.81-1.57.67-3.28 1.02-4.98 1.15-1.78.14-3.58.06-5.36-.07-4.12-.31-8.22-.91-12.36-.88-46.94.26-52.85-7.38-99.79-6.92l-26.92 5.33c-.26.07-3.57-1.56-3.83-1.5 3.99-4.71-8.4 2.17-8.52 2.77l-6.67-2.03c-.23 1.25-.46 2.93-1.36 2.03l-2.35.07c-.35-.38-2.38.87-2.35.37h-2.84c-3.33.37-1.35.79-4.69.74-3.67-.06-7.11 1.73-10.74 1.23-1.89-.26-7.13 1.51-9 1.11-1.87-.4-6.75 2.28-8.63 1.92-2.56-.49-7.03.03-9.3-1.18-12.6.61-39.33 4.33-53.19 0 .07.03.12.06.19.1 1.66.79-3.49 3.31-5.22 3.85-6.58 2.05-13.83.93-20.53.18-3.66-.41-7.16-.6-10.84-.4-2.54.14-5.09.31-7.63.38-1.4.29-2.81.5-4.13.68-9.53 1.31-19.14.23-28.71.18-.47 0-.85-.14-1.18-.34-1.51.41-3.11.73-4.93.86-43.74 3.11-87.48 6.25-131.24 9.36-13.7.96-22.97 1.31-27.8 1.02-36.85-2.27-73.52-5.9-110.07-10.93l-30.13-.52c-3.64 15.47-61.86 5.38-76.45 1.57l-30.01 46.41c-.41.61-.58 1.28-.52 2.01.03.32.06.61.12.9 69.36-.67 138.69-.61 208.05.2 17.77.2 42.6.12 63.37-.29 69.01-1.28 137.87.32 206.85 0 163.87-.81 327.8.49 491.67-.61 49.09-.32 98.18-.09 147.27.7l-21.03-35.22Zm-244.86 3.4c-33.91 7.01-67.7 13.61-101.35 19.8-13.35 2.47-26.78 3.14-40.31 2.06-40.92-3.23-82.65-4.39-123.27-10-1.05-.15-2.33-.73-3.84-1.75-.61-.41-.44-1.37.29-1.54 40.22-9.13 82.42-14.02 123.19-20.79 11.69-1.95 23.56-2.09 36.55-1.19 31.61 2.21 63.22 4.62 94.77 7.27 6.4.52 11.08 1.13 14.05 1.86 6.34 1.51 6.31 2.94-.09 4.27l.01.01Z" fill="#FEFEFE"/><path d="M640.32 442.31c-4.21-3.96-9.14-12.99-9.97-19.86-.69 9.65 7.48 21.18 13.83 26.16 1.51 1.18 3.62 2.12 6.07 2.89-6.04-2.92-5.08-4.62-9.93-9.19Z" fill="#FEFEFE"/><path d="M467.14 327.84c3.17 2.65 6.08 4.39 8.7 5.23a3639.49 3639.49 0 0 1 105.21 35.48c2.44.87 4.71 2.88 6.51 4.57.81.73 1.31 1.63 1.45 2.7 2.12 13.64 2.38 27.31.79 41.03-.12.99.06 1.92.49 2.82l2.5 4.97c-5.32 14.05-6.89 31-25.5 32.34-43.74 3.11-87.48 6.25-131.24 9.36-13.7.96-22.97 1.31-27.8 1.02-36.85-2.27-73.52-5.9-110.07-10.93.7-3.4 1.77-5.12 3.2-5.15 30.8-.96 59.5 5.73 88.03-10.09 1.28-.7 2.88-.58 4.01.32l9.74 7.74c-1.54.79-3.26 1.05-5.12.81a5.491 5.491 0 0 1-2.73-1.08c-1.69-1.19-3.43-1.37-5.23-.49-.93.44-1.89.7-2.91.79l-12.91 1.02c-.49.03-.9.44-.9.96-.03.49.32.93.81 1.02 15.59 2.7 31.32 3.84 47.23 3.4 1.45-.06 2.24-1.74 1.31-2.85l-3.43-4.19-4.48-3.75 1.45-1.45 6.34 2.65c1.19.49 2.04.17 2.53-1.02a570.444 570.444 0 0 0 21.55-59.67l5.93-18.06 14.54-39.49v-.01Zm61.38 64.71c4.23 2.35 10.62-1.08 14.31-7.66 3.67-6.6 3.24-13.84-.97-16.2-4.23-2.35-10.62 1.08-14.31 7.66-3.67 6.6-3.24 13.84.97 16.2Zm-134.17 66.59c-.79 0-1.02 1.11-.29 1.4 4.36 1.8 22.89 8.26 24.22-.23.15-.96-.23-1.42-1.19-1.4l-22.74.23Z" fill="url(#t)"/><path d="M1402.93 337.401c.26.15.49.26.76.41.47.26.73.64.76 1.16 4.74 71.45-3.11 141.45-23.56 209.99-37.19-16.93-66.45-36.47-101.55-37.08l-.96-5.09-21.03-35.22c21.64 2.24 43.24 4.22 64.79 5.87 17.3 1.37 34.55-.41 42.78-17.59 10.38-6.86 17.25-16.17 20.59-27.92 8.4-29.55 14.22-61.07 17.42-94.54v.01Z" fill="url(#u)"/><path d="m322.34 373.03 2.3 1.57c6.43 17.8 15.27 34.4 26.58 49.79-8.78 4.39-17.65 5.67-26.58 3.78l-6.43-53.68 4.13-1.45v-.01Z" fill="url(#v)"/><path d="M541.85 368.691c-4.23-2.35-10.62 1.08-14.31 7.66-3.67 6.6-3.24 13.84.97 16.2 4.23 2.35 10.62-1.08 14.31-7.66 3.67-6.6 3.24-13.84-.97-16.2Z" fill="#FEFEFE"/><path d="M446.66 385.39a569.624 569.624 0 0 1-21.55 59.67c-.49 1.19-1.34 1.51-2.53 1.02l-6.34-2.65c-1.45-1.25-3.08-2.12-4.91-2.56-1.22-.32-1.45.06-.73 1.08 1.02 1.42 2.41 2.38 4.19 2.94l4.48 3.75-.7.96c-.44.61-1.02.9-1.77.84l-13.64-1.19-9.74-7.74c-1.13-.9-2.73-1.02-4.01-.32-28.53 15.82-57.23 9.13-88.03 10.09-1.42.03-2.5 1.74-3.2 5.15l-30.13-.52.61-26.78c10.85.49 13.76-7.33 23.26-6.78l32.72 5.82c8.93 1.89 17.8.61 26.58-3.78 22.22-7.44 40.63-16.08 64.3-2.15 1.25.73 1.86.38 1.83-1.05-.17-10.41-1.86-19.66 4.83-28.53 6.54-7.71 14.69-10.12 24.49-7.27h-.01Z" fill="#864443"/><path d="m695.53 402.47 77.8 25.81 35.04 13.17c.15 1.02-102.19 11.96-103.24 12.02-13.55.58-50.46 3.37-60.95-4.86-8.87-6.95-21.37-26.7-8.2-36.23 18.06-13.09 38-17.2 59.55-9.91Z" fill="#DDB6A8"/><path d="M77.22 405.07c-4.36 43.59-4.65 87.18-.9 130.84.81 16.34 2.7 31.93 5.64 46.73.67 3.23 2.65 4.83 5.96 4.77 17.36-.35 33.33-4.51 47.9-12.5a869.268 869.268 0 0 0 57.96-34.78l2.91 3.14c-37.02 24.31-70.14 47.81-109.55 49.55-1.16.06-1.57.64-1.19 1.75 9.28 27.22 26.58 45.34 51.91 54.38 18.96 6.75 44.96 4.1 66.04 3.9l-.12 16.81c0 1.08-.52 1.6-1.6 1.6-34.58-.2-69.13-.29-103.64-.26-4.04 0-7.91.73-11.63 2.18l-.58-1.05c-.38-.67-.96-1.11-1.74-1.25-6.19-1.16-11.31-3.98-15.41-8.46a4.285 4.285 0 0 1-1.13-2.88c-.15-13.38 1.22-26.23-2.59-39.17-15.91-53.95-31.93-107.86-48.13-161.72-12.91-42.95 24.98-58.19 59.91-53.57l-.02-.01Z" fill="url(#w)"/><path d="M1470.86 604.05c-6.34 15.85-8.75 32.16-7.21 48.91.67 7.3-1.48 12.33-6.49 15.15-2.09 1.16-6.89 2.44-14.37 3.81-69.5-1.37-133.25-1.4-191.21-.09-6.19.15-10.82 3.11-13.81 8.84l-13.7.61c-.79-5.67-.32-11.23 1.34-16.61 21.67-5.44 41.27-10.12 64.33-10.35 21.67-.2 43.3-.55 64.97-1.05 12.07-.26 21.64-1.77 28.7-4.51 27.31-10.53 46.12-34.84 55.81-61.74.35-.96.09-1.66-.81-2.12-38.01-20.3-76.51-39.58-115.51-57.81-13.87-6.48-28.38-10.12-43.56-10.85v-4.36c35.1.61 64.36 20.15 101.55 37.08l59.82 31.15c.73.38 1.63-.03 1.86-.81 15.94-56.82 1.16-117.89-9.83-174.28 23.64-1.77 40.02-1.72 49.15.17 30.27 6.31 37.49 31.76 29.75 58.66-13.46 46.88-27.05 93.61-40.77 140.2h-.01Z" fill="url(#x)"/><path d="M1225.42 429.62c24.89.93 49.58.79 74.04-.44l11.75-.29c15.38.81 28.76 7.62 42.17 14.77 5.79 3.81 9.63 9.19 11.55 16.2-8.23 17.19-25.47 18.96-42.78 17.59-21.55-1.66-43.16-3.64-64.79-5.87a20.693 20.693 0 0 0-7.74-6.83c-.81-7.82-5.73-10.24-14.74-7.27a275.603 275.603 0 0 0-67.61-.73l-73.57-8.35c-.87-.09-1.54-.52-1.98-1.25l-.79-1.31c1.63-3.46 3.98-6.25 7.04-8.35.93-.64.99-1.37.2-2.15-3.72-3.66-8.32-5.73-13.78-6.22-3.23-3.23-4.68-7.1-4.36-11.63 17.3 1.25 34.02 5.09 50.11 11.46.58.26.84.06.81-.61-.03-.26-.03-.55-.03-.84 0-.38-.17-.64-.55-.76-3.58-1.08-21.58-6.8-17.74-12.94.49-.81 1.42-1.28 2.38-1.22 17.59 1.16 34.37 5.21 50.28 12.16 17.42 7.56 41.59 6.4 60.14 4.89l-.01-.01Z" fill="#B76941"/><path d="m416.24 443.43-1.45 1.45c-1.77-.55-3.17-1.51-4.19-2.94-.73-1.02-.49-1.4.73-1.08 1.83.44 3.46 1.31 4.91 2.56v.01Z" fill="#79424B"/><path d="m403.16 449.25 13.64 1.19c.76.06 1.34-.23 1.77-.84l.7-.96 3.43 4.19c.93 1.11.15 2.79-1.31 2.85-15.91.44-31.64-.7-47.23-3.4a.978.978 0 0 1-.81-1.02c0-.52.41-.93.9-.96l12.91-1.02c1.02-.09 1.98-.35 2.91-.79 1.8-.87 3.55-.7 5.23.49.81.61 1.72.96 2.73 1.08 1.86.23 3.58-.03 5.12-.81h.01Z" fill="url(#y)"/><path d="M1099.44 467.52c30.47.79 60.83-3.91 91.17-5.97 6.29-.43 12.58-.77 18.86-1.25 6.36-.48 12.94-1.66 19.32-1.66 2.14-.21 4.04-.5 6.08-1.17 9.02-2.97 13.93-.55 14.74 7.27-45.72 4.27-91.34 7.56-136.88 9.92-4.57.23-10.35-.12-17.39-1.08-30.09-4.11-60.18-8.3-90.26-12.5-2.9-.4-5.8-.81-8.7-1.21-3.5-.49-7.03-.99-10.31-2.3-3.27-1.32-6.31-3.56-7.87-6.73l97.34 14.52c3.23.48 6.61 1.23 9.84 1.46 4.68.34 9.37.57 14.06.7Z" fill="url(#z)"/><path d="m394.35 459.141 22.74-.23c.96-.03 1.34.44 1.19 1.4-1.34 8.49-19.86 2.04-24.22.23-.73-.29-.49-1.4.29-1.4Z" fill="url(#A)"/><path d="m1167.26 456.75-73.57-8.35c-.87-.09-1.54-.52-1.98-1.25l-.79-1.31-6.54-16.72c-3.23-3.23-4.68-7.1-4.36-11.63-1.77-2.04-3.17-4.3-4.19-6.83-12.45-30.88-24.95-60.95-37.54-90.18a8.393 8.393 0 0 0-6.72-4.97l-109.55-12.65c-3.17 2.76-4.04 5.79-2.68 9.1 6.31 15.33 12.42 30.59 18.29 45.8 11.78 27.71 23.38 55.34 34.84 82.85 1.51 3.61 3.4 7.01 5.64 10.21 34.64 5.21 69.27 10.35 103.91 15.44 10.49 1.52 20.81 1.37 31.39 1.14 15.1-.34 30.15-1.63 45.18-2.98 14.87-1.33 29.75-2.18 44.63-3.29 10.4-.78 20.83-1.96 31.09-3.74-22.37-2.54-44.63-3.15-67.05-.64Z" fill="url(#B)"/><path d="M747.56 486.85c-1.05-.15-2.33-.73-3.84-1.74-.61-.41-.44-1.37.29-1.54 40.22-9.13 82.42-14.02 123.19-20.79 11.69-1.95 23.56-2.09 36.55-1.19 31.61 2.21 63.22 4.62 94.77 7.27 6.4.52 11.08 1.13 14.05 1.86 6.34 1.51 6.31 2.94-.09 4.27-33.91 7.01-67.7 13.61-101.35 19.8-13.35 2.47-26.78 3.14-40.31 2.06-40.92-3.23-82.65-4.39-123.27-10h.01Zm62.76-5.23c8.38.81 69.53 6.08 71.83 1.42.58-1.19.2-1.8-1.13-1.86-19.46-.73-38.94-1.48-58.39-2.33-4.39-.17-8.49-.03-12.33.47-.58.09-1.02.58-1.02 1.16s.47 1.08 1.05 1.13l-.01.01Z" fill="url(#C)"/><path d="M810.32 481.611c-.58-.06-1.05-.55-1.05-1.13 0-.58.44-1.08 1.02-1.16 3.84-.49 7.94-.64 12.33-.47 19.46.84 38.94 1.6 58.39 2.33 1.34.06 1.72.67 1.13 1.86-2.3 4.65-63.45-.61-71.83-1.42l.01-.01Z" fill="#FEFEFE"/><path d="m1278.38 506.8.96 5.09v4.36l-.26 20.3c-.03 1.02-.52 1.54-1.54 1.54l-53.57.81-26.67-.06-177.63.06c-45.1-1.37-90.24-1.4-135.34-.12l-150.38.12H621.26c-1.37-.55-2.36-.81-2.91-.81-28.73-.12-88.78-.12-180.13.03-1.6.03-5.55.52-11.81 1.51-1.86-.67-3.93-1.57-5.9-1.54-19.11.26-38.24.55-57.35.81H233.75l-29.05-.2c-1.05-.03-1.98.32-2.76 1.02l-3.81 3.32-1.45.23-2.91-3.14.87-1.13c.38-.49.03-1.22-.61-1.22l-32.05.41c-1.08.03-1.66-.52-1.72-1.6l-.79-15.24 1.69-14.54c69.36-.67 138.69-.61 208.05.2 17.77.2 42.6.12 63.37-.29 69.01-1.28 137.87.32 206.85 0 163.87-.81 327.8.49 491.67-.61 49.09-.32 98.18-.09 147.27.7l.01-.01Z" fill="url(#D)"/><path d="M1279.34 516.25c15.18.73 29.69 4.36 43.56 10.85 39 18.23 77.5 37.51 115.51 57.81.9.47 1.16 1.16.81 2.12-9.68 26.9-28.5 51.21-55.81 61.74-7.07 2.73-16.63 4.25-28.7 4.51-21.67.49-43.3.84-64.97 1.05-23.06.23-42.66 4.91-64.33 10.35-3.29-11.34-1.02-20.62-1.11-31.55-.26-31.41-.38-62.81-.35-94.22l53.57-.81c1.02 0 1.51-.52 1.54-1.54l.26-20.3.02-.01Z" fill="url(#E)"/><path d="m159.49 521.34.79 15.24c.06 1.08.64 1.63 1.72 1.6l32.05-.41c.64 0 .99.73.61 1.22l-.87 1.13a864.198 864.198 0 0 1-57.96 34.78c-14.57 8-30.53 12.16-47.9 12.5-3.32.06-5.29-1.54-5.96-4.77-2.94-14.8-4.83-30.39-5.64-46.73 29.55 2.7 57.26-2.15 83.17-14.57l-.01.01Z" fill="url(#F)"/><path d="M575.88 649.781c-.64-11-3.62-21.85-8.21-31.85-.21-.32-.38-.67-.54-1.02-.02-.03-.03-.06-.04-.09-.28-.61-.54-1.23-.89-1.81a.427.427 0 0 1-.03-.38c-44.17-30.37-90.37-53.94-139.73-75-1.86-.67-3.93-1.57-5.9-1.54-19.11.26-38.24.55-57.35.81l1.72 4.19c.32.79.87 1.4 1.63 1.77 38.53 19.98 76.74 40.45 114.7 61.45 14.51 8.06 26.43 13.17 34.58 28.24 11.57 21.49 5.55 45.8-6.75 66.13-40.68 67.09-82.24 127.96-124.67 182.63-.55.76-.84 1.6-.84 2.53v2.53l18.7 15.59c.9.76.96 1.57.23 2.47a55.877 55.877 0 0 0-5.91 8.79c.02-.02.04-.05.07-.07 1.89-1.39 3.7-2.87 5.5-4.37 5.71-4.76 11.49-9.73 18.55-12.23.01-1.06.39-1.99 1.1-2.79 28.6-31.9 55.79-65.09 81.1-99.66 14.21-19.42 28.38-39.9 40.69-60.96 4.05-6.93 8.34-14.22 12.44-21.74-.18-.09-.3-.26-.2-.51.84-2.13 1.68-4.26 2.53-6.39.73-1.81 1.45-3.63 2.25-5.42.73-1.64 1.61-3.22 2.49-4.78 1.81-3.22 3.76-6.41 5.12-9.86.13-.34.51-.38.74-.24 2.51-6.49 4.55-13.04 5.87-19.58 1.12-5.53 1.41-11.21 1.08-16.84h-.03Z" fill="url(#G)"/><path d="M233.76 538.9c.2 35.1.2 70.17 0 105.27 0 2.76.96 5.87 1.45 8.64-1.98 6.02-2.3 11.84-.99 17.48.26 1.25 1.05 1.8 2.33 1.72 17.94-1.31 88.06-3.08 99.6 9.28l14.42 75.87-11.28 5.55-13.64-77.04a3.55 3.55 0 0 0-3.49-2.94H235.3c-1.16 0-1.74.58-1.74 1.72l.32 336.35v7.27l-.9 21.81c-.03.96-.52 1.42-1.48 1.42l-25.1.12c-1.13 0-1.72-.58-1.72-1.72l-.12-23.09-.61-6.66c1.54-21.75.03-49.73 0-64.94-.17-89.98.15-180.04.99-270.22.03-1.54-.73-2.3-2.27-2.3l-111.41.35c-3.34 0-5.41 1.63-6.17 4.91-25.07 109-50.46 218.31-76.13 327.92-.26 1.08-.9 1.57-1.92 1.48l-6.66-7.39c-.67-3.52-.26-8.4 1.25-14.63 10.61-44.12 34.72-147.7 72.27-310.82 1.16-5.03 5.5-8.75 13-11.17 3.72-1.45 7.59-2.18 11.63-2.18 34.52-.03 69.07.06 103.64.26 1.08 0 1.6-.52 1.6-1.6l.12-16.81c.41-20.33.7-52.55.84-96.61.03-5.93-2.18-10.32-6.6-13.2l3.81-3.32c.79-.7 1.72-1.05 2.76-1.02l29.05.2.01.04Z" fill="#FEFEFE"/><path d="M515.79 634.55c-8.14-15.06-20.07-20.18-34.58-28.24-37.95-21-76.16-41.47-114.7-61.45-.76-.38-1.31-.99-1.63-1.77l-1.72-4.19H233.75c.2 35.1.2 70.17 0 105.27 0 2.76.96 5.87 1.45 8.64 13.32.17 26.87-.52 39.64 1.63 29.63 5.03 58.1 13.96 85.41 26.73l21.96 8.29c.96.38 1.22 1.02.76 1.92l-32.4 65.78-.07.04c-.56 1.66-1.44 3.2-2.34 4.69-1.04 1.72-2.18 3.4-3.01 5.24-.98 2.18-1.88 4.4-2.81 6.6-.5 1.18-.99 2.36-1.47 3.54-.33 1.92-.93 3.91-1.93 6.07-13.93 30.39-25.15 61.65-33.62 93.79 19.31 9.74 36.47 20.04 51.44 30.91 1.83 1.31 3.55 1.16 5.15-.44l17.8-17.94c.67-.67 1.48-1.08 2.44-1.16l1.37-.12v-2.53c0-.93.29-1.77.84-2.53 42.43-54.67 83.99-115.54 124.67-182.63 12.3-20.33 18.32-44.64 6.75-66.13l.01-.01Z" fill="url(#H)"/><path d="M344.53 766.24c1.39-2.87 3.54-5.47 4.75-8.45l-9.98 4.92c1.1 4.2 1.94 7.75 1.88 11.38.21-.49.41-.99.62-1.48.9-2.12 1.73-4.29 2.73-6.37Z" fill="#FEFEFE"/><path d="M650.51 617.4c5.35-6.88-4.54 3.42 1.67-2.71 28.51-28.16 57.85-50.92 89.09-76.01-35.15-.22-76.98.22-112.13 0-2.56-.02-5.22 0-7.53 1.09-.02 0-.04.02-.06.03-2.25 1.09-3.89 3.11-5.44 5.08a556.175 556.175 0 0 0-47.75 71.28c0 .04-.02.08-.03.12 0 .09-.01.19 0 .28.01.07.03.15.06.21-.01-.03-.03-.06-.04-.09.04.07.06.15.06.24l-.02.13s-.03.08-.06.11c.05.1.09.21.14.31.06.1.12.19.19.28.06.08.07.17.06.26.36.79.71 1.58 1.04 2.38 4.36 10.36 7.04 21.58 7.17 32.85.13 11.76-3.43 22.5-8 32.97.15.09.24.26.15.49-.75 1.92-1.67 3.75-2.66 5.56-1.75 3.19-3.75 6.28-5.18 9.64-1.02 2.4-2 4.82-2.96 7.24.02-.03.03-.06.05-.09-.06.13-.11.26-.17.39l-1.47 3.72c-.04.11-.12.18-.2.23-1.12 2.75-2.16 5.52-3.05 8.33-6 18.89-6.06 39.08-6.07 58.9l-.06 128.88c0 1.6.04 3.31.99 4.6 1 1.35 2.74 1.87 4.37 2.26a79.3 79.3 0 0 0 22.04 2.05c1.53-.07 3.17-.23 4.38-1.18 1.28-1 1.8-2.66 2.24-4.23.99-3.48 1.91-6.97 2.77-10.47-1.03 4.98-2.08 9.96-3.2 14.94 2.41.41 4.04.23 5.06-2.24 26.58-65.4 45.31-133.02 56.21-202.78.11-.65 2.59-4.42 3-4.87-.92-5.97-1.5-8.14-2.6-14.08-.79-4.3-2.04-8.24-2.44-12.6-.38-4.21-1.05-9.13-1.04-13.36 0-8.5.46-15.84 2.3-24.15.75-3.4 1.92-6.62 2.91-9.95 1-3.39 2.14-7.75 3.36-11.07.55-1.5 2.79-5.18 3.41-6.68-3.53 3.66-10.56 8.9-14.01 12.64-2.59 2.8 17.08-14.82 13.45-10.89v-.04Z" fill="url(#I)"/><path d="m1019.67 538.9 177.63-.06c-2.06 44.12-2.36 88.2-.9 132.26.03.99-.49 3.14-1.51 6.43a250.087 250.087 0 0 1-57.61 10.18c-1.05.06-1.51.61-1.42 1.63 3.08 39.4-5.15 81.51-9.74 120.74-2.36 20.24-1.66 40.48-1.86 60.95l-3.72 10.79c-.32.9-.9 1.13-1.75.7-1.95-.99-3.75-.47-5.44 1.6l-50.05.12c-4.13.44-6.25-1.25-6.95-5.41-1.48-8.87-2.85-17.77-4.07-26.7l-14.89-146.25c-.06-.61-.87-.79-1.16-.26a5274.214 5274.214 0 0 0-49.12 87.82c-1.57 2.88-4.28 3.02-8.14.41a301.756 301.756 0 0 0-45.69-19.51l-4.8-2.97c-.9-.55-1.22-1.34-.9-2.36 17.88-61.36 37.31-122.2 58.25-182.48 6.69-19.22 17.97-35.1 33.85-47.63h-.01Z" fill="url(#J)"/><path d="m1197.3 538.85 26.67.06c-.03 31.41.09 62.81.35 94.22.09 10.93-2.18 20.21 1.11 31.55-1.66 5.38-2.12 10.93-1.34 16.61l-.06 75.15c0 .15.06.26.2.32.23.09.47.15.7.23.29.09.47 0 .49-.32 2.91-25.53 7.04-50.86 12.36-75.99 3-5.73 7.62-8.7 13.81-8.84 57.96-1.31 121.7-1.28 191.21.09 6.78 5.38 10.88 8.81 12.82 17.8 21.75 100.59 43.21 201.27 64.36 302.01l3.64 20.36c-1.66 3.34-3.9 6.25-6.78 8.72l-3.64-1.45-6.72-31.79c-20.21-98.61-40.97-197.49-62.29-296.63-.96-4.45-4.39-8.29-8.67-8.38-42.31-1.05-101.41-.87-177.28.55-5.29.12-10.35-.06-11.23 5.41-6.4 40.6-12.77 81.19-19.08 121.79-4.83 31.12-3.46 62.2-3.14 93.44v115.6l-.03 8.49-1.08 22.1c-.06 1.02-.61 1.54-1.63 1.54l-24.43-.2c-1.22 0-1.83-.61-1.86-1.83l-.26-22.36-.12-6.25c0-1.25-.61-1.69-1.8-1.34-3.34 1.02-6.6.73-9.74-.87 5.96-41.7 12.45-82.24 11.63-124.32l-.61-216.77c1.02-3.29 1.54-5.44 1.51-6.43-1.45-44.06-1.16-88.14.9-132.26l.03-.01Z" fill="#FEFEFE"/><path d="m196.68 543.27 1.45-.23c4.42 2.88 6.63 7.27 6.6 13.2-.15 44.06-.44 76.28-.84 96.61-21.08.2-47.08 2.85-66.04-3.9-25.33-9.04-42.63-27.16-51.91-54.38-.38-1.11.03-1.69 1.19-1.75 39.4-1.74 72.53-25.24 109.55-49.55Z" fill="url(#K)"/><path d="m850.89 646.391 12.5 2.59c1.02.2 1.72.81 2.04 1.83 1.57 4.97 1.28 9.77-.87 14.39a3.8 3.8 0 0 1-2.12 2.01l-15.06 5.96c-12.5-4.45-32.28-1.98-45.8-1.95l-3.64-.06c-2.36-.03-2.44-.52-.29-1.48l53.25-23.29h-.01Z" fill="url(#L)"/><path d="M235.22 652.811c13.32.17 26.87-.52 39.64 1.63 29.63 5.03 58.1 13.96 85.41 26.73-7.04.58-13.96-.03-20.79-1.8-1.98-.49-2.82.03-3.32 1.92-11.55-12.36-81.66-10.59-99.6-9.28-1.28.09-2.06-.47-2.33-1.72-1.31-5.64-.99-11.46.99-17.48Z" fill="url(#M)"/><path d="m884.33 538.79-150.38.12c-2.24 7.42-7.68 8.11-12.21 11.66-25.67 19.92-49.78 41.52-72.38 64.76-1.44 3.14-2.63 6.41-3.72 9.62-1.1 3.22-2.08 6.49-3.01 9.76-1.02 3.57-1.98 7.14-2.64 10.8-1.5 8.34-1.88 16.88-1.72 25.34.08 4.24.29 8.48.83 12.69.55 4.39 1.37 8.73 2.21 13.07.87 4.48 1.45 5.82 2.16 10.33l.93 2.69c.44 68.37 13.64 135.17 18.93 203.1a3.41 3.41 0 0 0 2.59 3.05c11.49 2.88 23.03 3.43 34.58 1.66 2.44-.12 3.93-1.34 4.59-3.78a1371.01 1371.01 0 0 0 36.12-175.79l5.5-48.51c.15-1.08.73-1.72 1.77-1.98l20.21-4.91c9.92-6.86 20.85-10.61 32.86-11.25l-3.64-.06c-2.36-.03-2.44-.52-.29-1.48l53.25-23.29c40.45-24.84 45.98-63.98 33.44-107.6h.02ZM648.56 660.46c.14-.14.32-.22.5-.25-.19.03-.37.11-.5.25Z" fill="url(#N)"/><path d="M801.57 671.22c13.52-.03 33.3-2.5 45.8 1.95 6.02 3.14 9.39 6.57 10.18 10.29 9.25 44.84 18.5 89.69 27.74 134.5l3.52 18.06-9.34 8.11-10.91-45.6c-7.1-36.21-14.13-72.3-21.08-108.24-1.05-5.35-4.36-7.76-9.54-7.71-22.97.23-46.06.2-69.24-.12 9.92-6.86 20.85-10.61 32.86-11.25l.01.01Z" fill="#FEFEFE"/><path d="M933.27 774.34c15.79 5.26 31 11.75 45.69 19.51l-1.16.44c-.73.29-1.28.79-1.63 1.51l-13.32 27.98c-6.78 12.48-12.21 25.3-16.31 38.42l-47.14-5.44c-1.08-.12-1.74-.7-1.95-1.77l-2.7-13.03c6.69-3.9 11.08-14.34 15.03-21.08 9.28-14.77 17.13-30.27 23.5-46.53l-.01-.01Z" fill="#B76941"/><path d="M888.81 836.021c3.66.23 5.64 2.21 5.93 5.93l2.7 13.029c.2 1.08.87 1.66 1.95 1.77l47.14 5.44c2.91 14.57 2.09 28.701-2.44 42.341a6.087 6.087 0 0 1-6.11 4.159l-35.36-1.919-10.18-1.451c-32.98-2.38-58.92-5.32-87.27-16.87a4.487 4.487 0 0 1-2.82-4.1c-.32-22.28 16.43-22.159 32.63-17.769 11.55 3.11 35.39-12.211 44.49-22.451l9.34-8.109Z" fill="url(#O)"/><path d="M305.33 877.12c19.31 9.74 36.47 20.04 51.44 30.91 1.83 1.31 3.55 1.16 5.15-.44l17.8-17.94c.67-.67 1.48-1.08 2.44-1.16l1.37-.12 18.7 15.59c.9.76.96 1.57.23 2.47-6.31 7.71-10.24 16.49-11.78 26.41h-.49a5.23 5.23 0 0 1-.15-.73c-.2-1.66-.96-1.98-2.27-.96l-4.36 3.43c-10.85-3.11-22.04-5-33.59-5.64-.96-.06-1.69.32-2.21 1.11l-10 15.15c-1.86-2.73-4.01-3.02-6.43-.84h-.73c-.47-1.83-1.66-2.7-3.61-2.62-.49.03-.87.23-1.13.67-.15.23-.29.44-.47.61l-48.59-9.57c13.26-16.92 22.83-35.71 28.67-56.33h.01Z" fill="#864443"/><path d="m1113.34 884.12 1.02 83.84c.03.79.35 1.42.99 1.86l1.02.7-45.19.64c-1.08.03-1.72-.49-1.95-1.54l-3.14-14.25c4.57-20.88-.49-49.73-2.79-71.13l50.05-.12h-.01Z" fill="#B76941"/><path d="m892.44 905.32 10.18 1.45L926 1018.62c-3.69 1.72-7.62 2.15-11.75 1.34-7.18-35.07-14.22-70.17-21.17-105.27-.61-3.11-.84-6.22-.64-9.36v-.01Z" fill="#FEFEFE"/><path d="M579.82 943.62h-34.17l2.41-23.41c.15-1.42.84-1.8 2.09-1.08 9.34 5.29 19.66 3.58 29.9 2.88 1.11-.09 1.6.44 1.51 1.54l-1.74 20.07ZM699.78 943.62a188.37 188.37 0 0 1-34.9 0l1.45-22.65c.06-1.05.58-1.419 1.6-1.159 10.47 2.85 21.08 3.489 31.87 1.889.76-.12 1.4.52 1.34 1.28l-1.37 20.65.01-.01Z" fill="#F5C0AA"/><path d="M383.41 934.58c10 14.69 20.65 28.53 31.93 41.59.61.73 1.05 1.57 1.31 2.53.99 3.93 2.97 4.83 5.96 2.68l3.08-2.85c15.62 9.48 32.48 7.71 35.36 30.36-19.08 1.31-50.22 2.65-64.44-9.28-.96-1.83-2.33-3.17-4.1-3.95-1.31-.61-1.6-.29-.9.96 1.02 1.83 2.41 3.37 4.16 4.57 1.89 2.94 2.65 6.11 2.21 9.51-.12.87-.61 1.34-1.48 1.42-22.74 1.72-42.28-.96-58.63-8.03-17.77-7.68-42.57-22.16-74.48-43.42 2.7-10.93 7.12-20.01 13.26-27.22l48.59 9.57c.41 1.89 1.16 3.61 2.3 5.12 7.44 10.18 22.8 26.93 26 38.59.38 1.31 1.02 1.48 1.98.52l1.05-1.05c.81-.81.9-2.12.2-3.05-3.52-4.71-28.85-36.47-26.32-38.79h.73a238.401 238.401 0 0 1 31.38 40.1c.49.81.9 1.08 1.89.76 1.02-.32 1.19-.9.55-1.74l-26.61-35.54a3.19 3.19 0 0 1-.67-1.66l-.12-1.08 10-15.15c.52-.79 1.25-1.16 2.21-1.11 11.55.64 22.74 2.53 33.59 5.64h.01Z" fill="#081232"/><path d="m390.19 932.83-.84 1.34c-.44.15-.76.41-1.02.73-.61.76-.64 1.51-.03 2.3l34.32 44.17c-3 2.15-4.97 1.25-5.96-2.68-.26-.96-.7-1.8-1.31-2.53a456.757 456.757 0 0 1-31.93-41.59l4.36-3.43c1.31-1.02 2.06-.7 2.27.96.03.26.09.49.15.73h-.01Z" fill="url(#P)"/><path d="M330.46 944.35c-2.53 2.33 22.8 34.08 26.32 38.79.7.93.61 2.24-.2 3.05l-1.05 1.05c-.96.96-1.6.79-1.98-.52-3.2-11.66-18.55-28.41-26-38.59-1.13-1.51-1.89-3.23-2.3-5.12.17-.17.32-.38.47-.61.26-.44.64-.64 1.13-.67 1.95-.09 3.14.78 3.61 2.62Z" fill="url(#Q)"/><path d="m337.61 945.19.12 1.08c.06.61.29 1.16.67 1.66l26.61 35.54c.64.84.47 1.42-.55 1.74-.99.32-1.4.06-1.89-.76a237.379 237.379 0 0 0-31.38-40.1c2.41-2.18 4.57-1.89 6.43.84h-.01Z" fill="url(#R)"/><path d="M545.65 943.62h34.17c3 .03 4.39 1.51 4.22 4.48-.55 8.64-.06 17.42 1.48 26.41-6.72 9.54-14.77 17.33-24.11 23.35-10.76 6.95-40.22 4.27-53.57 4.65a529.06 529.06 0 0 1 29.34-57.46c.49-.84 1.25-1.25 2.21-1.28l6.25-.15h.01Z" fill="url(#S)"/><path d="M664.89 943.62a188.37 188.37 0 0 0 34.9 0c9.31 1.57 6.83 24.02 6.66 30.65-16.52 34.14-44 27.34-75 28.24 7.88-19.4 16.9-38.24 27.02-56.53.47-.79 1.13-1.28 2.04-1.48l4.39-.87-.01-.01Z" fill="url(#T)"/><path d="m1066.09 955.37 3.14 14.25c.23 1.05.87 1.57 1.95 1.54l45.19-.64 6.54.23c8.06 8.93 5.21 38.3 2.62 49.41-2.01.26-3.69.41-5 .47-43.42 2.04-85.79 2.21-129.18-1.02l-13.73-4.97a4.548 4.548 0 0 1-2.97-3.87c-1.02-11.63 3.81-18.96 14.51-21.96.9-.26 1.8-.23 2.7.12 4.83 1.8 9.71 2.85 14.66 3.14 25.13 1.45 43.48-38.15 59.56-36.7h.01Z" fill="url(#U)"/><path d="M263.4 960.66c31.9 21.26 56.71 35.74 74.48 43.42 16.34 7.07 35.89 9.74 58.63 8.03.87-.09 1.37-.55 1.48-1.42.44-3.4-.32-6.57-2.21-9.51l.84-1.57c14.22 11.92 45.37 10.59 64.44 9.28l-1.19 11.81c-3.17.84-5.9 1.31-8.17 1.34-12.82.2-42.49.49-88.99.9-4.8.03-10.15-.38-16.05-1.22-5.5-.81-10.85-1.4-16.11-1.77a4808.547 4808.547 0 0 0-58.74-34.29 66.759 66.759 0 0 1-11.17-8c-.79-.67-1.19-1.54-1.22-2.56-.26-6.31 1.08-11.11 3.98-14.42v-.02Z" fill="url(#V)"/><path d="M585.52 974.51c-3.17 17.83-13.55 29.43-31.15 34.78l-52.23-.12c.06-3.72 1.95-5.93 5.7-6.66 13.35-.38 42.81 2.3 53.57-4.65 9.34-6.02 17.39-13.81 24.11-23.35ZM706.44 974.271c7.15 14.39-17.83 30.999-28.47 35.009h-49.44c-.2-.09-.47-.17-.76-.23-.96-.12-1.45-.67-1.48-1.63-.15-3.08 1.57-4.71 5.15-4.91 31-.9 58.48 5.9 75-28.239Z" fill="#021A39"/><path d="m396.62 999.6-.84 1.57a13.306 13.306 0 0 1-4.16-4.57c-.7-1.25-.41-1.57.9-.96 1.77.79 3.14 2.12 4.1 3.95v.01Z" fill="#7EA5C6"/><path d="m502.15 1009.17 52.23.12c4.8 3.98-7.44 8.26-9.45 9.22-14.19 3.2-28.5 3.69-42.89 1.45l.12-10.79h-.01ZM628.54 1009.29h49.44c.52.73.79 1.57.76 2.5-.03.96-.44 1.66-1.28 2.09l-9.65 5.35c-13.78 2.01-27.6 2.27-41.44.73-.2-3.75.52-7.33 2.18-10.67h-.01Z" fill="#FEFEFE"/><path d="m1036.22 705.631 43.75-98.55s13.61-22.83 69.3-23.94" fill="url(#W)"/><path d="M1007.52 400.724c3.49-1.892 2.78-9.929-1.57-17.952-4.36-8.023-10.716-12.993-14.201-11.101-3.484 1.892-2.778 9.93 1.578 17.953s10.713 12.992 14.193 11.1Z" fill="#FEFEFE"/><path d="m746.072 310.783-44.243-3.482a9.12 9.12 0 0 0-9.808 8.377l-7.841 99.632a9.12 9.12 0 0 0 8.376 9.807l44.244 3.482a9.12 9.12 0 0 0 9.807-8.376l7.841-99.632a9.121 9.121 0 0 0-8.376-9.808Z" fill="url(#X)"/><path d="m747.195 314.232-47.015-3.7a4.7 4.7 0 0 0-5.054 4.317l-8.009 101.765a4.699 4.699 0 0 0 4.316 5.054l47.015 3.7a4.699 4.699 0 0 0 5.054-4.316l8.01-101.766a4.702 4.702 0 0 0-4.317-5.054Z" fill="#FEFEFE"/><path d="M706.33 329.351a6.42 6.42 0 1 0-.002-12.842 6.42 6.42 0 0 0 .002 12.842Z" fill="url(#Y)"/><path d="M706.33 326.761a3.83 3.83 0 1 0 0-7.66 3.83 3.83 0 0 0 0 7.66Z" fill="url(#Z)"/><path d="M720.87 329.33a4.61 4.61 0 1 0 0-9.22 4.61 4.61 0 0 0 0 9.22Z" fill="url(#aa)"/><path d="M765.3 439.16c7.03-7.28 11.44-15.75 13.17-25.4 31.73 1.97 63.04-.66 93.93-7.86 21.47-8.73 50.13-1.88 64.5 17.65.61.82.92 1.75.9 2.77-.48 24.08-15.94 26.39-35.89 24.63-45.53-4.03-91.07-7.97-136.62-11.79h.01Z" fill="#F5C0AA"/><path d="M784.37 441.65c.23-1.49-1.53.94-1.36-.56 1.03-8.81 1.24-17.74.54-26.59-11.09-.99-27.67-2.62-29.13-3.7-1.87-1.38.57-3.2-13.74-14.34-4.13-3.22-11.63-4.42-11.63-4.42s-9.24-1.41-10.16.52c-.92 1.93.4 4.35 1.97 5.22 1.58.87 5.31 1.02 6.89 1.88 1.58.87 3.25 6.06 3.09 8-.15 1.95-27.26-3.06-27.26-3.06s-7.71-1.78-10.22-2.56c-2.15-.66-8.42-3.13-8.42-3.13s-9.12-3.05-9.9-.36c-.46 1.59 6.88 6.38 14.72 9.92 8.44 3.81 17.44 6.35 17.29 7.21-.34 2.02-15.28-.4-15.28-.4s-6.8-2.65-10.03-2.89c-3.91-2.28-11.22-4.22-11.93-.88-.13.62 9.08 5.92 9.08 5.92s6.52 2.34 9.57 3.64c5.37 2.29 13.92 3.33 17.67 4.61 3.12 1.07 1.81 1.66 1.93 1.99.09.26-4.22-.57-10.16-1.6-2.99-.52-6.46-.49-9.85-1.61-3.14-1.03-7.65-1.86-10.38-2.3-7.72-1.24-7.07 3.53-.04 5.79 2.68.86 5.6 1.77 8.56 2.69 11.53 3.56 22.71 4.49 22.77 5.7.08 1.58-20.25-1.27-20.25-1.27s-11.33 1.4-.95 4.72c12.05 3.85 21.95 4.45 22.39 4.45 2.97.01 13.5 3.02 23.78 1.53 10.28-1.49 26.54-4.37 26.54-4.37 2.61.44 12.66-1.96 23.91.21l-.01.04Z" fill="#F5C0AA"/><path d="M726.66 194.1c-1.73-2.02-3.74-4.94-3.91-7.66 2.9 2.15 5.19 5.18 8.17 7.35 14.5 10.57 35.96 1.75 46.86-9.99.26-.28.51-.56.75-.84.73-.84 1.25-.73 1.54.35.73 2.59.38 4.89-1.05 6.86-5.8 8.04-17.41 13.96-27.18 14.3-8.31.29-19.19-3.38-25.2-10.37h.02Z" fill="#D8AB9C"/><defs><linearGradient id="a" x1="704.94" y1="108.75" x2="836.14" y2="108.75" gradientUnits="userSpaceOnUse"><stop offset=".27" stop-color="#FF7A4E"/><stop offset="1" stop-color="#E0CC95"/></linearGradient><linearGradient id="b" x1="152.17" y1="267.69" x2="283.2" y2="267.69" gradientUnits="userSpaceOnUse"><stop offset=".27" stop-color="#FF7A4E"/><stop offset="1" stop-color="#E0CC95"/></linearGradient><linearGradient id="c" x1="702.15" y1="188.96" x2="739.67" y2="188.96" gradientUnits="userSpaceOnUse"><stop offset=".27" stop-color="#FF7A4E"/><stop offset="1" stop-color="#E0CC95"/></linearGradient><linearGradient id="d" x1="73.71" y1="354.56" x2="292.12" y2="354.56" gradientUnits="userSpaceOnUse"><stop offset=".27" stop-color="#FF7A4E"/><stop offset="1" stop-color="#E0CC95"/></linearGradient><linearGradient id="e" x1="304.75" y1="299.77" x2="422.18" y2="299.77" gradientUnits="userSpaceOnUse"><stop offset=".27" stop-color="#FF7A4E"/><stop offset="1" stop-color="#E0CC95"/></linearGradient><linearGradient id="f" x1="260.49" y1="204.41" x2="306.95" y2="204.41" gradientUnits="userSpaceOnUse"><stop stop-color="#8ED7C6"/><stop offset="1" stop-color="#56ADAB"/></linearGradient><linearGradient id="g" x1="716.51" y1="224.09" x2="819.02" y2="224.09" gradientUnits="userSpaceOnUse"><stop stop-color="#056671"/><stop offset=".26" stop-color="#047273"/><stop offset=".74" stop-color="#01937B"/><stop offset="1" stop-color="#00A880"/></linearGradient><linearGradient id="h" x1="254.23" y1="301.1" x2="313.56" y2="301.1" gradientUnits="userSpaceOnUse"><stop stop-color="#8ED7C6"/><stop offset="1" stop-color="#56ADAB"/></linearGradient><linearGradient id="i" x1="1216.41" y1="325.89" x2="1374.93" y2="325.89" gradientUnits="userSpaceOnUse"><stop stop-color="#8ED7C6"/><stop offset="1" stop-color="#56ADAB"/></linearGradient><linearGradient id="j" x1="1342.47" y1="340.53" x2="1412.15" y2="340.53" gradientUnits="userSpaceOnUse"><stop stop-color="#008897"/><stop offset=".59" stop-color="#009E87"/><stop offset="1" stop-color="#00A880"/></linearGradient><linearGradient id="k" x1="621.16" y1="320" x2="945.66" y2="320" gradientUnits="userSpaceOnUse"><stop stop-color="#8ED7C6"/><stop offset="1" stop-color="#56ADAB"/></linearGradient><linearGradient id="l" x1="350.09" y1="320.74" x2="452.6" y2="320.74" gradientUnits="userSpaceOnUse"><stop offset=".27" stop-color="#FF7A4E"/><stop offset="1" stop-color="#E0CC95"/></linearGradient><linearGradient id="m" x1="263.54" y1="351.73" x2="324.64" y2="351.73" gradientUnits="userSpaceOnUse"><stop stop-color="#8ED7C6"/><stop offset="1" stop-color="#56ADAB"/></linearGradient><linearGradient id="n" x1="467.14" y1="361.73" x2="633.51" y2="361.73" gradientUnits="userSpaceOnUse"><stop stop-color="#D7D7C6"/><stop offset="1" stop-color="#86C3AB"/></linearGradient><linearGradient id="o" x1="678.69" y1="324.58" x2="865.07" y2="324.58" gradientUnits="userSpaceOnUse"><stop stop-color="#056671"/><stop offset=".26" stop-color="#047273"/><stop offset=".74" stop-color="#01937B"/><stop offset="1" stop-color="#00A880"/></linearGradient><linearGradient id="p" x1="1298.83" y1="369.46" x2="1314.36" y2="369.46" gradientUnits="userSpaceOnUse"><stop stop-color="#008897"/><stop offset=".59" stop-color="#009E87"/><stop offset="1" stop-color="#00A880"/></linearGradient><linearGradient id="q" x1="1380.89" y1="450.46" x2="1449.57" y2="450.46" gradientUnits="userSpaceOnUse"><stop stop-color="#008897"/><stop offset=".59" stop-color="#009E87"/><stop offset="1" stop-color="#00A880"/></linearGradient><linearGradient id="r" x1="621.29" y1="406.07" x2="695.53" y2="406.07" gradientUnits="userSpaceOnUse"><stop stop-color="#056671"/><stop offset=".26" stop-color="#047273"/><stop offset=".74" stop-color="#01937B"/><stop offset="1" stop-color="#00A880"/></linearGradient><linearGradient id="s" x1="866.9" y1="409.37" x2="941.55" y2="409.37" gradientUnits="userSpaceOnUse"><stop stop-color="#056671"/><stop offset=".26" stop-color="#047273"/><stop offset=".74" stop-color="#01937B"/><stop offset="1" stop-color="#00A880"/></linearGradient><linearGradient id="t" x1="298.18" y1="397.65" x2="592.8" y2="397.65" gradientUnits="userSpaceOnUse"><stop stop-color="#D7D7C6"/><stop offset="1" stop-color="#86C3AB"/></linearGradient><linearGradient id="u" x1="1257.35" y1="443.181" x2="1405.78" y2="443.181" gradientUnits="userSpaceOnUse"><stop stop-color="#8ED7C6"/><stop offset="1" stop-color="#56ADAB"/></linearGradient><linearGradient id="v" x1="318.21" y1="401.02" x2="351.22" y2="401.02" gradientUnits="userSpaceOnUse"><stop offset=".27" stop-color="#FF7A4E"/><stop offset="1" stop-color="#E0CC95"/></linearGradient><linearGradient id="w" x1="14.73" y1="538.72" x2="203.9" y2="538.72" gradientUnits="userSpaceOnUse"><stop stop-color="#8ED7C6"/><stop offset="1" stop-color="#56ADAB"/></linearGradient><linearGradient id="x" x1="1223.71" y1="542.51" x2="1514.51" y2="542.51" gradientUnits="userSpaceOnUse"><stop offset=".64" stop-color="#FF7A4E"/><stop offset="1" stop-color="#E0CC95"/></linearGradient><linearGradient id="y" x1="373.35" y1="451.85" x2="423.1" y2="451.85" gradientUnits="userSpaceOnUse"><stop stop-color="#D7D7C6"/><stop offset="1" stop-color="#86C3AB"/></linearGradient><linearGradient id="z" x1="978.2" y1="462.79" x2="1249.62" y2="462.79" gradientUnits="userSpaceOnUse"><stop stop-color="#8ED7C6"/><stop offset="1" stop-color="#56ADAB"/></linearGradient><linearGradient id="A" x1="393.62" y1="461.741" x2="418.31" y2="461.741" gradientUnits="userSpaceOnUse"><stop stop-color="#D7D7C6"/><stop offset="1" stop-color="#86C3AB"/></linearGradient><linearGradient id="B" x1="918.72" y1="385.2" x2="1234.31" y2="385.2" gradientUnits="userSpaceOnUse"><stop stop-color="#D7D7C6"/><stop offset="1" stop-color="#86C3AB"/></linearGradient><linearGradient id="C" x1="743.35" y1="479.2" x2="1017.31" y2="479.2" gradientUnits="userSpaceOnUse"><stop offset=".27" stop-color="#FF7A4E"/><stop offset="1" stop-color="#E0CC95"/></linearGradient><linearGradient id="D" x1="159.49" y1="524.61" x2="1279.34" y2="524.61" gradientUnits="userSpaceOnUse"><stop offset=".64" stop-color="#FF7A4E"/><stop offset="1" stop-color="#E0CC95"/></linearGradient><linearGradient id="E" x1="1223.63" y1="590.46" x2="1439.37" y2="590.46" gradientUnits="userSpaceOnUse"><stop stop-color="#056671"/><stop offset=".26" stop-color="#047273"/><stop offset=".74" stop-color="#01937B"/><stop offset="1" stop-color="#00A880"/></linearGradient><linearGradient id="F" x1="76.32" y1="554.38" x2="194.8" y2="554.38" gradientUnits="userSpaceOnUse"><stop offset=".27" stop-color="#FF7A4E"/><stop offset="1" stop-color="#E0CC95"/></linearGradient><linearGradient id="G" x1="363.17" y1="726.661" x2="576" y2="726.661" gradientUnits="userSpaceOnUse"><stop stop-color="#056671"/><stop offset=".26" stop-color="#047273"/><stop offset=".74" stop-color="#01937B"/><stop offset="1" stop-color="#00A880"/></linearGradient><linearGradient id="H" x1="233.76" y1="723.91" x2="521.98" y2="723.91" gradientUnits="userSpaceOnUse"><stop stop-color="#008897"/><stop offset=".59" stop-color="#009E87"/><stop offset="1" stop-color="#00A880"/></linearGradient><linearGradient id="I" x1="547.33" y1="728.55" x2="1447.83" y2="728.55" gradientUnits="userSpaceOnUse"><stop offset=".27" stop-color="#FF7A4E"/><stop offset="1" stop-color="#E0CC95"/></linearGradient><linearGradient id="J" x1="927.45" y1="711.58" x2="1197.3" y2="711.58" gradientUnits="userSpaceOnUse"><stop stop-color="#056671"/><stop offset=".26" stop-color="#047273"/><stop offset=".74" stop-color="#01937B"/><stop offset="1" stop-color="#00A880"/></linearGradient><linearGradient id="K" x1="85.81" y1="598.28" x2="204.74" y2="598.28" gradientUnits="userSpaceOnUse"><stop stop-color="#008897"/><stop offset=".59" stop-color="#009E87"/><stop offset="1" stop-color="#00A880"/></linearGradient><linearGradient id="L" x1="796.09" y1="659.781" x2="866.42" y2="659.781" gradientUnits="userSpaceOnUse"><stop stop-color="#056671"/><stop offset=".26" stop-color="#047273"/><stop offset=".74" stop-color="#01937B"/><stop offset="1" stop-color="#00A880"/></linearGradient><linearGradient id="M" x1="233.44" y1="667.101" x2="360.26" y2="667.101" gradientUnits="userSpaceOnUse"><stop stop-color="#8ED7C6"/><stop offset="1" stop-color="#56ADAB"/></linearGradient><linearGradient id="N" x1="638.25" y1="728.63" x2="890.28" y2="728.63" gradientUnits="userSpaceOnUse"><stop offset=".27" stop-color="#FF7A4E"/><stop offset="1" stop-color="#E0CC95"/></linearGradient><linearGradient id="O" x1="802.35" y1="872.37" x2="948.24" y2="872.37" gradientUnits="userSpaceOnUse"><stop stop-color="#D02801"/><stop offset="1" stop-color="#FF7F0A"/></linearGradient><linearGradient id="P" x1="383.41" y1="956.54" x2="422.61" y2="956.54" gradientUnits="userSpaceOnUse"><stop stop-color="#008897"/><stop offset=".59" stop-color="#009E87"/><stop offset="1" stop-color="#00A880"/></linearGradient><linearGradient id="Q" x1="325.25" y1="964.79" x2="357.24" y2="964.79" gradientUnits="userSpaceOnUse"><stop stop-color="#008897"/><stop offset=".59" stop-color="#009E87"/><stop offset="1" stop-color="#00A880"/></linearGradient><linearGradient id="R" x1="331.18" y1="964.12" x2="365.38" y2="964.12" gradientUnits="userSpaceOnUse"><stop stop-color="#008897"/><stop offset=".59" stop-color="#009E87"/><stop offset="1" stop-color="#00A880"/></linearGradient><linearGradient id="S" x1="507.85" y1="973.17" x2="585.52" y2="973.17" gradientUnits="userSpaceOnUse"><stop stop-color="#8ED7C6"/><stop offset="1" stop-color="#56ADAB"/></linearGradient><linearGradient id="T" x1="631.44" y1="973.07" x2="706.87" y2="973.07" gradientUnits="userSpaceOnUse"><stop stop-color="#8ED7C6"/><stop offset="1" stop-color="#56ADAB"/></linearGradient><linearGradient id="U" x1="974.52" y1="988.72" x2="1128.21" y2="988.72" gradientUnits="userSpaceOnUse"><stop stop-color="#D02801"/><stop offset="1" stop-color="#FF7F0A"/></linearGradient><linearGradient id="V" x1="259.38" y1="991.8" x2="461.06" y2="991.8" gradientUnits="userSpaceOnUse"><stop offset=".27" stop-color="#FF7A4E"/><stop offset="1" stop-color="#E0CC95"/></linearGradient><linearGradient id="W" x1="1036.22" y1="644.381" x2="1149.27" y2="644.381" gradientUnits="userSpaceOnUse"><stop stop-color="#056671"/><stop offset=".26" stop-color="#047273"/><stop offset=".74" stop-color="#01937B"/><stop offset="1" stop-color="#00A880"/></linearGradient><linearGradient id="X" x1="688.111" y1="365.485" x2="750.538" y2="370.398" gradientUnits="userSpaceOnUse"><stop stop-color="#056671"/><stop offset=".26" stop-color="#047273"/><stop offset=".74" stop-color="#01937B"/><stop offset="1" stop-color="#00A880"/></linearGradient><linearGradient id="Y" x1="699.91" y1="322.931" x2="712.76" y2="322.931" gradientUnits="userSpaceOnUse"><stop stop-color="#056671"/><stop offset=".26" stop-color="#047273"/><stop offset=".74" stop-color="#01937B"/><stop offset="1" stop-color="#00A880"/></linearGradient><linearGradient id="Z" x1="702.5" y1="322.931" x2="710.17" y2="322.931" gradientUnits="userSpaceOnUse"><stop stop-color="#056671"/><stop offset=".26" stop-color="#047273"/><stop offset=".74" stop-color="#01937B"/><stop offset="1" stop-color="#00A880"/></linearGradient><linearGradient id="aa" x1="716.27" y1="324.72" x2="725.48" y2="324.72" gradientUnits="userSpaceOnUse"><stop stop-color="#056671"/><stop offset=".26" stop-color="#047273"/><stop offset=".74" stop-color="#01937B"/><stop offset="1" stop-color="#00A880"/></linearGradient></defs></svg>
