<svg xmlns="http://www.w3.org/2000/svg" data-name="Layer 1" viewBox="0 0 144 144" height="90" width="90"><path fill="#36c5f0" fill-rule="evenodd" d="M60.94 30.81a8.31 8.31 0 0 0 0 16.62h8.3v-8.3a8.32 8.32 0 0 0-8.3-8.32m0 22.16H38.83a8.32 8.32 0 0 0 0 16.63h22.11a8.32 8.32 0 0 0 0-16.63Z"/><path fill="#2eb67d" fill-rule="evenodd" d="M113.47 61.28a8.3 8.3 0 1 0-16.59 0v8.32h8.29a8.32 8.32 0 0 0 8.3-8.32Zm-22.12 0V39.12a8.3 8.3 0 1 0-16.59 0v22.16a8.3 8.3 0 1 0 16.59 0Z"/><path fill="#ecb22e" fill-rule="evenodd" d="M83.06 113.92a8.31 8.31 0 0 0 0-16.62h-8.3v8.31a8.31 8.31 0 0 0 8.3 8.31Zm0-22.17h22.11a8.31 8.31 0 0 0 0-16.62H83.06a8.31 8.31 0 0 0 0 16.62Z"/><path fill="#e01e5a" fill-rule="evenodd" d="M30.53 83.44a8.3 8.3 0 1 0 16.59 0v-8.3h-8.29a8.3 8.3 0 0 0-8.3 8.3Zm22.12 0v22.16a8.3 8.3 0 1 0 16.59 0V83.45a8.3 8.3 0 1 0-16.59 0"/></svg>
