<svg xmlns="http://www.w3.org/2000/svg" id="Layer_1" data-name="Layer 1" viewBox="0 0 144 144" height="90" width="90"><defs><style>.cls-2{fill:#ff7600}.cls-3{opacity:.76}.cls-4{fill:none;stroke:#ff7600;stroke-miterlimit:10;stroke-width:2px;opacity:.57}</style></defs><rect width="107.92" height="92.03" x="18.04" y="25.99" class="cls-2" opacity=".66" rx="5.57"/><circle cx="45.86" cy="45.11" r="4.92" class="cls-2"/><path d="M34.66 63a11.2 11.2 0 0 1 22.39 0" class="cls-2"/><g class="cls-3"><circle cx="98.22" cy="45.11" r="4.92" class="cls-2"/><path d="M87 63a11.2 11.2 0 0 1 22.39 0" class="cls-2"/></g><g class="cls-3"><circle cx="45.86" cy="87.2" r="4.92" class="cls-2"/><path d="M34.66 105.06a11.2 11.2 0 1 1 22.39 0" class="cls-2"/></g><circle cx="98.22" cy="87.2" r="4.92" class="cls-2"/><path d="M87 105.06a11.2 11.2 0 1 1 22.39 0" class="cls-2"/><path d="M72 33.38v76.91M117.37 71.83H26.63" class="cls-4"/></svg>
