<svg xmlns="http://www.w3.org/2000/svg" width="90" height="90" fill="none" viewBox="0 0 90 90"><path fill="#000" fill-rule="evenodd" d="M45.525 15C28.645 15 15 28.75 15 45.76c0 13.598 8.743 25.108 20.872 29.182 1.517.306 2.072-.662 2.072-1.477 0-.713-.05-3.157-.05-5.704-8.491 1.834-10.26-3.667-10.26-3.667-1.364-3.565-3.386-4.481-3.386-4.481-2.78-1.884.203-1.884.203-1.884 3.082.203 4.7 3.157 4.7 3.157 2.729 4.685 7.126 3.361 8.894 2.546.253-1.986 1.062-3.36 1.921-4.125-6.772-.713-13.898-3.36-13.898-15.177 0-3.36 1.212-6.11 3.133-8.25-.303-.763-1.365-3.921.304-8.148 0 0 2.577-.815 8.389 3.157a29.338 29.338 0 0 1 7.631-1.018c2.578 0 5.205.356 7.631 1.018 5.812-3.972 8.39-3.157 8.39-3.157 1.668 4.227.606 7.385.303 8.148 1.971 2.14 3.133 4.89 3.133 8.25 0 11.816-7.125 14.413-13.948 15.177 1.112.968 2.072 2.8 2.072 5.704 0 4.125-.05 7.436-.05 8.454 0 .815.556 1.783 2.072 1.477C67.257 70.867 76 59.358 76 45.761 76.05 28.75 62.354 15 45.525 15Z" clip-rule="evenodd"/></svg>
