<svg xmlns="http://www.w3.org/2000/svg" id="Layer_1" data-name="Layer 1" viewBox="0 0 144 144" height="90" width="90"><defs><clipPath id="clip-path"><path d="M66.4 64.92h55.82v37.88H66.4z" class="cls-1"/></clipPath><clipPath id="clip-path-2"><path d="M23.78 40.36H79.6v37.88H23.78z" class="cls-1"/></clipPath><style>.cls-1{fill:none}.cls-3{fill:#41d6c1}</style></defs><g id="Group_152" clip-path="url(#clip-path)" data-name="Group 152"><g id="Group_151" data-name="Group 151"><path id="Path_222" d="M120.34 102.8H68.28a1.88 1.88 0 0 1-1.88-1.88V66.8a1.89 1.89 0 0 1 1.88-1.89h52.06a1.89 1.89 0 0 1 1.88 1.89v34.12a1.88 1.88 0 0 1-1.88 1.88" class="cls-3" data-name="Path 222"/></g></g><g id="Group_263" data-name="Group 263" opacity=".59"><g id="Group_161" clip-path="url(#clip-path-2)" data-name="Group 161"><g id="Group_160" data-name="Group 160"><path id="Path_225" d="M25.66 78.25h52.06a1.88 1.88 0 0 0 1.88-1.88V42.25a1.89 1.89 0 0 0-1.88-1.89H25.66a1.89 1.89 0 0 0-1.89 1.89v34.11a1.89 1.89 0 0 0 1.89 1.89" class="cls-3" data-name="Path 225"/></g></g></g><path id="Path_304" fill="#3dd9c5" d="M122.22 109.64V94.23H104.3Z" data-name="Path 304"/><path id="Path_305" fill="#85e8dc" d="M23.78 87.87V71.28h19.29Z" data-name="Path 305"/></svg>
