<svg xmlns="http://www.w3.org/2000/svg" width="959.727" height="147.027" viewBox="0 0 959.727 147.027"><path fill="#fff" d="M0 0h959.727v147.027H0z"/><g stroke-linecap="round"><path fill="#a4eae8" stroke-width="0" d="M411.198 73.51c0 2.56-.16 5.13-.47 7.66-.3 2.53-.77 5.07-1.38 7.54-.61 2.48-1.38 4.94-2.28 7.33-.9 2.38-1.96 4.73-3.15 6.99a62.506 62.506 0 0 1-3.97 6.56c-1.45 2.1-3.03 4.13-4.73 6.04a63.005 63.005 0 0 1-5.42 5.42c-1.91 1.7-3.94 3.28-6.04 4.73-2.1 1.45-4.3 2.79-6.56 3.97a62.521 62.521 0 0 1-6.99 3.15c-2.39.9-4.85 1.67-7.33 2.28a62.09 62.09 0 0 1-7.54 1.38c-2.53.31-5.1.47-7.66.47-2.55 0-5.12-.16-7.65-.47-2.54-.3-5.07-.77-7.55-1.38-2.47-.61-4.93-1.38-7.32-2.28-2.38-.9-4.73-1.96-6.99-3.15a62.646 62.646 0 0 1-6.57-3.97c-2.1-1.45-4.12-3.03-6.03-4.73a64.585 64.585 0 0 1-5.43-5.42 64.148 64.148 0 0 1-4.73-6.04c-1.45-2.1-2.78-4.3-3.96-6.56a62.521 62.521 0 0 1-3.15-6.99c-.91-2.39-1.67-4.85-2.28-7.33-.62-2.47-1.08-5.01-1.39-7.54-.3-2.53-.46-5.1-.46-7.66 0-2.55.16-5.12.46-7.65.31-2.54.77-5.07 1.39-7.55a63.219 63.219 0 0 1 5.43-14.31 62.56 62.56 0 0 1 3.96-6.57c1.45-2.1 3.04-4.12 4.73-6.03 1.7-1.91 3.52-3.73 5.43-5.43 1.91-1.69 3.93-3.28 6.03-4.73a62.56 62.56 0 0 1 6.57-3.96 63.219 63.219 0 0 1 14.31-5.43c2.48-.62 5.01-1.08 7.55-1.39 2.53-.3 5.1-.46 7.65-.46 2.56 0 5.13.16 7.66.46 2.53.31 5.07.77 7.54 1.39 2.48.61 4.94 1.37 7.33 2.28 2.38.9 4.73 1.96 6.99 3.15 2.26 1.18 4.46 2.51 6.56 3.96 2.1 1.45 4.13 3.04 6.04 4.73 1.91 1.7 3.73 3.52 5.42 5.43 1.7 1.91 3.28 3.93 4.73 6.03 1.45 2.1 2.79 4.31 3.97 6.57 1.19 2.26 2.25 4.61 3.15 6.99.9 2.39 1.67 4.85 2.28 7.32a62.25 62.25 0 0 1 1.38 7.55c.31 2.53.47 5.1.47 7.65"/><path fill="none" stroke="transparent" stroke-width="2" d="M411.198 73.51c0 2.56-.16 5.13-.47 7.66-.3 2.53-.77 5.07-1.38 7.54-.61 2.48-1.38 4.94-2.28 7.33-.9 2.38-1.96 4.73-3.15 6.99a62.506 62.506 0 0 1-3.97 6.56c-1.45 2.1-3.03 4.13-4.73 6.04a63.005 63.005 0 0 1-5.42 5.42c-1.91 1.7-3.94 3.28-6.04 4.73-2.1 1.45-4.3 2.79-6.56 3.97a62.521 62.521 0 0 1-6.99 3.15c-2.39.9-4.85 1.67-7.33 2.28a62.09 62.09 0 0 1-7.54 1.38c-2.53.31-5.1.47-7.66.47-2.55 0-5.12-.16-7.65-.47-2.54-.3-5.07-.77-7.55-1.38-2.47-.61-4.93-1.38-7.32-2.28-2.38-.9-4.73-1.96-6.99-3.15a62.646 62.646 0 0 1-6.57-3.97c-2.1-1.45-4.12-3.03-6.03-4.73a64.585 64.585 0 0 1-5.43-5.42 64.148 64.148 0 0 1-4.73-6.04c-1.45-2.1-2.78-4.3-3.96-6.56a62.521 62.521 0 0 1-3.15-6.99c-.91-2.39-1.67-4.85-2.28-7.33-.62-2.47-1.08-5.01-1.39-7.54-.3-2.53-.46-5.1-.46-7.66 0-2.55.16-5.12.46-7.65.31-2.54.77-5.07 1.39-7.55a63.219 63.219 0 0 1 5.43-14.31 62.56 62.56 0 0 1 3.96-6.57c1.45-2.1 3.04-4.12 4.73-6.03 1.7-1.91 3.52-3.73 5.43-5.43 1.91-1.69 3.93-3.28 6.03-4.73a62.56 62.56 0 0 1 6.57-3.96 63.219 63.219 0 0 1 14.31-5.43c2.48-.62 5.01-1.08 7.55-1.39 2.53-.3 5.1-.46 7.65-.46 2.56 0 5.13.16 7.66.46 2.53.31 5.07.77 7.54 1.39 2.48.61 4.94 1.37 7.33 2.28 2.38.9 4.73 1.96 6.99 3.15 2.26 1.18 4.46 2.51 6.56 3.96 2.1 1.45 4.13 3.04 6.04 4.73 1.91 1.7 3.73 3.52 5.42 5.43 1.7 1.91 3.28 3.93 4.73 6.03 1.45 2.1 2.79 4.31 3.97 6.57 1.19 2.26 2.25 4.61 3.15 6.99.9 2.39 1.67 4.85 2.28 7.32a62.25 62.25 0 0 1 1.38 7.55c.31 2.53.47 5.1.47 7.65"/></g><text x="36.91" y="14.72" fill="#1e1e1e" dominant-baseline="alphabetic" font-family="Helvetica, Segoe UI Emoji" font-size="16" style="white-space:pre" text-anchor="middle" transform="translate(310.86 64.403)">Connector</text><g stroke-linecap="round"><path fill="#077" stroke-width="0" d="M137.03 73.51c0 2.56-.16 5.13-.47 7.66-.3 2.53-.77 5.07-1.38 7.54-.61 2.48-1.38 4.94-2.28 7.33-.9 2.38-1.96 4.73-3.15 6.99a62.506 62.506 0 0 1-3.97 6.56c-1.45 2.1-3.03 4.13-4.73 6.04a63.005 63.005 0 0 1-5.42 5.42c-1.91 1.7-3.94 3.28-6.04 4.73-2.1 1.45-4.3 2.79-6.56 3.97a62.521 62.521 0 0 1-6.99 3.15c-2.39.9-4.85 1.67-7.33 2.28a62.09 62.09 0 0 1-7.54 1.38c-2.53.31-5.1.47-7.66.47-2.55 0-5.12-.16-7.65-.47-2.54-.3-5.07-.77-7.55-1.38-2.47-.61-4.93-1.38-7.32-2.28-2.38-.9-4.73-1.96-6.99-3.15a62.646 62.646 0 0 1-6.57-3.97c-2.1-1.45-4.12-3.03-6.03-4.73a64.585 64.585 0 0 1-5.43-5.42 64.148 64.148 0 0 1-4.73-6.04c-1.45-2.1-2.78-4.3-3.96-6.56a62.521 62.521 0 0 1-3.15-6.99c-.91-2.39-1.67-4.85-2.28-7.33-.62-2.47-1.08-5.01-1.39-7.54-.3-2.53-.46-5.1-.46-7.66 0-2.55.16-5.12.46-7.65.31-2.54.77-5.07 1.39-7.55A63.219 63.219 0 0 1 17.28 44a62.56 62.56 0 0 1 3.96-6.57c1.45-2.1 3.04-4.12 4.73-6.03 1.7-1.91 3.52-3.73 5.43-5.43 1.91-1.69 3.93-3.28 6.03-4.73A62.56 62.56 0 0 1 44 17.28a63.219 63.219 0 0 1 14.31-5.43c2.48-.62 5.01-1.08 7.55-1.39 2.53-.3 5.1-.46 7.65-.46 2.56 0 5.13.16 7.66.46 2.53.31 5.07.77 7.54 1.39 2.48.61 4.94 1.37 7.33 2.28 2.38.9 4.73 1.96 6.99 3.15 2.26 1.18 4.46 2.51 6.56 3.96 2.1 1.45 4.13 3.04 6.04 4.73 1.91 1.7 3.73 3.52 5.42 5.43 1.7 1.91 3.28 3.93 4.73 6.03 1.45 2.1 2.79 4.31 3.97 6.57 1.19 2.26 2.25 4.61 3.15 6.99.9 2.39 1.67 4.85 2.28 7.32a62.25 62.25 0 0 1 1.38 7.55c.31 2.53.47 5.1.47 7.65"/><path fill="none" stroke="transparent" stroke-width="2" d="M137.03 73.51c0 2.56-.16 5.13-.47 7.66-.3 2.53-.77 5.07-1.38 7.54-.61 2.48-1.38 4.94-2.28 7.33-.9 2.38-1.96 4.73-3.15 6.99a62.506 62.506 0 0 1-3.97 6.56c-1.45 2.1-3.03 4.13-4.73 6.04a63.005 63.005 0 0 1-5.42 5.42c-1.91 1.7-3.94 3.28-6.04 4.73-2.1 1.45-4.3 2.79-6.56 3.97a62.521 62.521 0 0 1-6.99 3.15c-2.39.9-4.85 1.67-7.33 2.28a62.09 62.09 0 0 1-7.54 1.38c-2.53.31-5.1.47-7.66.47-2.55 0-5.12-.16-7.65-.47-2.54-.3-5.07-.77-7.55-1.38-2.47-.61-4.93-1.38-7.32-2.28-2.38-.9-4.73-1.96-6.99-3.15a62.646 62.646 0 0 1-6.57-3.97c-2.1-1.45-4.12-3.03-6.03-4.73a64.585 64.585 0 0 1-5.43-5.42 64.148 64.148 0 0 1-4.73-6.04c-1.45-2.1-2.78-4.3-3.96-6.56a62.521 62.521 0 0 1-3.15-6.99c-.91-2.39-1.67-4.85-2.28-7.33-.62-2.47-1.08-5.01-1.39-7.54-.3-2.53-.46-5.1-.46-7.66 0-2.55.16-5.12.46-7.65.31-2.54.77-5.07 1.39-7.55A63.219 63.219 0 0 1 17.28 44a62.56 62.56 0 0 1 3.96-6.57c1.45-2.1 3.04-4.12 4.73-6.03 1.7-1.91 3.52-3.73 5.43-5.43 1.91-1.69 3.93-3.28 6.03-4.73A62.56 62.56 0 0 1 44 17.28a63.219 63.219 0 0 1 14.31-5.43c2.48-.62 5.01-1.08 7.55-1.39 2.53-.3 5.1-.46 7.65-.46 2.56 0 5.13.16 7.66.46 2.53.31 5.07.77 7.54 1.39 2.48.61 4.94 1.37 7.33 2.28 2.38.9 4.73 1.96 6.99 3.15 2.26 1.18 4.46 2.51 6.56 3.96 2.1 1.45 4.13 3.04 6.04 4.73 1.91 1.7 3.73 3.52 5.42 5.43 1.7 1.91 3.28 3.93 4.73 6.03 1.45 2.1 2.79 4.31 3.97 6.57 1.19 2.26 2.25 4.61 3.15 6.99.9 2.39 1.67 4.85 2.28 7.32a62.25 62.25 0 0 1 1.38 7.55c.31 2.53.47 5.1.47 7.65"/></g><text x="25.797" y="14.72" fill="#fff" dominant-baseline="alphabetic" font-family="Helvetica, Segoe UI Emoji" font-size="16" style="white-space:pre" text-anchor="middle" transform="translate(47.806 64.403)">Sender</text><g stroke-linecap="round"><path fill="#a4eae8" stroke-width="0" d="M680.999 73.51c0 2.56-.16 5.13-.47 7.66-.3 2.53-.77 5.07-1.38 7.54-.61 2.48-1.38 4.94-2.28 7.33-.9 2.38-1.96 4.73-3.15 6.99a62.506 62.506 0 0 1-3.97 6.56c-1.45 2.1-3.03 4.13-4.73 6.04a63.005 63.005 0 0 1-5.42 5.42c-1.91 1.7-3.94 3.28-6.04 4.73-2.1 1.45-4.3 2.79-6.56 3.97a62.521 62.521 0 0 1-6.99 3.15c-2.39.9-4.85 1.67-7.33 2.28a62.09 62.09 0 0 1-7.54 1.38c-2.53.31-5.1.47-7.66.47-2.55 0-5.12-.16-7.65-.47-2.54-.3-5.07-.77-7.55-1.38-2.47-.61-4.93-1.38-7.32-2.28-2.38-.9-4.73-1.96-6.99-3.15a62.646 62.646 0 0 1-6.57-3.97c-2.1-1.45-4.12-3.03-6.03-4.73a64.585 64.585 0 0 1-5.43-5.42 64.148 64.148 0 0 1-4.73-6.04c-1.45-2.1-2.78-4.3-3.96-6.56a62.521 62.521 0 0 1-3.15-6.99c-.91-2.39-1.67-4.85-2.28-7.33-.62-2.47-1.08-5.01-1.39-7.54-.3-2.53-.46-5.1-.46-7.66 0-2.55.16-5.12.46-7.65.31-2.54.77-5.07 1.39-7.55a63.219 63.219 0 0 1 5.43-14.31 62.56 62.56 0 0 1 3.96-6.57c1.45-2.1 3.04-4.12 4.73-6.03 1.7-1.91 3.52-3.73 5.43-5.43 1.91-1.69 3.93-3.28 6.03-4.73a62.56 62.56 0 0 1 6.57-3.96 63.219 63.219 0 0 1 14.31-5.43c2.48-.62 5.01-1.08 7.55-1.39 2.53-.3 5.1-.46 7.65-.46 2.56 0 5.13.16 7.66.46 2.53.31 5.07.77 7.54 1.39 2.48.61 4.94 1.37 7.33 2.28 2.38.9 4.73 1.96 6.99 3.15 2.26 1.18 4.46 2.51 6.56 3.96 2.1 1.45 4.13 3.04 6.04 4.73 1.91 1.7 3.73 3.52 5.42 5.43 1.7 1.91 3.28 3.93 4.73 6.03 1.45 2.1 2.79 4.31 3.97 6.57 1.19 2.26 2.25 4.61 3.15 6.99.9 2.39 1.67 4.85 2.28 7.32a62.25 62.25 0 0 1 1.38 7.55c.31 2.53.47 5.1.47 7.65"/><path fill="none" stroke="transparent" stroke-width="2" d="M680.999 73.51c0 2.56-.16 5.13-.47 7.66-.3 2.53-.77 5.07-1.38 7.54-.61 2.48-1.38 4.94-2.28 7.33-.9 2.38-1.96 4.73-3.15 6.99a62.506 62.506 0 0 1-3.97 6.56c-1.45 2.1-3.03 4.13-4.73 6.04a63.005 63.005 0 0 1-5.42 5.42c-1.91 1.7-3.94 3.28-6.04 4.73-2.1 1.45-4.3 2.79-6.56 3.97a62.521 62.521 0 0 1-6.99 3.15c-2.39.9-4.85 1.67-7.33 2.28a62.09 62.09 0 0 1-7.54 1.38c-2.53.31-5.1.47-7.66.47-2.55 0-5.12-.16-7.65-.47-2.54-.3-5.07-.77-7.55-1.38-2.47-.61-4.93-1.38-7.32-2.28-2.38-.9-4.73-1.96-6.99-3.15a62.646 62.646 0 0 1-6.57-3.97c-2.1-1.45-4.12-3.03-6.03-4.73a64.585 64.585 0 0 1-5.43-5.42 64.148 64.148 0 0 1-4.73-6.04c-1.45-2.1-2.78-4.3-3.96-6.56a62.521 62.521 0 0 1-3.15-6.99c-.91-2.39-1.67-4.85-2.28-7.33-.62-2.47-1.08-5.01-1.39-7.54-.3-2.53-.46-5.1-.46-7.66 0-2.55.16-5.12.46-7.65.31-2.54.77-5.07 1.39-7.55a63.219 63.219 0 0 1 5.43-14.31 62.56 62.56 0 0 1 3.96-6.57c1.45-2.1 3.04-4.12 4.73-6.03 1.7-1.91 3.52-3.73 5.43-5.43 1.91-1.69 3.93-3.28 6.03-4.73a62.56 62.56 0 0 1 6.57-3.96 63.219 63.219 0 0 1 14.31-5.43c2.48-.62 5.01-1.08 7.55-1.39 2.53-.3 5.1-.46 7.65-.46 2.56 0 5.13.16 7.66.46 2.53.31 5.07.77 7.54 1.39 2.48.61 4.94 1.37 7.33 2.28 2.38.9 4.73 1.96 6.99 3.15 2.26 1.18 4.46 2.51 6.56 3.96 2.1 1.45 4.13 3.04 6.04 4.73 1.91 1.7 3.73 3.52 5.42 5.43 1.7 1.91 3.28 3.93 4.73 6.03 1.45 2.1 2.79 4.31 3.97 6.57 1.19 2.26 2.25 4.61 3.15 6.99.9 2.39 1.67 4.85 2.28 7.32a62.25 62.25 0 0 1 1.38 7.55c.31 2.53.47 5.1.47 7.65"/></g><text x="36.91" y="14.72" fill="#1e1e1e" dominant-baseline="alphabetic" font-family="Helvetica, Segoe UI Emoji" font-size="16" style="white-space:pre" text-anchor="middle" transform="translate(580.661 64.403)">Connector</text><g stroke-linecap="round"><path fill="#d02801" stroke-width="0" d="M949.73 73.51c0 2.56-.16 5.13-.47 7.66-.3 2.53-.77 5.07-1.38 7.54-.61 2.48-1.38 4.94-2.28 7.33-.9 2.38-1.96 4.73-3.15 6.99a62.506 62.506 0 0 1-3.97 6.56c-1.45 2.1-3.03 4.13-4.73 6.04a63.005 63.005 0 0 1-5.42 5.42c-1.91 1.7-3.94 3.28-6.04 4.73-2.1 1.45-4.3 2.79-6.56 3.97a62.521 62.521 0 0 1-6.99 3.15c-2.39.9-4.85 1.67-7.33 2.28a62.09 62.09 0 0 1-7.54 1.38c-2.53.31-5.1.47-7.66.47-2.55 0-5.12-.16-7.65-.47-2.54-.3-5.07-.77-7.55-1.38-2.47-.61-4.93-1.38-7.32-2.28-2.38-.9-4.73-1.96-6.99-3.15a62.646 62.646 0 0 1-6.57-3.97c-2.1-1.45-4.12-3.03-6.03-4.73a64.585 64.585 0 0 1-5.43-5.42 64.148 64.148 0 0 1-4.73-6.04c-1.45-2.1-2.78-4.3-3.96-6.56a62.521 62.521 0 0 1-3.15-6.99c-.91-2.39-1.67-4.85-2.28-7.33-.62-2.47-1.08-5.01-1.39-7.54-.3-2.53-.46-5.1-.46-7.66 0-2.55.16-5.12.46-7.65.31-2.54.77-5.07 1.39-7.55A63.219 63.219 0 0 1 829.98 44a62.56 62.56 0 0 1 3.96-6.57c1.45-2.1 3.04-4.12 4.73-6.03 1.7-1.91 3.52-3.73 5.43-5.43 1.91-1.69 3.93-3.28 6.03-4.73a62.56 62.56 0 0 1 6.57-3.96 63.219 63.219 0 0 1 14.31-5.43c2.48-.62 5.01-1.08 7.55-1.39 2.53-.3 5.1-.46 7.65-.46 2.56 0 5.13.16 7.66.46 2.53.31 5.07.77 7.54 1.39 2.48.61 4.94 1.37 7.33 2.28 2.38.9 4.73 1.96 6.99 3.15 2.26 1.18 4.46 2.51 6.56 3.96 2.1 1.45 4.13 3.04 6.04 4.73 1.91 1.7 3.73 3.52 5.42 5.43 1.7 1.91 3.28 3.93 4.73 6.03 1.45 2.1 2.79 4.31 3.97 6.57 1.19 2.26 2.25 4.61 3.15 6.99.9 2.39 1.67 4.85 2.28 7.32a62.25 62.25 0 0 1 1.38 7.55c.31 2.53.47 5.1.47 7.65"/><path fill="none" stroke="transparent" stroke-width="2" d="M949.73 73.51c0 2.56-.16 5.13-.47 7.66-.3 2.53-.77 5.07-1.38 7.54-.61 2.48-1.38 4.94-2.28 7.33-.9 2.38-1.96 4.73-3.15 6.99a62.506 62.506 0 0 1-3.97 6.56c-1.45 2.1-3.03 4.13-4.73 6.04a63.005 63.005 0 0 1-5.42 5.42c-1.91 1.7-3.94 3.28-6.04 4.73-2.1 1.45-4.3 2.79-6.56 3.97a62.521 62.521 0 0 1-6.99 3.15c-2.39.9-4.85 1.67-7.33 2.28a62.09 62.09 0 0 1-7.54 1.38c-2.53.31-5.1.47-7.66.47-2.55 0-5.12-.16-7.65-.47-2.54-.3-5.07-.77-7.55-1.38-2.47-.61-4.93-1.38-7.32-2.28-2.38-.9-4.73-1.96-6.99-3.15a62.646 62.646 0 0 1-6.57-3.97c-2.1-1.45-4.12-3.03-6.03-4.73a64.585 64.585 0 0 1-5.43-5.42 64.148 64.148 0 0 1-4.73-6.04c-1.45-2.1-2.78-4.3-3.96-6.56a62.521 62.521 0 0 1-3.15-6.99c-.91-2.39-1.67-4.85-2.28-7.33-.62-2.47-1.08-5.01-1.39-7.54-.3-2.53-.46-5.1-.46-7.66 0-2.55.16-5.12.46-7.65.31-2.54.77-5.07 1.39-7.55A63.219 63.219 0 0 1 829.98 44a62.56 62.56 0 0 1 3.96-6.57c1.45-2.1 3.04-4.12 4.73-6.03 1.7-1.91 3.52-3.73 5.43-5.43 1.91-1.69 3.93-3.28 6.03-4.73a62.56 62.56 0 0 1 6.57-3.96 63.219 63.219 0 0 1 14.31-5.43c2.48-.62 5.01-1.08 7.55-1.39 2.53-.3 5.1-.46 7.65-.46 2.56 0 5.13.16 7.66.46 2.53.31 5.07.77 7.54 1.39 2.48.61 4.94 1.37 7.33 2.28 2.38.9 4.73 1.96 6.99 3.15 2.26 1.18 4.46 2.51 6.56 3.96 2.1 1.45 4.13 3.04 6.04 4.73 1.91 1.7 3.73 3.52 5.42 5.43 1.7 1.91 3.28 3.93 4.73 6.03 1.45 2.1 2.79 4.31 3.97 6.57 1.19 2.26 2.25 4.61 3.15 6.99.9 2.39 1.67 4.85 2.28 7.32a62.25 62.25 0 0 1 1.38 7.55c.31 2.53.47 5.1.47 7.65"/></g><text x="31.566" y="14.72" fill="#fff" dominant-baseline="alphabetic" font-family="Helvetica, Segoe UI Emoji" font-size="16" style="white-space:pre" text-anchor="middle" transform="translate(854.736 64.403)">Receiver</text><g stroke-linecap="round"><path fill="none" stroke="#aaa" stroke-width="4" d="M152.959 41.049h115.28m-115.28 0h115.28"/><path fill="#aaa" fill-rule="evenodd" stroke-width="0" d="m268.239 41.049-13.6 6.34v-12.68l13.6 6.34"/><path fill="none" stroke="#aaa" stroke-width="4" d="M268.239 41.049c-2.94 1.37-5.88 2.74-13.6 6.34m13.6-6.34c-4.02 1.87-8.03 3.74-13.6 6.34m0 0v-12.68m0 12.68v-12.68m0 0c3.92 1.83 7.84 3.66 13.6 6.34m-13.6-6.34c4.19 1.95 8.37 3.9 13.6 6.34m0 0s0 0 0 0m0 0s0 0 0 0"/></g><g stroke-linecap="round"><path fill="none" stroke="#aaa" stroke-width="4" d="M153.268 103.725h112.11m-112.11 0h112.11"/><path fill="#aaa" fill-rule="evenodd" stroke-width="0" d="m153.268 103.725 13.59-6.34v12.68l-13.59-6.34"/><path fill="none" stroke="#aaa" stroke-width="4" d="M153.268 103.725c2.82-1.32 5.65-2.63 13.59-6.34m-13.59 6.34c4.08-1.9 8.16-3.81 13.59-6.34m0 0v12.68m0-12.68v12.68m0 0c-2.78-1.3-5.57-2.6-13.59-6.34m13.59 6.34c-4.07-1.9-8.14-3.8-13.59-6.34m0 0s0 0 0 0m0 0s0 0 0 0"/></g><text y="14.72" fill="#1e1e1e" dominant-baseline="alphabetic" font-family="Helvetica, Segoe UI Emoji" font-size="16" style="white-space:pre" transform="translate(182.666 10)">Prepare</text><text y="14.72" fill="#1e1e1e" dominant-baseline="alphabetic" font-family="Helvetica, Segoe UI Emoji" font-size="16" style="white-space:pre" transform="translate(163.115 118.627)">Fulfill / Reject</text><g stroke-linecap="round"><path fill="none" stroke="#aaa" stroke-width="4" d="M427.604 41.049h110.43m-110.43 0h110.43"/><path fill="#aaa" fill-rule="evenodd" stroke-width="0" d="m538.034 41.049-13.59 6.34v-12.68l13.59 6.34"/><path fill="none" stroke="#aaa" stroke-width="4" d="m538.034 41.049-13.59 6.34m13.59-6.34c-5.25 2.45-10.51 4.9-13.59 6.34m0 0v-12.68m0 12.68v-12.68m0 0c4.28 2 8.56 3.99 13.59 6.34m-13.59-6.34c5.09 2.38 10.19 4.75 13.59 6.34m0 0s0 0 0 0m0 0s0 0 0 0"/></g><g stroke-linecap="round"><path fill="none" stroke="#aaa" stroke-width="4" d="M427.127 103.725h110.09m-110.09 0h110.09"/><path fill="#aaa" fill-rule="evenodd" stroke-width="0" d="m427.127 103.725 13.59-6.34v12.68l-13.59-6.34"/><path fill="none" stroke="#aaa" stroke-width="4" d="M427.127 103.725c4.82-2.25 9.63-4.49 13.59-6.34m-13.59 6.34c3.93-1.83 7.85-3.66 13.59-6.34m0 0v12.68m0-12.68v12.68m0 0c-3.56-1.66-7.12-3.32-13.59-6.34m13.59 6.34c-3.33-1.56-6.67-3.11-13.59-6.34m0 0s0 0 0 0m0 0s0 0 0 0"/></g><text y="14.72" fill="#1e1e1e" dominant-baseline="alphabetic" font-family="Helvetica, Segoe UI Emoji" font-size="16" style="white-space:pre" transform="translate(453.035 10)">Prepare</text><text y="14.72" fill="#1e1e1e" dominant-baseline="alphabetic" font-family="Helvetica, Segoe UI Emoji" font-size="16" style="white-space:pre" transform="translate(433.484 118.627)">Fulfill / Reject</text><g stroke-linecap="round"><path fill="none" stroke="#aaa" stroke-width="4" d="M696.928 103.725h109.84m-109.84 0h109.84"/><path fill="#aaa" fill-rule="evenodd" stroke-width="0" d="m696.928 103.725 13.59-6.34v12.68l-13.59-6.34"/><path fill="none" stroke="#aaa" stroke-width="4" d="M696.928 103.725c5.23-2.44 10.47-4.88 13.59-6.34m-13.59 6.34c3.93-1.83 7.86-3.66 13.59-6.34m0 0v12.68m0-12.68v12.68m0 0c-4.94-2.31-9.89-4.62-13.59-6.34m13.59 6.34c-4.71-2.2-9.42-4.39-13.59-6.34m0 0s0 0 0 0m0 0s0 0 0 0"/></g><g stroke-linecap="round"><path fill="none" stroke="#aaa" stroke-width="4" d="M701.549 41.049h103.74m-103.74 0h103.74"/><path fill="#aaa" fill-rule="evenodd" stroke-width="0" d="m805.289 41.049-13.6 6.34v-12.68l13.6 6.34"/><path fill="none" stroke="#aaa" stroke-width="4" d="M805.289 41.049c-4.95 2.31-9.9 4.61-13.6 6.34m13.6-6.34c-3.36 1.56-6.71 3.13-13.6 6.34m0 0v-12.68m0 12.68v-12.68m0 0c2.83 1.32 5.65 2.63 13.6 6.34m-13.6-6.34c5.4 2.51 10.79 5.03 13.6 6.34m0 0s0 0 0 0m0 0s0 0 0 0"/></g><text y="14.72" fill="#1e1e1e" dominant-baseline="alphabetic" font-family="Helvetica, Segoe UI Emoji" font-size="16" style="white-space:pre" transform="translate(724.404 10)">Prepare</text><text y="14.72" fill="#1e1e1e" dominant-baseline="alphabetic" font-family="Helvetica, Segoe UI Emoji" font-size="16" style="white-space:pre" transform="translate(704.854 118.627)">Fulfill / Reject</text></svg>
