<svg xmlns="http://www.w3.org/2000/svg" width="959.727" height="147.027" viewBox="0 0 959.727 147.027"><path fill="#fff" d="M0 0h959.727v147.027H0z"/><g stroke-linecap="round"><path fill="#a4eae8" stroke-width="0" d="M405.836 73.51c0 2.56-.16 5.13-.47 7.66-.3 2.53-.77 5.07-1.38 7.54-.61 2.48-1.38 4.94-2.28 7.33-.9 2.38-1.96 4.73-3.15 6.99a62.506 62.506 0 0 1-3.97 6.56c-1.45 2.1-3.03 4.13-4.73 6.04a63.005 63.005 0 0 1-5.42 5.42c-1.91 1.7-3.94 3.28-6.04 4.73-2.1 1.45-4.3 2.79-6.56 3.97a62.521 62.521 0 0 1-6.99 3.15c-2.39.9-4.85 1.67-7.33 2.28a62.09 62.09 0 0 1-7.54 1.38c-2.53.31-5.1.47-7.66.47-2.55 0-5.12-.16-7.65-.47-2.54-.3-5.07-.77-7.55-1.38-2.47-.61-4.93-1.38-7.32-2.28-2.38-.9-4.73-1.96-6.99-3.15a62.646 62.646 0 0 1-6.57-3.97c-2.1-1.45-4.12-3.03-6.03-4.73a64.585 64.585 0 0 1-5.43-5.42 64.148 64.148 0 0 1-4.73-6.04c-1.45-2.1-2.78-4.3-3.96-6.56a62.521 62.521 0 0 1-3.15-6.99c-.91-2.39-1.67-4.85-2.28-7.33-.62-2.47-1.08-5.01-1.39-7.54-.3-2.53-.46-5.1-.46-7.66 0-2.55.16-5.12.46-7.65.31-2.54.77-5.07 1.39-7.55a63.219 63.219 0 0 1 5.43-14.31 62.56 62.56 0 0 1 3.96-6.57c1.45-2.1 3.04-4.12 4.73-6.03 1.7-1.91 3.52-3.73 5.43-5.43 1.91-1.69 3.93-3.28 6.03-4.73a62.56 62.56 0 0 1 6.57-3.96 63.219 63.219 0 0 1 14.31-5.43c2.48-.62 5.01-1.08 7.55-1.39 2.53-.3 5.1-.46 7.65-.46 2.56 0 5.13.16 7.66.46 2.53.31 5.07.77 7.54 1.39 2.48.61 4.94 1.37 7.33 2.28 2.38.9 4.73 1.96 6.99 3.15 2.26 1.18 4.46 2.51 6.56 3.96 2.1 1.45 4.13 3.04 6.04 4.73 1.91 1.7 3.73 3.52 5.42 5.43 1.7 1.91 3.28 3.93 4.73 6.03 1.45 2.1 2.79 4.31 3.97 6.57 1.19 2.26 2.25 4.61 3.15 6.99.9 2.39 1.67 4.85 2.28 7.32a62.25 62.25 0 0 1 1.38 7.55c.31 2.53.47 5.1.47 7.65"/><path fill="none" stroke="transparent" stroke-width="2" d="M405.836 73.51c0 2.56-.16 5.13-.47 7.66-.3 2.53-.77 5.07-1.38 7.54-.61 2.48-1.38 4.94-2.28 7.33-.9 2.38-1.96 4.73-3.15 6.99a62.506 62.506 0 0 1-3.97 6.56c-1.45 2.1-3.03 4.13-4.73 6.04a63.005 63.005 0 0 1-5.42 5.42c-1.91 1.7-3.94 3.28-6.04 4.73-2.1 1.45-4.3 2.79-6.56 3.97a62.521 62.521 0 0 1-6.99 3.15c-2.39.9-4.85 1.67-7.33 2.28a62.09 62.09 0 0 1-7.54 1.38c-2.53.31-5.1.47-7.66.47-2.55 0-5.12-.16-7.65-.47-2.54-.3-5.07-.77-7.55-1.38-2.47-.61-4.93-1.38-7.32-2.28-2.38-.9-4.73-1.96-6.99-3.15a62.646 62.646 0 0 1-6.57-3.97c-2.1-1.45-4.12-3.03-6.03-4.73a64.585 64.585 0 0 1-5.43-5.42 64.148 64.148 0 0 1-4.73-6.04c-1.45-2.1-2.78-4.3-3.96-6.56a62.521 62.521 0 0 1-3.15-6.99c-.91-2.39-1.67-4.85-2.28-7.33-.62-2.47-1.08-5.01-1.39-7.54-.3-2.53-.46-5.1-.46-7.66 0-2.55.16-5.12.46-7.65.31-2.54.77-5.07 1.39-7.55a63.219 63.219 0 0 1 5.43-14.31 62.56 62.56 0 0 1 3.96-6.57c1.45-2.1 3.04-4.12 4.73-6.03 1.7-1.91 3.52-3.73 5.43-5.43 1.91-1.69 3.93-3.28 6.03-4.73a62.56 62.56 0 0 1 6.57-3.96 63.219 63.219 0 0 1 14.31-5.43c2.48-.62 5.01-1.08 7.55-1.39 2.53-.3 5.1-.46 7.65-.46 2.56 0 5.13.16 7.66.46 2.53.31 5.07.77 7.54 1.39 2.48.61 4.94 1.37 7.33 2.28 2.38.9 4.73 1.96 6.99 3.15 2.26 1.18 4.46 2.51 6.56 3.96 2.1 1.45 4.13 3.04 6.04 4.73 1.91 1.7 3.73 3.52 5.42 5.43 1.7 1.91 3.28 3.93 4.73 6.03 1.45 2.1 2.79 4.31 3.97 6.57 1.19 2.26 2.25 4.61 3.15 6.99.9 2.39 1.67 4.85 2.28 7.32a62.25 62.25 0 0 1 1.38 7.55c.31 2.53.47 5.1.47 7.65"/></g><text x="36.91" y="14.72" fill="#1e1e1e" dominant-baseline="alphabetic" font-family="Helvetica, Segoe UI Emoji" font-size="16" style="white-space:pre" text-anchor="middle" transform="translate(305.499 64.403)">Connector</text><g stroke-linecap="round"><path fill="#077" stroke-width="0" d="M137.03 73.51c0 2.56-.16 5.13-.47 7.66-.3 2.53-.77 5.07-1.38 7.54-.61 2.48-1.38 4.94-2.28 7.33-.9 2.38-1.96 4.73-3.15 6.99a62.506 62.506 0 0 1-3.97 6.56c-1.45 2.1-3.03 4.13-4.73 6.04a63.005 63.005 0 0 1-5.42 5.42c-1.91 1.7-3.94 3.28-6.04 4.73-2.1 1.45-4.3 2.79-6.56 3.97a62.521 62.521 0 0 1-6.99 3.15c-2.39.9-4.85 1.67-7.33 2.28a62.09 62.09 0 0 1-7.54 1.38c-2.53.31-5.1.47-7.66.47-2.55 0-5.12-.16-7.65-.47-2.54-.3-5.07-.77-7.55-1.38-2.47-.61-4.93-1.38-7.32-2.28-2.38-.9-4.73-1.96-6.99-3.15a62.646 62.646 0 0 1-6.57-3.97c-2.1-1.45-4.12-3.03-6.03-4.73a64.585 64.585 0 0 1-5.43-5.42 64.148 64.148 0 0 1-4.73-6.04c-1.45-2.1-2.78-4.3-3.96-6.56a62.521 62.521 0 0 1-3.15-6.99c-.91-2.39-1.67-4.85-2.28-7.33-.62-2.47-1.08-5.01-1.39-7.54-.3-2.53-.46-5.1-.46-7.66 0-2.55.16-5.12.46-7.65.31-2.54.77-5.07 1.39-7.55A63.219 63.219 0 0 1 17.28 44a62.56 62.56 0 0 1 3.96-6.57c1.45-2.1 3.04-4.12 4.73-6.03 1.7-1.91 3.52-3.73 5.43-5.43 1.91-1.69 3.93-3.28 6.03-4.73A62.56 62.56 0 0 1 44 17.28a63.219 63.219 0 0 1 14.31-5.43c2.48-.62 5.01-1.08 7.55-1.39 2.53-.3 5.1-.46 7.65-.46 2.56 0 5.13.16 7.66.46 2.53.31 5.07.77 7.54 1.39 2.48.61 4.94 1.37 7.33 2.28 2.38.9 4.73 1.96 6.99 3.15 2.26 1.18 4.46 2.51 6.56 3.96 2.1 1.45 4.13 3.04 6.04 4.73 1.91 1.7 3.73 3.52 5.42 5.43 1.7 1.91 3.28 3.93 4.73 6.03 1.45 2.1 2.79 4.31 3.97 6.57 1.19 2.26 2.25 4.61 3.15 6.99.9 2.39 1.67 4.85 2.28 7.32a62.25 62.25 0 0 1 1.38 7.55c.31 2.53.47 5.1.47 7.65"/><path fill="none" stroke="transparent" stroke-width="2" d="M137.03 73.51c0 2.56-.16 5.13-.47 7.66-.3 2.53-.77 5.07-1.38 7.54-.61 2.48-1.38 4.94-2.28 7.33-.9 2.38-1.96 4.73-3.15 6.99a62.506 62.506 0 0 1-3.97 6.56c-1.45 2.1-3.03 4.13-4.73 6.04a63.005 63.005 0 0 1-5.42 5.42c-1.91 1.7-3.94 3.28-6.04 4.73-2.1 1.45-4.3 2.79-6.56 3.97a62.521 62.521 0 0 1-6.99 3.15c-2.39.9-4.85 1.67-7.33 2.28a62.09 62.09 0 0 1-7.54 1.38c-2.53.31-5.1.47-7.66.47-2.55 0-5.12-.16-7.65-.47-2.54-.3-5.07-.77-7.55-1.38-2.47-.61-4.93-1.38-7.32-2.28-2.38-.9-4.73-1.96-6.99-3.15a62.646 62.646 0 0 1-6.57-3.97c-2.1-1.45-4.12-3.03-6.03-4.73a64.585 64.585 0 0 1-5.43-5.42 64.148 64.148 0 0 1-4.73-6.04c-1.45-2.1-2.78-4.3-3.96-6.56a62.521 62.521 0 0 1-3.15-6.99c-.91-2.39-1.67-4.85-2.28-7.33-.62-2.47-1.08-5.01-1.39-7.54-.3-2.53-.46-5.1-.46-7.66 0-2.55.16-5.12.46-7.65.31-2.54.77-5.07 1.39-7.55A63.219 63.219 0 0 1 17.28 44a62.56 62.56 0 0 1 3.96-6.57c1.45-2.1 3.04-4.12 4.73-6.03 1.7-1.91 3.52-3.73 5.43-5.43 1.91-1.69 3.93-3.28 6.03-4.73A62.56 62.56 0 0 1 44 17.28a63.219 63.219 0 0 1 14.31-5.43c2.48-.62 5.01-1.08 7.55-1.39 2.53-.3 5.1-.46 7.65-.46 2.56 0 5.13.16 7.66.46 2.53.31 5.07.77 7.54 1.39 2.48.61 4.94 1.37 7.33 2.28 2.38.9 4.73 1.96 6.99 3.15 2.26 1.18 4.46 2.51 6.56 3.96 2.1 1.45 4.13 3.04 6.04 4.73 1.91 1.7 3.73 3.52 5.42 5.43 1.7 1.91 3.28 3.93 4.73 6.03 1.45 2.1 2.79 4.31 3.97 6.57 1.19 2.26 2.25 4.61 3.15 6.99.9 2.39 1.67 4.85 2.28 7.32a62.25 62.25 0 0 1 1.38 7.55c.31 2.53.47 5.1.47 7.65"/></g><text x="25.797" y="14.72" fill="#fff" dominant-baseline="alphabetic" font-family="Helvetica, Segoe UI Emoji" font-size="16" style="white-space:pre" text-anchor="middle" transform="translate(47.806 64.403)">Sender</text><g stroke-linecap="round"><path fill="#a4eae8" stroke-width="0" d="M677.783 73.51c0 2.56-.16 5.13-.47 7.66-.3 2.53-.77 5.07-1.38 7.54-.61 2.48-1.38 4.94-2.28 7.33-.9 2.38-1.96 4.73-3.15 6.99a62.506 62.506 0 0 1-3.97 6.56c-1.45 2.1-3.03 4.13-4.73 6.04a63.005 63.005 0 0 1-5.42 5.42c-1.91 1.7-3.94 3.28-6.04 4.73-2.1 1.45-4.3 2.79-6.56 3.97a62.521 62.521 0 0 1-6.99 3.15c-2.39.9-4.85 1.67-7.33 2.28a62.09 62.09 0 0 1-7.54 1.38c-2.53.31-5.1.47-7.66.47-2.55 0-5.12-.16-7.65-.47-2.54-.3-5.07-.77-7.55-1.38-2.47-.61-4.93-1.38-7.32-2.28-2.38-.9-4.73-1.96-6.99-3.15a62.646 62.646 0 0 1-6.57-3.97c-2.1-1.45-4.12-3.03-6.03-4.73a64.585 64.585 0 0 1-5.43-5.42 64.148 64.148 0 0 1-4.73-6.04c-1.45-2.1-2.78-4.3-3.96-6.56a62.521 62.521 0 0 1-3.15-6.99c-.91-2.39-1.67-4.85-2.28-7.33-.62-2.47-1.08-5.01-1.39-7.54-.3-2.53-.46-5.1-.46-7.66 0-2.55.16-5.12.46-7.65.31-2.54.77-5.07 1.39-7.55a63.219 63.219 0 0 1 5.43-14.31 62.56 62.56 0 0 1 3.96-6.57c1.45-2.1 3.04-4.12 4.73-6.03 1.7-1.91 3.52-3.73 5.43-5.43 1.91-1.69 3.93-3.28 6.03-4.73a62.56 62.56 0 0 1 6.57-3.96 63.219 63.219 0 0 1 14.31-5.43c2.48-.62 5.01-1.08 7.55-1.39 2.53-.3 5.1-.46 7.65-.46 2.56 0 5.13.16 7.66.46 2.53.31 5.07.77 7.54 1.39 2.48.61 4.94 1.37 7.33 2.28 2.38.9 4.73 1.96 6.99 3.15 2.26 1.18 4.46 2.51 6.56 3.96 2.1 1.45 4.13 3.04 6.04 4.73 1.91 1.7 3.73 3.52 5.42 5.43 1.7 1.91 3.28 3.93 4.73 6.03 1.45 2.1 2.79 4.31 3.97 6.57 1.19 2.26 2.25 4.61 3.15 6.99.9 2.39 1.67 4.85 2.28 7.32a62.25 62.25 0 0 1 1.38 7.55c.31 2.53.47 5.1.47 7.65"/><path fill="none" stroke="transparent" stroke-width="2" d="M677.783 73.51c0 2.56-.16 5.13-.47 7.66-.3 2.53-.77 5.07-1.38 7.54-.61 2.48-1.38 4.94-2.28 7.33-.9 2.38-1.96 4.73-3.15 6.99a62.506 62.506 0 0 1-3.97 6.56c-1.45 2.1-3.03 4.13-4.73 6.04a63.005 63.005 0 0 1-5.42 5.42c-1.91 1.7-3.94 3.28-6.04 4.73-2.1 1.45-4.3 2.79-6.56 3.97a62.521 62.521 0 0 1-6.99 3.15c-2.39.9-4.85 1.67-7.33 2.28a62.09 62.09 0 0 1-7.54 1.38c-2.53.31-5.1.47-7.66.47-2.55 0-5.12-.16-7.65-.47-2.54-.3-5.07-.77-7.55-1.38-2.47-.61-4.93-1.38-7.32-2.28-2.38-.9-4.73-1.96-6.99-3.15a62.646 62.646 0 0 1-6.57-3.97c-2.1-1.45-4.12-3.03-6.03-4.73a64.585 64.585 0 0 1-5.43-5.42 64.148 64.148 0 0 1-4.73-6.04c-1.45-2.1-2.78-4.3-3.96-6.56a62.521 62.521 0 0 1-3.15-6.99c-.91-2.39-1.67-4.85-2.28-7.33-.62-2.47-1.08-5.01-1.39-7.54-.3-2.53-.46-5.1-.46-7.66 0-2.55.16-5.12.46-7.65.31-2.54.77-5.07 1.39-7.55a63.219 63.219 0 0 1 5.43-14.31 62.56 62.56 0 0 1 3.96-6.57c1.45-2.1 3.04-4.12 4.73-6.03 1.7-1.91 3.52-3.73 5.43-5.43 1.91-1.69 3.93-3.28 6.03-4.73a62.56 62.56 0 0 1 6.57-3.96 63.219 63.219 0 0 1 14.31-5.43c2.48-.62 5.01-1.08 7.55-1.39 2.53-.3 5.1-.46 7.65-.46 2.56 0 5.13.16 7.66.46 2.53.31 5.07.77 7.54 1.39 2.48.61 4.94 1.37 7.33 2.28 2.38.9 4.73 1.96 6.99 3.15 2.26 1.18 4.46 2.51 6.56 3.96 2.1 1.45 4.13 3.04 6.04 4.73 1.91 1.7 3.73 3.52 5.42 5.43 1.7 1.91 3.28 3.93 4.73 6.03 1.45 2.1 2.79 4.31 3.97 6.57 1.19 2.26 2.25 4.61 3.15 6.99.9 2.39 1.67 4.85 2.28 7.32a62.25 62.25 0 0 1 1.38 7.55c.31 2.53.47 5.1.47 7.65"/></g><text x="36.91" y="14.72" fill="#1e1e1e" dominant-baseline="alphabetic" font-family="Helvetica, Segoe UI Emoji" font-size="16" style="white-space:pre" text-anchor="middle" transform="translate(577.445 64.403)">Connector</text><g stroke-linecap="round"><path fill="#d02801" stroke-width="0" d="M949.73 73.51c0 2.56-.16 5.13-.47 7.66-.3 2.53-.77 5.07-1.38 7.54-.61 2.48-1.38 4.94-2.28 7.33-.9 2.38-1.96 4.73-3.15 6.99a62.506 62.506 0 0 1-3.97 6.56c-1.45 2.1-3.03 4.13-4.73 6.04a63.005 63.005 0 0 1-5.42 5.42c-1.91 1.7-3.94 3.28-6.04 4.73-2.1 1.45-4.3 2.79-6.56 3.97a62.521 62.521 0 0 1-6.99 3.15c-2.39.9-4.85 1.67-7.33 2.28a62.09 62.09 0 0 1-7.54 1.38c-2.53.31-5.1.47-7.66.47-2.55 0-5.12-.16-7.65-.47-2.54-.3-5.07-.77-7.55-1.38-2.47-.61-4.93-1.38-7.32-2.28-2.38-.9-4.73-1.96-6.99-3.15a62.646 62.646 0 0 1-6.57-3.97c-2.1-1.45-4.12-3.03-6.03-4.73a64.585 64.585 0 0 1-5.43-5.42 64.148 64.148 0 0 1-4.73-6.04c-1.45-2.1-2.78-4.3-3.96-6.56a62.521 62.521 0 0 1-3.15-6.99c-.91-2.39-1.67-4.85-2.28-7.33-.62-2.47-1.08-5.01-1.39-7.54-.3-2.53-.46-5.1-.46-7.66 0-2.55.16-5.12.46-7.65.31-2.54.77-5.07 1.39-7.55A63.219 63.219 0 0 1 829.98 44a62.56 62.56 0 0 1 3.96-6.57c1.45-2.1 3.04-4.12 4.73-6.03 1.7-1.91 3.52-3.73 5.43-5.43 1.91-1.69 3.93-3.28 6.03-4.73a62.56 62.56 0 0 1 6.57-3.96 63.219 63.219 0 0 1 14.31-5.43c2.48-.62 5.01-1.08 7.55-1.39 2.53-.3 5.1-.46 7.65-.46 2.56 0 5.13.16 7.66.46 2.53.31 5.07.77 7.54 1.39 2.48.61 4.94 1.37 7.33 2.28 2.38.9 4.73 1.96 6.99 3.15 2.26 1.18 4.46 2.51 6.56 3.96 2.1 1.45 4.13 3.04 6.04 4.73 1.91 1.7 3.73 3.52 5.42 5.43 1.7 1.91 3.28 3.93 4.73 6.03 1.45 2.1 2.79 4.31 3.97 6.57 1.19 2.26 2.25 4.61 3.15 6.99.9 2.39 1.67 4.85 2.28 7.32a62.25 62.25 0 0 1 1.38 7.55c.31 2.53.47 5.1.47 7.65"/><path fill="none" stroke="transparent" stroke-width="2" d="M949.73 73.51c0 2.56-.16 5.13-.47 7.66-.3 2.53-.77 5.07-1.38 7.54-.61 2.48-1.38 4.94-2.28 7.33-.9 2.38-1.96 4.73-3.15 6.99a62.506 62.506 0 0 1-3.97 6.56c-1.45 2.1-3.03 4.13-4.73 6.04a63.005 63.005 0 0 1-5.42 5.42c-1.91 1.7-3.94 3.28-6.04 4.73-2.1 1.45-4.3 2.79-6.56 3.97a62.521 62.521 0 0 1-6.99 3.15c-2.39.9-4.85 1.67-7.33 2.28a62.09 62.09 0 0 1-7.54 1.38c-2.53.31-5.1.47-7.66.47-2.55 0-5.12-.16-7.65-.47-2.54-.3-5.07-.77-7.55-1.38-2.47-.61-4.93-1.38-7.32-2.28-2.38-.9-4.73-1.96-6.99-3.15a62.646 62.646 0 0 1-6.57-3.97c-2.1-1.45-4.12-3.03-6.03-4.73a64.585 64.585 0 0 1-5.43-5.42 64.148 64.148 0 0 1-4.73-6.04c-1.45-2.1-2.78-4.3-3.96-6.56a62.521 62.521 0 0 1-3.15-6.99c-.91-2.39-1.67-4.85-2.28-7.33-.62-2.47-1.08-5.01-1.39-7.54-.3-2.53-.46-5.1-.46-7.66 0-2.55.16-5.12.46-7.65.31-2.54.77-5.07 1.39-7.55A63.219 63.219 0 0 1 829.98 44a62.56 62.56 0 0 1 3.96-6.57c1.45-2.1 3.04-4.12 4.73-6.03 1.7-1.91 3.52-3.73 5.43-5.43 1.91-1.69 3.93-3.28 6.03-4.73a62.56 62.56 0 0 1 6.57-3.96 63.219 63.219 0 0 1 14.31-5.43c2.48-.62 5.01-1.08 7.55-1.39 2.53-.3 5.1-.46 7.65-.46 2.56 0 5.13.16 7.66.46 2.53.31 5.07.77 7.54 1.39 2.48.61 4.94 1.37 7.33 2.28 2.38.9 4.73 1.96 6.99 3.15 2.26 1.18 4.46 2.51 6.56 3.96 2.1 1.45 4.13 3.04 6.04 4.73 1.91 1.7 3.73 3.52 5.42 5.43 1.7 1.91 3.28 3.93 4.73 6.03 1.45 2.1 2.79 4.31 3.97 6.57 1.19 2.26 2.25 4.61 3.15 6.99.9 2.39 1.67 4.85 2.28 7.32a62.25 62.25 0 0 1 1.38 7.55c.31 2.53.47 5.1.47 7.65"/></g><text x="31.566" y="14.72" fill="#fff" dominant-baseline="alphabetic" font-family="Helvetica, Segoe UI Emoji" font-size="16" style="white-space:pre" text-anchor="middle" transform="translate(854.736 64.403)">Receiver</text><g stroke-linecap="round" mask="url(#mask-TEr42K2PChBs4q-o-mkii)"><path fill="none" stroke="#aaa" stroke-width="4" d="M149.487 73.514h116.86m-116.86 0h116.86"/><path fill="#aaa" fill-rule="evenodd" stroke-width="0" d="m266.347 73.514-13.6 6.34v-12.68l13.6 6.34"/><path fill="none" stroke="#aaa" stroke-width="4" d="m266.347 73.514-13.6 6.34m13.6-6.34c-4.98 2.32-9.97 4.65-13.6 6.34m0 0v-12.68m0 12.68v-12.68m0 0c4.13 1.92 8.25 3.84 13.6 6.34m-13.6-6.34c4.81 2.24 9.61 4.48 13.6 6.34m0 0s0 0 0 0m0 0s0 0 0 0"/></g><mask id="mask-TEr42K2PChBs4q-o-mkii"><path fill="#fff" d="M0 0h366.346v173.514H0z"/><path d="M193.245 64.314h29.344v18.4h-29.344z"/></mask><text x="14.672" y="14.72" fill="#1e1e1e" dominant-baseline="alphabetic" font-family="Helvetica, Segoe UI Emoji" font-size="16" style="white-space:pre" text-anchor="middle" transform="translate(193.245 64.314)">JPY</text><g stroke-linecap="round" mask="url(#mask-thHW6qE3CDrsqT4TUaElF)"><path fill="none" stroke="#aaa" stroke-width="4" d="M418.293 73.514h120m-120 0h120"/><path fill="#aaa" fill-rule="evenodd" stroke-width="0" d="m538.293 73.514-13.59 6.34v-12.68l13.59 6.34"/><path fill="none" stroke="#aaa" stroke-width="4" d="M538.293 73.514c-4.3 2.01-8.61 4.01-13.59 6.34m13.59-6.34c-3.44 1.6-6.87 3.2-13.59 6.34m0 0v-12.68m0 12.68v-12.68m0 0c4.88 2.28 9.77 4.56 13.59 6.34m-13.59-6.34c4.55 2.12 9.1 4.25 13.59 6.34m0 0s0 0 0 0m0 0s0 0 0 0"/></g><mask id="mask-thHW6qE3CDrsqT4TUaElF"><path fill="#fff" d="M0 0h638.293v173.514H0z"/><path d="M461.402 64.314h33.781v18.4h-33.781z"/></mask><text x="16.891" y="14.72" fill="#1e1e1e" dominant-baseline="alphabetic" font-family="Helvetica, Segoe UI Emoji" font-size="16" style="white-space:pre" text-anchor="middle" transform="translate(461.402 64.314)">EUR</text><g stroke-linecap="round" mask="url(#mask-OdLQ6OaebNqT9p1SuUGz5)"><path fill="none" stroke="#aaa" stroke-width="4" d="M690.24 73.514h120m-120 0h120"/><path fill="#aaa" fill-rule="evenodd" stroke-width="0" d="m810.24 73.514-13.59 6.34v-12.68l13.59 6.34"/><path fill="none" stroke="#aaa" stroke-width="4" d="M810.24 73.514c-3.7 1.73-7.41 3.45-13.59 6.34m13.59-6.34c-4.55 2.12-9.1 4.24-13.59 6.34m0 0v-12.68m0 12.68v-12.68m0 0c3.85 1.8 7.71 3.6 13.59 6.34m-13.59-6.34c4.14 1.93 8.29 3.87 13.59 6.34m0 0s0 0 0 0m0 0s0 0 0 0"/></g><mask id="mask-OdLQ6OaebNqT9p1SuUGz5"><path fill="#fff" d="M0 0h910.24v173.514H0z"/><path d="M733.349 64.314h33.781v18.4h-33.781z"/></mask><text x="16.891" y="14.72" fill="#1e1e1e" dominant-baseline="alphabetic" font-family="Helvetica, Segoe UI Emoji" font-size="16" style="white-space:pre" text-anchor="middle" transform="translate(733.349 64.314)">USD</text></svg>
