<svg xmlns="http://www.w3.org/2000/svg" width="1082" height="308" fill="none" viewBox="0 0 1082 308"><path fill="#000" d="M365.173 166.501V56.536h12.114V166.5h-12.114ZM414.253 166.501h-11.804V87.288h11.804v5.592c8.698-4.66 16.774-7.145 24.54-7.145 10.562 0 17.706 2.796 21.434 8.698 3.728 5.592 5.591 15.843 5.591 30.442v41.936h-11.804v-41.936c0-10.872-1.242-18.638-3.106-22.676-2.175-4.038-6.834-6.213-13.979-6.213-3.417 0-6.834.622-10.872 1.553-3.728.932-6.523 1.864-8.698 2.796l-3.106 1.553v64.613ZM528.256 97.54h-25.161v37.897c0 9.009.621 15.221 1.864 18.017 1.242 2.796 4.349 4.349 9.319 4.349l13.978-.932.932 9.94c-7.144 1.243-12.425 1.864-16.153 1.864-8.387 0-13.978-1.864-17.085-5.902-3.106-4.038-4.659-11.804-4.659-22.987V97.54h-11.183V87.289h11.183v-24.23h11.804v24.23h25.161v10.25ZM596.907 156.56l4.66-.621.31 9.319c-12.115 1.553-22.366 2.485-31.063 2.485-11.494 0-19.57-3.417-24.23-9.94-4.66-6.524-7.145-16.775-7.145-30.753 0-27.957 11.183-41.625 33.238-41.625 10.562 0 18.639 3.106 23.919 9.008 5.281 5.902 8.077 15.532 8.077 28.268l-.621 9.008h-52.498c0 8.698 1.553 15.222 4.66 19.57 3.106 4.349 8.698 6.213 16.463 6.213 8.077 0 16.153-.31 24.23-.932Zm-4.349-34.48c0-9.63-1.553-16.464-4.659-20.502-3.107-4.038-8.077-5.902-15.222-5.902-7.144 0-12.425 2.174-15.842 6.212-3.417 4.349-5.281 10.873-5.591 20.192h41.314ZM623 166.501V87.288h11.804v10.873c9.319-6.213 18.949-10.562 29.2-12.426V97.85c-4.349.932-9.009 2.175-13.979 4.038-4.97 1.864-8.387 3.417-11.183 4.66l-4.038 2.174v58.4H623v-.621ZM678.915 166.501V52.497h11.804v114.004h-11.804ZM768.688 156.56l4.659-.621.311 9.319c-12.115 1.553-22.366 2.485-31.064 2.485-11.493 0-19.57-3.417-24.229-9.94-4.66-6.524-7.145-16.775-7.145-30.753 0-27.957 11.183-41.625 33.238-41.625 10.562 0 18.638 3.106 23.919 9.008 5.281 5.902 8.076 15.532 8.076 28.268l-.621 9.008h-52.497c0 8.698 1.553 15.222 4.659 19.57 3.107 4.349 8.698 6.213 16.464 6.213 8.077 0 16.153-.31 24.23-.932Zm-4.349-34.48c0-9.63-1.554-16.464-4.66-20.502s-8.076-5.902-15.221-5.902-12.425 2.174-15.842 6.212c-3.417 4.349-5.281 10.873-5.592 20.192h41.315ZM855.666 52.498V166.5h-11.804v-5.281c-8.077 4.659-16.153 6.834-24.23 6.834-4.349 0-8.076-.621-11.183-1.553-3.106-.932-6.212-3.107-9.008-5.592-5.592-5.591-8.698-16.153-8.698-31.685 0-15.531 2.485-26.404 7.766-33.237 5.281-6.834 13.668-10.251 25.472-10.251 6.213 0 12.736.62 19.57 2.174V52.498h12.115ZM814.662 156.25c1.864.621 4.349 1.242 7.455 1.242 3.107 0 6.524-.621 10.251-1.553 3.728-.932 6.834-1.864 8.698-2.796l3.106-1.553V97.85c-6.833-1.242-13.046-1.863-18.948-1.863-8.077 0-13.668 2.485-16.775 7.765-3.106 5.281-4.659 13.047-4.659 23.919 0 12.426 1.864 20.502 5.591 24.851 1.553 1.864 3.107 3.106 5.281 3.728ZM909.406 203.777c-12.736 0-21.434-1.864-26.715-5.281-4.97-3.417-7.455-9.63-7.455-18.949 0-4.349.932-7.766 2.795-10.561 1.864-2.796 5.281-5.592 9.63-9.009-3.106-1.864-4.349-5.591-4.349-10.872 0-1.864 1.243-5.281 4.038-9.94l1.554-2.485c-8.387-3.728-12.426-11.805-12.426-23.919 0-18.017 9.941-27.026 29.821-27.026 4.97 0 9.941.622 13.979 1.553l2.485.622 23.608-.621v10.25l-15.221-.31c3.417 3.417 5.281 8.698 5.281 15.842 0 9.941-2.485 16.775-7.455 20.813-4.971 4.038-12.736 5.902-23.298 5.902-2.796 0-5.591-.311-7.766-.621-1.864 4.659-2.796 7.766-2.796 9.008 0 3.417.932 5.281 3.107 6.213 1.864.932 8.076 1.242 18.327 1.242 10.251 0 17.396 1.554 22.055 4.66 4.66 3.106 6.524 9.319 6.524 18.638-.311 16.464-12.115 24.851-35.723 24.851Zm-22.366-24.851c0 5.591 1.553 9.63 4.659 11.804 3.107 2.175 9.009 3.106 17.396 3.106s14.6-1.242 18.017-3.416c3.417-2.175 5.591-6.213 5.591-11.805 0-5.591-1.242-9.008-4.038-10.561-2.796-1.553-7.766-2.485-15.532-2.485l-17.085-.932c-3.417 2.485-5.902 4.659-7.144 6.523-1.243 2.485-1.864 4.66-1.864 7.766Zm1.242-66.165c0 6.212 1.554 10.561 4.349 13.357 2.796 2.796 7.455 4.038 13.979 4.038 6.523 0 11.183-1.242 13.668-4.038 2.796-2.796 4.038-7.145 4.038-13.357 0-6.213-1.242-10.873-4.038-13.358-2.796-2.795-7.455-4.038-13.668-4.038-6.524 0-11.183 1.243-13.979 4.038-3.106 2.485-4.349 7.145-4.349 13.358ZM1014.4 156.56l4.66-.621.31 9.319c-12.11 1.553-22.365 2.485-31.063 2.485-11.493 0-19.57-3.417-24.229-9.94-4.66-6.524-7.145-16.775-7.145-30.753 0-27.957 11.183-41.625 33.238-41.625 10.559 0 18.639 3.106 23.919 9.008 5.28 5.902 8.08 15.532 8.08 28.268l-.62 9.008h-52.502c0 8.698 1.553 15.222 4.66 19.57 3.106 4.349 8.697 6.213 16.463 6.213 8.077 0 16.149-.31 24.229-.932Zm-4.35-34.48c0-9.63-1.55-16.464-4.66-20.502-3.1-4.038-8.074-5.902-15.219-5.902-7.144 0-12.425 2.174-15.842 6.212-3.417 4.349-5.281 10.873-5.592 20.192h41.313ZM1040.49 166.501V87.288h11.81v10.873c9.32-6.213 18.95-10.562 29.2-12.426V97.85c-4.35.932-9.01 2.175-13.98 4.038-4.97 1.864-8.39 3.417-11.18 4.66l-4.04 2.174v58.4h-11.81v-.621ZM381.814 227.795c-6.838 0-10.257 2.396-10.257 7.188 0 2.477.807 4.253 2.423 5.33 1.615 1.023 5.169 2.316 10.661 3.877 5.546 1.508 9.449 3.338 11.711 5.492 2.261 2.1 3.392 5.438 3.392 10.015 0 5.815-1.669 10.176-5.008 13.084-3.284 2.854-7.78 4.281-13.487 4.281-4.577 0-9.638-.539-15.184-1.616l-2.908-.565.889-7.188c7.268.969 12.814 1.454 16.637 1.454 6.677 0 10.015-2.962 10.015-8.885 0-2.315-.754-4.011-2.261-5.088-1.508-1.131-4.9-2.342-10.177-3.634-5.276-1.346-9.207-3.177-11.791-5.492-2.585-2.316-3.877-5.977-3.877-10.984 0-5.008 1.615-8.777 4.846-11.308 3.284-2.584 7.807-3.876 13.568-3.876 4.146 0 9.046.484 14.7 1.454l2.826.484-.727 7.269c-7.538-.861-12.868-1.292-15.991-1.292ZM417.994 258.486c0 7.161 3.769 10.741 11.307 10.741s11.307-3.58 11.307-10.741v-37.637h9.046v37.475c0 6.515-1.723 11.28-5.169 14.295-3.392 2.962-8.48 4.443-15.264 4.443-6.731 0-11.792-1.481-15.184-4.443-3.392-3.015-5.088-7.78-5.088-14.295v-37.475h9.045v37.637ZM461.962 276.173v-55.324h15.588l12.357 43.209 12.357-43.209h15.668v55.324h-9.045v-45.39h-1.212l-13.084 43.129h-9.369l-13.084-43.129h-1.211v45.39h-8.965ZM530.581 276.173v-55.324h15.588l12.357 43.209 12.357-43.209h15.668v55.324h-9.045v-45.39h-1.212l-13.084 43.129h-9.369l-13.084-43.129h-1.211v45.39h-8.965ZM599.2 276.173v-55.324h8.965v55.324H599.2ZM615.559 228.845v-7.996h40.383v7.996h-15.588v47.328h-9.046v-47.328h-15.749Z"/><path fill="url(#a)" d="M285.65 88.842c-4.97-6.834-6.834-14.91-6.834-14.91-17.395-47.217-51.565-52.498-57.778-53.12-5.902-.62-23.298-3.416-34.48-12.425C176.617.311 156.426 0 153.941 0c-2.485 0-22.366 0-32.927 8.387-11.183 9.009-28.268 11.804-34.481 12.426-5.902.62-40.072 5.902-57.778 53.118 0 0-1.864 8.077-6.834 14.91-4.97 6.835-32.617 23.609-17.396 84.804 0 0 4.66 12.115 4.038 18.638-.62 6.524-4.66 46.285 43.8 73.621 0 0 9.32 4.659 15.532 14.289 6.523 9.63 28.889 33.859 79.523 26.404l6.212-1.242 6.213 1.242c50.634 7.145 72.999-16.774 79.523-26.404 6.523-9.63 15.531-14.289 15.531-14.289 48.46-27.336 44.421-66.787 43.8-73.621-.621-6.523 4.038-18.638 4.038-18.638 15.532-60.884-12.115-77.97-17.085-84.803Z"/><path fill="#fff" d="M263.906 99.714c-4.039-5.592-5.592-12.426-5.592-12.426-14.6-39.45-43.178-43.8-48.148-44.42-4.97-.622-19.57-2.796-28.579-10.252-8.697-7.144-25.161-7.144-27.336-7.144-2.174 0-18.638 0-27.335 7.145-9.32 7.455-23.609 9.63-28.579 10.25-4.97.622-33.549 4.97-48.149 44.421 0 0-1.553 6.834-5.59 12.426-4.35 5.591-27.337 19.88-14.911 70.514 0 0 3.727 9.94 3.417 15.532-.622 5.591-4.039 38.519 36.344 61.195 0 0 7.766 3.728 13.047 11.804 5.28 8.077 24.229 28.268 66.165 22.055l5.281-.932 5.281.932c42.246 5.902 60.884-13.978 66.165-22.055 5.281-8.076 13.047-11.804 13.047-11.804 40.382-22.676 36.965-55.604 36.344-61.195-.621-5.592 3.417-15.532 3.417-15.532 12.736-50.634-10.251-64.923-14.289-70.514Z"/><path stroke="#B2DAD3" stroke-miterlimit="10" stroke-width="3" d="M256.761 103.131c-3.728-5.28-5.281-11.804-5.281-11.804-13.668-36.966-40.382-41.004-45.042-41.625-4.659-.621-18.327-2.485-27.025-9.63-8.077-6.523-23.608-6.523-25.783-6.523-1.864 0-17.706 0-25.783 6.523-8.697 7.145-22.055 9.008-27.025 9.63-4.66.621-31.374 4.66-45.042 41.625 0 0-1.553 6.523-5.28 11.804-3.728 5.281-25.473 18.638-13.669 66.476 0 0 3.728 9.319 3.106 14.6-.62 5.281-3.727 36.344 34.17 57.468 0 0 7.145 3.727 12.115 11.182 4.97 7.456 22.677 26.404 62.127 20.813l4.97-.932 4.971.932c39.45 5.591 57.157-13.047 62.127-20.813 4.97-7.765 12.114-11.182 12.114-11.182 37.898-21.434 34.792-52.498 34.17-57.468-.621-5.281 3.107-14.6 3.107-14.6 12.425-48.148-9.319-61.195-13.047-66.476Z"/><path fill="url(#b)" d="M61.992 54.983a9.008 9.008 0 1 0 0-18.017 9.008 9.008 0 0 0 0 18.017Z"/><path fill="url(#c)" d="M36.831 96.608a9.008 9.008 0 1 0 0-18.017 9.008 9.008 0 0 0 0 18.017Z"/><path fill="url(#d)" d="M13.534 140.407a9.009 9.009 0 1 0-.001-18.016 9.009 9.009 0 0 0 0 18.016Z"/><path fill="url(#e)" d="M18.814 185.76a9.008 9.008 0 0 0 9.009-9.008 9.008 9.008 0 1 0-18.017 0 9.008 9.008 0 0 0 9.008 9.008Z"/><path fill="url(#f)" d="M27.512 232.666a9.008 9.008 0 0 0 9.009-9.009 9.008 9.008 0 0 0-9.009-9.008 9.008 9.008 0 1 0 0 18.017Z"/><path fill="url(#g)" d="M61.371 265.904a9.008 9.008 0 0 0 9.009-9.008 9.008 9.008 0 1 0-18.017 0 9.008 9.008 0 0 0 9.008 9.008Z"/><path fill="url(#h)" d="M98.648 298.21a9.008 9.008 0 0 0 9.008-9.008 9.008 9.008 0 1 0-18.017 0 9.008 9.008 0 0 0 9.009 9.008Z"/><path fill="url(#i)" d="M154.562 302.869a9.008 9.008 0 1 0 0-18.016 9.009 9.009 0 1 0 0 18.016Z"/><path fill="url(#j)" d="M108.588 37.898a9.008 9.008 0 0 0 9.008-9.009 9.008 9.008 0 1 0-18.017 0 9.009 9.009 0 0 0 9.009 9.009Z"/><path fill="url(#k)" d="M246.199 54.983a9.008 9.008 0 1 0 .001-18.017 9.008 9.008 0 0 0-.001 18.017Z"/><path fill="url(#l)" d="M271.672 96.608a9.008 9.008 0 0 0 9.008-9.009 9.008 9.008 0 1 0-9.008 9.008Z"/><path fill="url(#m)" d="M294.969 140.407a9.009 9.009 0 1 0-.002-18.016 9.009 9.009 0 0 0 .002 18.016Z"/><path fill="url(#n)" d="M289.378 185.76a9.008 9.008 0 0 0 9.009-9.008 9.008 9.008 0 0 0-9.009-9.009 9.008 9.008 0 0 0-9.008 9.009 9.008 9.008 0 0 0 9.008 9.008Z"/><path fill="url(#o)" d="M280.99 232.666a9.008 9.008 0 0 0 9.009-9.009 9.008 9.008 0 0 0-9.009-9.008 9.008 9.008 0 0 0-9.008 9.008 9.008 9.008 0 0 0 9.008 9.009Z"/><path fill="url(#p)" d="M246.82 265.904a9.008 9.008 0 0 0 9.009-9.008 9.008 9.008 0 0 0-9.009-9.009 9.008 9.008 0 0 0-9.008 9.009 9.008 9.008 0 0 0 9.008 9.008Z"/><path fill="url(#q)" d="M209.855 298.21a9.009 9.009 0 1 0 0-18.018 9.009 9.009 0 0 0 0 18.018Z"/><path fill="url(#r)" d="M199.604 37.898a9.008 9.008 0 0 0 9.008-9.009 9.008 9.008 0 1 0-18.016 0 9.008 9.008 0 0 0 9.008 9.009Z"/><path fill="url(#s)" d="M154.873 21.434a9.008 9.008 0 0 0 9.008-9.009 9.01 9.01 0 1 0-9.008 9.008Z"/><path fill="url(#t)" d="M153.941 90.084c-.311 16.464-7.145 32.617-18.949 44.421-1.243 1.243-9.941-13.046-10.562-13.978-9.319-14.6-11.493-32.617-5.591-49.08 3.106-8.388 8.076-16.154 13.668-22.988.932-.932 1.553-1.864 2.485-2.796 1.864-1.863 9.94 11.494 10.561 12.737 5.902 9.63 8.698 20.502 8.388 31.684Z"/><path fill="url(#u)" d="M116.043 89.463c11.183 11.804 18.017 28.268 18.017 45.042 0 1.864-16.153-2.174-17.396-2.485-16.774-4.038-31.063-14.91-38.829-30.753-3.728-8.076-5.902-17.085-6.523-26.093 0-1.243-.311-2.485-.311-3.728 0-2.795 14.91 1.243 16.464 1.553 10.872 2.486 20.812 8.077 28.578 16.464Z"/><path fill="url(#v)" d="M89.95 115.556c16.463.311 32.616 7.145 44.421 18.949 1.242 1.243-13.047 9.94-13.979 10.562-14.6 9.319-32.617 11.493-49.08 5.591-8.388-3.106-16.154-8.076-22.987-13.668-.932-.932-1.864-1.553-2.796-2.485-1.864-1.864 11.493-9.94 12.736-10.561 9.319-5.903 20.502-8.698 31.685-8.388Z"/><path fill="url(#w)" d="M153.941 217.756c-.311-16.464-7.145-32.617-18.949-44.421-1.243-1.243-9.941 13.046-10.562 13.978-9.319 14.6-11.493 32.617-5.591 49.081 3.106 8.387 8.076 16.153 13.668 22.987.932.932 1.553 1.864 2.485 2.795 1.864 1.864 9.94-11.493 10.561-12.736 5.902-9.319 8.698-20.502 8.388-31.684Z"/><path fill="url(#x)" d="M116.043 218.687c11.183-11.804 18.017-28.268 18.017-45.042 0-1.864-16.153 2.175-17.396 2.485-16.774 4.038-31.063 14.911-38.829 30.753-3.728 8.077-5.902 17.085-6.523 26.093 0 1.243-.311 2.486-.311 3.728 0 2.796 14.91-1.242 16.464-1.553 10.872-2.796 20.812-8.387 28.578-16.464Z"/><path fill="url(#y)" d="M89.95 192.594c16.463-.311 32.616-7.145 44.421-18.949 1.242-1.242-13.047-9.94-13.979-10.561-14.6-9.319-32.617-11.494-49.08-5.592-8.388 3.107-16.154 8.077-22.987 13.668-.932.932-1.864 1.553-2.796 2.485-1.864 1.864 11.493 9.941 12.736 10.562 9.319 5.591 20.502 8.698 31.685 8.387Z"/><path fill="url(#z)" d="M153.94 217.756c.311-16.464 7.145-32.617 18.949-44.421 1.243-1.243 9.941 13.046 10.562 13.978 9.319 14.6 11.493 32.617 5.591 49.081-3.106 8.387-8.076 16.153-13.668 22.987-.932.932-1.553 1.864-2.485 2.795-1.864 1.864-9.94-11.493-10.561-12.736-5.592-9.319-8.388-20.502-8.388-31.684Z"/><path fill="url(#A)" d="M192.149 218.687c-11.183-11.804-18.017-28.268-18.017-45.042 0-1.864 16.153 2.175 17.395 2.485 16.775 4.038 31.064 14.911 38.83 30.753 3.727 8.077 5.902 17.085 6.523 26.093 0 1.243.311 2.486.311 3.728 0 2.796-14.911-1.242-16.464-1.553-10.872-2.796-20.812-8.387-28.578-16.464Z"/><path fill="url(#B)" d="M218.242 192.594c-16.463-.311-32.616-7.145-44.42-18.949-1.243-1.242 13.046-9.94 13.978-10.561 14.6-9.319 32.617-11.494 49.08-5.592 8.388 3.107 16.154 8.077 22.988 13.668.931.932 1.863 1.553 2.795 2.485 1.864 1.864-11.493 9.941-12.736 10.562-9.319 5.591-20.502 8.698-31.685 8.387Z"/><path fill="url(#C)" d="M153.94 90.084c.311 16.464 7.145 32.617 18.949 44.421 1.243 1.243 9.941-13.046 10.562-13.978 9.319-14.6 11.493-32.617 5.591-49.08-3.106-8.388-8.076-16.154-13.668-22.988-.932-.932-1.553-1.864-2.485-2.796-1.864-1.863-9.94 11.494-10.561 12.737-5.592 9.63-8.388 20.502-8.388 31.684Z"/><path fill="url(#D)" d="M192.149 89.463c-11.183 11.804-18.017 28.268-18.017 45.042 0 1.864 16.153-2.174 17.395-2.485 16.775-4.038 31.064-14.91 38.83-30.753 3.727-8.076 5.902-17.085 6.523-26.093 0-1.243.311-2.485.311-3.728 0-2.795-14.911 1.243-16.464 1.553-10.872 2.486-20.812 8.077-28.578 16.464Z"/><path fill="url(#E)" d="M218.242 115.556c-16.463.311-32.616 7.145-44.42 18.949-1.243 1.243 13.046 9.94 13.978 10.562 14.6 9.319 32.617 11.493 49.08 5.591 8.388-3.106 16.154-8.076 22.988-13.668.931-.932 1.863-1.553 2.795-2.485 1.864-1.864-11.493-9.94-12.736-10.561-9.319-5.903-20.502-8.698-31.685-8.388Z"/><path fill="url(#F)" d="M199.605 108.722c-11.804 11.183-28.268 18.017-45.042 18.017-1.864 0 2.174-16.153 2.485-17.395 4.038-16.775 14.91-31.064 30.753-38.83 8.076-3.727 17.085-5.902 26.093-6.523 1.243 0 2.485-.31 3.728-.31 2.795 0-1.243 14.91-1.554 16.463-2.485 11.183-8.387 21.123-16.463 28.578Z"/><path fill="url(#G)" d="M173.201 81.386c-.311 16.464-7.145 32.617-18.949 44.421-1.243 1.243-9.941-13.046-10.562-13.978-9.319-14.6-11.493-32.617-5.591-49.08 3.106-8.388 8.076-16.154 13.668-22.988.932-.932 1.553-1.864 2.485-2.796 1.864-1.863 9.94 11.494 10.561 12.737 5.902 9.319 8.698 20.502 8.388 31.684Z"/><path fill="url(#H)" d="M136.235 81.386c11.183 11.804 18.017 28.268 18.017 45.042 0 1.864-16.153-2.174-17.396-2.485-16.774-4.038-31.063-14.91-38.829-30.753-3.728-8.076-5.902-17.085-6.523-26.093 0-1.242-.31-2.485-.31-3.728 0-2.795 14.91 1.243 16.463 1.554 11.183 2.485 21.123 8.387 28.578 16.463Z"/><path fill="url(#I)" d="M109.209 199.117c11.183-11.804 18.017-28.268 18.017-45.042 0-1.864-16.153 2.174-17.395 2.485-16.775 4.038-31.064 14.911-38.83 30.753-3.727 8.076-5.902 17.085-6.523 26.093 0 1.243-.31 2.485-.31 3.728 0 2.796 14.91-1.243 16.463-1.553 11.183-2.485 21.123-8.387 28.578-16.464Z"/><path fill="url(#J)" d="M81.874 172.713c16.463-.31 32.616-7.144 44.42-18.949 1.243-1.242-13.046-9.94-13.978-10.561-14.6-9.319-32.617-11.494-49.08-5.592-8.388 3.107-16.154 8.077-22.987 13.668-.932.932-1.864 1.554-2.796 2.485-1.864 1.864 11.493 9.941 12.736 10.562 9.319 5.902 20.502 8.698 31.685 8.387Z"/><path fill="url(#K)" d="M81.874 135.748c11.804 11.182 28.268 18.016 45.042 18.016 1.864 0-2.174-16.153-2.485-17.395-4.038-16.775-14.91-31.064-30.753-38.83-8.076-3.727-17.085-5.902-26.093-6.523-1.243 0-2.485-.31-3.728-.31-2.796 0 1.243 14.91 1.553 16.463 2.485 11.183 8.387 21.123 16.464 28.579Z"/><path fill="url(#L)" d="M109.52 199.117c11.804-11.183 28.268-18.017 45.042-18.017 1.864 0-2.174 16.153-2.485 17.396-4.038 16.774-14.91 31.063-30.753 38.829-8.076 3.728-17.085 5.902-26.093 6.524-1.242 0-2.485.31-3.728.31-2.795 0 1.243-14.91 1.554-16.463 2.485-10.873 8.076-20.813 16.463-28.579Z"/><path fill="url(#M)" d="M135.613 226.764c.311-16.464 7.145-32.617 18.949-44.421 1.243-1.243 9.94 13.047 10.562 13.978 9.319 14.6 11.493 32.617 5.591 49.081-3.106 8.387-8.076 16.153-13.668 22.987-.932.932-1.553 1.864-2.485 2.796-1.864 1.863-9.94-11.494-10.561-12.736-5.592-9.63-8.388-20.502-8.388-31.685Z"/><path fill="url(#N)" d="M172.579 226.764c-11.183-11.804-18.017-28.268-18.017-45.042 0-1.864 16.153 2.174 17.396 2.485 16.774 4.038 31.064 14.91 38.829 30.753 3.728 8.076 5.902 17.085 6.524 26.093 0 1.242.31 2.485.31 3.728 0 2.795-14.91-1.243-16.463-1.554-10.873-2.795-20.813-8.387-28.579-16.463Z"/><path fill="url(#O)" d="M199.604 109.033c-11.183 11.804-18.016 28.268-18.016 45.042 0 1.864 16.153-2.174 17.395-2.485 16.774-4.038 31.064-14.911 38.83-30.753 3.727-8.076 5.902-17.085 6.523-26.093 0-1.243.311-2.485.311-3.728 0-2.796-14.911 1.243-16.464 1.553-10.872 2.485-20.813 8.077-28.579 16.464Z"/><path fill="url(#P)" d="M227.251 135.126c-16.464.311-32.617 7.145-44.421 18.949-1.242 1.243 13.047 9.941 13.979 10.562 14.6 9.319 32.617 11.493 49.08 5.591 8.387-3.106 16.153-8.076 22.987-13.668.932-.932 1.864-1.553 2.796-2.485 1.864-1.864-11.493-9.94-12.736-10.561-9.63-5.592-20.502-8.388-31.685-8.388Z"/><path fill="url(#Q)" d="M227.251 172.092c-11.804-11.183-28.268-18.017-45.042-18.017-1.864 0 2.174 16.153 2.485 17.396 4.038 16.774 14.91 31.063 30.753 38.829 8.076 3.728 17.085 5.902 26.093 6.523 1.243 0 2.485.311 3.728.311 2.796 0-1.243-14.91-1.553-16.464-2.796-10.872-8.387-20.812-16.464-28.578Z"/><path fill="url(#R)" d="M153.941 233.287c43.747 0 79.212-35.464 79.212-79.212 0-43.748-35.465-79.212-79.212-79.212-43.748 0-79.213 35.464-79.213 79.212 0 43.748 35.465 79.212 79.213 79.212Z"/><path fill="#fff" d="M126.605 94.744c-.621-4.97 1.243-11.183 7.145-10.251 4.349.621 6.212 5.28 9.008 8.076.932.932 3.728 9.009 11.494 8.388 7.766-.311 13.357-12.736 13.357-12.736 1.243-3.107 4.66-5.281 8.077-4.35 6.834 1.864 5.591 11.805 4.97 17.086-.311 4.97 1.553 11.182 8.387 12.114 3.727.311 7.455-.621 10.561-2.174 4.039-1.553 9.63-5.592 13.358-1.243 3.727 4.349-.932 9.941-3.417 13.668-3.107 4.349-8.698 9.009-4.66 16.775 1.864 3.727 6.213 5.28 10.251 6.523 2.796.621 6.524.621 9.009 2.485 2.485 1.864 3.106 5.591 1.553 8.077-.932 1.863-2.485 3.106-4.349 3.727-5.902 2.485-13.668 1.864-18.017 7.766-3.106 4.349.621 9.94 3.106 13.357 2.796 3.728 6.834 7.145 7.145 12.115 0 1.864-.311 3.728-1.864 4.66-1.242.621-2.485.932-4.038.932-4.038 0-7.766-2.485-11.494-3.728-4.038-1.243-9.629-.932-12.736 2.174-4.348 4.349-3.417 13.358-3.417 18.949 0 .932 0 2.175-.31 3.107-1.243 2.485-4.349 2.795-6.834 2.174-5.592-1.553-9.009-7.145-12.115-11.493-3.417-4.971-8.387-5.592-13.047-1.864-4.038 3.106-5.902 7.455-9.008 11.493-1.553 2.175-4.038 3.728-6.834 3.728-6.834-.311-6.213-10.562-5.592-15.221.311-2.485 1.554-6.834-.31-9.009-5.592-6.834-12.736-4.349-19.881-1.553-3.106 1.243-7.144 1.864-9.63-.311-3.106-2.485-3.727-9.008-.62-11.804 4.038-3.417 15.531-17.085.931-22.676-4.038-1.553-9.008-1.243-12.736-4.038-4.97-3.728-3.106-9.941 2.174-11.804 8.077-2.796 15.843-4.66 16.464-9.32.311-4.659 1.243-8.387-5.28-15.531-3.107-3.417-4.039-7.766-1.243-11.804 2.796-4.039 10.561-.311 13.978.931 12.115 4.349 16.153-3.106 15.843-6.212.31-3.107.621-11.183.621-11.183Z"/><path fill="url(#S)" d="M153.941 203.156c27.107 0 49.081-21.974 49.081-49.081 0-27.106-21.974-49.08-49.081-49.08-27.106 0-49.08 21.974-49.08 49.08 0 27.107 21.974 49.081 49.08 49.081Z" opacity=".8"/><path fill="url(#T)" d="M171.647 146.62c-4.659 4.349-11.183 7.144-17.706 7.144-.621 0 .932-6.212.932-6.834 1.553-6.523 5.902-12.114 12.115-15.221 3.106-1.553 6.834-2.174 10.251-2.485h1.553c.932 0-.311 5.902-.622 6.524-.931 4.038-3.106 8.076-6.523 10.872Z"/><path fill="url(#U)" d="M146.796 171.16c-4.659 4.349-11.183 7.145-17.706 7.145-.621 0 .932-6.213.932-6.834 1.553-6.524 5.902-12.115 12.115-15.221 3.106-1.554 6.834-2.175 10.251-2.485h1.553c.932 0-.311 5.902-.621 6.523-1.243 4.038-3.417 7.766-6.524 10.872Z"/><path fill="url(#V)" d="M160.775 171.471c-4.349-4.66-7.145-11.183-7.145-17.707 0-.621 6.213.932 6.834.932 6.524 1.553 12.115 5.902 15.221 12.115 1.554 3.106 2.175 6.834 2.485 10.251v1.553c0 .932-5.902-.31-6.523-.621-4.038-1.243-7.766-3.417-10.872-6.523Z"/><path fill="url(#W)" d="M136.235 146.309c-4.349-4.659-7.145-11.183-7.145-17.706 0-.621 6.213.932 6.834.932 6.524 1.553 12.115 5.902 15.222 12.115 1.553 3.106 2.174 6.834 2.485 10.251v1.553c0 .932-5.902-.311-6.524-.621-4.038-.932-7.766-3.107-10.872-6.524Z"/><path fill="url(#X)" d="M161.706 136.68c-.31 6.523-2.795 12.736-7.455 17.395-.621.621-3.727-4.97-4.038-5.591-3.728-5.902-4.66-12.736-2.174-19.26 1.242-3.417 3.106-6.523 5.28-9.008.311-.311.622-.621.932-1.243.621-.621 3.728 4.349 4.038 4.97 2.486 4.039 3.728 8.077 3.417 12.737Z"/><path fill="url(#Y)" d="M161.396 171.471c-.31 6.523-2.795 12.736-7.455 17.395-.621.622-3.728-4.97-4.038-5.591-3.728-5.591-4.66-12.736-2.175-18.949 1.243-3.417 3.107-6.523 5.281-9.008.311-.311.621-.622.932-1.243.621-.621 3.728 4.349 4.038 4.97 2.485 3.728 3.728 8.077 3.417 12.426Z"/><path fill="url(#Z)" d="M171.647 161.841c-6.523-.311-12.736-2.796-17.395-7.455-.622-.621 4.97-3.728 5.591-4.038 5.902-3.728 12.736-4.66 19.26-2.175 3.417 1.243 6.523 3.107 9.008 5.281.311.311.621.621 1.243.932.621.621-4.349 3.727-4.971 4.038-4.038 2.175-8.387 3.417-12.736 3.417Z"/><path fill="url(#aa)" d="M136.545 161.53c-6.523-.31-12.736-2.796-17.395-7.455-.621-.621 4.97-3.728 5.591-4.038 5.902-3.728 12.736-4.66 19.26-2.175 3.417 1.243 6.523 3.107 9.008 5.281.311.311.621.621 1.243.932.621.621-4.349 3.728-4.971 4.038-4.038 2.175-8.387 3.417-12.736 3.417Z"/><defs><linearGradient id="a" x1=".621" x2="307.518" y1="154.024" y2="154.024" gradientUnits="userSpaceOnUse"><stop offset=".002" stop-color="#8ED7C6"/><stop offset=".518" stop-color="#56ADAB"/><stop offset="1" stop-color="#80CDBF"/></linearGradient><linearGradient id="b" x1="53.077" x2="71.163" y1="45.868" y2="45.868" gradientUnits="userSpaceOnUse"><stop offset=".002" stop-color="#E0CC95"/><stop offset=".997" stop-color="#FF7A4E"/></linearGradient><linearGradient id="c" x1="27.707" x2="45.793" y1="87.621" y2="87.621" gradientUnits="userSpaceOnUse"><stop stop-color="#9976E5"/><stop offset="1" stop-color="#99B4D2"/></linearGradient><linearGradient id="d" x1="4.533" x2="22.619" y1="131.385" y2="131.385" gradientUnits="userSpaceOnUse"><stop stop-color="#FFBED2"/><stop offset=".998" stop-color="#FF8BA8"/></linearGradient><linearGradient id="e" x1="9.875" x2="27.961" y1="176.62" y2="176.62" gradientUnits="userSpaceOnUse"><stop offset=".002" stop-color="#008897"/><stop offset=".59" stop-color="#009E87"/><stop offset="1" stop-color="#00A880"/></linearGradient><linearGradient id="f" x1="18.504" x2="36.59" y1="223.575" y2="223.575" gradientUnits="userSpaceOnUse"><stop offset=".002" stop-color="#E0EE75"/><stop offset=".997" stop-color="#FFD265"/></linearGradient><linearGradient id="g" x1="52.444" x2="70.53" y1="256.905" y2="256.905" gradientUnits="userSpaceOnUse"><stop stop-color="#FFBED2"/><stop offset=".998" stop-color="#FF8BA8"/></linearGradient><linearGradient id="h" x1="89.652" x2="107.738" y1="289.149" y2="289.149" gradientUnits="userSpaceOnUse"><stop stop-color="#9976E5"/><stop offset="1" stop-color="#99B4D2"/></linearGradient><linearGradient id="i" x1="145.549" x2="163.635" y1="293.793" y2="293.793" gradientUnits="userSpaceOnUse"><stop offset=".002" stop-color="#E0CC95"/><stop offset=".997" stop-color="#FF7A4E"/></linearGradient><linearGradient id="j" x1="99.7" x2="117.785" y1="28.735" y2="28.735" gradientUnits="userSpaceOnUse"><stop stop-color="#FFBED2"/><stop offset=".998" stop-color="#FF8BA8"/></linearGradient><linearGradient id="k" x1="237.246" x2="255.332" y1="45.868" y2="45.868" gradientUnits="userSpaceOnUse"><stop stop-color="#FFBED2"/><stop offset=".998" stop-color="#FF8BA8"/></linearGradient><linearGradient id="l" x1="262.617" x2="280.703" y1="87.621" y2="87.621" gradientUnits="userSpaceOnUse"><stop stop-color="#9976E5"/><stop offset="1" stop-color="#99B4D2"/></linearGradient><linearGradient id="m" x1="285.79" x2="303.876" y1="131.385" y2="131.385" gradientUnits="userSpaceOnUse"><stop offset=".002" stop-color="#E0CC95"/><stop offset=".997" stop-color="#FF7A4E"/></linearGradient><linearGradient id="n" x1="280.449" x2="298.535" y1="176.62" y2="176.62" gradientUnits="userSpaceOnUse"><stop stop-color="#FFBED2"/><stop offset=".998" stop-color="#FF8BA8"/></linearGradient><linearGradient id="o" x1="271.819" x2="289.905" y1="223.575" y2="223.575" gradientUnits="userSpaceOnUse"><stop offset=".002" stop-color="#E0EE75"/><stop offset=".997" stop-color="#FFD265"/></linearGradient><linearGradient id="p" x1="237.879" x2="255.966" y1="256.905" y2="256.905" gradientUnits="userSpaceOnUse"><stop offset=".002" stop-color="#008897"/><stop offset=".59" stop-color="#009E87"/><stop offset="1" stop-color="#00A880"/></linearGradient><linearGradient id="q" x1="200.672" x2="218.758" y1="289.149" y2="289.149" gradientUnits="userSpaceOnUse"><stop stop-color="#FFBED2"/><stop offset=".998" stop-color="#FF8BA8"/></linearGradient><linearGradient id="r" x1="190.624" x2="208.71" y1="28.735" y2="28.735" gradientUnits="userSpaceOnUse"><stop offset=".002" stop-color="#008897"/><stop offset=".59" stop-color="#009E87"/><stop offset="1" stop-color="#00A880"/></linearGradient><linearGradient id="s" x1="145.833" x2="163.919" y1="12.299" y2="12.299" gradientUnits="userSpaceOnUse"><stop offset=".002" stop-color="#E0EE75"/><stop offset=".997" stop-color="#FFD265"/></linearGradient><linearGradient id="t" x1="115.48" x2="154.069" y1="90.123" y2="90.123" gradientUnits="userSpaceOnUse"><stop stop-color="#00A6CD"/><stop offset=".194" stop-color="#1AAAC5"/><stop offset=".554" stop-color="#45B0B7"/><stop offset=".835" stop-color="#60B5AF"/><stop offset="1" stop-color="#6AB6AC"/></linearGradient><linearGradient id="u" x1="70.982" x2="133.875" y1="102.57" y2="102.57" gradientUnits="userSpaceOnUse"><stop stop-color="#00A6CD"/><stop offset=".194" stop-color="#1AAAC5"/><stop offset=".554" stop-color="#45B0B7"/><stop offset=".835" stop-color="#60B5AF"/><stop offset="1" stop-color="#6AB6AC"/></linearGradient><linearGradient id="v" x1="45.2" x2="134.415" y1="134.73" y2="134.73" gradientUnits="userSpaceOnUse"><stop stop-color="#00A6CD"/><stop offset=".194" stop-color="#1AAAC5"/><stop offset=".554" stop-color="#45B0B7"/><stop offset=".835" stop-color="#60B5AF"/><stop offset="1" stop-color="#6AB6AC"/></linearGradient><linearGradient id="w" x1="115.48" x2="154.069" y1="217.926" y2="217.926" gradientUnits="userSpaceOnUse"><stop stop-color="#00A6CD"/><stop offset=".194" stop-color="#1AAAC5"/><stop offset=".554" stop-color="#45B0B7"/><stop offset=".835" stop-color="#60B5AF"/><stop offset="1" stop-color="#6AB6AC"/></linearGradient><linearGradient id="x" x1="70.982" x2="133.875" y1="205.477" y2="205.477" gradientUnits="userSpaceOnUse"><stop stop-color="#00A6CD"/><stop offset=".194" stop-color="#1AAAC5"/><stop offset=".554" stop-color="#45B0B7"/><stop offset=".835" stop-color="#60B5AF"/><stop offset="1" stop-color="#6AB6AC"/></linearGradient><linearGradient id="y" x1="45.2" x2="134.415" y1="173.319" y2="173.319" gradientUnits="userSpaceOnUse"><stop stop-color="#00A6CD"/><stop offset=".194" stop-color="#1AAAC5"/><stop offset=".554" stop-color="#45B0B7"/><stop offset=".835" stop-color="#60B5AF"/><stop offset="1" stop-color="#6AB6AC"/></linearGradient><linearGradient id="z" x1="154.069" x2="192.658" y1="217.926" y2="217.926" gradientUnits="userSpaceOnUse"><stop stop-color="#00A6CD"/><stop offset=".194" stop-color="#1AAAC5"/><stop offset=".554" stop-color="#45B0B7"/><stop offset=".835" stop-color="#60B5AF"/><stop offset="1" stop-color="#6AB6AC"/></linearGradient><linearGradient id="A" x1="174.263" x2="237.156" y1="205.477" y2="205.477" gradientUnits="userSpaceOnUse"><stop stop-color="#00A6CD"/><stop offset=".194" stop-color="#1AAAC5"/><stop offset=".554" stop-color="#45B0B7"/><stop offset=".835" stop-color="#60B5AF"/><stop offset="1" stop-color="#6AB6AC"/></linearGradient><linearGradient id="B" x1="173.723" x2="262.938" y1="173.319" y2="173.319" gradientUnits="userSpaceOnUse"><stop stop-color="#00A6CD"/><stop offset=".194" stop-color="#1AAAC5"/><stop offset=".554" stop-color="#45B0B7"/><stop offset=".835" stop-color="#60B5AF"/><stop offset="1" stop-color="#6AB6AC"/></linearGradient><linearGradient id="C" x1="154.069" x2="192.658" y1="90.123" y2="90.123" gradientUnits="userSpaceOnUse"><stop stop-color="#00A6CD"/><stop offset=".194" stop-color="#1AAAC5"/><stop offset=".554" stop-color="#45B0B7"/><stop offset=".835" stop-color="#60B5AF"/><stop offset="1" stop-color="#6AB6AC"/></linearGradient><linearGradient id="D" x1="174.263" x2="237.156" y1="102.57" y2="102.57" gradientUnits="userSpaceOnUse"><stop stop-color="#00A6CD"/><stop offset=".194" stop-color="#1AAAC5"/><stop offset=".554" stop-color="#45B0B7"/><stop offset=".835" stop-color="#60B5AF"/><stop offset="1" stop-color="#6AB6AC"/></linearGradient><linearGradient id="E" x1="173.723" x2="262.938" y1="134.73" y2="134.73" gradientUnits="userSpaceOnUse"><stop stop-color="#00A6CD"/><stop offset=".194" stop-color="#1AAAC5"/><stop offset=".554" stop-color="#45B0B7"/><stop offset=".835" stop-color="#60B5AF"/><stop offset="1" stop-color="#6AB6AC"/></linearGradient><linearGradient id="F" x1="154.262" x2="218.581" y1="95.379" y2="95.379" gradientUnits="userSpaceOnUse"><stop offset=".002" stop-color="#E0EE75"/><stop offset=".997" stop-color="#FFD265"/></linearGradient><linearGradient id="G" x1="134.691" x2="173.279" y1="81.257" y2="81.257" gradientUnits="userSpaceOnUse"><stop stop-color="#EBA790"/><stop offset="1" stop-color="#FF417D"/></linearGradient><linearGradient id="H" x1="91.45" x2="154.343" y1="94.57" y2="94.57" gradientUnits="userSpaceOnUse"><stop stop-color="#9976E5"/><stop offset="1" stop-color="#99B4D2"/></linearGradient><linearGradient id="I" x1="64.417" x2="127.31" y1="185.936" y2="185.936" gradientUnits="userSpaceOnUse"><stop stop-color="#67D265"/><stop offset="1" stop-color="#E0EE75"/></linearGradient><linearGradient id="J" x1="37.135" x2="126.349" y1="153.5" y2="153.5" gradientUnits="userSpaceOnUse"><stop stop-color="#FF8BA8"/><stop offset="1" stop-color="#FFBED2"/></linearGradient><linearGradient id="K" x1="62.897" x2="127.215" y1="122.411" y2="122.411" gradientUnits="userSpaceOnUse"><stop stop-color="#FF7A4E"/><stop offset="1" stop-color="#E0CC95"/></linearGradient><linearGradient id="L" x1="90.437" x2="154.756" y1="212.669" y2="212.669" gradientUnits="userSpaceOnUse"><stop offset=".002" stop-color="#E0EE75"/><stop offset=".997" stop-color="#FFD265"/></linearGradient><linearGradient id="M" x1="135.738" x2="174.327" y1="226.79" y2="226.79" gradientUnits="userSpaceOnUse"><stop stop-color="#EBA790"/><stop offset="1" stop-color="#FF417D"/></linearGradient><linearGradient id="N" x1="154.675" x2="217.568" y1="213.477" y2="213.477" gradientUnits="userSpaceOnUse"><stop offset=".002" stop-color="#E0CC95"/><stop offset=".997" stop-color="#FF7A4E"/></linearGradient><linearGradient id="O" x1="181.707" x2="244.6" y1="122.112" y2="122.112" gradientUnits="userSpaceOnUse"><stop offset=".002" stop-color="#E0EE75"/><stop offset=".997" stop-color="#67D265"/></linearGradient><linearGradient id="P" x1="182.668" x2="271.883" y1="154.548" y2="154.548" gradientUnits="userSpaceOnUse"><stop stop-color="#FFBED2"/><stop offset=".998" stop-color="#FF8BA8"/></linearGradient><linearGradient id="Q" x1="181.803" x2="246.121" y1="185.637" y2="185.637" gradientUnits="userSpaceOnUse"><stop stop-color="#99B4D2"/><stop offset="1" stop-color="#9976E5"/></linearGradient><linearGradient id="R" x1="74.928" x2="233.21" y1="154.024" y2="154.024" gradientUnits="userSpaceOnUse"><stop offset=".002" stop-color="#8ED7C6"/><stop offset=".518" stop-color="#56ADAB"/><stop offset="1" stop-color="#80CDBF"/></linearGradient><linearGradient id="S" x1="104.974" x2="203.165" y1="154.024" y2="154.024" gradientUnits="userSpaceOnUse"><stop offset=".002" stop-color="#8ED7C6"/><stop offset=".518" stop-color="#56ADAB"/><stop offset="1" stop-color="#80CDBF"/></linearGradient><linearGradient id="T" x1="153.896" x2="179.156" y1="141.434" y2="141.434" gradientUnits="userSpaceOnUse"><stop offset=".002" stop-color="#E0EE75"/><stop offset=".997" stop-color="#FFD265"/></linearGradient><linearGradient id="U" x1="128.921" x2="154.181" y1="165.91" y2="165.91" gradientUnits="userSpaceOnUse"><stop stop-color="#FFD265"/><stop offset="1" stop-color="#E0EE75"/></linearGradient><linearGradient id="V" x1="153.708" x2="178.409" y1="166.233" y2="166.233" gradientUnits="userSpaceOnUse"><stop offset=".002" stop-color="#E0EE75"/><stop offset=".997" stop-color="#FFD265"/></linearGradient><linearGradient id="W" x1="129.233" x2="153.933" y1="141.258" y2="141.258" gradientUnits="userSpaceOnUse"><stop stop-color="#FFD265"/><stop offset="1" stop-color="#E0EE75"/></linearGradient><linearGradient id="X" x1="146.668" x2="161.823" y1="136.54" y2="136.54" gradientUnits="userSpaceOnUse"><stop stop-color="#EBA790"/><stop offset="1" stop-color="#FF417D"/></linearGradient><linearGradient id="Y" x1="146.316" x2="161.471" y1="171.507" y2="171.507" gradientUnits="userSpaceOnUse"><stop stop-color="#EBA790"/><stop offset="1" stop-color="#FF417D"/></linearGradient><linearGradient id="Z" x1="154.034" x2="189.072" y1="154.201" y2="154.201" gradientUnits="userSpaceOnUse"><stop stop-color="#EBA790"/><stop offset="1" stop-color="#FF417D"/></linearGradient><linearGradient id="aa" x1="119.067" x2="154.105" y1="153.847" y2="153.847" gradientUnits="userSpaceOnUse"><stop stop-color="#EBA790"/><stop offset="1" stop-color="#FF417D"/></linearGradient></defs></svg>
