<svg xmlns="http://www.w3.org/2000/svg" width="1079" height="302" fill="none" viewBox="0 0 1079 302"><path fill="#fff" d="M236.938 180.626c-6.196 18.589-16.73 34.7-30.053 47.093-16.11 9.295-34.7 14.252-54.838 14.252-19.519 0-38.108-4.957-54.219-13.942-13.632-12.393-24.476-28.814-30.672-47.713-6.197-18.589-6.816-37.798-3.408-55.768 7.745-16.73 19.828-32.221 35.94-43.684 15.8-11.464 33.77-18.28 52.049-20.449 18.28 2.169 36.559 8.985 52.67 20.449 15.801 11.463 27.884 26.644 35.629 43.065 3.718 18.589 3.099 37.798-3.098 56.697Z"/><path fill="#FFC8DC" d="M215.87 65.063c-17.04.31-29.123-1.24-63.823-1.86-17.66-.31-35.01 8.676-50.501 19.83-15.8 11.153-27.264 26.024-35.01 42.445-2.788-22.927 6.507-43.995 21.688-60.106 13.322-14.252 32.531-40.276 63.823-40.276s50.811 25.715 63.823 39.966Z"/><path fill="#FFA6B2" d="M99.687 226.17c-22.307-6.506-39.967-19.519-50.81-38.728-9.605-17.04-28.194-41.516-18.59-73.118 9.605-31.602 40.277-40.277 57.627-48.642-14.871 16.11-17.66 40.587-21.378 60.106-3.408 17.35-2.478 36.249 3.408 54.218 5.887 18.28 16.42 33.771 29.743 46.164Z"/><path fill="#A3BEDC" d="M205.336 225.55c-10.224 18.59-31.292 32.222-52.669 36.249-19.209 3.718-49.572 12.083-75.287-5.267-25.715-17.35-26.025-50.191-28.504-69.4 10.844 19.209 33.151 29.124 50.811 38.728 15.491 8.675 33.461 13.632 52.67 13.632 19.209.31 37.488-4.957 52.979-13.942Z"/><path fill="#98E1D0" d="M255.837 186.512c-2.168 19.519-4.647 51.121-27.884 69.71-23.236 18.59-56.077 9.295-74.977 5.577 21.688-4.337 38.109-22.617 52.67-36.249 13.013-12.083 23.237-27.574 29.123-45.854 5.887-18.279 6.816-37.178 3.099-54.838 12.702 13.322 20.448 39.967 17.969 61.654Z"/><path fill="#EAD69F" d="M255.837 186.513c2.479-21.998-9.604-43.375-17.969-61.655-7.436-16.11-19.209-30.672-34.39-41.826-15.801-11.463-33.461-17.97-51.121-19.828 19.829-2.479 43.995-7.436 63.823 1.859 17.66 8.055 48.642 20.448 57.937 48.022 9.295 27.574-8.985 56.388-18.28 73.428Z"/><path fill="#A398D6" d="M77.38 256.842c-26.954-12.393-56.078-29.433-65.063-57.627-9.294-27.884 3.718-59.486 18.28-85.511-.62 4.648-.93 9.605-.93 14.562 0 21.687 9.915 41.826 19.52 58.866 2.478 19.209 6.196 40.587 18.588 57.937 2.789 4.337 6.197 8.055 9.605 11.773Z"/><path fill="#56B7B5" d="M227.954 256.532c-20.139 21.998-45.544 44.305-74.977 44.305-29.433 0-55.149-21.997-75.287-43.995 4.338 1.859 8.985 3.718 13.632 5.267 20.758 6.816 42.446 3.718 61.655 0 18.899 3.718 40.586 6.507 61.035 0 4.647-1.859 9.294-3.408 13.942-5.577Z"/><path fill="#80C187" d="M292.706 198.286c-8.985 28.193-37.798 45.543-64.753 58.246 3.099-3.408 6.507-7.126 9.295-11.153 12.703-17.66 16.421-39.038 18.899-58.557 9.295-17.04 18.899-36.559 18.899-58.246a121 121 0 0 0-.929-15.181c14.252 25.715 27.574 57.007 18.589 84.891Z"/><path fill="#FF7A7F" d="M152.047 25.096c-4.647.929-9.294 2.168-13.942 3.717-20.758 6.816-36.559 22.308-49.881 36.56-17.66 8.364-36.869 18.279-49.572 35.629a93.283 93.283 0 0 0-8.365 13.012c3.408-29.743 11.154-62.274 35.01-79.624 23.856-17.35 57.317-14.871 86.75-9.294Z"/><path fill="#FFB985" d="M273.807 113.085c-2.478-4.028-4.957-8.365-7.745-12.083-12.703-17.66-32.222-27.884-50.191-35.94-13.323-14.251-28.814-29.432-49.262-36.249a130.37 130.37 0 0 0-14.872-3.717c29.124-5.887 62.894-8.675 86.751 8.674 23.856 17.35 31.601 49.882 35.319 79.315Z"/><path fill="#825282" d="M30.287 114.014c-14.252 26.025-23.856 56.388-18.28 85.511-13.322-28.194-16.11-61.345-5.576-93.256C16.655 74.667 38.343 49.571 65.297 34.39c-21.688 19.829-31.292 49.881-35.01 79.624Z"/><path fill="#8075B3" d="M152.667 300.837c-30.982 3.718-63.204-3.718-90.468-23.237-26.955-19.518-43.995-47.712-50.191-78.075C24.4 226.17 50.116 244.45 77.07 257.152c20.758 21.378 46.474 40.277 75.597 43.685Z"/><path fill="#2E9C86" d="M292.706 198.286c-5.887 30.672-22.927 59.176-50.191 79.004-26.955 19.519-58.866 26.955-89.848 23.547 29.123-3.718 54.838-22.617 74.976-44.305 27.265-12.702 52.67-31.292 65.063-58.246Z"/><path fill="#549458" d="M292.706 198.286c5.577-28.813-4.027-59.176-18.589-85.201-3.718-29.433-13.632-59.486-35.32-79.314 27.265 15.18 48.952 40.276 59.486 72.188 9.914 31.602 7.436 64.443-5.577 92.327Z"/><path fill="#FF9852" d="M238.487 33.77c-25.715-14.251-57.627-14.561-86.75-8.674-29.123-5.577-61.035-5.267-86.75 9.294C87.604 13.012 118.276 0 152.047 0c33.461 0 63.823 12.703 86.44 33.77Z"/><path fill="#000" d="M364.275 205.039V96.004h12.083V205.04h-12.083ZM413.227 205.039h-11.773v-78.85h11.773v5.544c8.675-4.62 16.73-7.084 24.476-7.084 10.534 0 17.66 2.772 21.378 8.624 3.718 5.544 5.576 15.708 5.576 30.185v41.581h-11.773v-41.273c0-10.78-1.239-18.481-3.098-22.485-2.169-4.004-6.816-6.16-13.942-6.16-3.408 0-6.816.616-10.844 1.54-3.718.924-6.506 1.848-8.675 2.772l-3.098 1.54v64.066ZM526.932 136.661h-25.096v37.577c0 8.933.62 15.093 1.859 17.865 1.239 2.772 4.337 4.312 9.295 4.312l13.942-.924.929 9.856c-7.126 1.232-12.393 1.848-16.111 1.848-8.365 0-13.942-1.848-17.04-5.852-3.098-4.004-4.647-11.704-4.647-22.792v-41.89h-11.154v-10.164h11.154v-24.024h11.773v24.024h25.096v10.164ZM595.402 195.183l4.647-.616.31 9.24c-12.083 1.54-22.307 2.464-30.982 2.464-11.463 0-19.519-3.388-24.166-9.856-4.648-6.468-7.126-16.633-7.126-30.493 0-27.721 11.154-41.273 33.151-41.273 10.534 0 18.589 3.08 23.856 8.932 5.267 5.852 8.056 15.4 8.056 28.029l-.62 8.932h-52.36c0 8.624 1.549 15.092 4.647 19.405 3.099 4.312 8.675 6.16 16.421 6.16 8.055 0 16.111-.308 24.166-.924Zm-4.338-34.189c0-9.548-1.549-16.325-4.647-20.329-3.098-4.004-8.055-5.852-15.181-5.852-7.126 0-12.393 2.156-15.801 6.16-3.408 4.312-5.267 10.781-5.577 20.021h41.206ZM621.427 205.039v-78.85H633.2v10.78c9.295-6.16 18.899-10.472 29.123-12.32v12.012c-4.337.924-8.984 2.156-13.942 4.004-4.957 1.848-8.365 3.388-11.153 4.62l-4.028 2.156v57.906h-11.773v-.308ZM677.195 205.039V92h11.773v113.039h-11.773ZM766.734 195.183l4.647-.616.31 9.24c-12.083 1.54-22.307 2.464-30.982 2.464-11.464 0-19.519-3.388-24.166-9.856-4.648-6.468-7.126-16.633-7.126-30.493 0-27.721 11.153-41.273 33.151-41.273 10.534 0 18.589 3.08 23.856 8.932 5.267 5.852 8.055 15.4 8.055 28.029l-.619 8.932H721.5c0 8.624 1.549 15.092 4.647 19.405 3.098 4.312 8.675 6.16 16.421 6.16 8.055 0 16.11-.308 24.166-.924Zm-4.338-34.189c0-9.548-1.549-16.325-4.647-20.329-3.098-4.004-8.056-5.852-15.181-5.852-7.126 0-12.393 2.156-15.801 6.16-3.408 4.312-5.267 10.781-5.577 20.021h41.206ZM853.484 92v113.039H841.71v-5.236c-8.055 4.62-16.11 6.776-24.166 6.776-4.337 0-8.055-.616-11.153-1.54-3.098-.924-6.197-3.08-8.985-5.544-5.577-5.544-8.675-16.017-8.675-31.417 0-15.4 2.479-26.181 7.746-32.957 5.266-6.776 13.632-10.164 25.405-10.164 6.196 0 12.703.616 19.519 2.156V92h12.083Zm-40.897 102.875c1.859.616 4.338 1.232 7.436 1.232s6.506-.616 10.224-1.54 6.816-1.848 8.675-2.772l3.098-1.54v-53.286c-6.816-1.232-13.012-1.848-18.899-1.848-8.055 0-13.632 2.464-16.73 7.7-3.098 5.236-4.647 12.937-4.647 23.717 0 12.32 1.858 20.329 5.576 24.641 1.549 1.848 3.099 3.08 5.267 3.696ZM907.083 242c-12.703 0-21.378-1.848-26.645-5.236-4.957-3.388-7.436-9.548-7.436-18.789 0-4.312.93-7.7 2.789-10.472 1.859-2.772 5.267-5.544 9.604-8.932-3.098-1.848-4.337-5.544-4.337-10.78 0-1.849 1.239-5.237 4.027-9.857l1.549-2.464c-8.365-3.696-12.392-11.704-12.392-23.716 0-17.865 9.914-26.797 29.742-26.797 4.958 0 9.915.616 13.942 1.54l2.479.616 23.546-.616v10.164l-15.181-.308c3.408 3.388 5.267 8.624 5.267 15.709 0 9.856-2.478 16.632-7.436 20.636-4.957 4.004-12.702 5.852-23.236 5.852-2.789 0-5.577-.308-7.746-.616-1.859 4.62-2.788 7.7-2.788 8.933 0 3.388.929 5.236 3.098 6.16 1.859.924 8.055 1.232 18.28 1.232 10.224 0 17.35 1.54 21.997 4.62 4.647 3.08 6.506 9.24 6.506 18.48-.31 16.325-12.083 24.641-35.629 24.641Zm-22.307-24.641c0 5.544 1.549 9.549 4.647 11.705 3.098 2.156 8.985 3.08 17.35 3.08 8.365 0 14.561-1.232 17.969-3.388 3.409-2.156 5.577-6.161 5.577-11.705 0-5.544-1.239-8.932-4.027-10.472-2.789-1.54-7.746-2.464-15.491-2.464l-17.041-.924c-3.408 2.464-5.886 4.62-7.126 6.468-1.239 2.464-1.858 4.62-1.858 7.7Zm1.239-65.605c0 6.16 1.549 10.472 4.337 13.244 2.789 2.772 7.436 4.004 13.942 4.004s11.154-1.232 13.632-4.004c2.789-2.772 4.028-7.084 4.028-13.244 0-6.161-1.239-10.781-4.028-13.245-2.788-2.772-7.435-4.004-13.632-4.004-6.506 0-11.153 1.232-13.942 4.004-3.098 2.464-4.337 7.084-4.337 13.245ZM1011.8 195.183l4.65-.616.31 9.24c-12.08 1.54-22.307 2.464-30.983 2.464-11.463 0-19.518-3.388-24.166-9.856-4.647-6.468-7.126-16.633-7.126-30.493 0-27.721 11.154-41.273 33.151-41.273 10.534 0 18.594 3.08 23.854 8.932 5.27 5.852 8.06 15.4 8.06 28.029l-.62 8.932h-52.361c0 8.624 1.549 15.092 4.647 19.405 3.098 4.312 8.675 6.16 16.42 6.16 8.056 0 16.114-.308 24.164-.924Zm-4.33-34.189c0-9.548-1.55-16.325-4.65-20.329-3.101-4.004-8.058-5.852-15.184-5.852-7.125 0-12.392 2.156-15.8 6.16-3.409 4.312-5.268 10.781-5.577 20.021h41.211ZM1037.83 205.039v-78.85h11.77v10.78c9.3-6.16 18.9-10.472 29.12-12.32v12.012c-4.33.924-8.98 2.156-13.94 4.004-4.95 1.848-8.36 3.388-11.15 4.62l-4.03 2.156v57.906h-11.77v-.308Z"/></svg>