<svg xmlns="http://www.w3.org/2000/svg" xml:space="preserve" id="Layer_1" x="0" y="0" version="1.1" viewBox="0 0 100 100" height="100" width="100"><style>.st3{opacity:.67}.st4{fill:#fa6b37}</style><g id="Layer_2_1_"><g id="Layer_1-2"><g id="Group_1276"><path id="Rectangle_391" fill="#ff9d7a" d="M10.8 27h61c3.3 0 6 2.7 6 6v34c0 3.3-2.7 6-6 6h-61c-3.3 0-6-2.7-6-6V33c0-3.3 2.7-6 6-6z"/><g id="Group_333" opacity=".68"><g id="Group_211-3"><g id="Group_210-3"><path id="Path_239-3" fill="#ff6f3b" d="M93.8 60.2c-15.1-6.9-30.2 8.8-45.3 1-.3-.2-.5-.5-.5-.9V40.7c0-.6.4-1 1-1 .1 0 .3 0 .4.1 15.1 6.9 30.2-8.8 45.3-1 .3.2.5.5.5.9v19.6c0 .6-.5 1-1 1-.1 0-.3 0-.4-.1"/></g></g></g><g id="Path_420" class="st3"><path d="M15 38.8h5v22.4h-5z" class="st4"/></g><g id="Path_421" class="st3"><path d="M30 38.8h5v22.4h-5z" class="st4"/></g><g id="Path_422" class="st3"><path d="M27.3 50.5h10.3v5H27.3z" class="st4"/></g><g id="Path_423" class="st3"><path d="M12.3 42.5h10.3v5H12.3z" class="st4"/></g></g></g></g></svg>
