<svg xmlns="http://www.w3.org/2000/svg" xml:space="preserve" id="Layer_1" x="0" y="0" version="1.1" viewBox="0 0 100 100" height="100" width="100"><style>.st0{opacity:.68}.st3{fill:#543ba3}</style><g id="Layer_2_1_"><g id="Layer_1-2"><g id="Group_1277"><g id="Group_1086"><g id="Group_331" class="st0"><g id="Group_211"><g id="Group_210"><linearGradient id="Path_239_1_" x1="-4447.62" x2="-4447.62" y1="7768.148" y2="7769.148" gradientTransform="matrix(41.34 0 0 23.53 183894.516 -182782.875)" gradientUnits="userSpaceOnUse"><stop offset="0" stop-color="#634aaf"/><stop offset="1" stop-color="#593ea5"/></linearGradient><path id="Path_239" fill="url(#Path_239_1_)" d="M49.3 42.8c-13.2-6-26.4 7.7-39.6.9-.3-.1-.5-.5-.5-.8V25.8c0-.5.4-.9.8-.9.1 0 .2 0 .4.1 13.2 6 26.4-7.7 39.6-.9.3.2.5.5.5.8V42c0 .5-.4.9-.9.9 0 0-.2 0-.3-.1"/></g></g></g><g id="Group_332" class="st0"><g id="Group_211-2"><g id="Group_210-2"><linearGradient id="Path_239-2_1_" x1="-4447.62" x2="-4447.62" y1="7768.148" y2="7769.148" gradientTransform="matrix(41.34 0 0 23.53 183934.516 -182750.703)" gradientUnits="userSpaceOnUse"><stop offset="0" stop-color="#634aaf"/><stop offset="1" stop-color="#593ea5"/></linearGradient><path id="Path_239-2" fill="url(#Path_239-2_1_)" d="M89.3 75c-13.2-6-26.4 7.7-39.6.9-.3-.1-.5-.4-.5-.8V57.9c0-.5.4-.9.8-.9.1 0 .2 0 .4.1 13.2 6 26.4-7.7 39.6-.9.3.2.5.5.5.8v17.2c0 .5-.4.9-.9.9 0 0-.2 0-.3-.1"/></g></g></g><circle id="Ellipse_77" cx="59.6" cy="34" r="3.5" class="st3"/><circle id="Ellipse_79" cx="26.6" cy="66.9" r="3.5" class="st3"/><circle id="Ellipse_78" cx="72.6" cy="34" r="3.5" class="st3"/><circle id="Ellipse_80" cx="39.6" cy="66.9" r="3.5" class="st3"/><path id="Polygon_2" d="M15.1 62.9c.5-.3 1.1-.1 1.4.3.1.2.2.3.2.5v5.7c0 .6-.4 1-1 1-.2 0-.3 0-.5-.1l-4.9-2.7c-.5-.3-.7-.9-.4-1.4.1-.2.2-.3.4-.4l4.8-2.9z" class="st3"/><path id="Polygon_3" d="M83.9 31.1c0-.6.4-1 1-1 .2 0 .4 0 .5.1l4.8 3c.5.3.6.9.3 1.4-.1.1-.2.3-.4.4l-4.9 2.7c-.5.3-1.1.1-1.4-.4-.1-.1-.1-.3-.1-.5l.2-5.7z" class="st3"/></g></g></g></g></svg>
